<?xml version="1.0" encoding="utf-8"?>
<!-- Generator: Adobe Illustrator 22.1.0, SVG Export Plug-In . SVG Version: 6.00 Build 0)  -->
<svg version="1.1" xmlns="http://www.w3.org/2000/svg" xmlns:xlink="http://www.w3.org/1999/xlink" x="0px" y="0px"
	 viewBox="0 0 484.5 555" style="enable-background:new 0 0 484.5 555;" xml:space="preserve">
<style type="text/css">
	.st0{opacity:0.8;}
	.st1{fill:#202020;}
</style>
<g id="Layer_4">
</g>
<g id="Layer_2">
	<g>
		<g>
			<g>
				<g>
					<g class="st0">
						<g>
							<path class="st1" d="M402.5,278.6c1.3-51,2.1-97,2.6-144.2c0.1-9.1,0.3-18,0.4-26.9c0-1.9-0.1-3.7-0.4-5.1
								c-0.3-1.4-0.6-2.5-1.1-3.2c-0.5-0.7-1-1.4-1.9-2c-0.8-0.6-2-1.2-3.4-1.6c-2.8-0.9-6.6-1.3-10.6-1.4c-1,0-2,0-3.1,0l-3.3,0
								l-6.6,0c-8.8,0-17.6-0.1-26.4-0.1c-35.3-0.2-71.1-0.5-109.7-0.5c-38.2-0.1-73.5,0.1-110.8,0.2c-9.4-0.1-18.9-0.1-28.5-0.2
								c-4.8,0-9.6,0-14.5-0.1l-3.6,0l-0.8,0l-0.5,0c-0.2,0-0.4,0-0.6,0.1c-0.8,0.1-1.6,0.5-2,1.3c-0.2,0.4-0.3,0.8-0.4,1.2l0,0.3
								L77.5,97c0,0.5-0.1,1-0.1,1.7c-0.1,2.5-0.2,4.9-0.2,7.4C77,111,76.8,116,76.7,121c-0.3,10-0.6,20.1-1,30.2
								c-1.3,40.6-2.4,82.5-3.5,125c-0.1,3.3-0.3,8.8-0.5,14.4c0,1.4-0.1,2.8-0.1,4.2c0,0.5,0,1.1,0,1.6c0,0.3,0,0.6,0,0.9
								c0,1.2,0,2.2,0.1,2.9c1.5-0.1,2.3-0.3,2.2-0.7l1.4,0.1l0.8,0l1.9,0.1c2.6,0.1,5.1,0.2,7.7,0.2c5.1,0.2,10.3,0.3,15.4,0.5
								c10.2,0.3,20.5,0.6,30.6,0.9c20.4,0.6,40.6,1.1,60.8,1.7c40.3,1.1,80.3,1.9,120.3,2.4c16.8,0.3,33.9,0.8,51,1.4
								c8.6,0.3,17.2,0.6,25.7,0.9c2.2,0.1,4.6,0.3,7,0.9c2.4,0.5,4.9,1.4,7.1,2.6c4.4,2.4,7.8,5.7,10.8,8.8c2.4,2.5,4.7,5,7,7.5
								c2.3,2.5,4.6,5,6.9,7.5c4.6,5,9.2,10,13.8,15c4.6,5,9.1,10,13.6,15c2.3,2.5,4.5,5,6.8,7.5l1.7,1.9l1.1,1.2
								c0.4,0.4,0.8,0.9,1.2,1.3c1.5,1.8,2.7,3.8,3.1,6c0,0.6,0.1,1.1,0.2,1.7c0,0.6,0,1.1-0.1,1.7c-0.2,1.1-0.6,2.2-1.1,3.1
								c-1.1,1.9-2.8,3.5-4.8,4.7l-0.7,0.5l-0.8,0.4c-0.5,0.3-1,0.5-1.6,0.7c-1,0.5-2.3,0.9-3.1,1.1c-1.8,0.5-3.7,0.8-5.6,1
								c-6.7,0.5-13.4,0.9-20.1,1.4c-6.7,0.5-13.4,0.9-20.1,1.3c-6.7,0.4-13.4,0.9-20,1.3c-7.4,0.6-23.4,2.3-29.6,2.4
								c-36.8,1-72.3,2-107.2,2.5c-34.9,0.5-69.4,0.5-104.2-0.5c-6.8-0.3-13.3-0.5-19.5-0.8c-3.1-0.1-6.2-0.3-9.2-0.4
								c-3-0.2-6-0.3-9-0.5c-6-0.3-11.9-0.7-18-1c-6.1-0.4-12.3-0.9-18.8-1.4c-2.4,0.4-8.7-0.1-16.1-0.6c-3.5-0.3-9.9-0.9-18-1.6
								c-11.6-1.2-25.7-2.7-40.9-4.2c5.2-6.3,10.5-12.9,15.9-19.5c2-2.5,4.1-4.9,6.1-7.4c1.6-1.9,3.2-3.9,4.8-5.8
								c6.4-7.7,12.8-15.3,18.4-22.1c11.4-13.6,20.2-24,22.4-26.4c0.8-0.8-6,7.7-16.8,21.3C39.9,351,23.2,372,5.7,393.8
								c9.9,0.9,19.9,1.9,29.9,2.8c1.8,0.2,3.6,0.3,5.5,0.5c1.8,0.1,3.6,0.3,5.4,0.4c3.6,0.3,7.2,0.6,10.7,0.9
								c3.5,0.3,7,0.6,10.4,0.8c3.4,0.2,6.8,0.5,10,0.7c6.5,0.4,12.7,0.9,18.5,1.2c11.5,0.6,21.1,1.1,27.6,1.5
								c6.6,0.2,10.2,0.3,9.7,0.2c-0.9-0.1-6-0.4-13.8-0.9c-3.9-0.2-8.5-0.5-13.7-0.9c-5.1-0.3-10.7-0.6-16.7-1.1
								c-6-0.4-12.2-0.9-18.7-1.3c-6.4-0.5-13-1.1-19.5-1.6c-3.3-0.3-6.5-0.5-9.8-0.8c-3.2-0.3-6.4-0.6-9.6-0.9
								c-8.5-0.8-16.6-1.6-24.3-2.3c7.5-9.3,14.1-17.5,19.1-23.8c4.1-5,6.9-8.5,8.1-10c-9.1,11.6-17.9,22.7-26.2,33.3
								c9.2,0.8,18.1,1.5,26.8,2.3c7,0.6,13.9,1,20.5,1.5c13.4,1,26.1,1.7,38.1,2.4c6,0.3,11.9,0.6,17.6,0.9
								c5.7,0.3,11.2,0.6,16.6,0.7c10.8,0.4,20.9,0.8,30.5,1c38.3,1,66.9,0.9,87.6,0.6c41.3-0.7,50.5-1.4,40.2-1.1
								c-5.2,0.1-15.2,0.2-28.6,0.4c-6.7,0-14.2,0.1-22.4,0.2c-8.2,0-17,0-26.2-0.1c-9.3,0-19-0.2-28.9-0.4
								c-9.9-0.2-20.1-0.5-30.4-0.7c-10.2-0.4-20.5-0.7-30.7-1.1c-5.1-0.2-10.1-0.5-15.1-0.7c-5-0.2-9.9-0.5-14.7-0.7
								c-9.4-0.7-20.3-1.3-32.8-2.3c-6.3-0.5-13-0.9-20.1-1.5c-8.1-0.7-16.8-1.4-25.9-2.2c6.9-8.7,14.3-18,22.2-27.9
								c-5.7,7.4-13.1,17.1-21,27.4c7.6,0.5,15.4,1,23,1.6c6.9,0.5,13.6,0.8,19.8,1.1c12.3,0.7,22.4,1.2,27.2,1.4
								c31.5,1.8,44.9,1.9,59.4,2.3c7.2,0.2,14.7,0.4,24.9,0.7c10.2,0.4,23.1,0.6,41.1,1.1c29.5,0.6,69.7,0.3,108.7-1.3
								c39-1.5,76.9-4.2,102-6.2c-6.5,0.7-15.2,1.7-25.2,2.6c-5,0.4-10.3,0.9-15.9,1.4c-2.8,0.2-5.6,0.5-8.4,0.7
								c-2.9,0.2-5.8,0.4-8.7,0.6c-5.8,0.4-11.8,0.8-17.7,1.2c-5.9,0.3-11.8,0.6-17.6,0.9c-2.9,0.1-5.8,0.3-8.6,0.4
								c-2.8,0.1-5.6,0.2-8.3,0.3c-5.4,0.2-10.6,0.3-15.4,0.3c42-0.2,65.8-2,90-4.2c6-0.6,12.1-1,18.5-1.7
								c6.4-0.6,13.1-1.3,20.4-1.9c7.3-0.7,15.2-1.4,24-2.2c2.2-0.2,4.4-0.4,6.7-0.6c1-0.1,2-0.3,3-0.5c0.5-0.1,1-0.3,1.5-0.4
								l0.5-0.2l0.5-0.2c0.7-0.3,1.3-0.6,1.9-1c0.6-0.4,1.2-0.9,1.6-1.6c0.4-0.6,0.6-1.4,0.5-2.2c-0.1-0.8-0.4-1.5-0.9-2.1
								c-0.4-0.5-0.8-0.9-1.2-1.4c-0.6-0.7-1.2-1.3-1.9-2c-1.5-1.6-3.1-3.2-4.7-4.9c-3.2-3.4-6.6-6.9-10.1-10.6
								c-6.5-7.3-12.7-14.1-20.4-22.7c-3.1-3.3-6.1-6.6-9.1-9.9c-3-3.3-5.9-6.5-8.9-9.1c-1.5-1.3-3.1-2.3-4.7-3.1
								c-1.6-0.8-3.2-1.3-5.1-1.6c-1.8-0.3-3.8-0.5-5.9-0.5c-2.1,0-4.3-0.1-6.4-0.1c-17.2-0.2-34.1-0.5-50.9-0.7
								c-33.7-0.5-67.2-1-102.7-1.9c6.1,0.1,9.9,0.8,16.2,1c30.6,1.2,58.8,1.7,87.5,2.1c14.4,0.2,28.8,0.4,43.8,0.6
								c3.7,0.1,7.5,0.1,11.3,0.2c3.7,0.1,7,0.3,9.8,1.3c2.7,0.9,5.3,2.8,7.9,5.2c1.3,1.2,2.6,2.6,3.9,4c1.3,1.5,2.7,2.9,4.1,4.4
								c8.3,9.2,20.7,21.2,29.6,30.9c4.5,4.9,8.9,9.7,13.2,14.4c1,1.1,2,2.2,2.9,3.3c0.6,0.6,1.1,1.2,1.5,2c0.4,0.7,0.5,1.6,0.4,2.4
								c-0.2,0.8-0.7,1.5-1.3,2c-0.6,0.5-1.3,0.9-2.1,1.2c-0.4,0.1-0.7,0.3-1.1,0.4c-0.6,0.2-1.2,0.3-1.8,0.4
								c-0.6,0.1-1.2,0.2-1.9,0.3l-0.9,0.1l-1.1,0.1l-4.6,0.3c-6.1,0.4-12.2,0.8-18.4,1.1c6.2-0.6,12.4-1.2,18.8-1.8
								c1.6-0.1,3.2-0.3,4.8-0.4c0.2,0,0.4,0,0.5-0.1l0.5-0.1c0.3,0,0.6-0.1,1-0.2c0.6-0.1,1.3-0.3,1.9-0.4c0.3-0.1,0.6-0.2,0.9-0.3
								l0.3-0.1c0.1,0,0.2,0,0.2-0.1c0.3-0.1,0.6-0.3,0.9-0.4c0.6-0.3,1.1-0.7,1.5-1.2c0.4-0.5,0.6-1.2,0.5-1.9
								c-0.1-0.7-0.5-1.2-0.9-1.7c-1.9-2-3.7-4-5.6-6c-4.6-5-9.3-10-13.9-15c-9.3-10.1-18.7-20.3-28.1-30.4c-2.4-2.6-4.6-5-6.8-7
								c-2.2-2-4.4-3.5-6.7-4.3c-2.2-0.8-5-1.2-8.1-1.3c-1.6-0.1-3.2-0.1-4.9-0.1c-1.7,0-3.4-0.1-5-0.1c-11.1-0.1-24.5,0.3-33.1,0.5
								c12.3,0.3,24.7,0.5,37.1,0.8l4.6,0.1c1.5,0,2.8,0.1,4.1,0.2c1.3,0.1,2.4,0.3,3.5,0.6c1,0.3,1.9,0.6,2.9,1.1
								c1.9,0.9,3.8,2.4,5.7,4.3c1.9,1.9,4,4.1,6.1,6.4c7.4,7.9,15.1,16.2,23,24.6c7.8,8.3,15.9,16.8,24,25.4c0.3,0.3,0.7,0.6,0.9,1
								c0.3,0.4,0.5,0.8,0.4,1.3c0,1-0.9,1.7-1.7,2.1c-0.2,0.1-0.4,0.2-0.7,0.3l-0.4,0.2c-0.3,0.1-0.5,0.2-0.8,0.2
								c-1.1,0.3-2.3,0.5-3.4,0.7l-8.9,0.8c-6,0.5-11.9,1.1-17.8,1.6c-5.9,0.5-11.8,0.9-17.7,1.4c-46.8,3.7-90.8,5.3-122.1,4.8
								c-1.9,0.1-3.7,0.1-7.4,0.3c-0.9-0.1-2.2-0.1-3.7-0.1c-12.1,0.2-26.7,0-39.8-0.4l16.8,0.1c5.6,0,11.2,0.1,16.8,0
								c5.5-0.2,11-0.3,16.5-0.5c5.6-0.1,11.1-0.4,16.8-0.6c5.6-0.2,11.3-0.4,17-0.6c5.7-0.2,11.5-0.5,17.2-0.7
								c5.8-0.2,11.6-0.5,17.4-0.8c5.8-0.3,11.7-0.6,17.6-0.9c5.9-0.3,11.8-0.7,17.7-1c3-0.2,5.9-0.3,8.9-0.5c3-0.2,5.9-0.4,8.9-0.6
								c6-0.4,11.9-0.8,17.9-1.2c6-0.5,12-1,18-1.4l9-0.7c0.9-0.1,1.2-0.1,1.8-0.2c0.5-0.1,1.1-0.2,1.6-0.3c0.5-0.1,1.1-0.3,1.5-0.4
								c0.1,0,0.3-0.1,0.4-0.2c0.6-0.3,1.2-0.7,1.3-1.3c0.1-0.3,0-0.6-0.2-0.9c-0.2-0.3-0.4-0.5-0.6-0.7c-8-8.6-16-17.2-23.9-25.8
								c-8.2-8.8-16.4-17.5-24.5-26.2c-3.6-3.8-7.3-7.7-11.1-9.3c-1.8-0.8-4.2-1.2-7.3-1.4c-1.5-0.1-3.2-0.1-5-0.2
								c-1.7-0.1-3.5-0.1-5.2-0.2c-14-0.5-28-1-38.6-1c-62-0.5-126.8-2.1-189-4.2c-14.3-0.4-28.6-0.9-42.8-1.3
								c-7.1-0.2-14.3-0.4-21.4-0.7l-10.7-0.3c-5.5-0.2-11-0.3-16.6-0.5l0.5-14.8L61,287l0.7-18.4c0.4-12.2,0.9-24.5,1.3-36.7
								c0.9-24.5,1.8-48.9,2.7-73.3c0.5-12.2,0.9-24.4,1.4-36.6c0.2-6.1,0.5-12.2,0.7-18.3l0.2-4.6l0.1-2.3l0.1-1.3
								c0-0.5,0.1-1,0.2-1.5c0.3-2,0.9-4,2.1-5.6c1.1-1.6,2.8-2.9,4.6-3.6c0.9-0.4,1.9-0.6,2.9-0.7c0.5-0.1,1-0.1,1.5-0.2l0.7,0
								l0.6,0c1.7,0,3.1,0,4.7,0l9.1,0.1c6.1,0,12.2,0.1,18.3,0.1c12.2,0.1,24.3,0.2,36.5,0.3c48.6,0.4,97,0.9,145.3,1.3
								c24.1,0.2,48.2,0.5,72.3,0.7c6,0.1,12,0.1,18,0.2c3,0,5.9,0.1,8.8,0.5c2.9,0.3,5.7,0.9,8.3,1.9c2.6,1,4.9,2.4,6.6,4.4
								c1.7,1.9,2.8,4.4,3.3,7c0.5,2.7,0.6,5.5,0.5,8.4l-0.3,8.9c-0.1,5.1-0.1,10.2-0.2,15.3c0.2-2.2,0.3-4.4,0.5-6.6
								c-0.2,4.8-0.4,9.6-0.6,14.3c-0.4,28.2-1.1,55.9-2.3,83.4c-0.7,11.2,0.3-19.9-0.1-28.5c-0.2,6.2-0.4,12.5-0.4,12.5
								s-0.3-1.2-0.5-2.4c0.1,4.8-0.4,7.6-0.6,11c0.5-30.6,1-61.3,1.5-92.1l0.2-11.5c0.1-3.9,0.2-7.5-0.3-10.7
								c-0.2-1.6-0.6-3-1.2-4.2c-0.3-0.6-0.6-1.2-0.9-1.7c-0.4-0.5-0.8-1-1.2-1.5c-0.9-0.9-2-1.7-3.3-2.3c-1.3-0.6-2.8-1.1-4.4-1.5
								c-3.2-0.7-6.7-1-10.4-1.1c-0.9,0-1.8,0-2.8,0l-2.9,0l-5.8,0c-7.7,0-15.5,0.1-23.2,0.1c3.5,0.4,9.9,0.5,16.5,0.5
								c3.3,0,6.6,0,9.7,0c3,0,5.9,0,7.9,0c4.8,0,9.5,0.3,13.2,1.6c3.8,1.3,6.1,3.3,7.3,6.4c0.6,1.6,1,3.5,1.1,5.6
								c0.2,2.1,0.1,4.4,0.1,6.8c-0.1,4.9-0.2,9.7-0.4,14.3c-0.7,52.1-3,105.9-4.3,156.1c-0.4,9.3-0.8,18.5-1.3,27.4
								C402.4,320.7,401.9,297.2,402.5,278.6z M91.2,309c-9.2-0.4-18.2-0.8-27.3-1.2c0.2-5,0.5-10.1,0.7-15.2
								c0.2-4.3,0.5-8.7,0.7-13.1c0.2-6.1,0.4-12.1,0.6-18.3c0.3-7.5,0.5-15.7,0.6-24.1c1.3-32.6,2.6-64.9,3.9-97.5
								c-2,32.5-3.8,66.4-5.1,107.4c1.4-53,3.4-102.2,5.5-150.4c0.1-1.5,0.3-3.1,0.8-4.6c0.5-1.5,1.4-2.8,2.7-3.7
								c1.3-0.9,2.8-1.3,4.3-1.5c1.5-0.2,3-0.2,4.5-0.1c6,0.1,12,0.2,18,0.3c12,0.2,23.9,0.4,35.9,0.6c23.9,0.4,48,0.7,72.4,1.1
								c29.6,0.1,59.6,0.1,90.2,0.1c21.6-0.1,42.7-0.3,63.6-0.6C278.3,87.8,194,87,109.7,86.2L93.9,86L86,86l-4,0c-0.7,0-1.3,0-2,0
								c-0.7,0-1.5,0.1-2.2,0.2c-1.4,0.2-2.9,0.7-4.1,1.6c-1.2,0.8-2.1,2.1-2.7,3.4c-0.6,1.4-0.9,2.8-1,4.3c-0.1,1.4-0.2,2.7-0.2,4
								l-0.6,15.8c-0.8,21.1-1.7,42.2-2.5,63.2c-0.8,21.1-1.6,42.2-2.5,63.4c-0.4,10.6-0.8,21.1-1.2,31.7
								c-0.2,5.3-0.4,10.6-0.6,15.9c-0.2,6.8-0.5,13.5-0.7,20.3c48.1,1.5,96.4,2.9,145,4.4c47.1,1.4,94.4,2.6,142.1,3.7
								C262,314.9,178.2,312,91.2,309z M122.8,308.8c34.7,0.8,69.1,1.6,103,2.2c46.1,1.1,94.4,2.1,138.6,2.8
								c5.5,0.1,11,0.2,16.4,0.2c2.7,0,5.4,0.1,8,0.1c2.6,0.1,5.1,0.3,7.4,0.8c4.6,1,8.4,4,11.9,7.4c1.7,1.7,3.4,3.5,5.1,5.3
								c1.7,1.8,3.4,3.6,5,5.3c13.3,14,25.4,26.6,35.8,37.3c-13.9-14.8-27.9-29.8-42.1-44.9c-3.5-3.7-7.1-7.4-11.5-9.6
								c-4.3-2.2-9.4-2.3-14.6-2.4c-10.4-0.1-20.9-0.3-31.5-0.4c-42.1-0.6-85-1.2-128.6-2c82.8,1.9,23,0.4-88.2-2
								C135.1,309,129.6,308.9,122.8,308.8z"/>
							<path class="st1" d="M308.9,85c19.1,0.4,38.4,0.7,57.7,1.1c4.8,0.1,9.6,0.2,14.5,0.3c4.8,0.1,9.6,0.1,14.2,0.8
								c4.6,0.7,9,2.1,12.2,5c1.5,1.4,2.8,3.1,3.5,5.1c0.8,1.9,1.2,4.1,1.3,6.3c-0.1-3.4-0.7-6.6-2.4-9.2c-1.6-2.7-4.3-4.7-7.4-6.1
								c-3.1-1.4-6.7-2.1-10.5-2.6c-3.8-0.5-7.8-0.5-12.1-0.7c-46.3-1.3-98.5-1.1-147.1-1.8c-30.4-0.4-61-0.8-91.9-1.1
								c-15.5-0.1-31-0.3-46.5-0.4c-3.9,0-7.8-0.1-11.7-0.1l-1.6,0l-0.9,0c-0.3,0-0.7,0-1.1,0.1c-1.5,0.1-3,0.4-4.5,0.9
								c-1.4,0.5-2.8,1.2-3.9,2.2c-1.2,1-2.1,2.1-2.9,3.4c-0.7,1.3-1.2,2.8-1.6,4.3c-0.2,0.8-0.3,1.5-0.4,2.3l-0.1,0.6l0,0.5
								l-0.1,0.9l-0.2,6c-0.1,3.9-0.3,7.8-0.4,11.8c-1.1,31.4-2.2,63-3.3,94.8c-0.5,15.9-1,31.9-1.5,47.9c-0.2,8-0.5,16-0.7,24.1
								c-0.3,10.5-0.6,21.1-0.9,31.7c21.7,0.5,43.7,1,65.7,1.6c7.3,0.2,23.6,0.7,35.8,0.7c-34.1-1-67.8-1.9-100.8-2.9
								c0.6-19.6,0.8-25.4,1.1-35.7c0.3-9.6,0.7-19.1,1-28.7c0.7-19.1,1.3-38.1,2-57c0.7-18.9,1.3-37.8,2-56.6
								c0.3-9.4,0.7-18.8,1-28.2l0.3-7l0.1-1.8l0.1-1c0-0.3,0-0.6,0.1-1.1c0.2-1.7,0.5-3.4,1.2-5c0.6-1.6,1.6-3,2.8-4.1
								c1.2-1.1,2.8-2,4.4-2.5c1.6-0.5,3.4-0.7,5-0.8c1.4-0.1,2.6,0,3.7,0C159,83.2,233.6,83.9,308.9,85z"/>
							<path class="st1" d="M396.3,322.8c1.7,0.7,3.7,2.1,5.7,4c1,1,2.1,2,3.2,3.2l3.5,3.7c4.7,5,9.3,9.9,13.9,14.9
								c9.2,9.9,18.3,19.7,27.1,29.3c-7.8-8.9-17.2-19.4-26.8-30c-4.8-5.3-9.7-10.6-14.4-15.9c-2.4-2.7-4.6-5.1-6.7-6.9
								c-2.1-1.8-4-3.1-5.8-3.7c-2.5-0.9-6.3-1.1-10.9-1.2l-13.8-0.2c-9.2-0.2-18.3-0.3-27.5-0.5c-18.3-0.3-36.5-0.7-54.6-1
								c18.1,0.6,36.3,1.2,54.8,1.8c9.2,0.3,18.5,0.5,27.9,0.8c4.7,0.1,9.4,0.2,14.1,0.4c2.3,0.1,4.4,0.1,6.1,0.4
								C393.9,321.9,395.2,322.3,396.3,322.8z"/>
							<path class="st1" d="M160,315.2c7.5,0.2,15,0.4,22.6,0.7c34.8,1,70.5,1.8,106.7,2.6c-38.2-1.4-76-2.7-114.3-4.1
								C175,315,168.5,315.2,160,315.2z"/>
						</g>
					</g>
				</g>
			</g>
		</g>
	</g>
</g>
<g id="Layer_3">
	<g>
		<g>
			<g>
				<g>
					<g class="st0">
						<g>
							<path class="st1" d="M105.1,94.4c27.7,0.6,52.7,0.9,78.3,0.8c39.8,0.1,75.6,1.9,117.5,2.7c20.7,0.5,39.9,0.7,60.1,0.9
								c5.1,0.2,10.2,0.3,15.4,0.5c1.3,0,2.6,0.1,3.9,0.1l2,0.1l1.2,0.1c0.6,0,1.1,0.1,1.7,0.1c2.2,0.3,4.3,0.8,6.2,1.9
								c1.9,1.1,3.5,2.6,4.6,4.4c1.1,1.8,1.8,3.9,2.2,6.1c0.2,1,0.3,2.3,0.3,3c0,0.8,0,1.6,0,2.3c0,2.7-0.1,5.4-0.1,8.1
								c-0.1,5.4-0.2,10.9-0.2,16.4c-0.3,22-0.5,44.8-0.5,67.9c-0.1,5-0.5,19.6,0.8,18.2c-0.2,11.2-0.4,22.3-0.7,33.4
								c-0.1,2.8-0.1,5.5-0.2,8.3l-0.1,4.2c0,2.1-0.1,4.3-0.6,6.3c-0.5,2-1.5,3.8-3,5.2c-1.5,1.4-3.4,2.3-5.3,2.7
								c-1,0.2-2,0.3-3.1,0.4c-0.5,0-1,0-1.6,0.1l-1.4,0l-4.1,0c-21.9,0.2-43.6,0.5-65.3,1.3c-18.2,0.5-37.2-0.3-55.4,0.2
								c-29.6,1-58.8,0.2-87.7,1c-4,0.3-12.7,1.2-16.1,1.1c-10-0.1-19.8-0.1-29.4,0.1c-4.8,0.1-9.6,0.2-14.4,0.4l-3.6,0.1
								c-0.6,0-1.3,0-1.9,0c-0.3,0-0.7,0-1,0c-0.4,0-0.8,0-1.3-0.1c-1.7-0.2-3.3-0.5-4.9-1.2c-1.5-0.7-2.9-1.8-3.9-3.1
								c-1-1.3-1.8-2.9-2.3-4.5c-0.6-1.8-0.8-2.9-1-4.1c-0.5-2.3-1-4.6-1.6-6.9c-1.1-4.6-2-9.3-2.9-13.9c-1.8-9.3-3.5-18.6-4.8-28
								c-2-14.8-3.3-26.3-4-40.6c-0.6-1.3-0.8-4.7-1.1-8.8c0-1.4-0.1-3.5-0.1-6.2c0-1.4,0-2.8-0.1-4.5c0-1.6,0-3.3,0-5.2
								c0-1.8,0-3.7,0-5.7c0-2,0.1-4,0.2-6.1c0.1-4.2,0.3-8.5,0.5-12.8c0.2-4.3,0.5-8.5,0.8-12.5c0.3-4,0.7-7.7,0.9-11
								c0.7-6.6,1.3-11.4,1.6-12.7c0.1-0.3,0,1.3-0.2,4.3c-0.2,3-0.5,7.5-0.7,13c-0.5,11-0.9,25.8-0.6,40.7
								c0.3,14.9,1.1,29.7,2.1,40.7c0.5,5.5,1,10,1.4,13.1c0.4,3.1,0.6,4.7,0.7,4.5c0-1.4-2.1-21-2.8-41.2c-0.1-2.5-0.2-5.1-0.3-7.6
								c-0.1-2.5-0.1-5-0.2-7.4c-0.1-4.8-0.1-9.4-0.1-13.5c0-4.1,0.1-7.6,0.2-10.3c0-2.7,0.1-4.7,0.2-5.5
								c-0.2,17.8,0.5,33.9,1.5,48.4c1,14.5,2.4,27.5,4,39c3.1,23,6.6,40.3,9.5,52.8c0.4,1.6,0.7,3.1,1,4.5c0.3,1.4,0.7,2.7,1.3,3.8
								c0.6,1.1,1.4,2,2.4,2.6c1,0.6,2,0.8,2.9,1c1.9,0.3,3.7,0.1,5.3,0.1c1.6-0.1,2.9-0.2,4-0.2c4.4-0.3,4.9-0.4,2.6-0.3
								c-1.2,0-3,0.1-5.5,0.1c-1.2,0-2.6,0.1-4.1,0.1c-1.3,0-2.8-0.2-4.3-0.9c-0.7-0.3-1.4-0.8-1.9-1.5c-0.5-0.7-1-1.4-1.3-2.3
								c-0.3-0.9-0.5-1.7-0.8-2.8c-0.2-1-0.5-2.1-0.7-3.2c-0.5-2.2-1-4.4-1.5-6.8c-0.5-2.3-1-4.8-1.5-7.3c-1-5-1.9-10.3-2.9-15.7
								c-0.9-5.4-1.8-11-2.6-16.7c-1.6-11.3-3-22.8-4-33.5c-0.8-13.4-2.7-32.5-2.1-58.7c0.1,7.8,0.5,19.6,1.4,30.3
								c0.2,2.7,0.4,5.3,0.7,7.8c0.2,2.5,0.4,4.8,0.6,6.9c0.4,4.2,0.8,7.6,0.9,9.4c0.4,4.3,0.8,7.9,1.1,11.1
								c0.4,3.2,0.7,5.9,1.1,8.4c0.6,4.9,1.3,8.6,1.8,12.5c0.6,3.9,1.2,7.9,2,13.4c0.4,2.7,0.9,5.8,1.4,9.4c0.6,3.6,1.2,7.7,2,12.5
								c0.7,3.9,1.4,8.2,2.4,12.7c0.5,2.3,0.9,4.6,1.4,7c0.1,0.6,0.3,1.2,0.4,1.5c0.1,0.4,0.3,0.9,0.4,1.3c0.3,0.8,0.8,1.6,1.6,2.2
								c0.7,0.6,1.6,0.9,2.5,1.1c0.4,0.1,0.9,0.1,1.4,0.2c0.3,0,0.4,0,0.7,0l0.9,0c2.6-0.1,5.2-0.2,7.8-0.3
								c5.3-0.2,10.6-0.4,15.9-0.7c21.2-0.9,41.8-1.9,55.5-2.3c-14.2,1.3-47.5,4.3-68.4,4.4c45.6,0.3,51.7-3.8,99.2-4.4
								c4.4-0.1,9.6-0.3,15.1-0.6c5.3,0,10.3,0.1,16.6,0.1c39.1-0.7,73.4-2.3,111.9-2.7c-3.3,0.1-5.4-0.5-8.8-0.6
								c-33.2-0.5-61.4,1.5-96.5,1.8c-6.7,0-16.1,1.1-23.2,1.3c-14.5,0.3-27.3-0.1-40.8-0.2c26.9-1.4,58.6-1.8,87.6-2.5
								c6-0.2,13.3-1,17.9-1.5c-13.4,0.2-26.8,0.4-40.3,0.7c-47.2,1.2-108.7,5.4-142.8,4.3c-1,0.1-2,0.1-4,0.3
								c-0.5-0.1-1.3-0.1-2-0.1c-0.4,0-0.7,0-1.1,0l-0.5,0l-0.3,0c-0.3,0-0.7-0.1-1-0.2c-0.7-0.2-1.3-0.6-1.7-1.3
								c-0.2-0.3-0.3-0.7-0.4-1c0-0.2-0.1-0.3-0.1-0.6l-0.2-1.2c-0.3-1.8-0.5-3.6-0.8-5.4l0.8,4.4c0.1,0.8,0.3,1.5,0.4,2.1
								c0.1,0.3,0.1,0.5,0.2,0.8c0.2,0.5,0.5,1,0.9,1.3c0.4,0.3,1,0.5,1.5,0.6l1.1,0l2-0.1c1.5-0.1,3-0.2,4.5-0.3
								c3-0.2,6.1-0.3,9.1-0.5c6.1-0.3,12.4-0.6,18.7-0.8c12.6-0.5,25.5-0.8,38.5-1.1c26-0.6,52.5-1,78.3-1.9
								c11.4-0.5,30.4,0.2,41.9-0.3c16.8-0.7,34-1.1,51.2-1.3c8.6-0.1,17.2-0.2,25.8-0.2c2.1,0,4.3,0,6.4,0l1.5,0l0.4,0
								c0.3,0,0.5,0,0.8,0c0.6-0.1,1-0.5,1.2-1c0.1-0.3,0.1-0.5,0.2-0.8l0-0.4l0-1.5c0.7-30.5,1.4-61,2.1-91.4
								c0.4-15.2,0.7-30.4,1.1-45.6l0.3-11.4l0.1-5.7c0-0.9,0-1.8,0-2.7l0-0.6c0-0.1,0-0.3,0-0.5c0-0.3-0.1-0.6-0.1-0.9
								c-0.2-1.2-0.7-2.5-1.7-3.3c-1-0.8-2.3-1.2-3.6-1.3l-0.5,0l-0.6,0l-1.4-0.1l-2.8-0.1l-5.7-0.2c-60.5-2-120.6-4.2-180.2-6.6
								c-2.8,0-5.6,0-8.3,0c1.2,0.1,2.4,0.3,3.6,0.4c-2.6-0.1-5.2-0.3-7.8-0.4c-15.3-0.1-30.4-0.4-45.2-1.3
								c-6.1-0.5,10.8,0.1,15.5-0.4c-3.4-0.1-6.8-0.2-6.8-0.2s0.6-0.3,1.3-0.6c-2.6,0.1-4.1-0.3-6-0.5c33.2,0.2,66.6,0.5,100.2,0.7
								c-3.8-0.8-13.8-0.8-18.5-0.9C209.2,99,198.1,99,188,98.7c-28.3-0.1-57.5-1.7-84.7-2.3c-5-0.3-10-0.6-14.9-0.9
								C82.2,94.9,95,94.1,105.1,94.4z M389.3,239.5c0.4-9.3,0.9-18.3,1.4-27.7c0.1-3.3,0.1-6.6,0.2-9.9c0.1-4.1,0.1-8.5,0-13.1
								c0.5-17.7,1-35.3,1.6-52.9c-1.2,17.7-2.2,36-2.6,58.3c0.1-14.4,0.3-28.3,0.7-41.8c0.2-6.8,0.4-13.5,0.6-20.1
								c0.1-3.3,0.2-6.6,0.3-9.9c0.1-1.6,0.1-3.3,0.2-4.9c0-0.8,0-1.6,0-2.4c0-0.8-0.1-1.6-0.2-2.3c-0.3-1.5-0.8-3.1-1.9-4.3
								c-1.1-1.2-2.6-1.8-4.2-2.2c-1.6-0.3-3.2-0.4-4.8-0.5l-4.9-0.2c-6.5-0.3-13-0.6-19.5-1c-13-0.6-26-1.2-39.3-1.8
								c-16.1-0.4-32.3-0.8-48.9-1c-11.7-0.1-23.2-0.1-34.5-0.1c35.7,1.1,71.1,2.4,106.6,3.7l26.6,1l13.3,0.5c1.1,0,2.2,0.1,3.3,0.2
								c1,0.1,2,0.2,2.9,0.5c0.9,0.3,1.8,0.8,2.5,1.4c0.7,0.7,1.2,1.5,1.6,2.4c0.7,1.9,0.7,3.7,0.7,5.9l-0.2,6.6l-0.4,13.3
								c-0.3,8.9-0.5,17.7-0.8,26.6c-1,35.5-1.9,71.2-2.7,107l-0.1,3.1c0,0.5,0,1-0.1,1.4c-0.1,0.5-0.2,0.9-0.5,1.3
								c-0.3,0.4-0.7,0.6-1.1,0.8c-0.4,0.1-0.9,0.2-1.4,0.2c-0.5,0-0.6,0-2,0l-6.7,0c-9,0-18,0.1-27,0.1
								c-18.1,0.1-36.2,0.3-54.4,0.5c23.6,0.3,46.7,0.4,69.9,0.6c5.8,0,11.6,0.1,17.4,0.1l2.1,0l1.2,0c0.8,0,1.6-0.1,2.4-0.4
								c0.7-0.4,1.3-1.1,1.5-1.8c0.3-0.8,0.3-1.6,0.4-2.5C388.6,262.8,389,251.2,389.3,239.5z M390.2,256.7c0,4.7-0.1,9.4-0.1,14.1
								l0,3.4c0,0.9,0,1.8-0.1,2.7c-0.1,0.9-0.4,1.8-0.9,2.5c-0.5,0.7-1.3,1.2-2.2,1.4c-0.9,0.2-1.7,0.3-2.6,0.3l-3.1,0.1
								c-2.3,0-4.6,0.1-7,0.1c-4.6,0.1-9.2,0.2-13.8,0.3c-50.1,0.7-104.8,1.5-137.1,4.1c44.1-1.6,89.8-3.1,137.1-4.1
								c-22.5,0.3-25.6,0.4-15.6,0.3c5-0.1,13.3-0.2,24.2-0.3c2.7,0,5.6-0.1,8.6-0.1c1.5,0,3,0,4.6-0.1c0.7,0,1.3,0,2,0
								c0.6,0,1.3,0,1.9-0.1c1.3-0.2,2.6-0.7,3.3-1.9c0.7-1.1,0.9-2.6,0.9-3.9c0-3.4,0-6.9,0-10.6
								C390.2,263.4,390.2,260.4,390.2,256.7z"/>
							<path class="st1" d="M262.9,105.7c-20.8-1.1-41.9-2.2-62.6-3.3c7.9,1,14.8,1.9,24.1,2.6c25.1,1.8,53.4,2.1,79.8,3.3
								c18.9,0.9,38.1,1.7,57.4,2.4c4.8,0.2,9.7,0.3,14.5,0.5l3.6,0.1l1.8,0.1l0.8,0l0.4,0l0.2,0c1.1,0.1,2.2,0.4,2.8,1.3
								c0.3,0.4,0.5,0.9,0.6,1.4c0.1,0.3,0.1,0.5,0.1,0.8c0,0.3,0,0.4,0,1c0,1,0,2.1,0,3.3l-0.1,3.7c-0.1,4.9-0.2,9.8-0.3,14.7
								c-0.8,39.4-1.4,79.4-1.7,119.9c-0.1,2-0.1,5.2-0.1,8.7c0,1.8,0,3.6,0,5.4c0,0.5,0,0.9,0,1.4l0,0.7l0,0.2l0,0.1
								c0,0.2,0,0.3,0.1,0.5c0-0.1,0-0.3,0.1-0.4l0-0.1l0-0.5l0-1.2l0.1-4.8c0.1-3.2,0.1-6.4,0.2-9.5c0.1-6.3,0.2-12.7,0.3-19
								c0.2-12.6,0.5-25.1,0.7-37.6c0.5-24.9,1.1-49.6,1.6-74.1c0.1-3.1,0.1-6.1,0.2-9.2c0-0.7,0-1.4,0-2.1c0-0.7,0-1-0.1-1.4
								c-0.1-0.8-0.3-1.6-0.8-2.3c-0.5-0.7-1.2-1.2-2-1.5c-0.4-0.1-0.8-0.2-1.2-0.3c-0.2,0-0.4-0.1-0.6-0.1l-0.4,0l-0.5,0l-9.1-0.3
								c-12.2-0.4-24.4-0.9-36.7-1.3C311.9,107.8,287.4,106.8,262.9,105.7z"/>
							<path class="st1" d="M265.4,276.2c-14.8,0.5-29.6,1-43.8,1.3c12.9,0.4,30.5,0.2,44.6,0c19.9-0.5,39.8-1,59.5-1.3
								C306,275.9,286.1,275.9,265.4,276.2z"/>
							<path class="st1" d="M384.5,274.5c-0.1,0.4-0.2,0.7-0.6,0.9c-0.3,0.2-0.7,0.1-1.1,0.1c-0.1,0-0.1,0-0.2,0l-0.9,0l-1.8,0
								c-1.2,0-2.4,0-3.6,0c-2.4,0-4.8,0-7.2,0c-4.8,0-9.6,0.1-14.4,0.1c-9.7,0.2-19.4,0.3-29.2,0.5c19.6,0.2,39,0.4,58.6,0.6
								c-0.2-0.3-0.1-0.6,0.1-0.9C384.5,275.4,384.5,274.9,384.5,274.5z"/>
						</g>
					</g>
				</g>
			</g>
		</g>
	</g>
	<g>
		<path d="M143.3,142.8c0.2,2.6,0.4,6.6,0.5,12.1c0.1,6.4,0.2,10.3,0.3,11.8c0.3,6.9,0.4,13.2,0.3,19.1c-0.1,4.7-0.3,8.5-0.8,11.2
			c-0.2,1.7-0.5,3.2-0.9,4.4c-0.5,1.6-1.2,2.7-2.1,3.4c-1.7,1.3-4.2,1.7-7.6,1.4c-2.6-0.3-5.5-0.9-8.8-2c-3.1-1-5.9-2.2-8.6-3.5
			c-2.7-1.3-4.6-2.6-5.7-3.8c-2.1-2.3-3.5-5-4.2-8.1c-0.7-3.1-0.8-6.2-0.3-9.1c0.5-2.9,1.4-5.7,2.7-8.2c0.7-1.3,1.2-2.3,1.7-3
			c0.5-0.7,1.1-1.6,1.9-2.7c0.8-1.1,1.8-2,2.9-2.7c1.1-0.7,2.3-1.3,3.6-1.7c3.8-1.1,10.2-1.4,19.2-0.8c0.5,0.1,0.9,0.2,1.2,0.4v-3
			V155c-0.1-4.8-0.3-8.6-0.6-11.6c-0.1-0.7,0.1-1.4,0.6-1.9c0.5-0.6,1-0.9,1.7-0.9c0.7-0.1,1.3,0.1,1.9,0.6
			C142.9,141.6,143.2,142.2,143.3,142.8z M137.4,200.6c0.1-0.3,0.3-0.6,0.4-1c0.3-0.8,0.5-1.9,0.7-3.4c0.4-2.5,0.6-6.1,0.7-10.6
			c0.1-5.9,0-12.1-0.3-18.8c0-0.5,0-1.1-0.1-1.7c-0.5,0.4-1,0.6-1.7,0.5c-8.3-0.5-14.1-0.3-17.4,0.6c-1.4,0.4-2.6,1.2-3.6,2.4
			c-1,1.2-2.1,2.9-3.3,5.1c-1.7,3-2.5,6.4-2.4,10.2c0.1,3.8,1.2,6.9,3.4,9.2c0.7,0.7,2.1,1.7,4.4,2.8c2.3,1.2,4.8,2.2,7.6,3
			c2.9,1,5.5,1.6,7.7,1.8C135.5,201.1,136.7,201,137.4,200.6z"/>
		<path d="M195.7,201.3c-3.7,0.6-8.1,1-13.1,1.1c-2.8,0.1-5.3,0-7.4-0.3c-2.7-0.3-4.7-1-5.9-1.9c-3.7-2.7-6.4-7.1-8.1-13.2
			c-1.7-5.9-1.8-10.9-0.5-15.3c0.8-2.4,2.2-4.5,4.2-6.4c2-1.9,4.2-3.4,6.7-4.5c4.2-2.2,8.7-2.7,13.7-1.4c4.9,1.3,8.5,4.2,10.8,8.5
			c0.7,1.4,1.2,2.5,1.5,3.2c0.7,1.9,0.6,3.6-0.1,5.1c-0.8,1.7-2.9,3.1-6.2,4.1c-2.3,0.7-5.2,1.2-8.9,1.7c-4.6,0.7-9.7,1.1-15.5,1.3
			c-0.5,0-0.9-0.1-1.4-0.3c0.2,0.9,0.4,1.8,0.7,2.7c1.4,4.9,3.4,8.4,6.1,10.4c0.5,0.4,1.7,0.7,3.5,0.9c1.8,0.2,4,0.3,6.6,0.2
			c4.7-0.1,8.8-0.4,12.2-1.1c0.7-0.1,1.4,0.1,2,0.5c0.6,0.4,0.9,0.9,1,1.6c0.1,0.7-0.1,1.3-0.4,1.9
			C196.9,200.8,196.4,201.2,195.7,201.3z M165.2,178.8c0.5-0.5,1-0.7,1.6-0.7c5.6-0.2,10.6-0.6,15-1.2c3.4-0.5,6.1-1,8.1-1.6
			c0.8-0.2,1.4-0.4,1.9-0.6c0.5-0.2,0.8-0.4,0.9-0.5l0.2-0.1c0.1-0.2,0-0.6-0.2-1.2c-0.2-0.5-0.6-1.4-1.2-2.5
			c-1.6-2.9-4.1-4.9-7.6-5.8c-3.5-0.9-6.8-0.6-10.1,0.9c-1.9,1-3.6,2.2-5.1,3.6c-1.5,1.4-2.5,2.9-2.9,4.4
			C165.3,174.8,165.1,176.6,165.2,178.8z"/>
		<path d="M237.2,170.6c-4.1-1.9-7.4-3-10-3.4c-3.6-0.5-6.1,0.4-7.6,2.5c-0.4,0.5-0.6,0.9-0.6,1.2s0.1,0.7,0.4,1.3
			c0.3,0.6,0.7,1.2,1.2,1.8c0.5,0.6,0.9,1.1,1.2,1.5c0.4,0.4,1,0.9,1.8,1.5l1.7,1.3l2.2,1.4c1.1,0.8,1.9,1.3,2.2,1.5
			c1.8,1.2,3.3,2.3,4.4,3.3s2.3,2.4,3.5,4.2c1.2,1.8,2,3.8,2.3,5.9c0.3,2.4-0.7,4.4-3.2,6.1c-1.6,1.1-3.8,1.9-6.5,2.6
			c-2.3,0.6-4.6,1-7,1.2c-2.4,0.2-4.3,0.2-5.5,0c-1.1-0.3-3-1-5.8-2.2c-0.7-0.3-1.1-0.8-1.4-1.5c-0.3-0.7-0.3-1.3,0.1-1.9
			c0.3-0.6,0.8-1.1,1.4-1.3c0.7-0.3,1.3-0.3,1.9,0c2.5,1.1,4.1,1.7,4.8,1.8c0.9,0.2,2.3,0.2,4.3,0.1c2-0.2,4-0.5,5.9-1
			c2.1-0.5,3.8-1.2,4.9-1.9c0.7-0.5,1-0.8,0.9-1c-0.3-2.1-1.1-3.8-2.4-5.3s-3.1-3-5.6-4.6c-0.3-0.2-0.9-0.6-2-1.3
			c-1.1-0.7-1.8-1.2-2.3-1.5s-1.2-0.8-2.1-1.5c-0.9-0.7-1.7-1.4-2.2-1.9c-0.5-0.6-1.1-1.3-1.8-2.1c-0.7-0.8-1.2-1.6-1.6-2.4
			c-0.7-1.5-1.1-2.8-1-4.1c0.1-1.3,0.7-2.6,1.6-3.9c2.7-3.9,6.8-5.4,12.5-4.6c3.1,0.4,7,1.6,11.5,3.7c0.7,0.3,1.1,0.8,1.3,1.5
			c0.2,0.7,0.2,1.3-0.1,2c-0.3,0.7-0.8,1.1-1.4,1.3C238.5,170.9,237.9,170.8,237.2,170.6z"/>
		<path d="M265.8,165.3c-0.1,0.9-0.5,6.1-1.2,15.5c-0.7,9.4-1.1,16.6-1.1,21.5c0,0.7-0.2,1.3-0.7,1.8c-0.5,0.5-1.1,0.7-1.8,0.7
			c-0.7,0-1.3-0.2-1.8-0.7c-0.5-0.5-0.7-1.1-0.7-1.8c0-3.7,0.1-7.6,0.4-11.8c0.3-4.2,0.6-8.8,1-13.8c0.4-5,0.7-9,0.8-11.8
			c0.1-0.7,0.4-1.2,0.9-1.7c0.5-0.5,1.1-0.7,1.8-0.6c0.7,0.1,1.3,0.4,1.8,0.9C265.6,163.9,265.8,164.5,265.8,165.3z M263.7,147.5
			c0.5,0.5,0.7,1.1,0.7,1.8c0,0.7-0.3,1.3-0.7,1.8c-0.5,0.5-1.1,0.7-1.8,0.7s-1.3-0.2-1.8-0.7c-0.5-0.5-0.7-1.1-0.7-1.8
			c0-0.7,0.3-1.3,0.7-1.8c0.5-0.5,1.1-0.7,1.8-0.7S263.2,147,263.7,147.5z"/>
		<path d="M289,202.9c-0.9-1.5-1.3-3.1-1.1-4.9c0-0.5,0.1-1.1,0.2-1.8c0.1-0.7,0.2-1.2,0.2-1.4c0-0.2,0-0.7-0.1-1.4
			c0-0.2-0.2-0.6-0.7-1.3l-1.1-1.5c-0.5-0.7-0.8-1.1-0.9-1.2c-2.3-3.1-3.7-5.8-4.2-8.2c-0.4-2.5-0.2-5,0.6-7.4
			c0.8-2.4,2.1-4.4,3.8-6.1c1.7-1.7,3.6-3.1,5.8-4.3c2.2-1.2,4.4-1.9,6.6-2.2c1.9-0.3,4.4-0.3,7.6-0.1c4.3,0.3,6.6,0.4,6.9,0.4
			c0.7,0,1.3,0.2,1.8,0.7c0.5,0.5,0.7,1.1,0.7,1.8c0,0.7-0.2,1.3-0.7,1.8c-0.5,0.5-1.1,0.7-1.8,0.7h-0.4l-0.5,2.3l-1.2,6.2
			c-0.5,2.6-1,4.6-1.3,5.9c-0.2,0.9-0.4,1.7-0.6,2.2c-0.3,0.9-0.5,1.5-0.8,1.9c-0.7,0.9-1.7,1.6-2.9,2.3c-1.2,0.7-2.1,1.1-2.7,1.3
			c-0.6,0.2-1.5,0.5-2.9,0.9c-2.9,0.8-4.7,1.7-5.3,2.8c-0.5,0.8-0.4,1.7,0.2,2.8c0,0.1,0.1,0.3,0.3,0.6c0.2,0.4,0.4,0.6,0.5,0.8
			l0.5,1c0.3,0.5,0.4,0.9,0.4,1.2c0,0.3,0.1,0.7,0.2,1.3c0.1,0.6,0.1,1.1-0.1,1.6l-0.2,0.6c1.1,0.5,3.7,0.9,7.6,1.2
			c1.2,0.1,2.2,0.2,3,0.3c0.8,0.2,1.8,0.4,2.9,0.8c1.1,0.4,2.2,1,3.1,1.9c0.9,0.9,1.7,1.9,2.4,3.2c0.7,1.4,1.2,2.5,1.3,3.4
			c0.1,1.1-0.1,2.5-0.7,4c-1.2,3.3-3.9,5.8-8.1,7.6c-3.6,1.5-7.6,2.2-11.9,2.1c-2.1,0-4-0.3-5.9-0.8c-1.9-0.5-3.7-1.3-5.4-2.3
			c-1.7-1-3-2.4-4-4.2c-1-1.8-1.4-3.8-1.3-6.1c0.1-1.7,0.5-3.2,1.4-4.5c0.9-1.3,1.7-2.3,2.5-2.9c0.8-0.6,1.9-1.2,3.2-1.8
			C287.9,203.5,288.9,203,289,202.9z M292.9,206.7h-0.1c-0.6,0.4-2,1.2-4.3,2.3c-1.5,0.8-2.6,1.5-3.2,2.2c-0.6,0.7-1,1.5-1,2.6
			c-0.1,2.4,0.9,4.3,3,5.8c2.1,1.5,4.9,2.2,8.5,2.3c3.6,0.1,6.9-0.4,9.8-1.7c2.8-1.2,4.6-2.7,5.3-4.6c0.3-0.7,0.4-1.2,0.3-1.5
			c0-0.3-0.3-0.8-0.7-1.7c-0.7-1.3-1.5-2.1-2.6-2.6c-1.1-0.5-2.6-0.8-4.6-0.9c-0.1,0-0.6,0-1.4-0.1c-0.8-0.1-1.4-0.1-1.7-0.1
			c-0.4,0-0.9-0.1-1.7-0.2s-1.4-0.2-1.9-0.3c-0.5-0.1-1.1-0.3-1.7-0.5C294,207.3,293.4,207,292.9,206.7z M303.6,182
			c0.1-0.1,0.1-0.3,0.1-0.4c0.1-0.5,0.3-1.1,0.5-1.9c0.3-1.3,0.8-3.3,1.3-5.8l1.2-6.1l0.4-1.6c-0.7-0.1-1.3-0.1-1.6-0.1
			c-2.8-0.2-5-0.2-6.5,0.1c-3.7,0.5-6.9,2.2-9.5,5c-2.6,2.8-3.6,5.8-3,8.9c0.3,1.7,1.3,3.7,3.1,6.1l1.3,1.7c1.4-1.3,3.7-2.4,6.9-3.3
			C300.9,183.7,302.8,182.8,303.6,182z"/>
		<path d="M338.4,176.1c0.1,0.4,0.1,0.8,0.1,1.1c0.9,14.4,2.2,25.3,3.7,32.8c0.2,0.7,0.1,1.3-0.3,1.9c-0.4,0.6-0.9,1-1.6,1.1
			c-0.7,0.2-1.3,0.1-1.9-0.3c-0.6-0.4-1-1-1.1-1.7c-1.7-7.7-3-18.9-3.9-33.4c-0.1-1.1-0.1-2.5-0.1-4.1c0-1.6,0-2.9-0.1-4
			c-0.1-1.1-0.3-2.2-0.6-3.3c-0.2-0.7-0.1-1.3,0.3-1.9c0.4-0.6,0.9-1,1.5-1.2c0.7-0.2,1.3-0.1,1.9,0.2c0.6,0.4,1,0.9,1.2,1.5
			c0.4,1.3,0.7,2.7,0.8,4.4c3.3-3.6,7.4-5.8,12.3-6.6c3.3-0.5,6.3-0.2,9.2,0.9c2.9,1.2,5.1,3.3,6.7,6.3c2,3.9,2.9,9,2.6,15.4
			c-0.1,1.4-0.3,3.9-0.6,7.6c-0.3,2.9-0.4,5.2-0.4,6.8c0,0.7-0.3,1.3-0.7,1.8c-0.5,0.5-1.1,0.7-1.8,0.7s-1.3-0.2-1.8-0.7
			c-0.5-0.5-0.7-1.1-0.7-1.8c0-1.7,0.1-4.2,0.4-7.3c0.4-4.4,0.6-6.8,0.6-7.3c0.3-5.5-0.4-9.8-2-12.8c-2-3.9-5.5-5.4-10.4-4.6
			c-2.3,0.4-4.4,1.2-6.4,2.5c-2,1.3-3.5,2.8-4.5,4.6C340.1,175.6,339.4,176,338.4,176.1z"/>
	</g>
</g>
</svg>
