<?xml version="1.0" encoding="utf-8"?>
<!-- Generator: Adobe Illustrator 22.1.0, SVG Export Plug-In . SVG Version: 6.00 Build 0)  -->
<svg version="1.1" xmlns="http://www.w3.org/2000/svg" xmlns:xlink="http://www.w3.org/1999/xlink" x="0px" y="0px"
	 viewBox="0 0 484.5 555" style="enable-background:new 0 0 484.5 555;" xml:space="preserve">
<style type="text/css">
	.st0{opacity:0.8;}
	.st1{fill:#202020;}
</style>
<g id="Layer_4">
</g>
<g id="Layer_2">
	<g>
		<g>
			<g>
				<g>
					<g class="st0">
						<g>
							<path class="st1" d="M109.6,476.8c42.4,8.7,81.7,11.9,122.1,12.6c31.4,0.6,61.4,0.8,92,0.5c3.8,0,7.7-0.1,11.5-0.1
								c3.8-0.1,7.7-0.1,11.6-0.2c3.9-0.1,7.8-0.2,11.7-0.2c3.9-0.1,7.8-0.2,11.8-0.3c7.9-0.2,15.9-0.5,24-0.8
								c2-0.1,4.1-0.2,6.1-0.2l0.8,0l0.5,0l0.5,0l1,0c1.4,0,2.8,0,4.2-0.1c0.3,0,0.6,0,0.8,0c0.1,0,0.3,0,0.4,0l0.2,0
								c0,0,0-0.1,0-0.1c0-0.8,0-1.7,0.1-2.6l0.1-0.7l0-0.3c0,0.2,0-0.6,0.1-1.1c0.1-2.1,0.3-4.2,0.5-6.2c0.8-8.2,1.9-16.1,3.1-23.7
								c1.2-7.6,2.5-14.9,3.3-22.2c0.5-3.7,0.9-7.3,1.4-11c0.3-3.7,0.7-7.4,1-11.2c1.7-15.8,2.7-32.2,3.1-49
								c0.4-16.8,0.2-34.1-0.4-51.7c-1-35.2-3.5-71.8-4.4-109.2c0.1-4,0.1-12,0-18.7c-0.2-6.7-0.6-12-2-10.9
								c0.5-18.2,1.4-36.1,2.4-53.9c0.2-4.4,0.5-8.9,0.7-13.3l0.2-3.3l0.1-1.6l0.1-0.7l0.2-3c0.1-1,0.2-2.1-0.1-3.1
								c-0.3-1-1.1-1.8-2.1-2c-1-0.3-2-0.3-3-0.4l-3.1-0.1c-4.3-0.1-8.5-0.2-12.8-0.4c-4.4-0.1-8.8-0.2-13.1-0.3
								c-8.8-0.2-17.5-0.3-26.2-0.4c-17.5-0.2-34.9-0.2-52.3,0.1c-29.2,0.1-59.7-2.2-89-1.9c-23.3,0.5-46.4,0.1-69.4-0.2
								c-11.5-0.2-23-0.4-34.4-0.5c-4,0-8-0.1-11.9-0.1l-5.6,0l-2.8,0l-0.3,0c0,0.1,0.1,0.2,0.2,0.3l0.4,0.6l0.7,1.2
								c0.3,0.5,0.6,1.1,0.9,1.7c0.7,1,1.4,2.3,2.2,3.7c0.3,0.7,0.7,1.4,1.1,2.2c0.4,0.7,0.7,1.5,1,2.2c0.3,0.7,0.6,1.5,0.8,2.1
								l0.2,0.5l0.1,0.2c0,0.1,0.1,0.3,0.1,0.4c0.1,0.6,0.3,1.2,0.4,1.8c0.6,2.3,0.9,4.3,1,5.8c0.4,4.3,0.6,8.6,0.6,12.7
								c0,4.2-0.1,8.3-0.2,12.3c-0.4,7.9-0.8,15.8-1.1,23.6c-0.7,15.5-1,30.8-1.3,46.1c-0.5,30.4-0.3,60.5-0.9,90.8
								c-0.6,23.8-0.8,42.2-2,65c1.1,2.1,0.7,7.6,0.8,14c-0.2,4.3-0.8,13.6-1.6,25.1c-0.4,5.8-0.9,12.1-1.4,18.8
								c-0.5,6.6-1,13.5-1.6,20.2c-1,13.4-1.5,26.1-0.9,35.8c0.5,9.7,2,16.5,2.1,18.6c0.2,1-3.4-8.6-4.6-25.2
								c-0.6-8.3-0.6-18.2-0.3-29.2c0.4-11.1,0.8-22.9,1.3-34.7c0.9-23.7,1.7-47.5,2.3-65.1c0.6-17.6,0.8-29.1,0.4-28.3
								c-0.5,2.2-1.9,33.7-3.3,65.9c-1.4,32.2-2.8,65.2-3.1,70.7c0-7,0.1-13.9,0.2-20.7c0.1-6.8,0.2-13.4,0.3-19.9
								c0.2-12.9,0.4-25.2,0.6-36.9c0.3-23.4,0.7-44.3,0.9-62.9c0.5-37.3,0.8-65.6,1.1-86.2c0.4-41.4,0.3-52.5-0.1-45
								c-0.8,14.9-2.7,104-3.4,173.3c-0.6,10.8-0.8,23.9-1,39.5c-0.1,7.8-0.2,16.3-0.5,25.4c-0.2,9.1-0.6,18.9-0.9,29.3
								c-0.1-6.2-0.1-14-0.3-22.5c-0.2-8.5-0.4-17.5-0.6-26.2c-0.4-17.3-0.8-33-0.7-38.9c0.6-55.2-1.5-46.7,1.6-109.6
								c1.1-22.3,1.8-51.5,2.4-81c0.1-7.4,0.3-14.8,0.4-22.1c0.1-7.2,0-14.3-0.5-21c-0.1-1.7-0.3-3.3-0.5-4.9
								c-0.2-1.6-0.4-3.2-0.7-4.8c-0.3-1.6-0.5-3.1-0.9-4.6l-0.2-1.1l-0.1-0.6l-0.1-0.3c0-0.1,0-0.2-0.1-0.3c-0.3-1.1-0.7-2.3-1-3.4
								c-0.5-2.2-1.8-4.6-2.8-6.9c-0.5-1.1-1.2-2.3-1.9-3.5c-0.7-1.2-1.3-2.4-2-3.6c-1.4-2.4-2.9-4.8-4.3-7.2
								c-0.7-1.2-1.4-2.3-2.1-3.5c-0.4-0.6-0.7-1.1-1.1-1.7c-0.4-0.6-0.7-1.1-1-1.6c0.1-2.6,7.2-1.8,11.7-2.1
								c4.9-0.1,9.6-0.2,13.9-0.4c-3.7,0.3-7.9,0.6-12.6,0.9c-2.2,0.2-4.6,0.3-7.1,0.5c-0.6,0-1.2,0.1-1.8,0.1c-0.3,0-0.6,0-0.9,0.1
								l-0.2,0.4c-0.2,0.6-0.4,1.2-0.6,1.8c0.8,1.1,1.6,2.5,2.5,3.7c0.8,1.3,1.7,2.5,2.5,3.8c1.6,2.6,3.3,5.2,4.7,7.7
								c0.7,1.3,1.4,2.5,2.2,3.8c0.6,1.2,1.1,2.4,1.7,3.7c0.3,0.6,0.6,1.2,0.8,1.8c0.2,0.6,0.4,1.2,0.6,1.8c0.4,1.2,0.7,2.3,1.1,3.5
								c2,6.9,3.1,14.5,3.6,22.3c0.5,7.8,0.5,15.7,0.4,23.3c-0.1,7.6-0.4,14.8-0.8,21.3c0.8-10.7,1.4-20.1,1.8-28.5
								c0.3-8.4,0.2-15.8-0.4-22.6c-0.4-3.4-0.8-6.6-1.4-9.7c-0.2-0.8-0.3-1.5-0.5-2.3c-0.2-0.8-0.4-1.5-0.6-2.2
								c-0.2-0.8-0.4-1.4-0.6-2.2c-0.3-0.9-0.6-1.8-0.9-2.7c-0.5-1.8-1.4-3.7-2.3-5.6l-0.7-1.4L83,89.8l-1.7-3
								c-1.2-2-2.5-4.1-3.8-6.3c-1.4-2.1-2.8-4.3-4.2-6.4c0-0.8,0-1.5,0.1-2.3l0-0.1l0-0.1c0,0,0.1,0,0.1,0l0.5,0l1-0.1
								c0.7,0,1.4-0.1,2.1-0.1c2.9-0.2,6-0.4,9.1-0.6c6.3-0.4,13.3-0.7,21.1-1c3.1-0.1,6.2-0.2,9.5-0.4c3-0.1,6.2-0.2,9.5-0.3
								c6.6-0.1,13.8-0.2,21.7-0.2c7.1-0.1,15.4-0.4,24.3-0.8c8.5,0.2,16.6,0.5,26.6,0.8c62.9,0.1,118.1-1.6,180.1-0.2
								c-5.3,0-8.7-1.4-14.1-1.6c-53.4-2.9-98.8-0.2-155.2-0.7c-10.8-0.3-25.9,1.7-37.4,1.8c-11.6,0.1-22.6-0.1-33.4-0.4
								c-5.4-0.2-10.7-0.4-16.1-0.5c-2.7-0.1-5.4-0.2-8.1-0.3c-1.3,0-2.7-0.1-4-0.1c-2,0-3.9-0.1-5.9-0.1c2-0.1,3.9-0.1,5.9-0.2
								c1.4-0.1,2.7-0.1,4.1-0.2c2.8-0.1,5.5-0.2,8.4-0.3c5.6-0.2,11.3-0.3,17.1-0.5c11.6-0.3,23.5-0.5,35.5-0.6
								c24-0.3,48.4-0.3,71.8-0.4c9.7-0.2,21.4-1.5,28.9-2.2c-21.5-0.2-43.2-0.3-64.9-0.2c-20.6,0.2-43,0.9-65.7,1.7
								c-11.3,0.4-22.8,0.9-34.1,1.3c-8.8,0.3-17.5,0.5-26.1,0.8c-4.4,0.1-8.8,0.2-13.2,0.4c-2.2,0.1-4.3,0.1-6.5,0.2l-0.4,0
								c-0.1,0-0.3,0-0.3,0l-0.4,0.2l-0.8,0.4l-1.5,0.8c0.6,0.9,1.2,1.9,1.8,2.9l1.9,3c1.2,1.9,2.5,4,3.7,6l1.8,3l1.7,2.9l1.7,2.9
								l0.8,1.4c0.2,0.5,0.4,0.9,0.7,1.3c0.8,1.8,1.7,3.5,2.5,5.3c0.5,1.7,1,3.4,1.5,5l0.4,1.2l0.1,0.7l0.3,1.4l0.3,1.4l0.2,1.5
								c0.7,3.9,1,7.8,1.2,11.8c0.2,4,0.2,7.9,0.1,11.9c-0.1,3.9-0.3,7.8-0.5,11.7c-0.2,3.9-0.5,7.6-0.7,11.3
								c-0.5,7.3-1.1,14.1-1.8,20.3c0,1.6,0.1,3.2,0.1,6.5c-0.2,0.8-0.3,1.9-0.4,3.2c-0.4,10.6-1.2,23.3-2.6,34.7l1.6-29.3
								c-0.1-8.8-0.1-17.8,0-26.9c0.1-4.6,0.1-9.1,0.2-13.7c0.1-4.6,0.2-9.1,0.2-13.7c0-4.5,0-8.9-0.1-13.3
								c-0.2-4.3-0.5-8.5-1.1-12.6c-0.2-1-0.3-2-0.5-3l-0.6-2.9l0-0.2l-0.1-0.4l-0.2-0.8l-0.4-1.5l-0.9-3c-0.2-0.5-0.3-1-0.5-1.5
								l-0.8-1.6l-1.6-3.2L72,89.9l-0.4-0.8c-0.1-0.3-0.3-0.6-0.5-0.9l-2.1-3.5c-1.4-2.4-2.9-4.7-4.3-7.1c-1.5-2.4-3-4.8-4.5-7.2
								c-1.5-2.3-2.9-4.7-4.4-7l2.5-0.4l1.3-0.2l0.6-0.1c0.3,0,0.6,0,0.9,0c2.5,0,5-0.1,7.5-0.1c5-0.1,10-0.1,15-0.2
								c9.5-0.1,19.1-0.2,28.6-0.3c11.3-0.1,22.7-0.2,34-0.4c22.7-0.2,45.4-0.5,67.7-0.9c18.4-0.7,48.9,1.6,67.4,1
								c27.1-0.6,54.8-0.6,82.5-0.1c13.9,0.2,27.7,0.6,41.5,1.1c4.9,0.2,9.7,0.3,14.5,0.5c3,0.2,5.8,0.6,8.4,1.4
								c2.5,0.8,4.9,1.9,7,3.5c2.1,1.6,4,3.8,5.2,6.1c1.2,2.3,1.9,4.8,2.3,7.4c0.1,0.3,0.1,0.7,0.1,1.1l0,1.1l0,2.2l0.1,4.3l0,2.2
								l-0.1,2.2l-0.1,2.2l-0.1,1.7c-1.9,33.9-4.1,67.4-4,100.7c0,33.5,1.4,67.2,2.1,101c0.4,16.9,0.5,33.8,0.1,50.8
								c-0.4,16.9-1.1,33.9-2.8,50.7c-0.3,4.2-0.9,8.4-1.4,12.6l-0.7,6.3c-0.2,2.1-0.6,4.2-0.9,6.3c-0.7,4.2-1.2,8.4-2,12.5
								c-0.7,4.2-1.5,8.3-2.3,12.4c-1.5,8.2-3,16.4-4,24.6c-0.5,4.1-0.9,8-1.1,12.8c-0.1,4.6-0.1,9.1,0.1,13.5l0,0.3l0,0.2
								c0,0-0.1,0-0.2,0l-0.8,0l-1.5,0l-3.1,0.1l-6.1,0.2l-11.8,0.3c-7.5,0.2-15,0.4-22.5,0.5c-7.5,0.1-15,0.3-22.4,0.4
								c-7.5,0.1-14.9,0.1-22.4,0.2c-29.8,0.1-59.6-0.3-89.1-2c-4.4-0.1-8.9-0.1-13.3-0.2c1.9,0.3,3.8,0.6,5.7,0.9
								c-4.2-0.3-8.3-0.6-12.4-1.1c-24.5-0.7-48.5-2.8-71.9-7.1c-4.8-1-0.5-0.5,5.9,0.2c1.6,0.2,3.3,0.4,5.1,0.6
								c1.8,0.2,3.6,0.3,5.3,0.4c3.4,0.2,6.5,0.4,8.4,0.3c-5.4-0.6-10.7-1.3-10.7-1.3s1.1-0.5,2.1-1c-4.1-0.1-6.5-1.1-9.3-1.8
								c52.4,5.7,105.8,5.7,159.4,3.9c-3.1-0.7-8.6-0.8-14.3-0.8c-5.7,0-11.5,0.2-15.3,0.1c-8.9,0.3-17.7,0.7-26.4,0.7
								c-4.3,0-8.6,0-12.8,0c-4.2-0.1-8.3-0.3-12.4-0.5c-22.5-0.3-45.3-2-67.6-5c-5.6-0.6-11.1-1.6-16.7-2.4
								c-2.8-0.4-5.5-0.8-8.3-1.3c-2.7-0.4-5.5-1-8.2-1.4c-2.7-0.5-5.4-1-8.1-1.5c-2.7-0.5-5.4-0.9-8.1-1.5
								c-5.3-1.1-10.6-2.2-15.9-3.2c-1.9-0.4-3.8-1-5.7-1.5c-1.9-0.5-3.8-1.1-5.7-1.6c-3.8-1.1-7.5-2.2-11.1-3.3
								c-2.3-0.8-2.8-1.2-2-1.3c0.4-0.1,1.2,0,2.2,0.1c1,0.1,2.2,0.2,3.7,0.4c2.9,0.4,6.5,0.9,10.4,1.6c1.9,0.4,3.9,0.7,5.9,1.2
								C105.7,476,107.7,476.4,109.6,476.8z M433.2,151.1c-1,14.8-2.2,29.2-2.8,44.3c0,5.3,0,10.6,0.1,15.9c0,6.6,0.4,13.6,0.9,20.9
								c0.4,28.4,1.3,56.7,1.4,85.1c1.3-28.5,1.2-58.2,0.2-93.9c1.8,46.1,3.8,89.2,2,131.3c-0.9,21.1-2.6,41.8-5.6,62.4l-0.5,3.9
								l-0.7,3.8c-0.4,2.6-0.9,5.1-1.3,7.7c-0.8,5.1-1.9,10.2-2.9,15.4c-2.1,10.3-4.2,20.8-5.4,31.7c-0.1,0.9-0.2,1.8-0.2,2.7
								l-0.2,2.5c-0.1,1.2-0.1,2.5-0.2,3.7c-0.1,2.5,0,4.9,0.1,7.4l0,0.3c0,0,0,0.1,0,0.1l-0.1,0l-0.2,0l-0.7,0l-1.3,0l-2.7,0.1
								c-1.7,0.1-3.5,0.1-5.3,0.2c-4,0.2-8.1,0.3-12.1,0.5c-9.6,0.4-19.2,0.9-29,1.3c-18.8,0.9-37.1,1.9-55.3,2.8
								c4.7,0,9.4-0.1,14.1-0.1c4.7-0.1,9.4-0.1,14.1-0.1c9.4-0.2,18.8-0.3,28.2-0.5c9.4-0.2,18.8-0.5,28.2-0.7l13-0.3l6.2-0.1
								l3.2-0.1l1.6,0l0.8,0l0.2,0l0.1,0c0,0,0-0.1,0-0.1l0-0.4c-0.1-2.5-0.2-5-0.1-7.5c0-1.3,0.1-2.6,0.2-3.9l0.1-2l0.2-2.1
								c0.5-6,1.3-12,2.3-17.9c1.9-11.8,4.5-23.4,6.2-35.2c3.7-23.5,5.7-47.4,6.5-71.3c1.6-47.8-0.9-95.7-1.2-143.3
								c-0.1-11.9,0-23.8,0.3-35.7c0.3-11.9,0.8-23.8,1.4-35.7c0.6-11.9,1.3-23.9,2-35.9l0.5-9l0.3-6.2c0-2.3,0-4.6,0-7l0-1.7
								c0-0.6,0-1.2-0.1-1.7c-0.1-1.1-0.3-2.1-0.6-3.2c-0.5-2-1.3-4-2.6-5.8c-1.3-1.8-3-3.3-4.8-4.3c-1.9-1.1-3.8-1.8-5.9-2.3
								c-2.1-0.5-4.4-0.8-6.8-0.9c-2.4-0.1-4.8-0.1-7.2-0.2l-9.7-0.3c-6-0.2-12.1-0.4-18.2-0.6c-12.1-0.3-24.2-0.7-36.4-1
								c-24.3-0.6-48.7-1.1-73.2-1.4c37.9,1.6,75.1,3.2,112.4,4.7l14,0.6l7,0.3l4,0.2l5.1,0.2c3.4,0.1,6.7,0.5,9.6,1.4
								c1.5,0.4,2.9,1,4.2,1.8c1.3,0.8,2.5,1.8,3.5,3.1c1.9,2.5,2.7,5.5,3,8.6c0,0.4,0.1,0.8,0.1,1.2l0,1.2l0,2.5l-0.1,4.9l-0.3,4.8
								l-0.2,3.5c-0.2,2.3-0.3,4.7-0.5,7c-0.3,4.7-0.6,9.4-0.9,14.1C434.4,132.2,433.8,141.7,433.2,151.1z M432.3,123.5
								c0.3-7.6,0.6-15.1,0.9-22.6l0.2-6.2c0.1-2.3,0-4.6,0.1-6.9c0-0.6,0-1.2,0-1.7c0-0.6-0.1-1.1-0.1-1.6
								c-0.1-1.1-0.3-2.2-0.6-3.2c-0.3-1-0.7-2.1-1.3-3c-0.6-0.9-1.4-1.7-2.3-2.4c-1.8-1.3-4-1.8-6.1-2.2c-2.2-0.3-4.4-0.5-6.7-0.5
								c-4.1-0.1-8.3-0.1-12.4-0.2c-7.4-0.1-14.9-0.2-22.3-0.2C301,71.2,213,70.8,161,75c70.9-1.8,144.5-2.9,220.6-2.2
								c-36.2-0.7-41.2-0.6-25-0.3c8.1,0.1,21.4,0.4,38.9,0.7c4.4,0.1,9,0.2,13.8,0.3c1.4,0,2.9,0.1,4.3,0.1c1.5,0,3.1,0,4.6,0.1
								c3.1,0.2,6,0.4,8.9,1.6c1.4,0.6,2.7,1.5,3.7,2.7c1,1.2,1.6,2.7,1.9,4.3c0.3,1.5,0.5,3.1,0.5,4.8c0,1.7,0,3.4,0,5.1
								c0,1.7-0.1,3.5-0.1,5.2c0,1.5-0.1,3-0.2,4.4c-0.1,2.9-0.2,5.9-0.3,9C432.6,112.9,432.4,117.6,432.3,123.5z"/>
							<path class="st1" d="M359.1,506.6c-33.5-0.3-67.4-0.8-100.7-2.9c12.7,1.9,23.8,3.4,38.8,4.5c20.1,1.1,41.5,1.1,63.1,0.7
								c10.8-0.3,21.7-0.5,32.5-0.8c5.9-0.2,11.7-0.3,17.5-0.5c3.3-0.1,6.6-0.2,9.9-0.3c1.7,0,3.4-0.1,5-0.1l2.5-0.1l1.3,0
								c0.2,0,0.5,0,0.6,0l0.3-0.3c0-0.3,0-0.7,0-1c-0.2-4.8-0.3-9.8-0.2-14.9l0.2-3.8c0-0.7,0.1-1.2,0.1-1.9l0.1-1.4
								c0.2-1.8,0.4-3.7,0.6-5.5c1-7.4,2.3-14.7,3.7-22.3c0.7-3.8,1.5-7.6,2.2-11.4l1.1-5.8c0.3-1.9,0.6-3.9,0.9-5.8
								c0.6-3.9,1.3-7.8,1.8-11.7c0.5-3.9,1-7.8,1.4-11.8l0.4-3l0.3-3l0.5-5.9l0.5-5.9c0.2-2,0.3-4,0.4-5.9c0.2-4,0.5-7.9,0.7-11.9
								c0.2-4,0.3-7.9,0.5-11.9c0.5-15.9,0.6-31.9,0.2-47.8c-0.6-31.9-2.2-63.8-3-95.6c-0.1-4-0.2-7.9-0.2-11.9l-0.1-6l0-6
								c-0.1-7.9-0.1-15.9,0.1-23.9c0.2-16,0.8-32,1.4-48.2c0.2-3.2,0.5-8.3,0.7-14c0.1-2.8,0.2-5.8,0.2-8.7c0-2.1,0.1-4.3,0.1-6.4
								c0.1-1.3-0.1-2.5-0.1-3.7c-0.1-1.2-0.1-2.4-0.2-3.6l0.1,5.8l-0.2,5.9c-0.1,2.2-0.2,4.4-0.3,6.6c-0.2,4.4-0.5,8.8-0.7,13.2
								c-0.5,8.8-0.9,17.5-1.3,26.1c-0.8,17.3-1.3,34.5-1.3,51.5c0,34.2,1.6,68.4,2.4,102.6c0.4,17.1,0.6,34.3,0.3,51.4
								c-0.1,8.6-0.5,17.2-0.8,25.7l-0.8,12.9c-0.1,2.1-0.3,4.3-0.5,6.4l-0.6,6.4c-0.2,2.1-0.4,4.3-0.6,6.4l-0.8,6.4
								c-0.5,4.3-1,8.5-1.7,12.8c-0.7,4.2-1.3,8.5-2,12.7c-0.7,4.2-1.5,8.4-2.3,12.6c-1.6,8.3-3.1,16.5-4.2,24.7
								c-0.3,2.1-0.5,4.1-0.7,6.2l-0.1,1.5l-0.1,1.8l-0.2,3.9c-0.1,5.2,0,10.4,0.2,15.3l-0.2,0.4c-0.2,0.1-0.4,0-0.6,0l-1.2,0
								l-2.5,0.1l-4.9,0.1c-3.2,0.1-6.4,0.2-9.6,0.2l-9,0.2l-8.2,0.1C381.1,506.5,370.1,506.5,359.1,506.6z"/>
							<path class="st1" d="M229.1,57.4c-23.9,0.5-47.7,1-70.5,1c20.7,1.2,49,1.4,71.8,1.5c32-0.2,64.1-0.3,95.8,0
								C294.5,58.5,262.4,57.5,229.1,57.4z"/>
							<path class="st1" d="M444.3,86.2l-0.1-4.3c-0.1-1.4-0.5-2.7-0.8-3.9c-0.7-2.5-1.8-4.8-3.5-7c-0.4-0.5-0.8-1.1-1.3-1.6
								c-0.5-0.5-0.9-1-1.4-1.4c-1-0.9-2.1-1.7-3.2-2.4c-2.2-1.3-4.7-2.3-7.4-2.9c-3.1-0.8-6.6-1-10.1-1c-2.9-0.1-5.8-0.2-8.7-0.2
								c-3.8-0.1-7.7-0.2-11.5-0.3c-7.7-0.2-15.4-0.4-23.2-0.6c-15.5-0.3-31.2-0.5-47-0.6c16.7,0.7,33.3,1.5,49.9,2.3
								c8.3,0.4,16.6,0.8,24.9,1.2l6.2,0.3l3.3,0.2l5.4,0.2c3.6,0.1,7.1,0.3,10.2,1.1c3.1,0.8,5.9,2,8.4,3.9
								c0.2-0.2,0.8-0.2,1.7,0.3c0.9,0.5,2.2,1.4,3.4,2.8c1.2,1.4,2.3,3.2,3.2,5.5c0.4,1.1,0.8,2.4,1.1,3.8
								C444.1,83,444.2,84.6,444.3,86.2z"/>
						</g>
					</g>
				</g>
			</g>
		</g>
	</g>
	<g>
		<g>
			<g>
				<g>
					<g class="st0">
						<g>
							<path class="st1" d="M147.6,107.2c33.5,0.5,63.6,0.2,94.5-0.7c24-0.5,46.9,0,70,0.5c11.6,0.3,23.2,0.6,35.2,0.9
								c3,0.1,6,0.1,9,0.2c5.4,0,10.8,0.1,16.3,0.1c5.4,0,10.9,0,16.5,0.1c1.4,0,2.7,0,4.1,0l1,0l0.3,0c0.1,0,0,0,0,0.1l0,0.1
								l-0.1,0.5l-0.2,2.1c-0.3,2.8-0.6,5.6-0.9,8.5c-0.6,5.6-1.1,11.1-1.7,16.6c-0.4,4.5-0.9,8.9-1.3,13.3
								c-0.6,6-1.2,11.9-1.6,17.8c-0.9,11.8-1.7,23.6-2.2,35.6c-3.9,48.5-4.8,102.2-0.8,157.5c0.1,6,0.8,23.5,3.4,21.6
								c0.4,6.7,0.8,13.4,1.3,20c0.5,6.7,1,13.4,1.5,20c0.1,1.8,0.3,3.5,0.3,5.4l0.1,1.4l0,1.5c0,1.3,0,2.6,0,3.9
								c-0.2,5.2-1,10.2-2.6,14.7c-0.8,2.3-1.8,4.4-2.8,6.6l-0.8,1.6l-0.4,0.8l-0.1,0.2c0,0.1,0,0.2-0.1,0.1l-0.5,0l-3.7,0.4
								c-4.8,0.5-9.7,0.9-14.5,1.4l-1.8,0.2l-0.9,0.1c-0.3,0-0.6,0-0.8,0l-2.5,0.1l-5,0.1c-3.3,0.1-6.6,0.2-9.9,0.3
								c-6.6,0.2-13.2,0.4-19.8,0.6c-13.2,0.5-26.3,1-39.4,1.7c-22,0.8-45-1-67.1-0.5c-15.1,0.5-30,0.3-44.9-0.2
								c-7.4-0.3-14.9-0.5-22.3-0.8l-5.8-0.2c-2.5-0.1-5.1-0.1-7.5-0.4c-2.5-0.2-4.8-0.7-7-1.6c-2.2-0.8-4.3-2.2-5.9-4
								c-2.4-2.8-3.5-6.3-4-9.9c-0.2-1.8-0.4-3.7-0.4-5.6l-0.2-5.3c-0.6-4.8-2.3-15.3-2.2-19.4c0.7-24.1-0.4-47.3-2-70.1
								c-1.6-22.8-3.8-45.3-5-68.1c-0.8-17.9-1.6-31.8-1.4-49c-1.2-1.6-1-5.7-1.4-10.6c0-6.5,0.9-28,2.6-48.7
								c0.5-5.2,0.9-10.3,1.4-15.1c0.5-4.8,1-9.3,1.4-13.3c1-7.9,1.8-13.7,2.3-15.3c0.1-0.4,0.1,1.5-0.1,5.2
								c-0.1,3.7-0.4,9.1-0.7,15.7c-0.5,13.2-1.1,31.2-1.2,49.1c-0.3,35.9,0.9,71.7,1.5,70.4c0.4-1.7-0.1-25.4,0-49.7
								c0-24.4,0.8-49.4,1.2-53.4c0,21.5,0.4,40.9,1.1,58.5c0.6,17.6,1.4,33.3,2.2,47.3c1.6,28,3.2,49.2,4.4,64.7
								c2.4,31,3.3,39.3,3.1,33.7c-0.1-5.6-1.3-25.1-2.8-49.7c-1.5-24.6-3.3-54.3-4.6-80.3c0.2-16.2-1.8-39.4-0.8-70.9
								c0.1,4.7,0.4,10.6,0.7,17c0.4,6.4,0.9,13.2,1.4,19.7c0.5,6.5,1,12.7,1.5,17.8c0.4,5.1,0.7,9.2,0.8,11.4
								c1,20.7,2.1,29.4,2.8,38.9c0.8,9.5,1.3,19.7,1.8,43.3c0.4,19.2,2.1,45.3,3.8,70.7c0.9,12.7,1.7,25.3,2.5,36.7
								c0.2,2.9,0.4,5.7,0.6,8.4c0.1,1.4,0.2,2.7,0.3,4c0,0.7,0.1,1.3,0.1,1.9c0,0.4,0.1,0.7,0.1,1.1c0.1,1.4,0.2,2.6,0.4,3.8
								c0.2,1.2,0.6,2.3,1.4,3.1c0.1,0.1,0.2,0.2,0.3,0.3c-0.1-0.1-0.2-0.1-0.3-0.2c-1-0.6-1.7-1.8-2.1-3.3
								c-0.2-0.7-0.4-1.5-0.6-2.4c-0.1-0.4-0.2-0.9-0.3-1.4c-0.1-0.2-0.1-0.5-0.2-0.7l0-0.2l0-0.3l-0.1-0.6
								c-0.9-6.5-1.9-13.9-2.8-21.4c-1.8-15.2-3.2-31.3-3.4-43.8c-0.3,20,0.6,33.7,1.9,45.8c0.7,6,1.4,11.7,2.2,17.5
								c0.4,3.3,0.7,4.9,1.1,7c0.2,1,0.4,2,0.7,2.9c0.3,1,0.9,1.9,1.7,2.6c1.2,1.1,3,1.5,4.8,1.5c1.8,0,3.6-0.2,5.4-0.2
								c1.5,0,3.1,0,4.7-0.1c1.6,0,3.3,0,5.1,0c3.5,0,7.2,0,11.1,0.1c5.3,0,11.5-0.3,18.2-0.7c6.4,0.3,12.4,0.5,20,0.8
								c47.2-0.1,88.5-2.9,134.8-4c-4,0.2-6.6-1-10.6-1c-40-0.9-73.9,2.7-116.2,2.5c-8.1-0.3-19.4,1.7-28,1.7
								c-8.7,0-16.9-0.3-25-0.7c-4-0.2-8-0.5-12.1-0.7l-1.5-0.1l-0.3,0l-0.2,0l-0.4,0l-1.4-0.2c-0.9-0.1-1.8-0.2-2.6-0.5
								c1,0,1.9,0,2.8-0.1c1.1-0.1,1.3-0.2,3.9-0.2c4.2-0.1,8.5-0.2,12.8-0.3c8.7-0.1,17.6-0.2,26.6-0.3c18-0.2,36.2-0.3,53.7-0.7
								c7.2-0.3,16-1.8,21.6-2.6c-16.1,0.2-32.3,0.3-48.5,0.5c-13.2,0.2-27.3,0.7-41.7,1.2c-7.2,0.2-14.5,0.5-21.8,0.7l-2.7,0.1
								l-1.4,0l-0.6,0l-0.2,0l-2,0.2c-1.3,0.1-2.9,0.1-4-0.9c-0.6-0.5-0.9-1.3-1.1-2.1c-0.2-0.8-0.3-1.6-0.4-2.4l-0.1-1.2
								c-0.1-1-0.1-1.9-0.2-2.9c-0.1-2-0.2-4-0.4-6c-0.5-8-0.9-15.7-1.1-23.1c-0.6-14.8-0.7-28.2-0.1-39.2c-0.1-1.2-0.3-2.4-0.6-4.9
								c0.1-0.6,0.2-1.5,0.2-2.4c-0.3-8-0.4-17.5,0.2-26.2l0.4,22c1.6,15.4,2.8,31.5,3.6,47.9c0.4,8.2,0.8,16.5,1.2,24.9
								c0.1,2.1,0.2,4.2,0.2,6.3l0.1,3.2l0,0.8c0.1,0.9,0,1.9,0.6,2.6c0.6,0.6,1.4,0.7,2.2,0.7c2,0,4,0,6,0c7.3,0.1,14.5,0.1,21.8,0
								c14.5,0,29-0.3,43.3-0.7c13.7-0.7,36.6,1.2,50.4,0.2c20.2-1.1,40.9-1.9,61.6-2.4c10.4-0.3,20.7-0.5,31-0.7l1.9,0l0.5,0
								l0.9,0.1l2,0.2l0.3,0l0.1,0l0.1-0.1c0.1-0.1,0.2-0.2,0.3-0.4c0.2-0.3,0.3-0.5,0.5-0.8c0.3-0.6,0.5-1.2,0.6-1.9
								c0.1-0.3,0.1-0.6,0.1-1l0.1-0.5l0-0.1c0-0.1,0,0,0-0.2l0-0.7c0-2-0.1-4-0.3-6.2l-1-13.8l-0.5-7l-0.4-7l-0.8-13.9
								c-0.9-18.5-1.4-37.1-1.6-55.6c-0.2-18.5,0.1-37,0.6-55.4c0.6-18.4,1.6-36.8,2.9-55.1c1.4-18.3,3.1-36.5,5.1-54.7
								c0.6-4.5,1.1-9.1,1.7-13.6l0.4-3.4l0.4-3l0.9-6.2l0.9-6.5l0.5-3.3l0.1-0.4c0-0.1,0.1-0.4-0.1-0.3l-0.8,0l-1.5-0.1
								c-4.3-0.2-8.5-0.3-12.8-0.5c-18.1-0.7-36.2-1.4-54.2-2.1c-18.1-0.8-36.1-1.5-54.1-2.3c-3.4,0.1-6.7,0.1-10,0.2
								c1.5,0.3,2.9,0.5,4.3,0.8c-3.1-0.2-6.3-0.4-9.4-0.7c-18.5,0.3-36.7,0.1-54.7-1.2c-7.4-0.9,13-0.2,18.7-1.3
								c-4.1-0.1-8.2-0.3-8.2-0.3s0.8-0.6,1.5-1.2c-3.1,0.3-5-0.4-7.2-0.8c40.1-0.4,80.5-1.1,121-1.4c-4.7-1.6-16.7-1.1-22.4-1.3
								c-13.4,0.5-26.8,1-39.1,0.6c-34.1,0.7-69.5-1.8-102.4-2.2c-6.1-0.4-12.1-0.9-18-1.5C120,108.8,135.4,106.8,147.6,107.2z
								 M372.2,397.4c-0.1-5.6-0.2-11.2-0.2-16.8c0.1-5.6,0.1-11.2,0.2-16.9c-0.1-4-0.3-8-0.4-12c-0.2-5-0.5-10.3-1-15.8
								c-0.1-21.4,0.2-42.7,1-64c-2.1,21.3-3.6,43.7-2.7,70.7c-0.2-4.4-0.4-8.7-0.5-12.9c-0.2-4.3-0.2-8.5-0.3-12.7
								c-0.2-8.4-0.1-16.7,0-24.9c0.4-16.4,1.1-32.4,2.3-48.2c1.1-15.8,2.8-31.4,4.5-47c0.5-3.9,0.9-7.8,1.4-11.7
								c0.2-2,0.5-3.9,0.7-5.9c0.3-2,0.5-3.9,0.8-5.9c0.5-3.9,1-7.8,1.5-11.8c0.5-3.9,1.1-7.9,1.6-11.8c0.3-2.7,0.6-5.3,0.8-8
								c0.4-3.2,0.7-6.3,1.1-9.5c0.4-3.2,0.7-6.4,1.1-9.7c0.2-1.6,0.4-3.3,0.5-4.9l0-0.2c0,0,0-0.1,0-0.1l-0.1,0l-0.3,0l-0.6,0
								l-1.2,0l-2.4,0c-11.7,0-23.5-0.1-35.5-0.1c-14.2,0.1-28,0.4-41.7,0.8c22.2,0.7,44.4,1.3,66.5,2l9.2,0.3l2.3,0.1
								c0.2,0,0.4,0,0.5,0l-0.1,0.6l-0.2,1.2l-0.6,4.8l-1.2,9.3l-0.6,4.5l-0.5,4.4l-2,15.9l-1.8,16c-4.5,42.6-7.3,85.5-7.8,128.6
								c-0.3,21.6,0,43.2,0.8,64.8c0.2,5.4,0.4,10.8,0.7,16.3c0.3,5.4,0.6,10.8,0.9,16.3c0.4,5.4,0.8,10.9,1.2,16.3
								c0.2,2.7,0.4,5.3,0.5,7.8c0,0.6,0.1,1.2,0.1,1.8c0,0.6,0,1.3,0,1.7c0,0.6-0.1,1.2-0.1,1.8c-0.1,1.2-0.3,2.3-0.6,3.4
								c-0.2,0.5-0.4,1.1-0.6,1.5c-0.1,0.2-0.2,0.5-0.4,0.7c-0.2,0.2-0.2,0.6-0.6,0.5l-3.4-0.1l-1.6,0l-0.8,0l-1.9,0
								c-10.8,0.2-21.7,0.3-32.6,0.5c-21.7,0.2-43.6,0.4-65.5,0.7c28.4,0.9,56.3,1.3,84.2,1.4l10.5,0l5.2,0l2.9,0.1l2.9,0.1l1.5,0
								l0.8,0l0.4,0c0.1-0.1,0.1-0.2,0.2-0.3c1-1.6,1.7-3.5,2.1-5.4c0.2-1,0.3-2,0.4-3c0.1-0.5,0.1-1,0.1-1.6l0-1c0-0.4,0-0.8,0-1.2
								c0-3.3-0.3-6.7-0.5-10.2C372.9,411.7,372.5,404.6,372.2,397.4z M376,417.9c0.3,2.9,0.6,5.7,0.8,8.4c0.1,1.4,0.2,2.7,0.2,4.1
								c0,1.2,0,2.2,0,3.3c-0.1,2.2-0.3,4.3-0.8,6.4c-0.3,1-0.6,2.1-1,3.1c-0.2,0.5-0.4,1-0.6,1.5c-0.1,0.2-0.2,0.5-0.4,0.7l-0.8,0
								c-10.1,0.4-20.2,0.9-30.2,1.3c-30.2,0.9-61.8,1.6-90.7,2.3c-28.9,0.8-55.2,1.8-74.7,3.7c53.3-1.2,108.4-3.5,165.4-6
								c-27.1,0.8-30.9,0.9-18.8,0.6c6.1-0.1,16.1-0.4,29.1-0.9c5.7-0.2,12.1-0.5,19-0.7c0.4,0,0.8,0,1.2,0l0.6,0l0.1,0
								c0,0,0-0.1,0.1-0.1l0.1-0.3c0.4-0.7,0.7-1.4,1-2.2c0.5-1.5,0.9-3.1,1.2-4.8c0.3-1.6,0.4-3.4,0.4-5.1c0-0.9,0-1.7,0-2.6
								c0-1-0.1-2.1-0.2-3.2C376.9,425.8,376.5,422.4,376,417.9z"/>
							<path class="st1" d="M338.5,125.1c-25.1-1.7-50.6-3.1-75.7-4.8c9.6,1.7,18,3.3,29.2,4.6c15.2,1.4,31.3,2.1,47.7,2.6
								c4.1,0.1,8.2,0.3,12.3,0.4l5.9,0.2c1.6,0.1,3.2,0.1,4.7,0.2c3.1,0.1,6.1,0.3,8.9,0.5l1,0.1l0.1,0c0,0,0,0,0,0.1l0,0.1l0,0.3
								l-0.1,0.6l-0.4,2.3c-0.3,1.5-0.5,3-0.8,4.5c-0.4,2-0.7,4.1-1.1,6.1l-0.1,0.7c0,0.3-0.1,0.4-0.1,0.7l-0.3,2.1l-0.6,4.3
								c-0.4,2.9-0.8,5.7-1.2,8.6c-0.4,2.9-0.7,5.8-1.1,8.7c-0.7,5.8-1.4,11.6-2,17.4c-0.6,5.8-1.2,11.7-1.7,17.5
								c-2.1,23.4-3.4,47.2-4,71.2c-1.2,48,0.8,96.8,5.8,146c0.1,2.5,0.5,6.2,0.7,9.7c0,0.7,0.1,1.4,0.1,2.1c0,0.4,0.1,0.9,0.1,1.2
								c0.1-0.3,0.2-0.7,0.3-1c0-0.2,0.1-0.4,0.1-0.6l0-0.3c0-0.1,0-0.1,0-0.4c0-1.6-0.1-3.2-0.2-5c-0.1-1.7-0.3-3.6-0.4-5.5
								c-0.3-3.9-0.6-7.7-0.9-11.6c-0.3-3.8-0.6-7.7-0.8-11.5c-0.2-3.8-0.5-7.7-0.7-11.5c-0.2-3.8-0.4-7.6-0.6-11.5
								c-0.4-7.6-0.7-15.2-1-22.8c-1.1-30.4-1-60.4,0.1-90.3c0.5-14.9,1.4-29.8,2.4-44.6c0.6-7.4,1.2-14.8,1.8-22.2
								c0.7-7.4,1.4-14.8,2.3-22.1l1.3-11.1l1.4-11l0.7-5.5l0.2-1.2l0.2-1.1l0.3-2.2l1.4-9.1l0.4-2.4l0.2-1.2l0.1-0.6
								c-0.1-0.1-0.3,0-0.5-0.1l-4.4-0.3l-9.3-0.5C353,125.8,345.7,125.4,338.5,125.1z"/>
							<path class="st1" d="M228.9,435c-17.8,0.7-35.6,1.2-52.7,1c15.5,1.4,36.6,1.6,53.6,1.5c23.9-0.5,47.9-1.1,71.5-1.8
								C277.7,435.3,253.7,435,228.9,435z"/>
							<path class="st1" d="M365.7,433.2c-0.2,0.4-0.4,0.8-0.6,1.1l-0.1,0.1c0,0-0.1,0-0.2,0l-0.4,0l-0.7-0.1l-1.5-0.2
								c-2.8,0.1-5.7,0.1-8.6,0.2c-5.7,0.1-11.5,0.3-17.3,0.4c-11.6,0.3-23.3,0.6-35.1,1c12.5,0.2,24.9,0.4,37.3,0.6
								c6.2,0.1,12.4,0.1,18.7,0.2l4.7,0c0.2,0,0.5,0,0.5,0l0.2,0l0.3,0l0.7,0.1c0.9,0.1,1.9,0.2,3,0.3c-0.2-0.3-0.4-0.6-0.5-0.8
								c-0.1-0.2-0.1-0.5-0.2-0.9C365.9,434.5,365.8,433.8,365.7,433.2z"/>
						</g>
					</g>
				</g>
			</g>
		</g>
	</g>
</g>
<g id="Layer_3">
	<g>
		<path d="M208.1,285.1c-0.2,4.4,0,7.5,0.6,9.4c0.2,0.3,0.3,0.6,0.5,0.9l0.1,0.2l0.1,0.1c0.6,0.2,1.6-0.2,3.1-1.2
			c0.7-0.5,1.5-0.6,2.4-0.4c0.9,0.2,1.5,0.7,2,1.4c0.5,0.7,0.6,1.5,0.4,2.4c-0.2,0.9-0.7,1.5-1.4,2c-3.1,2-5.9,2.6-8.3,2
			c-2.3-0.7-4-2.4-4.9-5.2l-0.1-0.2c-0.7,0.7-1.5,1.2-2.2,1.5c-0.5,0.2-1.2,0.5-2.2,0.6c-0.5,0.1-1.2,0.2-2.1,0.2
			c-0.5,0-1.1,0-1.9,0.1c-0.7,0.1-1.2,0.1-1.4,0.1c-5.9,0.7-10.7,0.1-14.2-1.7c-2.6-1.4-4.3-3.3-5.1-5.8c-0.8-2.6-0.5-5.7,1-9.1
			c1.8-4.3,5.2-7.6,10.1-9.9c1.3-0.6,3.3-1.3,5.9-2.2c2.6-0.9,4.4-1.6,5.3-2.1c0.9-0.3,1.8-0.3,2.6,0c-0.1-3.7-0.4-6.7-0.9-9.1
			c-0.5-2.4-1.2-3.9-2-4.6l-0.1,0.1c0-0.1-0.2-0.1-0.7-0.2c-0.5,0-1.1-0.1-1.7-0.1c-1.7,0-3.9,0.2-6.5,0.7
			c-5.1,0.8-8.8,1.8-11.2,2.8c-0.7,0.3-1.5,0.3-2.3,0c-0.8-0.3-1.4-0.9-1.8-1.7c-0.4-0.8-0.4-1.6-0.1-2.4c0.3-0.8,0.9-1.4,1.7-1.9
			c2.8-1.2,7-2.3,12.6-3.3c3-0.5,5.5-0.7,7.7-0.7c3-0.1,5.2,0.5,6.5,1.6c2.1,1.6,3.5,4.3,4.3,8.3c0.6,2.7,0.9,6.2,1,10.4
			c0.1,2,0.1,5.4,0,10.4v3.1h0.1c0.8,0.1,1.5,0.5,2.2,1.1C207.9,283.4,208.2,284.1,208.1,285.1z M197.8,292.1c0.3-0.2,0.7-0.7,1-1.2
			c0.4-0.6,0.6-1.1,0.6-1.5l-0.1-0.4c-0.3-1.1-0.5-1.9-0.6-2.3c-0.2-1.5-0.2-4.2-0.1-8.1v-4.4c-1.2,0.6-3.2,1.3-5.8,2.2
			c-2.6,0.9-4.4,1.6-5.3,2c-3.5,1.6-5.8,3.7-6.9,6.5c-0.8,2.1-1.1,3.7-0.7,4.8c0.2,0.7,0.9,1.4,1.9,2c2.4,1.2,5.9,1.6,10.5,1
			c0.2,0,0.4,0,0.7-0.1c0.3,0,0.8-0.1,1.3-0.1c0.5,0,1-0.1,1.4-0.1c0.7-0.1,1.3-0.2,1.7-0.2H197.8z"/>
		<path d="M245.7,261.6c3.1-6.7,7-10.6,11.7-11.7c4.9-1.2,10.1,0.7,15.6,5.9c0.7,0.7,1,1.4,1,2.3c0,0.9-0.3,1.6-0.9,2.3
			c-0.6,0.7-1.4,1-2.2,1c-0.9,0-1.6-0.3-2.3-0.9c-3.8-3.6-7-5.1-9.6-4.4c-2.6,0.7-5.1,3.4-7.3,8.3c-0.4,0.8-1,1.4-1.9,1.7
			c-0.8,0.3-1.6,0.3-2.5-0.1c-1-0.5-1.6-1.3-1.9-2.3c-0.5,15.8,0.7,31.1,3.7,45.8c0.2,0.8,0.1,1.6-0.4,2.3c-0.5,0.7-1.2,1.2-2,1.4
			c-0.9,0.2-1.7,0.1-2.4-0.4c-0.7-0.5-1.2-1.2-1.4-2.1c-4-19.4-5-39.9-3-61.5c0.1-0.8,0.5-1.5,1.2-2.1c0.7-0.6,1.5-0.8,2.3-0.7
			c0.9,0.1,1.6,0.5,2.2,1.2c0.6,0.7,0.8,1.5,0.7,2.4c-0.4,4.9-0.7,8.9-0.9,12.2C245.7,261.9,245.7,261.8,245.7,261.6z"/>
		<path d="M299.9,255.5c-1.1,0-2,0-2.7-0.1c-1.3,0-2.4-0.1-3.2-0.4c-0.6-0.1-1.1-0.2-1.5-0.5c-1-0.5-1.6-1.2-2-2.1
			c-0.5-1.6-0.2-2.9,1-4c0.4-0.5,1-0.9,1.7-1.2c0.7-0.3,1.2-0.4,1.2-0.4c3.9-2.9,7.1-4.7,9.8-5.6c0.8-0.2,1.6-0.2,2.4,0.2
			c0.8,0.4,1.3,1,1.6,1.9c0.3,0.8,0.2,1.6-0.2,2.4c-0.4,0.8-1,1.3-1.9,1.7c-1.2,0.4-2.4,0.9-3.6,1.5h2.2l8.1-0.6
			c3.1-0.2,4.9-0.4,5.2-0.4c0.9,0,1.7,0.3,2.3,0.9c0.7,0.6,1,1.3,1,2.2c0,0.9-0.3,1.7-0.9,2.3c-0.6,0.7-1.3,1-2.2,1
			c-0.4,0-2,0.1-4.9,0.4c-2.8,0.2-5.2,0.4-7.2,0.5c-0.7,11.4-0.5,20.7,0.5,27.7c0.8,5.8,2.1,9.5,3.8,11.1c0.5,0.5,1.1,0.7,1.9,0.6
			c1.3-0.2,2.9-1.1,4.8-2.7c0.7-0.6,1.4-0.8,2.3-0.7c0.9,0.1,1.6,0.5,2.2,1.1c0.6,0.7,0.8,1.4,0.7,2.3c-0.1,0.9-0.5,1.6-1.1,2.2
			c-2.9,2.5-5.6,3.9-8.1,4.2c-2.8,0.3-5.2-0.5-7.3-2.5c-2.7-2.6-4.6-7.6-5.6-14.8C299.5,276.3,299.3,266.9,299.9,255.5z"/>
	</g>
</g>
</svg>
