<?xml version="1.0" encoding="utf-8"?>
<!-- Generator: Adobe Illustrator 22.1.0, SVG Export Plug-In . SVG Version: 6.00 Build 0)  -->
<svg version="1.1" xmlns="http://www.w3.org/2000/svg" xmlns:xlink="http://www.w3.org/1999/xlink" x="0px" y="0px"
	 viewBox="0 0 484.5 555" style="enable-background:new 0 0 484.5 555;" xml:space="preserve">
<style type="text/css">
	.st0{opacity:0.8;}
	.st1{fill:#202020;}
</style>
<g id="Layer_4">
</g>
<g id="Layer_2">
	<g>
		<g>
			<g>
				<g>
					<g class="st0">
						<g>
							<path class="st1" d="M38.2,162.4c-0.2-2.5-0.2-5.1,0-7.8c0.2-2.7,0.7-5.5,1.7-8.4c1-2.9,2.5-5.9,4.8-8.5
								c2.3-2.6,5.1-4.7,8.4-6c3.2-1.3,6.2-1.7,8.8-1.9c1.3-0.1,2.4-0.1,3.5-0.1c1,0,2,0,3,0c4-0.1,7.9-0.1,11.8-0.2
								c15.7-0.2,31.1-0.5,46.6-0.9c48.4-1,92-0.1,142.9-0.5c25.2-0.1,48.5-0.4,73.1-0.7c12.4,0,25,0,38,0l2.4,0c0.9,0,1.7,0,2.6,0
								c1.8,0.1,3.7,0.2,5.6,0.5c1.9,0.3,4,0.7,6,1.5c2.1,0.8,4.2,1.9,6,3.5c1.9,1.6,3.4,3.5,4.6,5.6c1.1,2.1,1.7,4.2,2.2,6.2
								c0.4,2,0.7,3.8,0.9,5.5c0.2,1.7,0.4,3.3,0.6,5c3.3,26.6,6.8,54,10.5,81.9c0.7,6,2.7,23.7,3.8,21.8
								c1.9,16.3,3.8,32.5,5.7,48.5c1,8,1.9,16,2.9,24l0.4,3c0.1,1,0.2,2.1,0.3,3.2c0.2,2.1,0.3,4.4,0.2,6.7
								c-0.1,2.3-0.4,4.7-1.2,7.2c-0.8,2.5-2.2,5.1-4.5,7.2c-1.5,1.3-3.3,2.4-5.1,2.9c-1.8,0.6-3.5,0.9-5,1c-1.6,0.1-3,0.1-4.3,0.1
								l-3.9,0c-5.3,0-10.5,0-15.8,0.1c-10.5,0.1-21,0.2-31.5,0.4c-22.1,0.3-45.2-0.7-67.4-0.5c-36,0.7-71.4-0.5-106.7-0.2
								c-4.9,0.2-15.5,1-19.6,0.9c-24.3-0.6-47.6-0.2-70.6,0.4c-5.8,0.2-11.5,0.3-17.2,0.5c-2.8,0.1-6,0.3-9.7-0.4
								c-1.8-0.4-3.8-1.1-5.5-2.2c-1.8-1.1-3.3-2.6-4.5-4.2c-2.3-3.2-3.4-6.5-4.3-9.5c-0.8-3.1-1.3-6-1.9-8.8
								c-0.5-2.8-1-5.7-1.6-8.5c-0.5-2.8-1-5.7-1.5-8.5c-2.8-17.9-4.7-31.8-6.2-49.1c-0.7-1.5-1-5.7-1.6-10.6
								c-0.3-3.3-0.7-10.3-1.1-19.2c-0.4-8.8-0.6-19.4-0.6-29.8c0-10.4,0.1-20.6,0.5-28.6c0.3-8,0.7-13.8,0.9-15.5
								c0.1-0.4,0.1,1.5,0.1,5.2c0,3.7,0,9.2,0,15.8c0.1,13.3,0.5,31.3,1.6,49.3c1.1,18,2.7,36,4.3,49.3c0.8,6.6,1.5,12.1,2.1,15.9
								c0.5,3.7,0.9,5.7,0.9,5.4c0-1.7-3.2-25.4-5-49.9c-2-24.5-2.6-49.6-2.6-53.7c1.6,43.1,5.9,78.1,10.2,106
								c1.1,7,2.2,13.5,3.3,19.6c0.6,3.1,1.1,6,1.6,8.9c0.5,2.9,1.1,5.6,2,8.2c0.9,2.6,2.2,5,4,6.8c1.8,1.8,4.2,2.7,6.5,3.1
								c2.3,0.4,4.5,0.3,6.7,0.2c2.1-0.1,4.2-0.1,6.1-0.2c31.3-0.9,39.6-1.3,34-1.3c-2.8,0-9.2,0.1-17.9,0.3
								c-4.4,0.1-9.3,0.2-14.7,0.3c-2.7,0.1-5.5,0.1-8.5,0.2c-2.9,0-5.9,0-8.6-1.2c-1.4-0.6-2.6-1.5-3.6-2.6c-1-1.1-1.8-2.5-2.5-3.9
								c-1.3-2.9-2-6.1-2.7-9.4c-0.6-3.3-1.2-6.6-1.8-10c-0.6-3.4-1.2-6.8-1.7-10.2c-2.3-13.7-4.2-27.6-5.8-40.6
								c-0.8-8.1-1.9-18-2.9-29.8c-1-11.8-2-25.5-2.4-41.4c0.5,9.4,1.6,23.7,3,36.7c1.4,13,3,24.7,3.5,29.2
								c2.5,20.7,4.2,29.4,5.7,38.8c0.8,4.7,1.6,9.6,2.7,16.2c0.6,3.3,1.2,7.1,1.9,11.4c0.4,2.1,0.8,4.4,1.6,6.6
								c0.8,2.2,1.8,4.4,3.5,6c1.4,1.3,3.3,2,5.6,2.3c2.3,0.3,5,0.2,7.9,0.1c5.6-0.1,11.6-0.2,17.7-0.3c12.3-0.3,25.4-0.6,38.3-0.8
								c25.8-0.6,50.9-1.3,67.6-1.6c-17.3,1.1-57.8,3.7-83.3,3.5c55.5,0.9,62.9-3.2,120.8-3.2c5.4,0,11.6-0.2,18.4-0.5
								c6.4,0.1,12.5,0.2,20.1,0.3c23.8-0.1,46.1-0.4,68.4-0.7c11.1-0.1,22.2-0.3,33.4-0.4c5.6,0,11.3-0.1,17-0.1c2.9,0,5.7,0,8.6,0
								c1.4,0,2.9,0,4.3,0c1.4,0,2.8,0,3.9-0.1c-1.6,0.2-3.2,0-4.9-0.2c-1.7-0.2-3.3-0.3-5.4-0.4c-40.4-1-74.6,0.7-117.3,0.6
								c-8.2-0.1-19.6,0.9-28.2,1c-17.6,0.2-33.2-0.4-49.7-0.7c32.7-1,71.3-1,106.5-1.4c7.3-0.1,16.1-0.9,21.8-1.2
								c-16.3,0.1-32.6,0.1-49.1,0.2c-57.4,0.6-132.3,4-173.7,2.5c-1.2,0.1-2.4,0.1-4.9,0.2c-0.6-0.1-1.5-0.1-2.4-0.1
								c-8,0.1-17.6,0-26.3-0.3l22.2,0c57.8-2.4,124-1.7,186.8-2.8c13.9-0.4,37,0.6,50.9,0.2c13.4-0.3,26.9-0.5,40.6-0.6
								c6.8,0,13.6-0.1,20.5-0.1l10.1,0c1.5,0,2.7-0.1,3.4-0.3c0.8-0.2,0.9-0.3,1.2-0.5c0.3-0.2,0.6-0.6,0.9-1.4
								c0.3-0.8,0.6-2,0.7-3.3c0.1-1.3,0.1-2.8,0-4.4c-0.1-1.6-0.2-3.2-0.4-4.9c-0.8-7.2-1.6-14.3-2.5-21.4
								c-4.3-36.9-8.5-73.7-12.8-110.4c-2.1-18.3-4.2-36.6-6.3-54.9c-0.3-2.1-0.8-4-1.5-5.5c-0.8-1.5-1.9-2.7-3.3-3.7
								c-1.5-0.9-3.3-1.5-5.3-1.9c-2-0.4-4.1-0.5-6.3-0.6c-9.2,0-18.4-0.1-27.6-0.1c-73.6-0.4-146.8-0.9-219.2-1.7
								c-3.4,0.1-6.8,0.1-10.1,0.2c1.5,0.1,2.9,0.2,4.3,0.3c-3.2-0.1-6.3-0.2-9.5-0.2c-18.6,0.3-36.9,0.4-55,0
								c-7.4-0.4,13.1-0.2,18.8-0.8c-4.1,0-8.2,0-8.2,0s0.8-0.3,1.6-0.6c-3.2,0.2-5-0.1-7.3-0.3c40.4-0.7,81-1.3,121.9-2
								c-4.7-0.7-16.8-0.4-22.5-0.4c-13.5,0.4-27,0.8-39.4,0.7c-17.2,0.4-34.7,0.3-52,0.2c-4.3,0-8.7-0.1-13-0.1
								c-2.1,0-4.4-0.1-7.2,0.2c-2.7,0.3-5.9,1-8.9,2.7c-2.8,1.6-5.3,4-7.1,6.6c-1.7,2.7-2.8,5.5-3.4,8.2c-1.2,5.4-1,10.4-0.5,15.1
								c0.7,6.9,2.4,13.4,4.4,19.6c0.6,1.8,0.6,2.2,0.2,1.7c-0.2-0.3-0.5-0.7-0.8-1.4c-0.4-0.7-0.8-1.7-1.3-2.9
								C41.1,177.2,38.7,169.8,38.2,162.4z M418.8,273.8c-1.1-11.2-2-22.2-3.1-33.5c-0.5-4-0.9-8-1.4-12c-0.6-5-1.3-10.3-2.1-15.7
								c-2.4-21.4-4.7-42.6-7.1-64c1.7,21.4,3.6,43.7,6.9,70.6c-2.3-17.3-4.3-34.1-6.1-50.5c-0.5-4.1-0.9-8.2-1.4-12.2
								c-0.2-2-0.4-4-0.7-6.1c-0.2-2-0.5-3.9-1-5.8c-0.9-3.7-3.4-6.8-6.9-8.4c-3.5-1.6-7.5-2-11.4-2.2c-31.8-0.5-63-1.2-95.2-1.6
								c-19.5,0-39.3,0.1-59.5,0.3c-14.3,0.2-28.2,0.5-42,0.9c36.2,0.1,72.4,0.3,108.4,0.6c18,0.1,36.1,0.3,54.1,0.4l27,0.2
								c4.5,0.1,9-0.1,13.3,0.6c4.2,0.7,8.1,2.5,10.1,6c1,1.6,1.6,3.6,2,5.7c0.4,2.1,0.6,4.3,0.8,6.6l1.5,13.5c1,9,2,17.9,3,26.9
								c2,18,4,35.9,6.1,54c2.1,18,4.1,36.1,6.2,54.1c1.1,9,2.1,18.1,3.2,27.2l0.8,6.8c0.2,2.1,0.4,4.2,0.4,6.2
								c0,1.9-0.2,3.8-0.6,5.2c-0.2,0.7-0.5,1.3-0.7,1.8c-0.3,0.5-0.6,0.8-0.9,1.1c-0.5,0.4-1,0.7-2.1,0.9c-1,0.2-2.4,0.3-4.1,0.3
								c-3.6,0-7.2,0-10.8-0.1c-7.2,0-14.4-0.1-21.7-0.1c-14.5,0-29-0.1-43.6-0.1c14.6,0.3,29.2,0.5,43.6,0.8
								c7.2,0.1,14.4,0.2,21.7,0.4l10.8,0.2c1.7,0,3.2,0,4.3-0.3c1.2-0.2,1.9-0.5,2.6-1.1c0.6-0.5,1.2-1.3,1.6-2.3
								c0.4-1,0.7-2.3,0.9-3.8c0.3-2.8,0.2-6-0.2-9.3c-0.8-6.8-1.5-13.7-2.3-20.6C421.8,301.6,420.3,287.8,418.8,273.8z
								 M422.3,294.4c1.3,10.4,2.7,20.8,4,31.1c0.3,2.6,0.7,5.1,1,7.7c0.3,2.6,0.7,5.1,0.8,7.5c0.1,2.4,0.1,4.9-0.4,7.1
								c-0.4,2.2-1.4,4.2-2.8,5.5c-1.1,1-2.4,1.6-4,1.9c-1.6,0.3-3.4,0.4-5.2,0.4c-1.9,0-3.8,0-5.8,0c-3.8,0-7.7,0-11.6,0
								c-7.7,0-15.5,0-23.2,0.1c-15.4,0.1-30.7,0.1-45.3,0.3c-29.2,0.3-55.6,0.9-75.3,2c26.8-0.5,54.2-0.9,82-1.4
								c13.9-0.2,27.9-0.4,42.1-0.6c7.1-0.1,14.2-0.1,21.3-0.2c3.6,0,7.1-0.1,10.7-0.1c1.8,0,3.6,0,5.4,0c1.8,0,3.4-0.1,4.9-0.4
								c-2.1,0.4-4.2,0.4-6.3,0.4c-2.1,0-4,0-5.7,0c-3.4,0-6.2,0-8.2,0c-4.1,0-5.5,0-4.6,0c0.9,0,4.2,0,9.5,0c2.6,0,5.8,0,9.4,0
								c3.5,0,7.4,0,10-2.3c2-1.8,3.1-5,3.3-8.7c0.2-3.7-0.3-7.7-0.9-12.1c-1.1-8.7-2.4-18.3-3.7-28.5
								C423.4,302.4,422.9,298.8,422.3,294.4z"/>
							<path class="st1" d="M223.7,136.8c-25.3-0.5-50.9-1.1-76.2-1.6c9.6,0.7,18.1,1.5,29.4,2c30.6,1.1,65,0.7,97.1,1.2
								c23.1,0.4,46.4,0.6,69.9,0.8c11.8,0.1,23.6,0.1,35.4,0.2l4.4,0c1.4,0,2.7,0.1,4,0.2c2.6,0.2,4.9,0.7,6.5,1.6
								c0.8,0.4,1.5,0.9,2,1.5c0.5,0.6,1,1.2,1.3,2c0.7,1.6,1.2,4,1.5,6.9c5.6,47.5,11.5,95.8,17.8,144.7c0.5,4.8,1.8,15.5,3.1,23.4
								c-3.7-30.8-7.3-61.2-10.9-91.3c-1.8-15.1-3.5-30-5.3-45c-0.9-7.5-1.7-14.9-2.6-22.3c-0.4-3.7-0.9-7.4-1.3-11.1
								c-0.2-1.7-0.5-3.3-0.9-4.6c-0.4-1.3-1-2.3-1.7-3.2c-1.4-1.7-3.9-2.8-7-3.4c-3.1-0.6-6.6-0.5-10.4-0.5
								c-7.5,0-14.9-0.1-22.3-0.1c-14.9-0.1-29.7-0.2-44.6-0.3C283.3,137.6,253.5,137.2,223.7,136.8z"/>
							<path class="st1" d="M306.2,348.9c-18,0.3-36,0.7-53.3,0.7c15.7,0.6,37,0.6,54.2,0.6c24.2-0.2,48.4-0.4,72.4-0.6
								C355.6,349.2,331.4,348.9,306.2,348.9z"/>
							<path class="st1" d="M420,319.5c0.6,4.9,1.2,9.8,1.8,14.8c0.2,1.9,0.4,3.6,0.5,5.2c0.1,1.6,0.1,3.2,0,4.6
								c-0.1,1.4-0.3,2.6-0.6,3.4c-0.3,0.8-0.6,1.2-0.8,1.3c-0.1,0.1-0.2,0.2-0.3,0.2c-0.1,0.1-0.5,0.2-0.9,0.2
								c-0.9,0.2-2.4,0.2-4.3,0.2c-3.9,0-7.9,0-11.9,0c-7.9,0-16,0.1-24,0.1c8,0.2,15.9,0.3,23.8,0.4l11.9,0.2c2,0,3.5,0,4.6-0.1
								c0.5-0.1,0.9-0.2,1.2-0.3c0.2-0.1,0.4-0.2,0.6-0.3c0.2-0.2,0.4-0.4,0.7-0.7c0.2-0.4,0.5-0.9,0.7-1.6c0.4-1.3,0.6-3.1,0.6-5
								c0-1.9-0.1-4-0.4-6.2c-0.3-2.3-0.5-4.6-0.8-6.9C421.8,329.3,420.9,325.1,420,319.5z"/>
						</g>
					</g>
				</g>
			</g>
		</g>
	</g>
	<g>
		<g>
			<g>
				<g>
					<g class="st0">
						<g>
							<path class="st1" d="M140.7,131.9c0.5-3.6,0.6-6.8,0.2-10.1c-0.1-1.2-0.1-2.3,0-3.4c0-0.6,0.1-1.1,0.1-1.7l0-0.4l0-0.2
								c0-0.1,0,0,0-0.1l0.1-0.1c0.3-0.2,0.8-0.9,0.7-1.5c0-0.1-0.1-0.2-0.2-0.3c-0.2-0.3-0.5-0.4-0.8-0.5l-0.3-0.1l-0.1,0l-0.1,0
								l0,0l-0.1,0c-0.7,0-1.4,0-2-0.1c-5.5-1-11.6-1.6-17.9-1.6c-0.7-0.1-2.7-0.5-2.5,0.8c-6.1-0.9-12-1.9-17.9-1.2
								c-2.5,0.1-5.1-1-7.5-0.8c-2,0.2-4,0-6-0.3c-1-0.1-2-0.3-3-0.4c-0.6-0.1-1.3-0.2-1.9-0.1c-0.3,0.2-0.7,0.9-1,0.9
								c-0.9-0.2-1.9,0-2.4,0.6c-0.5,0.6-0.5,1.6-0.3,2.4c0.2,0.8,0.6,1.6,1,2.2l0.3,0.4c0,0.1,0.1,0.1,0.1,0.2l0.2,0.5
								c0.2,0.6,0.4,1.2,0.6,1.9c0.5,2,1,3.5,1.1,5.4c0.6,0.1,0.6,0.6,0.8,1.1c0.2,1.5-0.3,9.7-1,10.5c-0.3,0.4-2.5-15.8-3.2-15.5
								c-0.3,0.4,1.3,10.6,1.2,11.5c-1.4-4.7-2.6-8.5-3.5-11.5c-0.5-1.5-0.9-2.9-1.3-4c-0.4-1.1-0.7-2.2-0.9-3.2
								c-0.4-1.9-0.3-3.2-0.3-3.9c0.1-0.7,0.1-0.8-0.1-0.5c-0.2,0.3-0.4,1.1-0.4,2.2c-0.1,1.1,0.1,2.5,0.5,4
								c0.2,0.7,0.4,1.5,0.6,2.3c0.2,0.7,0.4,1.5,0.7,2.2c0.5,1.5,0.9,3,1.4,4.4c0.1,1.8,1.4,4.3,1.9,7.8c-0.8-2-3.4-6-3.6-7
								c-0.7-2.3-1.3-3.2-1.7-4.2c-0.2-0.5-0.4-1-0.6-1.8c-0.1-0.4-0.2-0.8-0.2-1.3c-0.1-0.6-0.2-1.3-0.2-2.2
								c-0.1-1.4-0.3-3-0.2-4.7c0.1-1.7,0.6-3.6,1.8-5.1c2.4-2.9,6.4-3.4,9.1-3.7c-1.4,0.5-3.5,1.4-5.1,2.5
								c-0.8,0.5-1.6,1.2-2.3,1.9c-0.7,0.7-1.2,1.5-1.6,2.2c1.1-1.4,2.2-2.1,3.2-2.7c1-0.6,1.8-1.1,2.7-1.6c0.9-0.5,2-0.9,3.5-1.3
								c0.4-0.1,0.8-0.1,1.1-0.2c0.3-0.1,0.6-0.1,0.9-0.2c0.7-0.1,1.4-0.1,2.2-0.1c0.6,0,1.3-0.1,2.1-0.4c0.7,0.1,1.4,0.3,2.3,0.4
								c5.3,0.1,10-0.9,15.2-0.5c-0.4,0-0.7-0.6-1.2-0.7c-4.5-1.2-8.3,0.3-13.1,0c-0.9-0.2-2.2,0.8-3.2,0.8c-1,0-1.9-0.1-2.8-0.3
								l-1.4-0.3l-0.7-0.2l-0.3-0.1l-0.5-0.1l0.5-0.1l0.3-0.1l0.7-0.1c0.5-0.1,1-0.1,1.4-0.2c1-0.1,2-0.2,3-0.2
								c2-0.1,4.1-0.1,6.1-0.1c0.8-0.1,1.8-0.8,2.4-1.1c-1.8-0.1-3.6-0.1-5.5-0.1c-1.6,0.1-3.3,0.3-5.1,0.6
								c-0.9,0.2-1.8,0.3-2.7,0.5l-0.7,0.1c-0.1,0-0.3,0-0.5,0.1l-0.5,0.1c-0.7,0.1-1.4,0.2-2.1,0.2c-2.7,0.3-5,1-7,2
								c-1.9,1-3.4,2.6-4.5,3.9c0,0.2-0.1,0.4-0.2,0.8c-0.1,0.1-0.2,0.2-0.3,0.3c-0.4,1.3-0.8,2.8-1.3,4.2c0.1-1.3,0.3-2.5,0.8-3.7
								c0.2-2.6,1.6-5.1,3.8-6.8c2.2-1.6,5-2.4,8.1-2.5c2.3,0,4.6-0.1,6.8-0.1c1.8,0,3.6-0.1,5.3-0.3c1.6-0.3,4.1,0.8,5.7,0.5
								c4.6-0.7,9.3-0.4,13.9,0.5c6.1,1,12.1,2,18.2,3c3,0.5,6,1.1,9,1.7l1.1,0.2l1.3,0.2c0.9,0.1,1.7,0.3,2.5,0.5
								c1.6,0.4,3,1.1,4,2.3c0.7,0.9,1.1,2.1,1.1,3.2c0.1,1.2-0.1,2.3-0.3,3.3l-0.3,1.5l-0.3,1.6c-0.2,1.1-0.4,2.2-0.7,3.3
								c0,0.4,0.1,0.7,0.1,1.1c0.1-0.2,0.3-0.3,0.4-0.5l-0.4,1.1c0.1,2.1-0.1,4.1-0.9,6.1c-0.5,0.8,0-1.4-0.5-2.1
								c-0.1,0.4-0.2,0.9-0.2,0.9s-0.3-0.1-0.6-0.2c0.1,0.3-0.2,0.5-0.4,0.8c0-2.2,0-4.4-0.1-6.6c-0.1-1.9-0.2-3.9-0.2-5.9
								c-0.4,0.2-0.5,0.4-0.6,0.6c0,0.1,0,0.1,0,0.2c0,0.1,0,0.2,0,0.3c0,0.2,0,0.4,0,0.6c0.2,1.5,0.5,2.9,0.2,4.3
								c0.3,3.7-1.2,7.6-1.7,11.1c-0.3,0.6-0.6,1.3-0.9,1.9C141.2,134.9,140.4,133.2,140.7,131.9z M116.4,103.6
								c1.3,0.4,2.5,0.9,3.8,1.4c0.4,0.1,0.9,0.1,1.3,0.2c0.6,0.1,1.2,0.1,1.8,0c2.4,0.5,4.8,1,7.2,1.5c-2.4-1.2-4.9-2.2-7.9-2.6
								c3.9,0.1,7.5,0.9,11.1,1.9c1.8,0.5,3.5,1,5.3,1.6l1.3,0.4c0.4,0.1,0.7,0.3,1.1,0.4c0.7,0.3,1.3,0.5,1.8,0.8
								c0.8,0.2,1.6,0.6,2.2,1.3c0.4,0.5,0.7,1.1,0.8,1.7c0.3,1,0.4,2,0.6,3c0.2-0.9,0.4-1.8,0.4-2.9c0-1-0.2-2.1-0.8-3
								c-0.5-0.7-1.2-1.2-2-1.6c-0.8-0.4-1.7-0.6-2.7-0.8l-6.2-1.3c-4.2-0.9-8.4-1.8-12.6-2.6c-8.4-1.6-16.9-3-25.5-3.4
								C103.8,101.1,110,102,116.4,103.6z M114.1,104.4c-2.6-0.2-5.1-0.2-7.6-0.2c-6.8-0.3-14.2-0.5-18.6,1.4
								c6-0.7,12.2-1.3,18.6-1.4c-6.1-0.3-1.7,0.1,6.5,0.2C113.2,104.4,113.6,104.4,114.1,104.4z"/>
							<path class="st1" d="M150,110.6c-0.1,1.7-0.5,3.2-0.9,4.6c-0.4,1.3-0.8,2.8-1.2,4.2c0.9-1.1,1.7-2.1,2.3-3.4
								c0.6-1.4,0.9-3.1,0.9-4.9c0-1.8-0.5-3.6-1.7-5c-0.6-0.7-1.2-1.2-1.9-1.7c-1.3-0.9-2.9-1.4-4.6-1.8c-0.4-0.1-0.9-0.2-1.3-0.2
								c-0.4-0.1-1-0.2-1.3-0.2l-2-0.4c-2.6-0.6-5.3-1-8-1.4c-5.3-0.8-10.8-1.3-16.3-1.6c-0.5-0.1-1.7-0.2-2.6,0
								c6.3,0.8,12.5,1.6,18.6,2.6c3,0.5,6.1,1,9.1,1.7l1.1,0.2l0.3,0.1l0.4,0.1l0.7,0.1c1,0.2,1.9,0.3,2.8,0.6
								c1.7,0.5,3.3,1.3,4.4,2.7C149.6,107.9,150,109.3,150,110.6z"/>
							<path class="st1" d="M93.6,97c-2,0.2-4,0.5-6,0.4c1.8,0.7,4.1,0.8,6.1,0.9c2.7-0.1,5.4-0.2,8.1-0.2
								C99.1,97.5,96.4,97,93.6,97z"/>
							<path class="st1" d="M111.3,98.7c-0.6-0.1-1.1-0.1-1.7-0.2c-2.6-0.3-5.2-0.5-7.9-0.5c2.8,0.6,5.6,1.3,8.4,1.8
								C110.2,99.2,110.7,98.9,111.3,98.7z"/>
						</g>
					</g>
				</g>
			</g>
		</g>
	</g>
	<g>
		<g>
			<g>
				<g>
					<g class="st0">
						<g>
							<path class="st1" d="M305.2,159.6c5.5,0.5,10.4,2.1,14.7,4.2c4.4,2.2,8.2,5,11.5,8.1c3.3,3.2,6.2,6.7,8.6,10.7
								c2.3,3.9,4,7.8,5.4,11.9c2.1,6.4,3,12.6,3.4,18.7c0.4,6,0.2,11.9-0.1,17.6c-0.7,11.3-1.7,23-4.4,35.6
								c-1.4,6.2-3.2,12.2-5.6,18c-2.4,5.8-5.4,11.3-9.3,16.5c-8,10.4-19.4,18.5-32.1,23.7c-6.3,2.6-13.1,4.4-20,5.5
								c-6.9,1.1-14,1.4-21.1,1c-3.1-0.2-11.9-2-11.3-0.7c-6.8-1.5-13.2-3.9-19.4-6.7c-6.1-2.9-11.9-6.2-17.4-10
								c-5.5-3.7-10.5-8-15.3-12.4c-4.8-4.4-9.3-9.1-13.5-14.1c-6.9-8.5-12.4-18.5-16.7-28.9c-1.8-4.2-3.1-8.6-3.8-13.2
								c-0.7-4.6-0.7-9.3,0-13.8c0.7-4.6,2.1-9,4-13.1c1.9-4.1,4.3-7.9,7-11.5c0.7-1,1.7-2.7,2.9-4.2c1.1-1.5,2.3-3,3.1-3.6
								c4.6-4,9.5-7.5,14.3-10.6c4.9-3.1,9.9-5.9,14.9-8.4c5.1-2.5,10.3-4.8,15.5-6.7c5.2-2,10.5-3.7,15.9-5.2
								c8.5-2.2,15.2-3.7,23.6-4.8c0.7-0.7,2.7-0.9,5.1-1.3c3.2-0.4,13.7-1,23.8-0.5c1.3,0.1,2.5,0.1,3.8,0.2
								c1.2,0.1,2.4,0.2,3.6,0.3c2.4,0.2,4.5,0.4,6.5,0.6c3.9,0.5,6.7,1,7.4,1.2c0.2,0.1-0.7,0-2.5,0c-0.9,0-2-0.1-3.3-0.2
								c-1.3,0-2.8-0.1-4.4-0.1c-6.4-0.2-15.1-0.1-23.8,0.5c-8.7,0.6-17.3,1.8-23.7,3c-6.3,1.2-10.4,2.3-10.1,2.3
								c0.8,0,12.1-2.4,23.9-3.6c11.7-1.4,23.9-1.4,25.9-1.3c-20.8,0.7-37.4,3.9-50.5,7.3c-13,3.5-22.6,7-29.4,10.1
								c-6.8,3.1-10.8,5.5-12.9,6.8c-2.1,1.3-2.3,1.6-1.2,0.9c2.3-1.3,10.4-6,21.4-10c11.1-4.1,24.8-8,37.1-10.4
								c7.7-1,18.7-3.4,34-3.4c-4.5,0.2-11.4,1.1-17.5,2.2c-3.1,0.5-6,1.1-8.4,1.6c-2.4,0.5-4.3,0.9-5.4,1.1
								c-9.7,1.8-13.7,3.3-18,4.5c-2.2,0.7-4.4,1.3-7.5,2.2c-0.8,0.2-1.6,0.4-2.5,0.7c-0.9,0.3-1.8,0.5-2.8,0.8
								c-2,0.6-4.3,1.3-7,2.1c-8.7,2.7-20.2,7.9-29.7,14.9c-4.8,3.5-9.1,7.4-12.5,11.4c-3.4,3.9-5.9,7.8-7.5,11
								c1.3-3.5,4.3-9.4,9-14.7c4.7-5.4,10.9-10.2,16.2-13.1c-2.9,1.5-5.4,3-7.6,4.5c-2.2,1.5-4,3-5.7,4.5c-3.3,3-5.6,5.8-7.7,8.9
								c-2.1,3.1-3.8,6.3-5.6,10.2c-1.7,3.9-3.3,8.6-4.1,14.8c-0.3,2.3-0.1,5,0.3,7.9c0.1,2.8,0.5,5.4,1.2,8.7
								c1.4,5.1,3.6,9.9,6.2,14.4c1.3,2.3,2.7,4.4,4.1,6.6c1.4,2.1,3,4.2,4.5,6.2c3.2,4,6.5,7.9,10.1,11.7
								c3.6,3.7,7.4,7.3,11.5,10.8c-1.4-1.2-1.9-2.4-3.3-3.7c-6.5-6.6-12.2-12.9-17.5-19.7c-5.2-6.9-10.3-14.3-13.3-23.1
								c-0.5-1.7-1.3-3.7-2.1-5.7c-0.7-2-1.3-4.2-1.5-6c-0.4-3.8-0.1-7.4,0.7-10.7c0.8-3.4,2.1-6.5,3.7-9.6
								c-2.6,6.4-3.8,13.8-2.8,21.3c0.5,3.8,1.5,7.5,2.9,11.2c1.4,3.7,3.2,7.3,5.1,10.7c1.7,2.8,4.4,5.8,6.2,7.7
								c-4.1-6.1-7.7-12.4-10.1-18.9c-2.2-5.7-3.7-11.9-3.5-18.2c0.2-6.4,2.1-12.8,5.4-18.5c3.3-5.7,7.9-10.6,12.7-14.5
								c4.8-3.9,9.7-6.7,14-8.5c0.5-0.3,0.9-0.6,1.9-1.2c0.3-0.1,0.6-0.2,1-0.4c3.2-1.7,7.3-3.4,11.1-4.4c-3.1,1.2-6.2,2.5-9.3,3.9
								c-5.6,3.3-11.3,7-16.4,11.3c-5.2,4.2-9.8,9.1-13.3,14.5c-3.5,5.4-5.7,11.5-6.1,17.7c-0.5,6.2,0.8,12.6,3.4,18.7
								c1.2,2.7,2.7,6.3,4.5,10c1.8,3.6,3.9,7.2,5.9,9.7c11.1,14.7,25.3,28,41.2,37c7.2,4,14.9,7,23,9c8,1.8,16.3,2.3,24.6,1.6
								c8.3-0.7,16.5-2.8,24.1-6.1c7.6-3.3,14.8-8,20.7-14l2.2-2.3c0.7-0.8,1.3-1.6,2-2.4c0.6-0.8,1.4-1.6,2-2.5l1.8-2.6
								c2.3-3.6,4.3-7.4,6-11.3c1.7-3.9,3-8.1,4.2-12.2c1.2-4.2,2.1-8.4,2.8-12.7c1.5-8.6,2.2-17.3,2.8-26
								c0.5-8.7,0.7-17.5-0.9-26.4c-0.4-1.6-0.9-3.2-1.3-4.8c0.1,0.7,0.1,1.5,0.2,2.2c-0.3-1.5-0.7-3.1-1-4.6
								c-1.6-4.3-3.6-8.5-6.3-12.4c-2.7-3.8-5.9-7.3-9.6-10.2c-0.7-0.6-0.8-0.7-0.3-0.5c0.4,0.3,1.4,0.8,2.4,1.6
								c2.1,1.5,4.5,3.9,5.7,4.8c-0.7-0.8-1.4-1.6-2-2.2c-0.6-0.6-1-0.9-1-0.9s0.5,0.1,1,0.1c-0.7-0.5-1.1-1-1.5-1.5
								c-0.4-0.5-0.8-0.9-1.2-1.4c2.2,1.6,4.1,3.6,6,5.6c1.8,2.1,3.5,4.2,4.9,6.6c2.8,4.7,4.7,9.6,6.1,14.7
								c2.7,10.2,3,20.4,2.9,30.3c0.8-2.3,0.7-8.2,0.6-11.1c-0.5-6.7-1.5-13.5-3-19.8c-1.2-4.3-2.8-8.6-4.9-12.8
								c-2.2-4.3-5-8.2-8.4-11.7c-3.4-3.4-7.3-6.4-11.7-8.6c-4.4-2.2-9.3-3.7-14.4-3.9c-3.8-0.3-7.7,0-11.4,0.9
								c-0.9,0.2-1.1,0.1-0.9-0.1c0.1-0.1,0.3-0.3,0.7-0.5c0.4-0.2,1-0.5,1.7-0.7c0.7-0.2,1.5-0.6,2.4-0.8c0.9-0.2,1.9-0.4,2.9-0.6
								C301,159.5,303.2,159.4,305.2,159.6z M240.6,320c0.6,0.2,1.2,0.5,1.8,0.7l1.9,0.6c1.2,0.4,2.5,0.8,3.7,1.2
								c2.5,0.6,5,1.3,7.7,1.7c0.9,0.1,1.9,0.2,2.8,0.3c0.9,0,1.9,0.1,2.8,0.1c2.3,0.2,4.8,0,7.4-0.2c1.3,0,2.5-0.2,3.8-0.2l1.9-0.1
								c0.6,0,1.3-0.2,1.9-0.2l3.8-0.5l3.7-0.7l1.9-0.4l1.8-0.5c1.2-0.3,2.5-0.7,3.7-1c2.4-0.9,4.9-1.6,7.2-2.7
								c-2.4,0.9-4.9,1.5-7.4,2.3c-1.3,0.3-2.6,0.6-3.9,0.9c-0.7,0.1-1.3,0.3-2,0.4c-0.7,0.1-1.3,0.2-2,0.3c-0.7,0.1-1.4,0.2-2,0.3
								l-1,0.2l-1,0.1c-1.4,0.2-2.8,0.3-4.3,0.5c-1.4,0.1-2.9,0.2-4.4,0.3c-0.4,0-0.8,0.1-1.1,0.1c-0.4,0-0.8,0-1.1,0
								c-0.8,0-1.5,0-2.3,0c8.1-0.3,15.9-1.5,23.2-3.7c7.4-2.2,14.3-5.2,20.7-9.3c6.3-4.1,12.1-9.1,16.8-15.2
								c2.3-3.1,4.4-6.3,6.3-9.7c1.8-3.4,3.5-7,4.8-10.8c3-9.1,4.6-18.7,5.4-28.4c0.5-6.9,0.6-13.6,0.5-20.2
								c-0.5,10.4-1.3,20.8-3.2,31.1c-1.9,10.2-4.9,20.4-9.9,29.4c-0.6,1.2-1.3,2.2-2,3.3c-0.6,1.1-1.4,2.2-2.1,3.2
								c-0.4,0.5-0.7,1.1-1.1,1.6l-1.2,1.5c-0.8,1-1.6,2-2.4,2.9c-1.8,1.8-3.5,3.7-5.5,5.3c-1.9,1.7-4,3.2-6,4.7
								c-1,0.7-2.1,1.3-3.2,2l-1.6,1c-0.5,0.3-1.1,0.6-1.7,0.9l-3.3,1.7l-3.5,1.5c-0.6,0.2-1.1,0.5-1.7,0.7l-1.8,0.6
								c-1.2,0.4-2.3,0.9-3.5,1.2c-2.4,0.6-4.8,1.4-7.3,1.8c-9.7,2.1-19.8,2.1-29.5,0.6c-2.4-0.5-4.8-0.9-7.2-1.6
								c-1.2-0.3-2.4-0.6-3.5-1l-3.5-1.2c-4.6-1.7-9.1-3.6-13.4-6c-17.3-9.4-31.9-23.7-43-40.4c6.7,11.1,15.1,21,24.8,29.4
								C216.8,309,228.1,315.8,240.6,320z M231.2,317.7c-5-2-9.7-4.5-14.2-7.2c-4.5-2.7-8.8-5.8-12.9-9c-11-9-20.8-20.5-28.1-31.9
								c-3.7-5.7-6.6-11.5-8.7-17c-1-2.7-1.8-5.4-2.5-8c-0.6-2.6-1-5-1.3-7.3c0.2,6.3,1.8,12.5,4.2,18.4c2.4,5.9,5.7,11.5,9.4,16.9
								c7.5,10.7,16.5,20.6,27,29c-2.4-2.1-4.3-3.7-5.7-5c-1.4-1.3-2.3-2.1-2.7-2.6c-0.9-1-0.3-0.2,1.8,1.8c1,1,2.4,2.3,4.2,3.8
								c0.9,0.7,1.8,1.6,2.9,2.4c1.1,0.8,2.2,1.7,3.4,2.7c4.9,3.7,11.3,7.8,19.1,11.4C227.7,316.3,229.3,316.9,231.2,317.7z"/>
							<path class="st1" d="M339.2,243.2c0.8-6,1.5-12,1.9-18.1c0.4-6.1,0.6-12.3,0.1-18.4c-0.1,4.8-0.6,8.9-1.2,14.3
								c-0.6,7.3-1.2,15-2,22.7c-0.8,7.7-2,15.5-4.1,22.7c-3,10.3-7.5,20.1-14.2,28.1l-1.2,1.5c-0.4,0.5-0.9,0.9-1.3,1.4
								c-0.9,0.9-1.8,1.9-2.7,2.8l-2.9,2.6c-0.5,0.4-1,0.8-1.5,1.2l-1.6,1.2c-4.2,3-8.7,5.7-13.6,7.7c-1.2,0.6-2.4,1-3.7,1.4
								c-1.2,0.4-2.5,0.9-3.7,1.3c-1.3,0.4-2.5,0.8-3.8,1.1l-3.9,0.9c-5.2,1-10.5,1.5-15.8,1.5c-5.3-0.1-10.6-0.6-15.7-1.7
								c-5.2-1.1-10.3-2.8-15.3-4.8c-1-0.5-2.5-1.1-4.2-1.9c-1.7-0.9-3.6-1.6-5.2-2.4c11.8,6.9,25,11.1,38.2,11.6
								c13.3,0.6,26.8-2.2,38.6-8.3c5.9-3.1,11.4-6.9,16.1-11.6l1.7-1.8l0.9-0.9c0.3-0.3,0.5-0.6,0.8-1l1.6-1.9
								c0.5-0.6,1.1-1.3,1.5-2l1.4-2.1c0.5-0.7,0.9-1.4,1.3-2.1c0.9-1.4,1.7-2.9,2.5-4.4c3.1-6.1,5.4-12.6,7.2-19.4
								C337.1,257.2,338.3,250.2,339.2,243.2z"/>
							<path class="st1" d="M177.1,257c-3.4-6.7-5.6-13.8-5.3-20.3c-0.2,1.5-0.2,3.1-0.2,4.8c0.1,1.7,0.3,3.6,0.8,5.4
								c0.8,3.7,2.2,7.5,3.8,10.9c1.1,2.3,2.4,4.6,3.8,6.9c1.4,2.3,2.8,4.5,4.4,6.7c3.1,4.4,6.5,8.6,10.1,12.5
								c-3.4-4.1-6.6-8.5-9.5-13C181.9,266.4,179.3,261.7,177.1,257z"/>
							<path class="st1" d="M223.5,307.9c-0.9-0.6-1.9-1.1-2.8-1.7c-0.9-0.6-1.8-1.2-2.8-1.8l-1.6-1.1c-0.5-0.4-1-0.8-1.5-1.1
								c-1-0.8-2.1-1.5-3.1-2.3c-2-1.6-4.1-3.2-6-4.9c-3.9-3.4-7.7-7.1-11.3-11.1c1.8,2.2,3.6,4.3,5.5,6.4c2,2,3.9,4,6,5.9
								c4.1,3.8,8.5,7.4,13.2,10.5C219.4,306.2,221.2,306.9,223.5,307.9z"/>
						</g>
					</g>
				</g>
			</g>
		</g>
	</g>
</g>
<g id="Layer_3">
	<g>
		<path d="M195.6,212.9c0.8,0.2,2,0.5,3.5,0.7c1.9,0.2,3.3,0.5,4.3,0.8c3,1,6.5,3,10.4,6.1c4.3,3.5,6.9,6.6,7.8,9.5
			c0.4,1.4,0.7,2.8,0.9,4.2c0.2,1.4,0.2,3,0,4.8c-0.2,1.8-0.8,3.3-1.7,4.6c-2.2,3.2-6.2,6-12,8.1c-5.9,2.2-10.7,2.6-14.3,1.3
			c-0.1,0-0.2-0.1-0.4-0.2c1,9.4,1.6,14.9,1.7,16.4c0.1,0.7-0.1,1.2-0.5,1.7c-0.4,0.5-1,0.8-1.6,0.8c-0.7,0.1-1.2-0.1-1.7-0.5
			c-0.5-0.4-0.8-1-0.8-1.6c-0.2-2.3-0.6-6.3-1.2-12c-0.6-5.7-1.1-10.3-1.4-13.7c-0.3-3.4-0.3-7.6,0-12.5c0.3-4.8,1.1-9.2,2.3-13.2
			c0.3-1,1-1.5,2-1.6c-0.5-0.7-0.7-1.4-0.5-2.2c0.2-0.6,0.6-1.1,1.2-1.4C194.5,212.8,195,212.7,195.6,212.9z M195.6,219.6
			c-2.3,7.3-2.9,17.1-1.8,29.4c0.7-0.7,1.5-0.8,2.4-0.5c2.6,0.9,6.3,0.5,11.1-1.4c4.8-1.8,8.1-3.9,9.8-6.4c0.6-1.1,0.9-2.6,0.9-4.2
			c0-1.7-0.3-3.4-0.9-5.1c-0.6-1.9-2.7-4.3-6.2-7.2c-3.5-2.8-6.5-4.5-8.9-5.3c-0.7-0.2-1.9-0.5-3.5-0.7c-1.4-0.2-2.4-0.4-3.2-0.5
			C195.7,218.3,195.8,219,195.6,219.6z"/>
		<path d="M245.2,219.1c-0.1,0.8-0.4,5.5-1.1,14c-0.7,8.5-1,15-1,19.4c0,0.7-0.2,1.2-0.7,1.7c-0.5,0.5-1,0.7-1.7,0.7
			c-0.7,0-1.2-0.2-1.7-0.7c-0.5-0.5-0.7-1-0.7-1.7c0-3.3,0.1-6.9,0.4-10.6s0.6-8,0.9-12.5c0.4-4.5,0.6-8.1,0.8-10.7
			c0.1-0.6,0.3-1.1,0.8-1.6c0.5-0.5,1-0.6,1.7-0.6c0.6,0.1,1.2,0.3,1.6,0.8C245,217.9,245.2,218.4,245.2,219.1z M243.3,203
			c0.5,0.5,0.7,1,0.7,1.7c0,0.7-0.2,1.2-0.7,1.7c-0.5,0.5-1,0.7-1.7,0.7c-0.7,0-1.2-0.2-1.7-0.7c-0.5-0.5-0.7-1-0.7-1.7
			c0-0.7,0.2-1.2,0.7-1.7c0.5-0.5,1-0.7,1.7-0.7C242.3,202.3,242.9,202.5,243.3,203z"/>
		<path d="M286.3,223.1c-5.3-2.6-9.9-3.1-13.9-1.4c-3.4,1.5-5.7,4.3-6.9,8.4c-0.7,1.9-0.9,3.9-0.7,6c0.2,2.1,0.7,4.1,1.5,5.9
			c0.8,1.8,2.1,3.5,3.9,5c1.8,1.5,4,2.6,6.5,3.3c3.2,0.9,6.1,1,8.6,0.2c0.6-0.2,1.2-0.1,1.8,0.2c0.6,0.3,1,0.8,1.2,1.4
			c0.2,0.6,0.2,1.2-0.1,1.8c-0.3,0.6-0.8,1-1.4,1.2c-3.3,1.1-7.1,1-11.3-0.2c-2.6-0.7-4.9-1.8-6.9-3.2c-2-1.4-3.7-3.1-4.9-4.9
			c-1.2-1.8-2.1-3.7-2.8-5.8c-0.6-2-0.9-4.1-0.9-6.2c0-2.1,0.3-4.1,0.9-6.1c0.8-2.5,2-4.8,3.6-6.8c1.6-2,3.6-3.5,6-4.5
			c5.3-2.4,11.3-1.9,18,1.4c0.5,0.3,0.9,0.8,1.1,1.4c0.2,0.6,0.2,1.2-0.1,1.8c-0.3,0.6-0.8,1-1.4,1.2
			C287.5,223.4,286.9,223.4,286.3,223.1z"/>
		<path d="M325.2,223.9c-3.7-1.7-6.7-2.7-9-3.1c-3.2-0.4-5.5,0.3-6.9,2.3c-0.4,0.5-0.5,0.9-0.5,1.1c0,0.3,0.1,0.7,0.4,1.2
			c0.3,0.5,0.7,1.1,1.1,1.6c0.4,0.5,0.8,1,1.1,1.4c0.3,0.4,0.9,0.8,1.7,1.4l1.5,1.2l2,1.3c1,0.7,1.7,1.2,2,1.4c1.6,1.1,3,2.1,4,3
			c1.1,0.9,2.1,2.2,3.2,3.8c1.1,1.7,1.8,3.4,2.1,5.4c0.3,2.2-0.7,4-2.9,5.5c-1.4,1-3.4,1.7-5.9,2.3c-2,0.5-4.2,0.9-6.4,1.1
			c-2.2,0.2-3.9,0.2-5,0c-1-0.2-2.7-0.9-5.2-2c-0.6-0.3-1-0.8-1.3-1.4c-0.2-0.6-0.2-1.2,0-1.8c0.3-0.6,0.7-1,1.3-1.2
			c0.6-0.2,1.2-0.2,1.7,0c2.2,1,3.7,1.5,4.3,1.6c0.8,0.2,2.1,0.2,3.9,0c1.8-0.1,3.6-0.5,5.4-0.9c1.9-0.5,3.4-1.1,4.4-1.7
			c0.6-0.4,0.9-0.7,0.8-0.9c-0.3-1.9-1-3.5-2.2-4.8c-1.1-1.4-2.8-2.8-5.1-4.2c-0.2-0.2-0.8-0.6-1.8-1.2c-1-0.6-1.7-1.1-2.1-1.4
			c-0.5-0.3-1.1-0.7-1.9-1.4c-0.8-0.7-1.5-1.2-2-1.8c-0.5-0.5-1-1.1-1.6-1.9c-0.6-0.8-1.1-1.5-1.4-2.2c-0.7-1.3-1-2.6-0.9-3.7
			c0.1-1.1,0.6-2.3,1.4-3.5c2.4-3.5,6.2-4.9,11.3-4.2c2.8,0.4,6.3,1.5,10.4,3.3c0.6,0.3,1,0.8,1.2,1.4c0.2,0.6,0.2,1.2-0.1,1.8
			c-0.3,0.6-0.7,1-1.3,1.2C326.4,224.1,325.8,224.1,325.2,223.9z"/>
	</g>
</g>
</svg>
