<?xml version="1.0" encoding="utf-8"?>
<!-- Generator: Adobe Illustrator 22.1.0, SVG Export Plug-In . SVG Version: 6.00 Build 0)  -->
<svg version="1.1" id="Layer_1" xmlns="http://www.w3.org/2000/svg" xmlns:xlink="http://www.w3.org/1999/xlink" x="0px" y="0px"
	 viewBox="0 0 55.7 55.7" style="enable-background:new 0 0 55.7 55.7;" xml:space="preserve">
<style type="text/css">
	.st0{fill:#010101;}
	.st1{fill:none;}
	.st2{fill:#FFFFFF;}
	.st3{font-family:'5yearsoldfont';}
	.st4{font-size:42.2299px;}
</style>
<g>
	<g>
		<path class="st0" d="M27.8,55.2c-15.1,0-27.3-12.3-27.3-27.3c0-15.1,12.3-27.3,27.3-27.3c15.1,0,27.3,12.3,27.3,27.3
			C55.2,42.9,42.9,55.2,27.8,55.2z"/>
		<path class="st0" d="M27.8,1c14.8,0,26.8,12,26.8,26.8s-12,26.8-26.8,26.8C13,54.7,1,42.6,1,27.8S13,1,27.8,1 M27.8,0
			C12.5,0,0,12.5,0,27.8s12.5,27.8,27.8,27.8c15.4,0,27.8-12.5,27.8-27.8S43.2,0,27.8,0L27.8,0z"/>
	</g>
	<rect x="9.3" y="9.1" class="st1" width="37.1" height="38.4"/>
	<text transform="matrix(1 0 0 1 9.2788 36.6146)" class="st2 st3 st4">ig</text>
</g>
</svg>
