<?xml version="1.0" encoding="utf-8"?>
<!-- Generator: Adobe Illustrator 22.1.0, SVG Export Plug-In . SVG Version: 6.00 Build 0)  -->
<svg version="1.1" id="Layer_1" xmlns="http://www.w3.org/2000/svg" xmlns:xlink="http://www.w3.org/1999/xlink" x="0px" y="0px"
	 viewBox="0 0 64.7 64.7" style="enable-background:new 0 0 64.7 64.7;" xml:space="preserve">
<style type="text/css">
	.st0{fill:#010101;}
	.st1{fill:none;}
	.st2{fill:#FFFFFF;}
	.st3{font-family:'5yearsoldfont';}
	.st4{font-size:49.0575px;}
</style>
<g>
	<g>
		<path class="st0" d="M32.3,64.2c-17.6,0-31.8-14.3-31.8-31.8c0-17.6,14.3-31.8,31.8-31.8c17.6,0,31.8,14.3,31.8,31.8
			C64.2,49.9,49.9,64.2,32.3,64.2z"/>
		<path class="st0" d="M32.3,1c17.3,0,31.3,14.1,31.3,31.3S49.6,63.7,32.3,63.7S1,49.6,1,32.3S15.1,1,32.3,1 M32.3,0
			C14.5,0,0,14.5,0,32.3s14.5,32.3,32.3,32.3s32.3-14.5,32.3-32.3S50.2,0,32.3,0L32.3,0z"/>
	</g>
	<rect x="10.8" y="10" class="st1" width="43.1" height="44.6"/>
	<text transform="matrix(1 0 0 1 10.7793 41.9769)" class="st2 st3 st4">in</text>
</g>
</svg>
