<?xml version="1.0" encoding="utf-8"?>
<!-- Generator: Adobe Illustrator 22.1.0, SVG Export Plug-In . SVG Version: 6.00 Build 0)  -->
<svg version="1.1" id="Layer_1" xmlns="http://www.w3.org/2000/svg" xmlns:xlink="http://www.w3.org/1999/xlink" x="0px" y="0px"
	 viewBox="0 0 190 106.9" style="enable-background:new 0 0 190 106.9;" xml:space="preserve">
<style type="text/css">
	.st0{fill:#FFFFFF;}
</style>
<g>
	<path d="M45.1,31.7H26.2v-3.8c0-3.2-0.2-5.3-0.6-6.1c-0.4-0.9-1.3-1.3-2.8-1.3c-1.2,0-2.1,0.4-2.7,1.2c-0.6,0.8-0.9,2-0.9,3.6
		c0,2.1,0.1,3.7,0.4,4.7c0.3,1,1.2,2.1,2.7,3.3c1.5,1.2,4.6,2.9,9.2,5.2c6.2,3,10.2,5.9,12.2,8.5c1.9,2.7,2.9,6.6,2.9,11.7
		c0,5.7-0.7,10-2.2,12.9s-3.9,5.1-7.4,6.7c-3.5,1.6-7.6,2.3-12.5,2.3c-5.4,0-10-0.8-13.9-2.5s-6.5-4-7.9-6.9
		c-1.4-2.9-2.2-7.2-2.2-13.1v-3.4h18.9v4.4c0,3.8,0.2,6.2,0.7,7.3c0.5,1.1,1.4,1.7,2.8,1.7c1.5,0,2.6-0.4,3.2-1.1
		c0.6-0.8,0.9-2.3,0.9-4.8c0-3.3-0.4-5.4-1.2-6.3c-0.8-0.8-4.9-3.3-12.4-7.5C7.2,45,3.4,41.8,2.1,38.9C0.7,36.1,0,32.7,0,28.7
		c0-5.6,0.7-9.7,2.2-12.4c1.5-2.7,4-4.7,7.5-6.1c3.5-1.4,7.6-2.2,12.3-2.2c4.6,0,8.6,0.6,11.8,1.8c3.3,1.2,5.7,2.7,7.5,4.7
		c1.7,1.9,2.8,3.7,3.2,5.4c0.4,1.7,0.6,4.2,0.6,7.8V31.7z"/>
	<path d="M68.4,0v11h5.7v11.1h-5.7v37.4c0,4.6,0.2,7.2,0.7,7.7S71.6,68,75,68v11.3h-8.6c-4.9,0-8.3-0.2-10.4-0.6
		c-2.1-0.4-3.9-1.3-5.5-2.8c-1.6-1.5-2.6-3.1-3-5C47.2,69,47,64.6,47,57.6V22.1h-4.6V11H47V0H68.4z"/>
	<path d="M120.6,45.6H93v15.1c0,3.2,0.2,5.2,0.7,6.1c0.5,0.9,1.3,1.4,2.6,1.4c1.6,0,2.7-0.6,3.2-1.8c0.5-1.2,0.8-3.6,0.8-7v-9.2
		h20.2v5.2c0,4.3-0.3,7.6-0.8,10c-0.5,2.3-1.8,4.8-3.8,7.4s-4.5,4.6-7.6,5.9c-3.1,1.3-6.9,2-11.6,2c-4.5,0-8.5-0.7-11.9-2
		c-3.4-1.3-6.1-3.1-8-5.4c-1.9-2.3-3.2-4.8-4-7.5c-0.7-2.7-1.1-6.7-1.1-11.9V33.5c0-6.1,0.8-10.9,2.5-14.5c1.7-3.5,4.4-6.2,8.1-8.1
		c3.8-1.9,8.1-2.8,13-2.8c6,0,10.9,1.1,14.8,3.4c3.9,2.3,6.6,5.3,8.2,9c1.6,3.7,2.3,9,2.3,15.8V45.6z M99.3,34.2v-5.1
		c0-3.6-0.2-6-0.6-7c-0.4-1.1-1.2-1.6-2.4-1.6c-1.5,0-2.4,0.4-2.7,1.3c-0.4,0.9-0.5,3.3-0.5,7.3v5.1H99.3z"/>
	<path d="M190,9.3l-8.5,70h-23.1c-1.3-8.5-2.7-19.8-4.4-33.8c-0.6,6.2-1.4,12.4-2.4,18.6l-2.3,15.2H126l-9-70h18.4
		c0.1,1.8,1.7,15.2,4.7,40.1c0.2-2.6,1.8-15.9,4.8-40.1h17.6l4.3,40.1c0.7-11.7,2.3-25.1,4.9-40.1H190z"/>
</g>
<g>
	<g>
		<g>
			<g>
				<g>
					<path class="st0" d="M66.3,74.3c0.1-0.1,0.1-0.3,0-0.3l-0.1,0.3L66.3,74.3z"/>
					<path class="st0" d="M65.7,73.5c-0.2,0.1-0.4,0.3-0.4,0.7c0.2-0.3,0.2-0.1,0.4-0.5c0.1,0,0.2,0.1,0.1,0.3
						c0.1-0.1,0.2,0.1,0.3-0.1c-0.1-0.3-0.2-0.3-0.5-0.2C65.7,73.7,65.7,73.6,65.7,73.5z"/>
					<path class="st0" d="M58.8,66.4L58.8,66.4C58.8,66.5,58.8,66.4,58.8,66.4z"/>
					<path class="st0" d="M57.4,60.3C57.4,60.4,57.4,60.4,57.4,60.3C57.4,60.3,57.4,60.3,57.4,60.3z"/>
					<path class="st0" d="M57.6,59.2C57.6,59.2,57.6,59.2,57.6,59.2C57.7,59.2,57.7,59.2,57.6,59.2z"/>
					<path class="st0" d="M58.8,66.4l0-0.2C58.7,66.2,58.8,66.3,58.8,66.4z"/>
					<path class="st0" d="M64.1,73.8c0,0,0.1,0,0.1,0C64.2,73.7,64.1,73.7,64.1,73.8L64.1,73.8z"/>
					<path class="st0" d="M60.4,68.6L60.4,68.6c0.1,0,0.1,0,0.2,0L60.4,68.6z"/>
					<path class="st0" d="M61.8,70.2c0,0-0.2,0.1-0.3,0.2c0.1-0.1,0.2-0.1,0.2-0.1C61.7,70.3,61.7,70.2,61.8,70.2z"/>
					<path class="st0" d="M64.1,72.5L64.1,72.5C64.2,72.5,64.1,72.5,64.1,72.5z"/>
					<path class="st0" d="M59.7,67.4C59.7,67.3,59.7,67.3,59.7,67.4C59.7,67.3,59.7,67.3,59.7,67.4z"/>
					<path class="st0" d="M54.6,7.8C54.6,7.8,54.6,7.8,54.6,7.8C54.6,7.8,54.6,7.8,54.6,7.8z"/>
					<polygon class="st0" points="54.9,5 55,5 55.1,5 					"/>
					<path class="st0" d="M57.9,57.2L57.9,57.2C57.9,57.3,57.9,57.2,57.9,57.2z"/>
					<path class="st0" d="M57.8,38.8c-0.3,0.2-0.3-0.4-0.6-0.1C57.3,38.8,57.6,39.1,57.8,38.8z"/>
					<path class="st0" d="M64,73.7C64,73.7,64,73.7,64,73.7C64,73.7,64,73.7,64,73.7z"/>
					<path class="st0" d="M57.2,38.8L57.2,38.8L57.2,38.8C57.2,38.8,57.2,38.8,57.2,38.8z"/>
					<path class="st0" d="M57.6,52.6c0,0-0.1,0-0.1,0C57.5,52.7,57.5,52.7,57.6,52.6z"/>
					<path class="st0" d="M57.3,56.1L57.3,56.1C57.3,56,57.3,56,57.3,56.1z"/>
					<path class="st0" d="M57.2,50.8c0,0,0.1-0.1,0-0.1c0,0,0,0,0,0C57.2,50.8,57.2,50.8,57.2,50.8z"/>
					<path class="st0" d="M57.2,49C57.2,49,57.1,49,57.2,49L57.2,49L57.2,49z"/>
					<path class="st0" d="M56.1,13.1c0.1-0.1,0.2-0.1,0.2-0.1C56.2,13,56.1,12.7,56.1,13.1z"/>
					<path class="st0" d="M64.1,73.6c0,0.1-0.1,0.1-0.1,0.1L64.1,73.6C64.1,73.7,64.1,73.6,64.1,73.6z"/>
					<path class="st0" d="M55,50.8l0-0.3C55,50.6,55,50.7,55,50.8z"/>
					<path class="st0" d="M56.5,26.2L56.5,26.2C56.4,26.1,56.4,26.1,56.5,26.2z"/>
					<path class="st0" d="M55,49.6c0.1-0.1,0.2-0.1,0.2-0.2c0,0,0,0-0.1,0L55,49.6z"/>
					<path class="st0" d="M56.4,12.9L56.4,12.9L56.4,12.9z"/>
					<path class="st0" d="M55.3,11.2c0,0.3,0.4,0,0.6,0.1c0.2,0.3-0.2,0.2-0.4,0.4c0.1,0.2,0.5,0.3,0.5,0.4c-0.1,0-0.1,0.1-0.2,0
						c0.3,0.2,0.1,0.6,0.5,0.8c0,0-0.1,0-0.1,0c0.2-0.1,0.4-0.1,0.5-0.1c0,0.1,0.3,0.2,0,0.3c0-0.1-0.1-0.1-0.2-0.1l0.1,0.1
						c-0.3,0.2-0.1-0.2-0.4-0.1c0.1,0.2,0.5,0.5,0.4,0.7c-0.3,0.1-0.2-0.4-0.4-0.1l0.1-0.3c-0.5,0.3,0-0.2-0.5,0.1
						c0,0.4,0.2,0.4,0.2,0.8c0.2,0.1,0.3-0.1,0.5,0c0.4,0.5-0.8,0.5-0.3,0.9c0.2,0.1,0.7,0.1,0.5,0.4l-0.4-0.1
						c0,0.4,0.6,0.2,0.4,0.6c-0.2-0.1-0.2-0.3-0.2-0.2c-0.3,0.3,0.2,0.2,0.3,0.4l-0.3,0.1c0.1,0.4,0.3,0.8,0.4,1.3
						c-0.1,0-0.2-0.1-0.3,0c0.2,0.6,0,1.2-0.2,1.8l0.3,0.2c0,0-0.1,0.1-0.2,0c-0.1,0.2,0.2,0,0.3,0.1c0,0.1-0.2,0.2-0.3,0.1
						c0.3,0.4,0.5,1.1,0.2,1.5l-0.1-0.1c-0.1,0.3,0.6,0.4,0.3,0.6L57,21.7c-0.1,0.7,0.1,1.4-0.4,1.9c0.4,0.1-0.2,0.7,0.4,0.7
						c-0.3,0.4-0.4,0.3-0.6,0.8c0,0.1,0.4,0.2,0.4,0.4l-0.3,0l0.3,0.3l-0.4,0.1l0.1,0.2c0-0.1,0.1-0.1,0.2-0.1
						c0.1,0.3-0.3,0.6-0.4,0.6l0.2,0.6c-0.1,0-0.2-0.1-0.2-0.2c0.3,0.4-0.3,0-0.1,0.4c0.1,0,0.2,0,0.2,0c-0.2,0.1-0.2,0.5-0.2,0.8
						L56,28.1c-0.1,0.5,0,1,0,1.5c0.1-0.2,0.5-0.1,0.5,0.1l-0.3,0c0.2,0.1,0.1-0.1,0.4,0.1c-0.1,0.2-0.4,0.1-0.5,0l0.1,0.2
						c-0.1,0-0.1-0.1-0.3-0.1c0.2,0.1-0.4,0.4,0,0.6l-0.1,0c0,0.5,0,0.8,0,1.2c0.3,0,0.2,0.2,0.4,0.3c-0.1,0.3-0.4,0.6-0.4,1
						c0.1,0.3,0.2,0.1,0.4,0.2c-0.3,0-0.3,0.4-0.4,0.2c0,0.5,0,0.6,0.2,1.2c0.1-0.1,0.2-0.1,0.2-0.1c0,0.1-0.1,0.2-0.2,0.2l0,0
						c0.3,0.7-0.9,1.4-0.4,2l0,0l0.2,0.6c-0.1,0.2-0.2-0.2-0.4,0c0.4,0.6-0.1,0.9,0.1,1.4c-0.8,0.3,0,1.3-0.5,1.8l0.2,0
						c0.2,0.1-0.1,0.2-0.2,0.2c0.1,0,0.2-0.1,0.3,0c0.2,1.1-0.3,2.2-0.5,3.4c-0.1,0.4,0.9,0.3,0.5,0.8L55,44.6
						c0.4,0.8,0,1.7,0.3,2.5c-0.1,0-0.2-0.1-0.2-0.1c-0.2,0.2,0,0.6,0.2,0.6c0,0.1-0.2,0-0.3,0.1c-0.1,0.2,0.3,0.4,0.1,0.5
						c0,0-0.1,0-0.1-0.1c0.1,0.1,0,0.5,0.2,0.4c-0.1,0.3,0.1,0.6,0,0.8c0.3,0.2-0.1,0.5,0.3,0.6c-0.5,0-0.4,0.5-0.1,0.7
						c-0.1-0.1-0.1,0.2-0.3,0.1c0,0.2,0.1,0.4,0.3,0.4c-0.5,0.4,0.4,0.8-0.2,1c0.2,0.6,0.4,1.2,0.5,1.8c-0.5,0-0.1-0.6-0.5-0.6
						c0.2,0.6,0.6,0.9,0.5,1.4c-0.1,0.1-0.2-0.1-0.3-0.1c0.2,0.6,0,1.1,0.2,1.6c0,0-0.1-0.1-0.1-0.1c0,0.1-0.1,0.2,0.1,0.2l-0.1-0.1
						c0.3-0.2,0.6,0.4,0.8,0.4c-0.6-0.1-0.1,0.5-0.9,0.3c0,0.1,0.1,0.1,0.3,0.1c0,0.1-0.1,0.1-0.3,0c0.1,0.3,0.3,0.2,0.4,0.5
						c-0.1,0-0.1-0.1-0.3-0.1c0.2,0.2,0.4,0.3,0.3,0.6c-0.1,0-0.1,0-0.1-0.1c0.1,0.5,0.6,0.7,0.4,1.3c-0.4-0.1-0.1,0.2-0.5,0.2
						l0.1,0.3l0.2-0.1c0,0.2,0.3,0.4,0.2,0.6L56,60.2l0.1,0.4l0.1-0.3c0.2,0.2,0.5-0.1,0.4,0.2c0-0.1,0,0.2-0.2,0.4l0,0
						c0.1,0.1,0.3,0.2,0.2,0.4c-0.1,0.1-0.4,0-0.5,0.1c0.3,0.1,0.2,0.5,0.5,0.6c-0.1,0-0.3,0-0.3,0l0.3,0.1
						c-0.1,0.1-0.1,0.1-0.3,0.2c0,0.3,0.4-0.2,0.3,0.2c0,0-0.1,0-0.1-0.1c0,0.4,0.3,0.7,0.3,1.1c-0.3,0.2-0.2-0.3-0.4-0.1
						c0.2,0.5,0.7,1,0.8,1.5l0-0.1c0.5-0.1-0.1,0.4,0.2,0.6c-0.1,0-0.3,0-0.2,0c0,0.4,0.4,0.6,0.7,1.1l-0.2,0c0,0.2,0.2,0.5,0.2,0.8
						c0.2,0,0.2,0.1,0.3,0c-0.4,1,1,0.9,0.8,1.8c0-0.1-0.2-0.1-0.2,0l0.4,0.4c0.2-0.2,0.1-0.1,0.2-0.3c0.2,0,0.3,0,0.4,0.1
						c-0.3-0.1-0.3,0.2-0.3,0.4c0-0.1,0.1-0.1,0.2-0.1c-0.2,0.5,0.4-0.2,0.4,0.2L60,69.8c0.1,0.1,0.3,0.1,0.4,0.2
						c-0.2,0.2-0.2,0-0.4,0.1c0.2,0.2,0.7,0,0.6,0.3c-0.1,0-0.2-0.1-0.3-0.1c-0.1,0.4,0,0.3,0,0.5l0,0l0.2,0.4l0-0.1
						c0.7-0.3,0.5,0.3,1,0.2c-0.5,0.1-0.2,0.1-0.4,0.3c0,0.1,0.1,0.3,0,0.3c0.3-0.1,0.1,0.3,0.5,0.2c-0.1,0.1,0.1,0.1,0,0.3
						c0.2,0.1,0.1-0.2,0.2-0.2c0.5,0,0.4,0.8,1.1,0.7c0.5,0.1,0.7-0.2,1.1-0.1c0,0.2-0.3,0.3-0.3,0.3c0.1,0.2,0.3,0.3,0.5,0.3
						c-0.1,0.1-0.1,0.1-0.1,0.3c0.2,0,0.2-0.3,0.4-0.1c-0.1,0.1-0.2,0.2-0.3,0.3c0.2,0,0.5-0.1,0.7-0.1c0,0.2-0.2,0.2-0.3,0.3
						c0.2,0,0.6,0.1,0.8-0.2l-0.1-0.1c0.1,0,0,0.2-0.1,0.3c-0.3,0.1-0.2-0.2-0.2-0.3l0.2,0c0.1-0.6-0.5-0.1-0.8-0.3l0.3-0.3
						c-0.1,0.1-0.3,0.1-0.4,0.2c0-0.1,0.1-0.4,0.2-0.3c-0.1-0.3-0.2,0.1-0.3-0.2c0,0,0-0.1,0-0.1l-0.2,0c0.1-0.1,0.1-0.3,0.2-0.2
						c-0.2-0.4-0.6,0-0.6-0.3l0,0c-0.5-0.1-0.2,0.2-0.7,0.3l0.2-0.8l-0.2,0.2c0,0-0.1-0.1,0-0.2c-0.3,0.1-0.1,0.1-0.3,0.2
						c0-0.4-0.6-0.3-0.3-0.7c-0.2,0.1,0.1,0.3-0.2,0.2c0.3-0.4-0.3-0.1-0.3-0.4C62,70.8,62,71,62,70.7c-0.4,0.2-0.2-0.3-0.4-0.4
						c-0.3,0.2-0.4-0.2-0.7-0.3c0.1-0.1-0.2-0.5-0.3-0.8l0.1,0c-0.3,0.2-0.4-0.1-0.6-0.2c0.2-0.1,0.3-0.1,0.4-0.1
						c0-0.1-0.1-0.1-0.1-0.2c-0.1,0-0.2,0-0.3-0.1l0.3-0.1c-0.2-0.2-0.6-0.2-0.6-0.6c-0.2,0.1-0.5,0.6-0.8,0.4
						c0.1-0.1,0.3-0.2,0.4-0.2c0,0-0.2,0-0.1-0.1l0.3,0c0-0.2-0.2,0-0.3-0.1c0.2-0.1,0.1-0.1,0.2-0.2c0,0,0,0.1,0.1,0.1
						c0-0.1,0-0.3,0.1-0.5c-0.1,0.1-0.2,0.1-0.3,0.1c-0.1-0.2,0.2-0.2,0.2-0.4c-0.2,0-0.1-0.2-0.4-0.1c0-0.1,0.1-0.1,0.1-0.2
						c-0.2-0.1-0.3-0.5-0.5-0.3l0,0l0,0l0,0l0,0c-0.5-0.3-0.2-0.9-0.5-1.3l0.1,0c-0.2-0.2-0.2-0.5-0.5-0.6c0-0.1,0.1-0.2,0.2-0.2
						c-0.1-0.2-0.2-0.2-0.2-0.5c0.2,0.1,0.1-0.1,0.2,0.2c0-0.3,0.1-0.4-0.2-0.6c0.3,0,0.3-0.3,0.2-0.4L58,63.3
						c-0.1-0.1-0.1-0.2-0.1-0.4l0.3,0c0.3-0.6-0.9-0.8-0.3-1.3c-0.3-0.1-0.1,0.3-0.4,0.2c0-0.3,0.4-0.6,0.4-0.7
						c0.1-0.4-0.5-0.2-0.5-0.6c-0.1,0.1-0.4,0.1-0.6-0.1c0-0.3,0.5-0.4,0.6-0.2c0,0.1,0,0.1-0.1,0.1c0.1,0.1,0.1,0.2,0.2,0.1l-0.1,0
						c0.1-0.1,0.1-0.5,0.3-0.4c-0.1-0.2-0.2-0.1-0.2,0.1c0.1-0.3,0-0.5,0-0.8c-0.1,0.1-0.2,0.1-0.2,0.1c0.1-0.5-0.2-0.2-0.3-0.5
						c0.2-0.2,0.4,0,0.3-0.3c0.1-0.2,0.3-0.1,0.4,0c-0.3-0.3,0.1-0.6,0.1-0.7L58,58C58,57.9,58,57.8,58,57.7l-0.2,0.1
						c0-0.1,0-0.2,0.1-0.2c-0.2-0.1-0.4,0.1-0.6-0.1c0.1-0.1-0.1-0.4,0.2-0.4c-0.1,0.4,0.3-0.1,0.4,0.3c0-0.1,0-0.1,0-0.2
						c0,0,0.1,0,0.1,0c0.3-0.4-0.4-0.2-0.4-0.5c0.2,0,0.3-0.1,0.3-0.2c0,0.2-0.3,0.1-0.4-0.1c0.1-0.3-0.1-0.3-0.1-0.4l-0.1,0.1
						c-0.2,0-0.2-0.2-0.2-0.3c0.1,0,0.1,0.2,0.2,0.1c-0.3-0.2,0.3-0.4,0.1-0.7c0.1-0.1,0.3,0,0.4-0.1c-0.2-0.3,0.2-0.3,0-0.6
						c-0.2,0.1-0.2,0.1-0.4-0.1l0.2,0.5l-0.4-0.3c0,0.2,0.2,0.3,0.1,0.4c-0.2-0.2-0.1-0.1-0.3-0.1c0.4-0.2-0.2-0.4,0-0.7l0.6,0
						c0.3-0.4-0.3-0.7-0.2-1.1l-0.1,0.2c-0.2-0.1,0-0.3-0.1-0.5c0.2,0,0.3-0.1,0.4-0.2c-0.1,0,0-0.4-0.4-0.4l0.3-0.2
						c0.1-0.4-0.6-0.4-0.5-0.8c0.2,0.1,0.4-0.1,0.5,0.2c0-0.1,0-0.2-0.1-0.2c0.1-0.1-0.3-0.3-0.1-0.5c-0.1-0.1-0.3-0.1-0.3-0.2
						c0,0,0.1,0,0.1,0c-0.1,0-0.1-0.2-0.4-0.1c0.6-0.4,0-1.1,0.5-1.4C57,48.7,57,48.4,57,48.2c0.1,0,0.1,0,0.1,0
						c0.2-0.3-0.6-0.2-0.4-0.6c0.3-0.2,0.2,0.2,0.3,0.1c0.6-0.1-0.1-0.5,0.3-0.7l0,0.1c0.2-0.2-0.2-0.5-0.2-0.8c0,0,0.1,0,0.1,0
						c-0.3-0.2-0.4-0.7-0.5-1c0.3,0.1,0.1,0.1,0.4,0.1c0-0.1-0.4,0-0.5-0.2c0.1-0.1,0.3-0.3,0.5-0.3l0,0.3c0.4-0.1,0-0.3,0.1-0.5
						l0.2,0c0-0.4-0.4-0.4-0.4-0.9l-0.1,0c-0.4-0.2,0.2-0.2-0.1-0.4l0.4-0.1c-0.1-0.2-0.4-0.6-0.4-0.8c0.3,0.2,0.4,0.5,0.6,0.7
						c0-0.2,0-0.5-0.2-0.6c0,0.1,0.1,0.1,0.1,0.2c-0.3-0.2-0.4-0.5-0.4-0.8c0.8,0.1,0.2-0.8,0.8-1c-0.3-0.6,0.2-1.1,0.2-1.7
						c-0.6,0.2,0-0.2-0.6-0.2c0-0.2,0-0.2,0-0.2l0.4-0.4c0.2-0.1,0.1,0.1,0.3,0.1c0.1-0.3,0.3-0.1,0.4-0.3c-0.2,0-0.3-0.1-0.2-0.3
						l-0.3,0.2c-0.3-0.5,0.5-0.4,0.2-0.8l0.2,0.2c-0.1-0.2,0.1-0.9-0.4-1.1c0.1,0,0.2-0.1,0.3,0c0.1-0.6-0.4-1.3-0.1-1.7l0.1,0.1
						c0-0.1-0.3-0.2-0.1-0.3c0.1,0,0.1,0.1,0.2,0c0-0.1-0.2-0.3-0.1-0.4l0.2,0.1c0.2-0.5-0.3-0.9-0.4-1.4c0.4,0,0.6-0.4,0.7-0.6
						l0.1,0c0.1-0.6-0.3-1.1-0.4-1.7c0.5-0.3,0.3-1.2,0.6-1.8c-0.1,0.1-0.3,0-0.4-0.2c0.1-0.1-0.3-0.4,0.1-0.4l0,0
						c0.4-0.1,0.3-0.4,0.3-0.6l-0.5-0.1c0.8-0.5-0.2-1.6,0.5-1.8c-0.1-0.2-0.1-0.3-0.2-0.5l0.3,0c0.1-0.4,0.1-0.6,0.1-1.1l0.2,0.1
						c0-0.3-0.8-0.4-0.8-0.6l0.4-0.1c0-0.5,0.4-1,0-1.5c0.1,0,0.2,0,0.2,0.1c0-0.2,0.3-0.9-0.3-0.8c0.4,0,0-0.5-0.1-0.8l0.3,0
						c-0.4-0.2-0.4-0.2-0.5-0.5c0-0.1,0.2-0.1,0.2,0c0.1-0.2-0.3-0.2-0.1-0.5l0.2,0.1c0-0.3-0.1-0.2-0.3-0.4
						c-0.1-0.2,0.1-0.5,0.3-0.5c-0.2,0-0.4-0.2-0.3-0.3c0.1,0,0.2,0,0.2,0.1c0.2-0.4-0.3-0.6-0.1-0.9c0.1,0,0.1,0,0.2-0.1
						c0,0.3,0,0.6,0,0.6c0.3,0,0.3-0.3,0.7-0.1c-0.2-0.2-0.6-0.6-0.5-0.8c0,0,0,0,0.1,0l0,0c0-0.1,0-0.1-0.1-0.2
						c0-0.1,0.1-0.1,0.1-0.2c0.2,0,0.1-0.3,0.1-0.5c-0.3,0-0.2-0.1-0.5,0c0,0,0,0,0.1,0.1c0,0,0,0,0,0.1l0,0c0,0.1,0,0.2,0,0.3
						c-0.1-0.1-0.3-0.2-0.1-0.4c-0.2-0.1-0.4-0.1-0.5-0.2c0.4-0.2,0.6-0.6,0.8-0.7c-0.2-0.4-0.2-1-0.7-1.2c-0.1-0.1,0.1-0.2,0.2-0.2
						c0.1,0.1,0.1,0.1,0.1,0.2c-0.2-0.2-0.1-0.7-0.5-0.7c0.1-0.3,0.4,0.1,0.2-0.3l0.1,0c0.5-0.9-1.1-1.1-0.6-2.1
						c0,0.1,0,0.1-0.1,0.1c0.1-1.1-0.8-1.9-0.5-3c0-0.3-0.2-0.3-0.4-0.4l0.3-0.2l-0.4-0.2c-0.4-0.3,0.5-0.9-0.2-1.3l-0.2,0.1
						c0-0.2-0.3-0.5-0.1-0.6c0,0-0.2,0-0.2-0.1L56,6.1l-0.4-0.3c0-0.4,0.6-0.2,0.4-0.7c-0.1-0.2-0.6-0.3-0.7-0.2
						c0,0.1,0,0.2-0.1,0.3L55,5c-0.4,0.2-0.9,0.3-1,0.8L54.3,6l-0.2,0.2L54,5.9c-0.1,0.2,0.1,0.2,0.2,0.3c-0.1,0.1-0.2,0.1-0.2,0.2
						l0.5,0.1c-0.2,0.1-0.4,0-0.4,0.2c0.2,0,0.3-0.3,0.5-0.1c-0.1,0.2-0.3,0.2-0.1,0.3c-0.1,0.1-0.2,0.1-0.3,0
						c0.2,0.1,0.2,0.3,0.5,0.3c-0.2,0.2,0.2,0.4-0.2,0.6c0.1,0,0.4,0.1,0.5,0.2c-0.6-0.1,0.1,0.5-0.4,0.6c0.5,0,0.4,0.5,0.7,0.8
						c0,0-0.1,0-0.1-0.1c0,0.2-0.1,0.3-0.2,0.4c0.4-0.1,0.5,0.2,0.8,0.2c-0.3,0.3-0.5,0-0.8,0.2c0.3-0.1,0.4,0.3,0.6,0.1
						c-0.2,0.2-0.1,0.2-0.4,0.3c0.5-0.1,0.1,0.1,0.4,0.2c-0.2,0.3-0.4,0.2-0.2,0.4C55.6,11.4,55.3,11.2,55.3,11.2z M57,17.4L57,17.4
						c0-0.1,0-0.1,0-0.1C57,17.3,57,17.4,57,17.4z M57,18c0-0.1,0-0.1,0-0.2c0.1,0,0.2,0,0.2,0C57.2,17.8,57.1,17.9,57,18z
						 M58.9,16.7c0,0.1,0,0.1-0.1,0.1c0,0,0-0.1,0-0.2l0,0C58.8,16.7,58.9,16.7,58.9,16.7z"/>
					<path class="st0" d="M58.6,16.6C58.5,16.6,58.5,16.5,58.6,16.6C58.5,16.6,58.5,16.6,58.6,16.6L58.6,16.6L58.6,16.6z"/>
					<path class="st0" d="M58.8,66.5L58.8,66.5C58.8,66.5,58.8,66.5,58.8,66.5C58.8,66.5,58.8,66.5,58.8,66.5z"/>
					<polygon class="st0" points="56.4,25.5 56.4,25.5 56.4,25.5 					"/>
					<path class="st0" d="M59.5,69.6C59.5,69.6,59.5,69.7,59.5,69.6C59.5,69.7,59.5,69.7,59.5,69.6z"/>
					<path class="st0" d="M60.4,70.7l0.1,0.2C60.4,70.8,60.4,70.8,60.4,70.7z"/>
					<path class="st0" d="M61,71.6C61.1,71.6,61.1,71.5,61,71.6L61,71.6L61,71.6z"/>
					<path class="st0" d="M55.4,56.2C55.4,56.2,55.4,56.2,55.4,56.2C55.3,56.1,55.3,56.1,55.4,56.2z"/>
					<path class="st0" d="M56.4,61c-0.1,0-0.1-0.1-0.2-0.1C56.2,61,56.3,61,56.4,61z"/>
					<polygon class="st0" points="55,50.8 55,50.8 55,50.8 					"/>
					<path class="st0" d="M56.2,60.7c0,0.1,0,0.2,0,0.2C56.3,60.8,56.3,60.7,56.2,60.7z"/>
					<path class="st0" d="M65,74.1L65,74.1C65,74.2,65,74.1,65,74.1L65,74.1z"/>
					<path class="st0" d="M65,74.1L65,74.1C65.1,74.1,65.1,74.1,65,74.1z"/>
					<path class="st0" d="M65.2,74.1l-0.1,0C65.2,74.1,65.2,74.2,65.2,74.1z"/>
					<path class="st0" d="M63.7,73.5L63.7,73.5C63.6,73.5,63.7,73.5,63.7,73.5z"/>
					<path class="st0" d="M63.3,73.3c0.1,0.1,0.1,0.3,0.3,0.3l0-0.1C63.5,73.6,63.4,73.2,63.3,73.3z"/>
					<path class="st0" d="M62.5,71.3c0.1,0.1,0.1,0.2,0.2,0.3c0-0.1,0-0.3,0.2-0.2C62.8,70.8,62.9,71.6,62.5,71.3z"/>
					<path class="st0" d="M61.9,70.5c0.2,0.1,0.1-0.1,0.2-0.2C61.9,70.3,61.9,70.3,61.9,70.5z"/>
					<path class="st0" d="M58.2,64.2l0.3-0.1C58.4,64.1,58.3,64.2,58.2,64.2z"/>
					<polygon class="st0" points="56.5,63.2 56.4,63.3 56.7,63.3 					"/>
					<polygon class="st0" points="58.1,62 58.2,62 58.1,61.8 					"/>
					<path class="st0" d="M57.4,49.3l-0.3,0C57.2,49.4,57.5,49.5,57.4,49.3z"/>
					<path class="st0" d="M57.2,43.8c0.2-0.1,0.3-0.2,0.1-0.3C57.2,43.6,57.1,43.7,57.2,43.8z"/>
					<polygon class="st0" points="58.8,27.2 58.9,27.3 58.8,27.1 					"/>
				</g>
			</g>
		</g>
	</g>
</g>
<g>
	<g>
		<g>
			<g>
				<g>
					<path class="st0" d="M68.6,16c0-0.1,0-0.3-0.1-0.2L68.6,16L68.6,16z"/>
					<path class="st0" d="M68.3,15.4c0,0.2,0,0.4,0.1,0.7c0-0.3,0-0.2,0-0.6c0,0,0.1,0.1,0.1,0.2c0-0.1,0.1,0.1,0-0.1
						c-0.1-0.2-0.1-0.3-0.1,0C68.3,15.5,68.3,15.5,68.3,15.4z"/>
					<path class="st0" d="M65.5,15.3L65.5,15.3C65.5,15.3,65.5,15.3,65.5,15.3z"/>
					<path class="st0" d="M63.7,15.3C63.8,15.3,63.8,15.3,63.7,15.3C63.7,15.3,63.7,15.3,63.7,15.3z"/>
					<path class="st0" d="M63.4,15C63.4,15,63.4,15,63.4,15C63.4,15,63.4,15,63.4,15z"/>
					<path class="st0" d="M65.5,15.3L65.5,15.3C65.4,15.3,65.4,15.3,65.5,15.3z"/>
					<path class="st0" d="M68,16.2C68,16.2,68,16.2,68,16.2C68,16.2,68,16.2,68,16.2L68,16.2z"/>
					<path class="st0" d="M66.2,14.9L66.2,14.9c0,0,0-0.1,0-0.1L66.2,14.9z"/>
					<path class="st0" d="M66.7,14.8c0,0,0,0.3,0,0.4c0-0.1,0-0.2,0-0.2C66.8,14.9,66.8,14.9,66.7,14.8z"/>
					<path class="st0" d="M67.7,15.1L67.7,15.1C67.7,15.1,67.7,15.1,67.7,15.1z"/>
					<path class="st0" d="M65.8,14.9C65.8,14.9,65.7,14.8,65.8,14.9L65.8,14.9z"/>
					<path class="st0" d="M49.7,18.2C49.7,18.2,49.7,18.2,49.7,18.2C49.7,18.2,49.7,18.2,49.7,18.2z"/>
					<polygon class="st0" points="49,16.8 49,16.8 49,16.6 					"/>
					<path class="st0" d="M62.8,14.7L62.8,14.7C62.9,14.7,62.9,14.7,62.8,14.7z"/>
					<path class="st0" d="M58,15.4c0.1,0.2-0.1,0.3,0,0.6C58,15.8,58.1,15.5,58,15.4z"/>
					<path class="st0" d="M68,16.2C68,16.2,68,16.2,68,16.2C68,16.2,68,16.2,68,16.2z"/>
					<path class="st0" d="M58,16L58,16L58,16C58,16,58,16,58,16z"/>
					<path class="st0" d="M61.6,15c0,0,0,0.1,0,0.1C61.7,15.1,61.7,15,61.6,15z"/>
					<path class="st0" d="M62.6,15.3L62.6,15.3C62.6,15.3,62.6,15.3,62.6,15.3z"/>
					<path class="st0" d="M61.2,15.4C61.2,15.4,61.2,15.4,61.2,15.4C61.2,15.4,61.2,15.4,61.2,15.4C61.2,15.4,61.2,15.4,61.2,15.4z"
						/>
					<path class="st0" d="M60.7,15.5C60.7,15.5,60.7,15.5,60.7,15.5L60.7,15.5L60.7,15.5z"/>
					<path class="st0" d="M51.2,18c0-0.1,0-0.2,0-0.3C51.2,18,51.1,18.1,51.2,18z"/>
					<path class="st0" d="M68,16.1c0,0.1,0,0.1,0,0.1c0,0,0,0,0,0C68,16.2,68,16.1,68,16.1z"/>
					<path class="st0" d="M61.4,17.6L61.4,17.6C61.4,17.6,61.4,17.6,61.4,17.6z"/>
					<path class="st0" d="M54.8,17.9L54.8,17.9C54.8,17.9,54.8,17.9,54.8,17.9z"/>
					<path class="st0" d="M61.1,17.7c0-0.1,0-0.2-0.1-0.2c0,0,0,0,0,0.1L61.1,17.7z"/>
					<path class="st0" d="M51.2,17.8L51.2,17.8L51.2,17.8z"/>
					<path class="st0" d="M50.7,18.5c0.1,0,0-0.4,0-0.6c0.1-0.1,0,0.3,0.1,0.5c0.1-0.1,0.1-0.4,0.1-0.4c0,0.1,0,0.1,0,0.2
						c0.1-0.3,0.2,0,0.2-0.4c0,0,0,0.1,0,0.1c0-0.2,0-0.4,0-0.5c0,0,0.1-0.2,0.1,0c0,0,0,0.1,0,0.2l0-0.1c0,0.3,0,0.1,0,0.4
						c0.1-0.1,0.1-0.4,0.2-0.3c0,0.3-0.1,0.1,0,0.4l-0.1-0.1c0.1,0.5-0.1,0,0,0.5c0.1,0.1,0.1-0.2,0.2-0.1c0-0.2,0-0.3,0-0.5
						c0.1-0.3,0.1,0.8,0.2,0.4c0-0.2,0-0.7,0.1-0.4l0,0.4c0.1,0,0-0.6,0.2-0.3c0,0.2-0.1,0.1-0.1,0.2c0.1,0.3,0-0.2,0.1-0.2l0,0.3
						c0.1-0.1,0.2-0.3,0.3-0.4c0,0.1,0,0.2,0,0.3c0.2-0.2,0.3,0,0.5,0.2l0-0.3c0,0,0,0.1,0,0.2c0.1,0.1,0-0.2,0-0.3
						c0,0,0.1,0.2,0,0.3c0.1-0.3,0.3-0.5,0.4-0.2l0,0.1c0.1,0.1,0.1-0.6,0.2-0.3l0,0.1c0.2,0.1,0.4-0.2,0.5,0.3
						c0-0.4,0.2,0.2,0.2-0.4c0.1,0.3,0.1,0.4,0.3,0.6c0,0,0-0.4,0.1-0.4l0,0.3l0.1-0.3l0.1,0.4l0-0.1c0,0,0-0.1,0-0.2
						c0.1-0.1,0.2,0.2,0.2,0.4l0.2-0.3c0,0.1,0,0.2,0,0.2c0.1-0.3,0,0.3,0.1,0c0-0.1,0-0.2,0-0.2c0.1,0.2,0.1,0.2,0.2,0.1l0,0.2
						c0.1,0,0.3-0.1,0.4-0.1c-0.1-0.1-0.1-0.5,0-0.5l0,0.3c0-0.2-0.1-0.1,0-0.4c0.1,0,0.1,0.4,0,0.5l0.1-0.1c0,0.1,0,0.1,0,0.3
						c0-0.2,0.1,0.3,0.1,0l0,0.1c0.1,0,0.2-0.1,0.3-0.1c0-0.3,0-0.2,0.1-0.4c0.1,0.1,0.2,0.3,0.3,0.3c0.1-0.1,0-0.2,0-0.4
						c0,0.3,0.1,0.2,0.1,0.4c0.1,0,0.2-0.1,0.3-0.3c0-0.1,0-0.1,0-0.2c0,0,0.1,0.1,0.1,0.2l0,0c0.1-0.4,0.5,0.7,0.6,0.2l0,0l0.1-0.3
						c0.1,0,0,0.2,0,0.3c0.1-0.4,0.2,0,0.4-0.3c0.2,0.7,0.3-0.1,0.5,0.4l0-0.2c0-0.2,0,0.1,0.1,0.1c0-0.1-0.1-0.2,0-0.3
						c0.3-0.2,0.6,0.2,0.9,0.3c0.1,0,0-0.9,0.2-0.5l0,0.3c0.2-0.4,0.5,0,0.6-0.4c0,0.1,0,0.2,0,0.2c0.1,0.2,0.2,0,0.2-0.2
						c0,0,0,0.2,0.1,0.3c0.1,0.1,0.1-0.3,0.1-0.1c0,0,0,0.1,0,0.1c0-0.1,0.1,0,0.1-0.3c0.1,0.1,0.1-0.1,0.2,0c0-0.3,0.2,0.1,0.1-0.3
						c0,0.5,0.2,0.3,0.2,0.1c0,0.1,0.1,0.1,0.1,0.3c0.1,0,0.1-0.1,0.1-0.3c0.2,0.5,0.2-0.5,0.3,0.2c0.1-0.3,0.3-0.4,0.4-0.6
						c0,0.4-0.2,0.1-0.1,0.5c0.1-0.2,0.2-0.6,0.3-0.5c0,0.1,0,0.2,0,0.3c0.1-0.2,0.3,0,0.4-0.2c0,0,0,0.1,0,0.1c0,0,0.1,0.1,0-0.1
						l0,0.1c-0.1-0.3,0-0.6,0-0.8c0,0.6,0.1,0.1,0.2,0.9c0,0,0-0.1,0-0.3c0,0,0,0.1,0,0.3c0.1-0.1,0-0.3,0.1-0.3c0,0.1,0,0.1,0,0.3
						c0-0.2,0-0.4,0.1-0.3c0,0.1,0,0.1,0,0.1c0.1,0,0.1-0.5,0.3-0.4c0,0.4,0.1,0.1,0.1,0.5l0.1-0.1l0-0.2c0.1,0,0.1-0.3,0.2-0.2
						l0,0.2l0.1-0.1l-0.1-0.1c0-0.2-0.1-0.5,0-0.4c0,0,0.1,0,0.1,0.2l0,0c0-0.1,0-0.2,0.1-0.2c0,0.1,0,0.4,0.1,0.5
						c0-0.3,0.1-0.1,0.1-0.4c0,0.1,0,0.3,0,0.3l0-0.3c0,0.1,0,0.1,0.1,0.3c0.1,0-0.1-0.5,0-0.3c0,0,0,0.1,0,0.1
						c0.1,0.1,0.2-0.2,0.3-0.1c0.1,0.4-0.1,0.1,0,0.4c0.1-0.1,0.2-0.5,0.4-0.4l0,0c0-0.5,0.1,0.2,0.2,0c0,0,0,0.3,0,0.2
						c0.1,0.1,0.2-0.2,0.3-0.3l0,0.1c0.1,0.1,0.2,0.1,0.2,0.1c0-0.1,0-0.1,0-0.3c0.3,0.7,0.3-0.5,0.5,0.2c0,0,0,0.1,0,0.1l0.1-0.1
						c0-0.2,0-0.1-0.1-0.3c0-0.1,0-0.2,0.1-0.3c0,0.2,0.1,0.4,0.1,0.5c0-0.1,0-0.1,0-0.2c0.1,0.4-0.1-0.5,0.1-0.2l0,0.1
						c0-0.1,0-0.2,0.1-0.2c0.1,0.3,0,0.1,0,0.3c0.1,0,0-0.5,0.1-0.3c0,0.1,0,0.1-0.1,0.2c0.1,0.3,0.1,0.2,0.1,0.3l0,0l0.1,0.1l0-0.1
						c0-0.7,0.1-0.1,0.1-0.6c0,0.4,0,0.2,0.1,0.6c0,0.1,0.1,0.2,0.1,0.3c0-0.2,0.1,0.2,0.1-0.2c0,0.1,0,0,0.1,0.2
						c0-0.1,0-0.2-0.1-0.3c0-0.3,0.3,0.4,0.3-0.1c0.1-0.2,0.1-0.5,0.1-0.7c0.1,0.1,0,0.4,0,0.4c0.1,0.1,0.1,0.1,0.1,0
						c0,0.1,0,0.2,0.1,0.3c0,0,0-0.4,0.1-0.2c0,0.1,0,0.3,0,0.4c0-0.1,0.1-0.3,0.1-0.4c0,0.2,0,0.3,0,0.4c0-0.1,0.1-0.2,0.1-0.4
						l-0.1-0.1c0,0,0,0.2,0,0.3c0,0.2-0.1-0.1-0.1-0.2l0-0.1c-0.1-0.6-0.1,0.1-0.2,0.1l0-0.4l0,0.4c0-0.1-0.1-0.3-0.1-0.4
						c-0.1-0.2,0,0.2-0.1-0.1c0,0,0-0.1,0-0.1l0,0.1c0-0.1-0.1-0.3,0-0.2c-0.1-0.2-0.1,0.3-0.2,0l0,0c-0.1,0.2,0,0.3,0,0.7L67.3,15
						l0,0.3c0,0,0,0-0.1-0.1c0,0.2,0,0.1,0,0.3c-0.1-0.3-0.2,0.2-0.2-0.3c0,0.2,0.1,0.2,0,0.3C67,15,67.1,15.6,67,15.3
						c0-0.3,0.1-0.1,0-0.4c0,0.5-0.1-0.1-0.2,0c0,0.4-0.1,0.2-0.1,0.3c0-0.1-0.2-0.2-0.3-0.3l0-0.1c0,0.4-0.1,0.3-0.1,0.4
						c0-0.2,0-0.3,0-0.4l-0.1,0c0,0.1,0,0.2,0,0.2l0-0.3c-0.1,0-0.1,0.3-0.2,0.2c0,0.3,0.2,0.7,0.1,0.9c0-0.1-0.1-0.4,0-0.4
						c0,0,0,0.1,0,0.1l0-0.2c-0.1-0.1,0,0.2,0,0.2c0-0.2,0-0.1-0.1-0.3c0,0,0,0.1,0,0c0,0-0.1-0.1-0.1-0.3c0,0.1,0,0.3,0,0.3
						c-0.1,0-0.1-0.2-0.1-0.3c0,0.1-0.1,0,0,0.3c0,0,0-0.1-0.1-0.2c0,0.1-0.2,0.1-0.1,0.4l0,0c0,0,0,0,0,0l0,0l0,0
						c-0.1,0.3-0.3-0.1-0.4,0l0-0.1c-0.1,0.1-0.1,0.1-0.2,0.3c0,0-0.1-0.2-0.1-0.3c0,0.1,0,0.2-0.1,0c0-0.2,0-0.1,0-0.1
						c-0.1-0.1-0.1-0.2-0.2,0c0-0.3-0.1-0.3-0.1-0.2l0.1,0.2c0,0-0.1,0-0.1,0l0-0.3c-0.2-0.4-0.2,0.7-0.4,0.1c0,0.2,0.1,0.2,0.1,0.4
						c-0.1,0-0.2-0.5-0.2-0.5c-0.1-0.2,0,0.5-0.1,0.4c0,0.1,0.1,0.4,0,0.5c-0.1,0-0.1-0.5-0.1-0.6c0,0,0,0,0,0.1c0,0,0-0.1,0-0.2
						l0,0.1c0-0.1-0.1-0.1-0.1-0.3c0,0.1,0,0.2,0,0.3c-0.1-0.2-0.1,0-0.2-0.1c0,0.1,0.1,0.2,0,0.2c-0.1-0.1,0,0.2-0.1,0.3
						c-0.1-0.2,0-0.4-0.1-0.3c-0.1-0.1,0-0.3,0-0.4c-0.1,0.2-0.2-0.1-0.2-0.2l0-0.1c0,0.1,0,0.1-0.1,0.1l0.1,0.2c0,0-0.1,0-0.1-0.1
						c0,0.2,0.1,0.4,0,0.6c0-0.1-0.1,0.1-0.1-0.2c0.1,0.1,0-0.3,0-0.4c0,0,0,0-0.1,0c0,0,0-0.1,0-0.1c-0.1-0.3,0,0.4-0.1,0.4
						c0-0.2-0.1-0.3-0.1-0.3c0,0,0.1,0.3,0,0.4c-0.1-0.1-0.1,0.1-0.1,0.1l0,0.1c0,0.2,0,0.2-0.1,0.2c0-0.1,0-0.1,0-0.2
						c0,0.3-0.1-0.3-0.2-0.1c0-0.1,0-0.3-0.1-0.4c-0.1,0.2-0.1-0.2-0.2,0c0,0.2,0,0.2,0,0.4l0.1-0.2l-0.1,0.4c0,0,0.1-0.2,0.1-0.1
						c0,0.2,0,0.1,0,0.3c-0.1-0.3-0.1,0.2-0.2,0l-0.1-0.6c-0.1-0.3-0.1,0.3-0.3,0.2l0.1,0.1c0,0.2-0.1,0-0.1,0.1
						c0-0.2,0-0.3-0.1-0.4c0,0.1-0.1,0-0.1,0.4l-0.1-0.3c-0.1-0.1-0.1,0.6-0.2,0.5c0-0.2-0.1-0.4,0-0.5c0,0-0.1,0-0.1,0.1
						c0-0.1-0.1,0.3-0.1,0.1c0,0.1,0,0.3,0,0.3c0,0,0-0.1,0-0.1c0,0.1,0,0.1,0,0.4c-0.2-0.6-0.3,0.1-0.4-0.4
						c-0.1,0.1-0.1,0.1-0.2,0.2c0-0.1,0-0.1,0-0.1c-0.1-0.2,0,0.6-0.1,0.4c-0.1-0.3,0-0.2,0-0.3c-0.1-0.6-0.1,0.1-0.2-0.3l0,0
						c-0.1-0.2-0.1,0.3-0.2,0.2c0,0,0-0.1,0-0.1c0,0.3-0.1,0.5-0.2,0.6c0-0.3,0-0.1,0-0.4c0,0,0,0.4,0,0.5c0-0.1-0.1-0.3-0.1-0.5
						l0.1,0c-0.1-0.4-0.1,0-0.1,0l0-0.2c-0.1,0.1-0.1,0.5-0.2,0.4l0,0.1c0,0.4-0.1-0.2-0.1,0.1l-0.1-0.4c0,0.1-0.1,0.4-0.2,0.5
						c0-0.3,0.1-0.5,0.1-0.6c0,0-0.1,0-0.1,0.2c0,0,0-0.1,0-0.1c0,0.3-0.1,0.5-0.2,0.5c0-0.8-0.2-0.2-0.3-0.8
						c-0.1,0.3-0.3-0.1-0.5,0c0.1,0.6,0,0,0,0.6c0,0-0.1,0-0.1,0l-0.1-0.4c0-0.2,0-0.1,0-0.3c-0.1,0-0.1-0.3-0.1-0.4
						c0,0.2,0,0.3-0.1,0.2l0.1,0.3c-0.1,0.3-0.1-0.5-0.2-0.2l0-0.2c-0.1,0.1-0.2,0-0.3,0.5c0-0.1,0-0.2,0-0.3
						c-0.2-0.1-0.3,0.5-0.4,0.2l0-0.1c0,0,0,0.3-0.1,0.1c0-0.1,0-0.1,0-0.2c0,0.1-0.1,0.3-0.1,0.2l0-0.2c-0.2-0.2-0.2,0.4-0.3,0.5
						c0-0.4-0.2-0.6-0.2-0.6l0-0.1c-0.2,0-0.3,0.4-0.4,0.6c-0.1-0.5-0.3-0.2-0.5-0.4c0,0.1,0,0.3,0,0.4c0-0.1-0.1,0.3-0.1-0.1l0,0
						c0-0.4-0.1-0.3-0.2-0.3l0,0.5c-0.2-0.8-0.4,0.3-0.5-0.4c0,0.1-0.1,0.1-0.1,0.3l0-0.3c-0.1-0.1-0.2-0.1-0.3,0l0-0.2
						c-0.1,0-0.1,0.8-0.1,0.8l0-0.4c-0.1,0-0.3-0.4-0.4,0c0-0.1,0-0.2,0-0.2c-0.1,0-0.2-0.3-0.2,0.3c0-0.4-0.1,0-0.2,0.1l0-0.3
						c0,0.4,0,0.5-0.1,0.6c0,0,0-0.2,0-0.2c-0.1-0.1,0,0.3-0.1,0.1l0-0.2c-0.1,0-0.1,0.1-0.1,0.3c0,0.1-0.1-0.1-0.1-0.3
						c0,0.2,0,0.4-0.1,0.3c0-0.1,0-0.2,0-0.2c-0.1-0.2-0.2,0.3-0.2,0.1c0-0.1,0-0.1,0-0.2c0.1,0,0.2,0,0.2,0c0-0.3-0.1-0.3,0-0.7
						c0,0.2-0.1,0.6-0.2,0.5c0,0,0,0,0-0.1l0,0c0,0,0,0,0,0c0,0,0-0.1-0.1-0.1c0-0.2-0.1-0.1-0.1-0.1c0,0.3,0,0.2,0,0.5c0,0,0,0,0,0
						c0,0,0,0,0,0l0,0c0,0,0.1,0,0.1,0c0,0.1,0,0.3-0.1,0.1c0,0.2,0,0.4,0,0.5c-0.1-0.4-0.2-0.6-0.2-0.8c-0.1,0.2-0.2,0.1-0.3,0.6
						c0,0.1,0-0.2-0.1-0.2c0-0.1,0,0,0-0.1c-0.1,0.1-0.2,0.1-0.2,0.4c-0.1-0.2,0-0.3-0.1-0.3l0-0.1c-0.2-0.6-0.3,0.9-0.6,0.2
						c0,0,0,0.1,0,0.1c-0.3-0.3-0.5,0.3-0.8-0.2C50,16,50,16.3,49.9,16.5l0-0.3l-0.1,0.3c-0.1,0.3-0.2-0.7-0.3-0.3l0,0.2
						c0,0-0.2,0.1-0.1-0.1c0,0,0,0.2,0,0.1l0-0.2l-0.1,0.3c-0.1-0.1,0-0.6-0.1-0.7C49,16,49,16.4,49,16.5c0,0,0.1,0.1,0.1,0.3l0,0.1
						c0,0.5,0,0.9,0.1,1.3l0.1-0.3l0,0.2l-0.1,0c0,0.2,0.1,0,0.1-0.1c0,0.1,0,0.2,0,0.2l0.1-0.4c0,0.2,0,0.4,0,0.5
						c0-0.2,0-0.4,0-0.5c0,0.2,0,0.4,0.1,0.2c0,0.1,0,0.2,0,0.2c0-0.1,0.1-0.1,0.1-0.3c0,0.3,0.1-0.1,0.1,0.4c0-0.1,0.1-0.3,0.1-0.4
						c-0.1,0.5,0.1,0,0.1,0.6c0-0.5,0.2-0.2,0.3-0.5c0,0,0,0.1,0,0.1c0.1,0,0.1,0.2,0.1,0.3c0-0.4,0.1-0.5,0.1-0.7
						c0.1,0.4,0,0.5,0,0.8c0-0.3,0.1-0.3,0.1-0.6c0.1,0.2,0,0.1,0.1,0.4c0-0.5,0-0.1,0.1-0.4c0.1,0.2,0,0.5,0.1,0.3
						C50.7,18.3,50.7,18.5,50.7,18.5z M52.4,17.6L52.4,17.6C52.4,17.6,52.4,17.6,52.4,17.6C52.4,17.6,52.4,17.6,52.4,17.6z
						 M52.6,17.6C52.5,17.6,52.5,17.5,52.6,17.6c-0.1-0.1-0.1-0.2-0.1-0.2C52.5,17.4,52.5,17.5,52.6,17.6z M52.2,15.6
						C52.2,15.6,52.2,15.6,52.2,15.6c0,0.1,0,0.1,0,0.1l0,0C52.2,15.7,52.2,15.7,52.2,15.6z"/>
					<path class="st0" d="M52.1,16C52.1,16,52.1,16,52.1,16C52.1,16,52.2,16.1,52.1,16L52.1,16L52.1,16z"/>
					<path class="st0" d="M65.5,15.3L65.5,15.3C65.5,15.3,65.5,15.3,65.5,15.3C65.5,15.3,65.5,15.3,65.5,15.3z"/>
					<polygon class="st0" points="54.6,18 54.6,17.9 54.6,18 					"/>
					<path class="st0" d="M66.4,16.2C66.4,16.2,66.4,16.2,66.4,16.2C66.5,16.2,66.4,16.2,66.4,16.2z"/>
					<path class="st0" d="M66.8,16.2L66.8,16.2C66.8,16.2,66.8,16.2,66.8,16.2z"/>
					<path class="st0" d="M67.1,16.3c0,0,0-0.1,0-0.1l0,0L67.1,16.3z"/>
					<path class="st0" d="M62.8,17.2C62.8,17.2,62.8,17.2,62.8,17.2C62.8,17.2,62.8,17.2,62.8,17.2z"/>
					<path class="st0" d="M64,16.4c0,0.1,0,0.1,0,0.1C64,16.5,64,16.5,64,16.4z"/>
					<polygon class="st0" points="61.4,17.6 61.4,17.6 61.4,17.6 					"/>
					<path class="st0" d="M63.9,16.5C64,16.5,64,16.5,63.9,16.5C64,16.5,64,16.4,63.9,16.5z"/>
					<path class="st0" d="M68.3,16.2L68.3,16.2C68.3,16.2,68.3,16.2,68.3,16.2L68.3,16.2z"/>
					<path class="st0" d="M68.3,16.2L68.3,16.2C68.3,16.2,68.3,16.2,68.3,16.2z"/>
					<path class="st0" d="M68.3,16.1L68.3,16.1C68.3,16.2,68.3,16.2,68.3,16.1z"/>
					<path class="st0" d="M67.9,16.2l0,0.1C67.9,16.2,67.9,16.2,67.9,16.2z"/>
					<path class="st0" d="M67.8,16.2c0,0,0.1,0.2,0.1,0.1l0-0.1C67.9,16.4,67.8,16,67.8,16.2z"/>
					<path class="st0" d="M67.2,15l0.1,0.1c0-0.1-0.1-0.2,0-0.3C67.1,14.5,67.3,15.1,67.2,15z"/>
					<path class="st0" d="M66.9,14.9c0-0.1,0-0.2,0-0.2C66.8,14.8,66.8,14.8,66.9,14.9z"/>
					<path class="st0" d="M64.8,15.2l0-0.3C64.8,15,64.8,15,64.8,15.2z"/>
					<polygon class="st0" points="64.6,16.5 64.7,16.7 64.7,16.5 					"/>
					<polygon class="st0" points="64.2,14.8 64.2,14.7 64.1,14.8 					"/>
					<path class="st0" d="M60.8,15.2l0,0.3C60.8,15.5,60.8,15.1,60.8,15.2z"/>
					<path class="st0" d="M59.3,15.7C59.3,15.5,59.3,15.4,59.3,15.7C59.3,15.6,59.3,15.7,59.3,15.7z"/>
					<polygon class="st0" points="54.9,15.5 54.9,15.4 54.9,15.5 					"/>
				</g>
			</g>
		</g>
	</g>
</g>
<g>
	<g>
		<g>
			<g>
				<g>
					<path class="st0" d="M108.9,56c-0.1-0.1-0.3,0-0.2,0.2l0.4,0.1L108.9,56z"/>
					<path class="st0" d="M108.5,57.6c0.2,0.2,0.5,0.5,0.8,0.3c-0.3-0.2-0.2-0.3-0.6-0.5c-0.1-0.2,0.1-0.4,0.2-0.4
						c-0.1-0.1,0-0.4-0.2-0.4c-0.2,0.3-0.2,0.7,0.1,1C108.7,57.7,108.6,57.6,108.5,57.6z"/>
					<path class="st0" d="M96.4,71.3l0.1,0C96.5,71.3,96.4,71.3,96.4,71.3z"/>
					<path class="st0" d="M89.7,63.5c0,0.1,0.1,0.1,0.1,0.1C89.7,63.5,89.7,63.5,89.7,63.5z"/>
					<path class="st0" d="M89.9,61.3c0,0,0,0.1,0,0.1C89.9,61.4,89.9,61.3,89.9,61.3z"/>
					<path class="st0" d="M96.4,71.3L96,71.2C96,71.3,96.2,71.3,96.4,71.3z"/>
					<path class="st0" d="M109.3,60.6c0-0.1,0-0.1-0.1-0.2L109.3,60.6L109.3,60.6z"/>
					<path class="st0" d="M101.5,69.6L101.5,69.6c0.1-0.1,0.1-0.1,0.1-0.2L101.5,69.6z"/>
					<path class="st0" d="M104.7,67.1c-0.1,0.1,0.1,0.3,0.2,0.4c0-0.1,0-0.2,0-0.3C104.8,67.1,104.8,67.1,104.7,67.1z"/>
					<path class="st0" d="M108,61.4l0-0.1C108,61.3,108,61.4,108,61.4z"/>
					<path class="st0" d="M98.7,70.6C98.7,70.6,98.7,70.6,98.7,70.6C98.7,70.6,98.7,70.6,98.7,70.6z"/>
					<path class="st0" d="M92.6,41.7C92.6,41.7,92.6,41.7,92.6,41.7C92.5,41.7,92.5,41.7,92.6,41.7z"/>
					<path class="st0" d="M87.5,40.3L87.5,40.3c0.1-0.1,0.1-0.1,0.1-0.2L87.5,40.3z"/>
					<path class="st0" d="M90.3,57.3C90.3,57.3,90.3,57.3,90.3,57.3C90.3,57.4,90.3,57.4,90.3,57.3z"/>
					<path class="st0" d="M89.5,21.1c-0.4,0.2,0-0.7-0.5-0.3C89.1,20.8,89.1,21.5,89.5,21.1z"/>
					<path class="st0" d="M109.3,60.7c0,0.1,0,0.1,0,0.2C109.3,60.8,109.3,60.7,109.3,60.7z"/>
					<path class="st0" d="M89,20.8L89,20.8L89,20.8C88.9,20.8,88.9,20.8,89,20.8z"/>
					<path class="st0" d="M90.3,48c0,0-0.1,0.1-0.1,0.1C90.3,48.1,90.3,48,90.3,48z"/>
					<path class="st0" d="M89.8,54.9l0-0.2C89.8,54.8,89.8,54.9,89.8,54.9z"/>
					<path class="st0" d="M89.8,44.3c0-0.1,0-0.1,0-0.3c0,0,0,0,0,0C89.8,44.1,89.9,44.2,89.8,44.3z"/>
					<path class="st0" d="M89.4,40.5C89.3,40.5,89.3,40.6,89.4,40.5c0,0.1,0,0.2,0,0.2L89.4,40.5z"/>
					<path class="st0" d="M104,41.6c-0.1-0.1-0.1-0.2-0.2-0.3C103.8,41.5,103.3,41.6,104,41.6z"/>
					<path class="st0" d="M109.2,60.6c0.1,0,0.1,0.1,0.1,0.1l0-0.1C109.2,60.6,109.2,60.5,109.2,60.6z"/>
					<path class="st0" d="M87.6,44.3l0-0.6C87.6,43.9,87.6,44.1,87.6,44.3z"/>
					<path class="st0" d="M109.4,20.6l0.1,0.1C109.5,20.7,109.5,20.7,109.4,20.6z"/>
					<path class="st0" d="M87.3,42.1c0.1-0.1,0.1-0.2,0.1-0.4c0,0,0,0-0.1-0.1L87.3,42.1z"/>
					<path class="st0" d="M103.8,41.3L103.8,41.3L103.8,41.3z"/>
					<path class="st0" d="M99.9,42c0.6,0,0.3-0.4,0.4-0.6c0.7-0.1,0.3,0.3,0.5,0.5c0.4-0.1,0.7-0.4,1.1-0.4c0,0.1,0.1,0.1,0,0.2
						c0.4-0.3,1.3,0,1.8-0.4c0,0,0.1,0.1,0.1,0.1c-0.1-0.2-0.1-0.4-0.1-0.5c0.3,0,0.5-0.2,0.6,0c-0.2,0-0.2,0.1-0.2,0.2l0.3-0.1
						c0.2,0.3-0.4,0.1-0.4,0.4c0.5-0.1,1.1-0.4,1.5-0.3c0.1,0.3-0.9,0.1-0.4,0.4l-0.6-0.1c0.5,0.5-0.4,0,0.1,0.5
						c0.8,0.1,0.9-0.2,1.8-0.1c0.2-0.2-0.1-0.3,0.1-0.5c1.2-0.4,1,0.8,1.9,0.2c0.2-0.3,0.2-0.7,0.9-0.6l-0.1,0.4
						c0.9-0.2,0.3-0.6,1.3-0.7c-0.1,0.2-0.6,0.4-0.5,0.4c0.7,0.1,0.3-0.4,0.7-0.6l0.2,0.3c0.9-0.5,1.6-1.4,2.1-2.4
						c0.1,0.1,0,0.3,0.3,0.2c0.6-1.3,1.2-2.6,1.5-3.9c-0.1-0.2-0.2-0.3-0.3-0.5c0-0.1,0.1-0.2,0.2-0.1c0.1-0.5-0.2,0-0.3-0.3
						c0-0.3,0.2-0.4,0.3-0.2c-0.2-0.9-0.7-2.3-0.6-3.2l0.1,0.1c-0.1-0.7-0.8-0.6-0.7-1.2l0.1,0.1c-0.3-1.4-1.2-2.8-1.3-3.9
						c-0.5,0-0.5-1.3-1.1-1.1c-0.2-0.8,0.1-0.7-0.4-1.8c-0.1-0.3-0.6-0.2-0.8-0.5l0.3-0.2l-0.6-0.2l0.2-0.4l-0.3-0.2
						c0.1,0.1,0.1,0.3,0,0.4c-0.4-0.4-0.6-1.2-0.5-1.3c-0.3-0.3-0.7-0.6-1-0.9c0.1-0.1,0.3,0.1,0.5,0.2c-0.7-0.3,0.2-0.3-0.5-0.6
						c0,0.1-0.2,0.1-0.2,0.1c-0.1-0.4-0.6-0.9-1-1.3l0.2-0.1c-0.7-0.8-1.7-1.4-2.6-2c0.3,0.3,0,0.6-0.3,0.4l0.1-0.3
						c-0.3,0.1,0.2,0.3-0.3,0.3c-0.3-0.3,0-0.5,0.2-0.4c-0.2-0.1-0.3-0.1-0.5-0.2c0-0.1,0.2-0.1,0.2-0.2c-0.3,0.1-0.6-0.7-1.1-0.6
						l0-0.1c-1.1-0.5-1.6-0.6-2.6-0.8c-0.1,0.3-0.4,0.1-0.8,0.3c-0.7-0.2-1.4-0.5-2.3-0.5c-0.6,0.2-0.2,0.2-0.4,0.4
						c-0.1-0.3-0.9-0.1-0.5-0.4c-0.5,0.1-0.8,0.1-1.2,0.3c-0.3,0.1-0.7,0.3-1.3,0.6c0.2,0,0.3,0,0.3,0.1c-0.2,0.1-0.5,0.1-0.5,0l0,0
						c-0.6,0.4-1.4,0.7-2.1,1c-0.7,0.3-1.4,0.8-1.6,1.4l0-0.1c-0.2,0.3-0.4,0.7-0.5,1.1c-0.4,0.4,0.1-0.4-0.3-0.2
						c-0.4,1.3-1.2,1.6-1.4,2.7c-0.5,0.2-0.8,0.9-1,1.6c-0.2,0.7-0.3,1.5-0.7,1.9l0.2,0c0.1,0.3-0.2,0.3-0.3,0.5
						c0.1,0,0.2-0.3,0.3-0.1c-0.3,2.3-0.7,4.8-0.7,7.1c0,0.9,1,0.4,0.7,1.5l-0.4-0.3c0.6,1.6,0.5,3.4,1.2,4.9
						c-0.1-0.1-0.2-0.1-0.2-0.2c-0.2,0.4,0.2,1.2,0.4,1.2c0,0.3-0.2,0.1-0.2,0.3c-0.1,0.4,0.5,0.8,0.2,1c0,0-0.1-0.1-0.1-0.1
						c0.2,0.2,0.1,1,0.4,0.8c0,0.6,0.3,1.1,0.2,1.6c0.4,0.3,0,1,0.4,1.1c-0.4,0-0.2,1.1,0,1.4c-0.1-0.1-0.1,0.3-0.3,0.2
						c0,0.4,0.1,0.8,0.4,0.7c-0.5,0.8,0.5,1.6-0.2,2c0.3,1.3,0.4,2.5,0.5,3.6c-0.4-0.1,0-1.3-0.5-1.2c0.2,1.1,0.5,1.7,0.4,2.8
						c-0.1,0.3-0.2-0.2-0.3-0.3c0.1,1.1-0.1,2.1,0.1,3.1c0,0-0.1-0.1-0.1-0.2c0,0.2-0.1,0.5,0.1,0.4l0-0.2c0.3-0.3,0.6,0.8,0.8,0.8
						c-0.6-0.3-0.2,1-0.9,0.4c0,0.1,0.1,0.3,0.3,0.3c0,0.2-0.1,0.2-0.3,0.1c0.1,0.7,0.3,0.5,0.3,1.1c-0.1,0-0.1-0.1-0.3-0.2
						c0.2,0.3,0.4,0.7,0.3,1.2c-0.1,0-0.1,0-0.1-0.1c0,0.9,0.5,1.6,0.4,2.6c-0.4-0.3-0.1,0.4-0.5,0.4l0.1,0.5l0.2-0.2
						c0,0.5,0.3,0.9,0.2,1.3l-0.2-0.3c0,0.3,0.1,0.6,0.1,0.9l0.1-0.5c0.2,0.5,0.5-0.1,0.4,0.5c-0.1-0.1,0,0.5-0.1,0.7l0,0
						c0.1,0.2,0.3,0.4,0.3,0.8c-0.1,0.1-0.4,0-0.5,0.1c0.3,0.2,0.2,1.1,0.6,1.3c-0.1-0.1-0.3-0.1-0.3,0l0.3,0.1
						c0,0.2-0.1,0.3-0.2,0.3c0.1,0.7,0.4-0.3,0.4,0.5c0-0.1-0.1,0-0.1-0.1c0.1,0.8,0.6,1.5,0.9,2.2c-0.2,0.4-0.5-0.6-0.6-0.2
						c0.3,0.5,0.8,1,1.4,1.3c0.5,0.3,1.1,0.5,1.6,0.7l-0.2-0.1c0.3-0.4,0.7,0.5,1.3,0.4c-0.1,0-0.2,0.3-0.2,0.2
						c0.7,0.3,1.5,0.1,2.6-0.1l-0.1,0.1c0.4,0.1,1.1,0,1.6,0c0.1-0.2,0.4-0.2,0.2-0.3c0.8,0.3,1.4,0,2-0.3c0.6-0.3,1.1-0.7,1.8-0.6
						c-0.1,0.1-0.3,0.3-0.2,0.2c0.3-0.2,0.6-0.4,0.9-0.6c-0.2-0.2-0.2-0.1-0.5-0.1c0.1-0.2,0.3-0.4,0.5-0.5
						c-0.3,0.4,0.2,0.3,0.4,0.3c-0.1,0,0-0.1-0.1-0.2c0.7,0.1-0.2-0.4,0.6-0.6l0,0.1c0.2-0.2,0.3-0.5,0.6-0.6c0.3,0.1-0.2,0.3,0,0.5
						c0.3-0.3,0.3-0.9,0.8-1c-0.1,0.2-0.3,0.3-0.4,0.5c0.5,0,0.5-0.1,0.8-0.3l0,0l0.6-0.4l-0.2,0.1c-0.1-0.9,0.7-0.9,0.7-1.7
						c-0.1,0.8,0.1,0.2,0.3,0.5c0.2-0.1,0.4-0.3,0.4-0.2c0-0.4,0.5-0.4,0.5-1c0.1,0,0.2-0.3,0.4-0.1c0.2-0.4-0.2,0-0.3-0.1
						c0-0.7,1.1-1.3,1-2.4c0.1-0.9-0.2-1.1-0.2-1.9c0.2-0.2,0.3,0.3,0.3,0.3c0.2-0.4,0.3-0.7,0.2-1.1c0.1,0.1,0.2,0,0.3-0.1
						c0-0.3-0.3-0.3-0.1-0.7c0.1,0.1,0.3,0.2,0.4,0.4c0-0.4-0.2-0.8-0.3-1.2c0.2-0.1,0.2,0.2,0.4,0.4c0-0.5-0.1-1.2-0.4-1.3
						c0,0.1-0.1,0.2-0.1,0.3c0-0.2,0.2-0.1,0.3,0c0.2,0.4-0.1,0.6-0.2,0.6l-0.1-0.3c-0.6,0.3,0.1,1.1,0,1.7l-0.4-0.3
						c0.1,0.2,0.2,0.4,0.3,0.6c-0.1,0.1-0.4,0.1-0.4-0.1c-0.3,0.3,0.1,0.4-0.2,0.7c0,0-0.1,0-0.1,0l0,0.4c-0.1-0.1-0.3,0-0.2-0.2
						c-0.4,0.6,0,1.1-0.3,1.3l0-0.1c-0.2,0.9,0.3,0.2,0.4,1c-0.3,0.1-0.6,0.1-0.9,0.2l0.2,0.2c-0.1,0.1-0.2,0.2-0.2,0.2
						c0,0.4,0.1,0,0.2,0.3c-0.4,0.3-0.5,1.2-1,1c0.1,0.3,0.4-0.3,0.3,0.2c-0.5-0.2-0.2,0.5-0.7,0.7c-0.1-0.3,0.2-0.5-0.2-0.3
						c0.2,0.5-0.6,0.6-0.7,0.9c0.3,0.3-0.4,0.7-0.8,1.1c0-0.1-1,0.6-1.5,0.7l0-0.1c0.1,0.4-0.4,0.6-0.7,0.9
						c-0.1-0.2-0.1-0.3,0.1-0.5c-0.1,0.1-0.2,0.1-0.3,0.2c0,0.1-0.1,0.3-0.3,0.4l0-0.3c-0.4,0.2-0.8,0.7-1.5,0.8
						c0,0.3,0.8,0.5,0.1,0.9c-0.1-0.1-0.2-0.3,0-0.5c-0.1,0-0.2,0.2-0.3,0.2l0.2-0.3c-0.3,0-0.1,0.2-0.3,0.3
						c-0.1-0.2-0.2-0.1-0.2-0.2c0.1,0,0.2,0,0.3-0.1c-0.3,0.1-0.6,0-0.8-0.1c0.1,0.1,0.1,0.3-0.1,0.3c-0.5,0.1-0.2-0.2-0.5-0.2
						c-0.1,0.2-0.4,0.1-0.4,0.4c-0.1,0-0.2-0.1-0.3-0.2c-0.2,0.2-1.2,0.2-0.9,0.4l0.1,0c0,0,0,0,0,0l0,0l0,0
						c-0.9,0.3-1.8-0.1-2.7-0.2l0-0.1c-0.5,0-1.1-0.2-1.5-0.2c-0.1-0.1-0.2-0.3-0.1-0.4c-0.3-0.1-0.5,0-0.8-0.5
						c0.4,0.1,0-0.2,0.4,0.1c-0.3-0.4-0.3-0.5-0.8-0.7c0.3,0,0.1-0.4-0.1-0.6c0,0.1,0,0.2,0,0.4c-0.2-0.2-0.2-0.4-0.3-0.6l0.4,0
						c0-0.5-0.3-0.8-0.5-1.2c-0.2-0.4-0.4-0.8-0.1-1.2c-0.3-0.2-0.1,0.6-0.4,0.4c0-0.5,0.4-1.1,0.3-1.2c0.1-0.7-0.6-0.6-0.5-1.3
						c-0.1,0.1-0.4,0.2-0.6-0.3c0-0.5,0.5-0.7,0.6-0.3c0,0.1,0,0.2-0.1,0.2c0.1,0.2,0.1,0.4,0.2,0.2l-0.1-0.1c0.1-0.3,0-0.9,0.2-0.8
						c-0.1-0.4-0.2-0.1-0.2,0.1c0.1-0.6-0.1-1,0-1.6c-0.1,0.1-0.2,0.2-0.2,0.1c0.1-1-0.2-0.4-0.3-1.1c0.2-0.4,0.4,0.1,0.3-0.5
						c0.1-0.4,0.3-0.1,0.4,0.1c-0.2-0.6,0.1-1.1,0.2-1.5l0.1,0.3c-0.1-0.2-0.1-0.3-0.1-0.5l-0.2,0.2c0-0.2,0-0.3,0.1-0.3
						c-0.2-0.2-0.4,0.1-0.6-0.2c0.1-0.2-0.1-0.8,0.2-0.8c-0.1,0.8,0.3-0.1,0.4,0.6c0-0.1,0-0.3,0-0.5c0,0,0.1,0,0.1,0.1
						c0.3-0.7-0.4-0.3-0.3-1.1c0.2,0.1,0.3-0.2,0.3-0.3c0,0.3-0.3,0.1-0.4-0.2c0.2-0.5-0.1-0.5-0.1-0.8l-0.1,0.3
						c-0.2-0.1-0.1-0.4-0.2-0.7c0.1,0,0.1,0.3,0.1,0.2c-0.3-0.4,0.4-0.9,0.2-1.4c0.1-0.2,0.3,0,0.4-0.2c-0.2-0.6,0.3-0.6,0.1-1.3
						c-0.2,0.2-0.2,0.2-0.4-0.2l0.1,1.1l-0.3-0.7c0,0.3,0.1,0.7,0.1,0.9c-0.2-0.3-0.1-0.3-0.3-0.1c0.4-0.4-0.2-0.9,0.1-1.4l0.6,0
						c0.3-0.7-0.3-1.3-0.1-2.3L90,49.3c-0.2-0.1,0-0.6-0.1-0.9c0.2,0,0.3-0.2,0.4-0.3c-0.1,0,0-0.7-0.4-0.8l0.2-0.4
						c0.1-0.8-0.6-0.9-0.6-1.7c0.2,0.2,0.3-0.1,0.5,0.4c0-0.3,0-0.5-0.1-0.5c0.1-0.2-0.3-0.7-0.1-0.9c-0.1-0.1-0.3-0.1-0.3-0.4
						c0,0,0.1,0,0.1,0c-0.1,0-0.2-0.4-0.4-0.2c0.5-0.8-0.3-2.2,0.1-2.9c-0.1-0.5-0.3-1.2-0.4-1.7c0.1,0,0.1,0,0.1,0.1
						c0.1-0.7-0.6-0.3-0.6-1.1c0.2-0.5,0.2,0.4,0.3,0.1c0.6-0.2-0.3-0.9,0-1.5l0.1,0.1c0.1-0.4-0.4-0.9-0.5-1.6c0,0,0.1,0,0.1,0
						c-0.4-0.4-0.7-1.2-0.8-1.8c0.3,0.2,0.2,0.3,0.4,0.1c-0.1-0.3-0.4,0.1-0.6-0.4c0.1-0.2,0.2-0.6,0.4-0.7l0.1,0.5
						c0.3-0.3-0.1-0.7-0.1-1l0.2,0c-0.1-0.8-0.5-0.8-0.6-1.6l-0.1,0.1c-0.4-0.4,0.2-0.4-0.1-0.9l0.4-0.2c-0.1-0.3-0.4-1.1-0.5-1.6
						c0.3,0.3,0.4,1,0.6,1.4c0-0.3-0.1-1-0.2-1.2c0,0.1,0.1,0.3,0.1,0.4c-0.3-0.4-0.5-0.9-0.4-1.5c0.7,0.2,0.3-1.6,1-1.9
						c-0.1-1.1,0.6-2,1-3.1c-0.7,0.2,0.1-0.3-0.5-0.5c0.1-0.3,0.1-0.4,0.2-0.4c0.2-0.2,0.5-0.4,0.7-0.6c0.3-0.1,0,0.3,0.1,0.3
						c0.3-0.5,0.4-0.1,0.7-0.3c-0.2,0-0.2-0.4,0.1-0.6c-0.2,0.1-0.3,0.2-0.5,0.3c0.2-0.9,0.8-0.3,1.1-1.2l0,0.3c0.2-0.4,1-1.2,1-1.8
						c0.1,0,0.3,0.1,0.2,0.2c0.4-0.3,0.8-0.7,1.2-1.1c0.4-0.4,0.9-0.6,1.3-0.6l0,0.2c0.1-0.1,0.2-0.4,0.5-0.3c0,0.1,0,0.2,0.1,0.1
						c0.1-0.1,0.4-0.4,0.7-0.3l-0.2,0.2c0.9,0,1.4-0.6,2.3-0.6c0,0.4,0.7,0.7,1.1,0.8l0,0.1c1.1,0.3,2,0.2,3,0.6
						c0.2,0.4,0.7,0.7,1.1,1.1c0.5,0.4,1,0.8,1.3,1.3c-0.1-0.2,0.3-0.2,0.4-0.1c0.1,0.2,0.7,0.3,0.4,0.6l-0.1-0.1
						c-0.1,0.4,0.3,0.7,0.6,1.1l0.4-0.3c0.1,1.3,2,2.2,1.8,3.1c0.3,0.2,0.4,0.4,0.7,0.6l-0.2,0.1c0.3,0.7,0.5,1,1,1.8l-0.3-0.1
						c0.2,0.5,1,0.2,1.3,0.6l-0.3,0.3c0.4,0.8,0.4,1.8,1.1,2.5c-0.1,0-0.2,0-0.3-0.1c0.2,0.4,0.2,1.6,0.7,1.3
						c-0.4,0.1,0.2,0.9,0.4,1.4l-0.3,0c0.4,0.3,0.5,0.4,0.7,0.9c0,0.1-0.2,0.1-0.2-0.1c-0.1,0.5,0.3,0.3,0.1,0.9l-0.2-0.2
						c0,0.5,0.1,0.4,0.3,0.7c0.1,0.3-0.2,0.9-0.4,0.9c0.1,0.1,0.3,0.4,0.2,0.6c-0.1,0-0.1-0.1-0.2-0.1c-0.4,0.7,0,1.2-0.5,1.5
						c-0.1,0-0.1,0-0.2,0c0.3-0.5,0.4-0.9,0.4-0.9c-0.2-0.1-0.4,0.3-0.7-0.1c0.1,0.4,0.2,1.1-0.2,1.4c0,0-0.1,0-0.1,0l0-0.1
						c-0.1,0.1-0.1,0.1-0.1,0.2c-0.1,0.1-0.2,0.1-0.3,0.2c-0.2-0.1-0.4,0.2-0.6,0.3c0.2,0.2-0.1,0.3,0.3,0.4c0,0,0,0,0.1-0.2
						c0,0,0-0.1,0.1-0.1l0,0c0.1-0.1,0.2-0.2,0.4-0.4c0,0.2-0.1,0.4-0.4,0.5c0,0.2,0,0.4,0,0.6c-0.5-0.1-1.1,0-1.3-0.2
						c-0.5,0.4-1.5,0.6-1.9,1.2c-0.2,0.1-0.3-0.1-0.4-0.2c0.1-0.1,0.3-0.1,0.3-0.2c-0.4,0.2-1.3,0.2-1.4,0.5
						c-0.6-0.1,0.3-0.4-0.5-0.3l0.1-0.1c-1.5-0.6-2.5,1-4.3,0.2c0.1,0,0.2,0.1,0.2,0.1c-2-0.3-4.1,0.3-6-0.2c-0.6-0.1-0.6,0.1-1,0.3
						l-0.1-0.3L94,40c-0.8,0.3-1.4-0.7-2.5-0.3l0.1,0.2c-0.4,0-1.2,0.1-1.1-0.1c0,0-0.1,0.2-0.3,0.1l0-0.2l-0.9,0.3
						c-0.7-0.1,0.1-0.6-0.9-0.7c-0.4,0.1-1.1,0.5-1,0.6c0.2,0,0.4,0.1,0.4,0.3l-0.4,0.1c-0.1,0.5-0.3,0.9,0.5,1.3l0.6-0.3l0.2,0.2
						l-0.5,0c0.3,0.2,0.5,0,0.7-0.1c0,0.1,0.1,0.2,0.3,0.2l0.6-0.4c0.1,0.2-0.3,0.4,0.1,0.5c0.3-0.2-0.3-0.4,0.2-0.5
						c0.3,0.2,0.2,0.4,0.5,0.2c0,0.1,0,0.2-0.2,0.2c0.3-0.1,0.8-0.1,1-0.3c0.3,0.3,1-0.1,1,0.4c0.1-0.1,0.5-0.3,0.8-0.4
						c-0.5,0.5,1,0,0.9,0.6c0.4-0.5,1.4-0.2,2-0.5c0,0-0.1,0.1-0.2,0.1c0.4,0,0.5,0.2,0.7,0.3c0-0.4,0.6-0.5,0.9-0.7
						c0.5,0.4-0.3,0.5-0.1,0.8c0-0.3,0.8-0.3,0.6-0.6c0.4,0.2,0.3,0.1,0.5,0.4c0.1-0.5,0.3-0.1,0.6-0.4c0.5,0.2,0.1,0.5,0.7,0.3
						C100.3,41.8,99.9,42,99.9,42z M112.9,38.1L112.9,38.1c-0.1,0.1-0.1,0.2-0.2,0.3C112.8,38.3,112.8,38.2,112.9,38.1z M113.5,37
						c-0.1,0.1-0.2,0.3-0.2,0.5c-0.1,0-0.2-0.1-0.1-0.2C113.2,37.4,113.3,37.1,113.5,37z M110.7,37.7c0.1-0.1,0.1-0.1,0.2-0.1
						c0,0.1-0.1,0.1-0.2,0.2l0,0C110.7,37.8,110.7,37.8,110.7,37.7z"/>
					<path class="st0" d="M110.7,38.2C110.7,38.2,110.7,38.2,110.7,38.2C110.7,38.2,110.7,38.2,110.7,38.2L110.7,38.2L110.7,38.2z"
						/>
					<path class="st0" d="M96.5,71.4L96.5,71.4C96.5,71.4,96.5,71.4,96.5,71.4C96.5,71.4,96.5,71.4,96.5,71.4z"/>
					<polygon class="st0" points="110.3,21.6 110.2,21.7 110.3,21.7 					"/>
					<path class="st0" d="M102.6,70.4c0,0,0.1,0,0.1,0C102.7,70.5,102.7,70.4,102.6,70.4z"/>
					<path class="st0" d="M104.9,68.9l0.4-0.2C105.1,68.7,105,68.8,104.9,68.9z"/>
					<path class="st0" d="M106.5,67.4c0-0.1,0-0.1-0.1-0.1l0,0L106.5,67.4z"/>
					<path class="st0" d="M87.9,55C87.9,55,87.9,55,87.9,55C87.8,54.7,87.8,54.9,87.9,55z"/>
					<path class="st0" d="M88.7,64.7c-0.1-0.1-0.1-0.2-0.2-0.3C88.6,64.6,88.6,64.7,88.7,64.7z"/>
					<polygon class="st0" points="87.6,44.4 87.6,44.4 87.6,44.3 					"/>
					<path class="st0" d="M88.5,64c0,0.2,0,0.3,0,0.5C88.6,64.3,88.6,64.1,88.5,64z"/>
					<path class="st0" d="M109.4,58.7l0-0.1c0,0,0,0,0,0L109.4,58.7z"/>
					<path class="st0" d="M109.4,58.5l0-0.1C109.4,58.5,109.4,58.5,109.4,58.5z"/>
					<path class="st0" d="M109.3,58.2l0.1,0.2C109.4,58.3,109.4,58.2,109.3,58.2z"/>
					<path class="st0" d="M109.1,61.5L109.1,61.5C109.2,61.5,109.1,61.5,109.1,61.5z"/>
					<path class="st0" d="M108.9,62.3c0.1-0.2,0.3-0.5,0.3-0.8l-0.1,0C109.3,61.7,108.8,62.1,108.9,62.3z"/>
					<path class="st0" d="M106.5,65.1c0.1-0.2,0.3-0.4,0.4-0.5c-0.1,0.1-0.3,0.1-0.2-0.2C106,65,106.9,64.4,106.5,65.1z"/>
					<path class="st0" d="M105.2,66.7c0.2-0.3-0.1-0.1-0.2-0.1C105,66.8,105,66.8,105.2,66.7z"/>
					<path class="st0" d="M92.2,70.4l0.2-0.2C92.1,70.1,92.3,70.3,92.2,70.4z"/>
					<path class="st0" d="M89.4,69c0,0.1,0,0.2,0,0.4l0.3,0C89.5,69.3,89.4,69.2,89.4,69z"/>
					<polygon class="st0" points="90.6,66.9 90.7,67 90.5,66.6 					"/>
					<path class="st0" d="M89.7,41.2l-0.3,0.1C89.5,41.5,89.9,41.5,89.7,41.2z"/>
					<path class="st0" d="M87.6,30.2c0.1-0.1,0.2-0.4,0.1-0.6C87.7,29.9,87.6,30.1,87.6,30.2z"/>
					<polygon class="st0" points="106.5,20.7 106.3,20.6 106.6,20.9 					"/>
				</g>
			</g>
		</g>
	</g>
</g>
<g>
	<g>
		<g>
			<g>
				<g>
					<path class="st0" d="M184.4,11.4c-0.1-0.1-0.3,0-0.2,0.2l0.3,0.2L184.4,11.4z"/>
					<path class="st0" d="M183.8,13.1c0.2,0.3,0.5,0.7,0.8,0.4c-0.3-0.3-0.2-0.4-0.6-0.7c0-0.3,0.1-0.5,0.2-0.4
						c-0.1-0.1,0.1-0.4-0.2-0.5c-0.2,0.3-0.2,0.8,0,1.2C184,13.3,183.9,13.2,183.8,13.1z"/>
					<path class="st0" d="M179,38l0.1-0.1C179.1,37.9,179.1,37.9,179,38z"/>
					<path class="st0" d="M172.6,52.5c0-0.1,0-0.2,0-0.2C172.6,52.4,172.6,52.5,172.6,52.5z"/>
					<path class="st0" d="M171.2,54.8c0-0.1,0.1-0.1,0.1-0.1C171.2,54.7,171.2,54.8,171.2,54.8z"/>
					<path class="st0" d="M179,38l-0.3,0.4C178.9,38.4,178.9,38.2,179,38z"/>
					<path class="st0" d="M184.7,16.7c0-0.1,0-0.2-0.1-0.2L184.7,16.7C184.7,16.7,184.7,16.7,184.7,16.7z"/>
					<path class="st0" d="M181.1,31.4l0-0.1c0,0-0.1-0.1-0.1-0.1L181.1,31.4z"/>
					<path class="st0" d="M182.3,26.2c0,0.1,0.2,0.2,0.3,0.3c-0.1-0.1-0.1-0.2-0.1-0.3C182.5,26.2,182.4,26.2,182.3,26.2z"/>
					<path class="st0" d="M183.5,17.9l0-0.2C183.5,17.8,183.5,17.8,183.5,17.9z"/>
					<path class="st0" d="M179.8,34.9c0,0-0.1,0-0.1,0C179.8,35,179.8,35,179.8,34.9z"/>
					<path class="st0" d="M126.5,22.3C126.5,22.3,126.5,22.3,126.5,22.3C126.5,22.2,126.5,22.2,126.5,22.3z"/>
					<path class="st0" d="M126.7,15.9L126.7,15.9c0.1,0.1,0.1,0.1,0.2,0.1L126.7,15.9z"/>
					<path class="st0" d="M168.9,59.3C168.9,59.2,168.9,59.2,168.9,59.3C168.9,59.1,168.9,59.2,168.9,59.3z"/>
					<path class="st0" d="M154.5,37.6c0.4-0.4,0.1,0.9,0.6,0.2C154.9,37.9,154.8,37,154.5,37.6z"/>
					<path class="st0" d="M184.6,16.8l0,0.2C184.7,16.9,184.7,16.9,184.6,16.8z"/>
					<path class="st0" d="M155,37.8L155,37.8L155,37.8C155.1,37.8,155.1,37.8,155,37.8z"/>
					<path class="st0" d="M165.2,55.9c0,0,0,0.1-0.1,0.2C165.1,56.1,165.2,56,165.2,55.9z"/>
					<path class="st0" d="M168.5,61.5C168.5,61.5,168.4,61.5,168.5,61.5C168.4,61.5,168.5,61.5,168.5,61.5z"/>
					<path class="st0" d="M163.1,52.1c0-0.1,0-0.2-0.1-0.3c0,0,0,0,0,0.1C163.1,51.9,163.1,51.9,163.1,52.1z"/>
					<path class="st0" d="M161.7,47.8C161.7,47.8,161.7,47.8,161.7,47.8c0,0.1,0,0.2,0,0.2L161.7,47.8z"/>
					<path class="st0" d="M129.3,36c0.1-0.1,0.1-0.2,0.2-0.3C129.3,35.8,129.1,35.2,129.3,36z"/>
					<path class="st0" d="M184.5,16.7c0.1,0,0.1,0.1,0.1,0.1c0-0.1,0-0.1,0-0.2C184.6,16.7,184.6,16.6,184.5,16.7z"/>
					<path class="st0" d="M161,52.7l-0.2-0.7C160.8,52.2,160.9,52.4,161,52.7z"/>
					<path class="st0" d="M140.2,64.9l-0.1,0.1C140.1,65,140.2,64.9,140.2,64.9z"/>
					<path class="st0" d="M160,49.9c0.1-0.2,0.1-0.3,0.1-0.5c0,0-0.1-0.1-0.1-0.1L160,49.9z"/>
					<path class="st0" d="M129.5,35.7L129.5,35.7L129.5,35.7z"/>
					<path class="st0" d="M127.9,31.1c0.1,0.7,0.4,0.3,0.7,0.4c0.3,0.8-0.2,0.4-0.3,0.7c0.2,0.5,0.6,0.8,0.7,1.2
						c-0.1,0-0.1,0.1-0.2,0c0.4,0.5,0.3,1.6,0.8,2.2c0,0.1,0,0.1-0.1,0.1c0.2-0.1,0.3-0.2,0.5-0.2c0.1,0.3,0.3,0.5,0.1,0.7
						c0-0.2-0.1-0.2-0.2-0.3l0.2,0.3c-0.3,0.4-0.2-0.4-0.5-0.4c0.2,0.6,0.7,1.3,0.6,1.8c-0.3,0.2-0.3-1.1-0.5-0.4l0-0.8
						c-0.4,0.7,0-0.5-0.5,0.2c0.1,1,0.4,1.1,0.5,2.1c0.2,0.2,0.3-0.1,0.5,0.1c0.6,1.3-0.6,1.3,0,2.2c0.3,0.2,0.7,0.2,0.6,1l-0.4-0.2
						c0.1,1,0.6,0.4,0.6,1.5c-0.2-0.1-0.3-0.7-0.3-0.6c-0.2,0.7,0.3,0.4,0.4,0.9l-0.3,0.2c0.2,1,0.7,2.1,1,3.2
						c-0.1,0-0.3-0.2-0.3,0.1c0.4,1.4,0.5,3,0.6,4.4l0.4,0.5c0,0.1-0.1,0.2-0.2,0.1c0,0.6,0.2,0,0.3,0.2c0.1,0.3-0.1,0.4-0.2,0.3
						c0.4,0.9,1,2.6,0.9,3.6l-0.1-0.2c0,0.8,0.8,0.8,0.6,1.5l-0.1-0.1c0.2,1.7,0.9,3.5,0.9,4.9c0.5,0.1,0.4,1.7,1,1.6
						c0,0.2,0.1,0.5,0.1,0.7c0,0.2,0.1,0.4,0.1,0.5c0.1,0.4,0.2,0.7,0.6,1.6c0.1,0,0.3-0.1,0.5-0.1c0.6-0.2,0.9-0.7,1.5-1.1l0.1,0.3
						l0.4-0.3c0.1-0.1,0.2-0.2,0.2-0.3l0.5,0.2c0.1-0.1,0.2-0.2,0.4-0.3c-0.2,0.1-0.4,0.1-0.4,0c0.5-0.5,1.6-0.7,1.7-0.6
						c0.4-0.4,0.8-0.8,1.1-1.3c0.1,0.1-0.1,0.3-0.2,0.5c0.5-0.8,0.3,0.1,0.8-0.6c-0.1,0-0.1-0.2-0.1-0.2c0.4-0.1,1.1-0.8,1.5-1.3
						l0.1,0.2c0.9-0.9,1.6-2,2.3-3.1c-0.4,0.3-0.6,0-0.4-0.3l0.4,0.1c0-0.3-0.3,0.3-0.2-0.3c0.3-0.4,0.5-0.1,0.4,0.2l0.3-0.6
						c0.1,0,0.1,0.2,0.1,0.3c0-0.3,0.9-0.7,0.8-1.2l0.1,0c0.7-1.1,1-1.7,1.5-2.6c-0.2-0.2,0-0.5,0-0.9c0.5-0.6,1.1-1.3,1.6-2.1
						c0.2-0.6-0.1-0.3-0.1-0.6c0.2,0.1,0.7-0.8,0.6-0.2c0.5-1,0.6-1.3,1.1-2.7c-0.2,0.1-0.3,0.2-0.3,0.1c0.1-0.2,0.4-0.5,0.5-0.4
						l0,0.1c0.4-1.6,2.2-3.1,2.2-4.5l0,0.1l0.2-1.4c0.3-0.6,0.1,0.4,0.4,0c0.1-1.5,0.8-2.2,0.9-3.4c1-0.7,0.8-3.2,1.4-4.4l-0.2,0
						c-0.1-0.4,0.2-0.4,0.2-0.6c-0.1,0-0.2,0.3-0.3,0.1c0.1-0.9,0.2-1.8,0.3-2.7l-2.3,0.1c0.3,1.9,0.4,3.8,0.7,5.6
						c0.2,1,1,0.4,0.9,1.7l-0.4-0.3c0.8,1.9,0.9,4.1,1.7,5.9c-0.1-0.1-0.2-0.1-0.2-0.3c-0.1,0.5,0.4,1.5,0.6,1.5
						c0.1,0.3-0.2,0.1-0.2,0.3c0,0.4,0.6,0.9,0.4,1.2c0,0-0.1-0.1-0.1-0.2c0.2,0.2,0.3,1.3,0.5,0.9c0.1,0.8,0.5,1.3,0.6,2
						c0.4,0.3,0.3,1.3,0.7,1.3c-0.5,0.1,0.1,1.4,0.5,1.7c-0.2-0.1,0,0.4-0.2,0.3c0.2,0.5,0.5,0.9,0.6,0.8c-0.1,1.1,1.2,1.7,0.8,2.5
						c0.9,1.4,1.7,2.7,2.5,3.9c-0.4,0.2-0.8-1.4-1.2-1.1c0.8,1.2,1.5,1.7,2.1,2.9c0.1,0.3-0.3-0.1-0.4-0.1c0.1,0.2,0.2,0.2,0.3,0.5
						c0.1,0.2,0.3,0.5,0.5,0.7c0.3,0.4,0.7,0.8,1.1,1c0.4,0.2,0.9,0.3,1.3,0.1c0.4-0.1,0.8-0.4,1-0.8c0,0-0.1,0.2-0.2,0.4
						c0.3-0.2,0.6-0.6,0.4-0.7c0,0.1-0.1,0.2-0.2,0.3c-0.3,0.1-0.1-0.3-0.1-0.8c0.1-0.4,0.1-0.9,0-0.9c0.4,0.6,0.6-1,1-0.2
						c0-0.2,0-0.4-0.1-0.4c0.1-0.2,0.2-0.2,0.3,0c0.2-0.8-0.1-0.6,0.2-1.3c0.1,0,0.1,0.2,0.1,0.3c0-0.4,0-0.9,0.3-1.4
						c0,0.1,0.1,0,0.1,0.2c0.4-1,0.3-2,0.9-3c0.3,0.5,0.3-0.3,0.7-0.2l0.2-0.7l-0.3,0.2c0.2-0.5,0.2-1.1,0.5-1.5l0,0.5l0.4-1
						l-0.4,0.5c0.1-0.6-0.5-0.1-0.1-0.8c0,0.2,0.2-0.5,0.6-0.7l0,0c0-0.3,0-0.6,0.3-1c0.2-0.1,0.3,0.2,0.4,0.2
						c-0.2-0.4,0.5-1.3,0.3-1.7c0,0.1,0.2,0.2,0.3,0.2l-0.1-0.3c0.2-0.2,0.2-0.2,0.4-0.1c0.4-0.7-0.5,0,0-0.8c0,0.1,0,0.1,0,0.2
						c0.5-0.8,0.6-1.8,1.1-2.5c0.4-0.1-0.2,0.7,0.2,0.6c0.4-1.2,0.6-2.6,1.2-3.7l-0.1,0.2c-0.4-0.4,0.6-0.7,0.6-1.4
						c0,0.2,0.2,0.3,0.2,0.2c0.4-0.7,0.6-1.6,0.9-2.9l0.1,0.2c0.3-0.4,0.6-1.2,0.8-1.7c-0.1-0.2,0.1-0.5-0.2-0.4
						c1.3-1.3,0.7-3.1,1.8-4.3c-0.1,0.2,0,0.4,0,0.3l0.3-1.2c-0.3,0-0.2,0.1-0.4,0.3c-0.1-0.2-0.1-0.6,0-0.9c0,0.6,0.4,0.1,0.6-0.1
						c-0.1,0-0.1-0.1-0.2-0.1c0.6-0.5-0.4-0.2,0.1-1l0.1,0.1c0-0.3-0.1-0.7,0.1-1c0.3-0.1,0,0.4,0.2,0.5c0.1-0.5-0.2-1.1,0.1-1.5
						c0,0.2,0,0.5,0,0.8c0.4-0.4,0.4-0.5,0.5-0.9l0,0c0.1-0.3,0.2-0.5,0.3-0.8l-0.1,0.2c-0.6-0.8,0.1-1.3-0.2-2.2
						c0.3,0.9,0.2,0.2,0.5,0.3c0.1-0.2,0.3-0.5,0.3-0.4c-0.2-0.4,0.3-0.7,0-1.3c0.1,0,0.1-0.4,0.3-0.3c0-0.5-0.2,0.1-0.3,0.1
						c-0.2-0.8,0.6-1.9,0.2-3.1c-0.1-1-0.5-1.2-0.6-2.2c0.2-0.3,0.4,0.3,0.4,0.3c0.2-0.5,0.1-0.9,0-1.4c0.1,0.1,0.2,0,0.3-0.1
						c0-0.4-0.4-0.3-0.2-0.8c0.1,0.1,0.3,0.2,0.4,0.4c-0.1-0.5-0.3-0.9-0.4-1.4c0.2-0.1,0.3,0.3,0.4,0.4c-0.1-0.5-0.2-1.4-0.5-1.5
						l-0.1,0.3c0-0.2,0.2-0.1,0.3,0c0.2,0.4-0.1,0.7-0.2,0.7l-0.1-0.3c-0.6,0.4,0.1,1.3,0.1,2l-0.4-0.3l0.3,0.7
						c-0.1,0.1-0.3,0.2-0.4-0.1c-0.2,0.5,0.1,0.4-0.1,0.8c0,0-0.1,0-0.1,0l0.1,0.5c-0.1-0.1-0.3,0.1-0.2-0.2c-0.3,0.8,0.3,1.4,0,1.7
						l0-0.1c0.1,1.2,0.3,0.1,0.6,1l-0.8,0.5l0.3,0.1c0,0.1-0.1,0.4-0.2,0.3c0.2,0.5,0.1-0.1,0.3,0.2c-0.3,0.6,0,1.6-0.5,1.7
						c0.2,0.2,0.2-0.5,0.3,0.1c-0.5,0.1,0,0.7-0.3,1.2c-0.2-0.2,0-0.7-0.3-0.2c0.4,0.4-0.3,1-0.3,1.4c0.4,0.1,0,1-0.1,1.7
						c-0.1-0.1-0.5,1.3-0.8,2l-0.1,0c0.3,0.2,0.1,0.9,0,1.4c-0.2-0.1-0.3-0.2-0.3-0.5l-0.1,0.5c0.1,0.1,0.1,0.3,0,0.6l-0.2-0.2
						c-0.2,0.6-0.1,1.3-0.5,2.1c0.2,0.1,0.9-0.4,0.8,0.5c-0.1,0-0.4-0.1-0.4-0.3c0,0.1,0,0.3-0.1,0.4l-0.1-0.4
						c-0.2,0.3,0.1,0.3,0,0.5c-0.2-0.1-0.2,0.2-0.3,0.1c0-0.1,0.2-0.2,0.1-0.4c-0.1,0.3-0.4,0.7-0.6,0.7c0.1,0,0.2,0.1,0.2,0.3
						c-0.2,0.6-0.3,0.1-0.5,0.4c0.1,0.2-0.2,0.5,0.1,0.6c-0.1,0.2-0.2,0.2-0.3,0.2c0,0.4-0.5,1.5-0.1,1.2l0.1-0.1c0,0,0,0,0,0.1l0,0
						l0,0c-0.1,1.1-1,2.1-1.3,3.1l-0.1,0c-0.2,0.7-0.5,1.4-0.5,1.9c-0.1,0.2-0.3,0.4-0.4,0.2c-0.1,0.5-0.1,0.6-0.5,1.2
						c0-0.5-0.2,0.1,0.1-0.5c-0.3,0.6-0.5,0.6-0.6,1.4c-0.1-0.3-0.5,0.3-0.5,0.6l0.3-0.3c-0.1,0.3-0.2,0.6-0.4,0.9L175,46
						c-0.9,1.1-0.3,2.5-1.4,3.2c0.1,0.4,0.4-0.6,0.6-0.2c-0.3,0.5-1,0.9-1.1,1.1c-0.5,0.7,0.1,0.9-0.3,1.7c0.2-0.1,0.5,0,0.3,0.6
						c-0.3,0.5-0.8,0.5-0.7,0.1c0-0.1,0.1-0.2,0.1-0.2c0-0.2,0.1-0.5-0.1-0.3l0.1,0.1c-0.2,0.2-0.6,1-0.7,0.8
						c-0.1,0.5,0.1,0.3,0.3,0c-0.5,0.7-0.5,1.1-0.9,1.8c0.1-0.1,0.3-0.1,0.2,0c-0.6,1,0,0.6-0.3,1.3c-0.3,0.4-0.3-0.3-0.5,0.5
						c-0.3,0.4-0.3,0-0.3-0.2c-0.1,0.8-0.7,1.2-0.9,1.6l0.1-0.4c0,0.2-0.1,0.4-0.2,0.6l0.3-0.1c-0.1,0.2-0.2,0.4-0.3,0.3
						c0,0.3,0.4,0,0.4,0.5c-0.2,0.2-0.3,0.9-0.6,0.9c0.5-0.8-0.3,0-0.1-0.8c0,0.2-0.1,0.3-0.2,0.5c0,0,0-0.1,0-0.1
						c-0.6,0.7,0.2,0.5-0.2,1.4c-0.1-0.1-0.2-0.1-0.2,0c-0.1,0-0.1,0-0.1,0c0-0.1,0.3,0.1,0.3,0.3c-0.2,0.1-0.1,0.4-0.2,0.5
						c0.1,0,0.1,0,0.1-0.1c0.1,0.2,0,0.4-0.3,0.6c0-0.2,0.2-0.2,0.1-0.3c-0.1,0.3-0.3,0.2-0.4,0c-0.2-0.2-0.2-0.4-0.4-0.4
						c0-0.2,0.2-0.3,0.2-0.5c-0.1,0-0.1-0.1-0.1-0.3c0-0.2-0.1-0.4-0.4-0.7c-0.1,0.3,0,0.3-0.5,0c0.2,0.3,0.5,0.7,0.8,1
						c-0.2-0.1-0.5-0.3-0.7-0.5c0.2,0.3,0.6,0.7,0.5,0.7c-0.3-0.1-0.2-0.1-0.3,0.1c0.1-0.6-0.7-0.8-0.8-1.4l0.5-0.3
						c-0.2-0.9-1-1.3-1.4-2.4l0.1,0.4c-0.3,0-0.3-0.6-0.6-0.9c0.2-0.1,0.2-0.3,0.2-0.5c-0.1,0.1-0.3-0.8-0.7-0.7l0-0.6
						c-0.3-0.9-0.9-0.8-1.2-1.7c0.3,0.2,0.3-0.3,0.6,0.3c-0.1-0.3-0.2-0.6-0.3-0.5c0-0.2-0.6-0.7-0.5-1c-0.1-0.1-0.3-0.1-0.4-0.4
						c0,0,0.1,0,0.1,0c-0.1,0-0.3-0.5-0.4-0.1c0.2-1.1-0.9-2.5-0.6-3.4c-0.3-0.6-0.6-1.4-0.7-2c0.1,0,0.1,0,0.1,0.1
						c0-0.9-0.7-0.3-0.7-1.3c0.2-0.6,0.3,0.4,0.3,0.1c0.6-0.3-0.4-1.1-0.2-1.8l0.1,0.1c0.1-0.5-0.5-1.1-0.7-1.9c0,0,0.1,0,0.1,0
						c-0.5-0.5-0.8-1.5-1-2.2c0.3,0.2,0.2,0.3,0.4,0.1c-0.1-0.3-0.4,0.2-0.6-0.5c0.1-0.3,0.1-0.8,0.4-0.9l0.2,0.6
						c0.3-0.4-0.2-0.8-0.2-1.2l0.2,0c-0.3-1-0.6-0.9-0.8-2l-0.1,0.1c-0.5-0.5,0.1-0.5-0.3-1l0.4-0.3c-0.2-0.4-0.6-1.3-0.8-1.9
						c0.4,0.3,0.7,1.1,0.9,1.6c-0.1-0.4-0.3-1.3-0.5-1.4c0.1,0.1,0.2,0.3,0.2,0.5c-0.4-0.4-0.7-1-0.8-1.7c0.2,0,0.3-0.2,0.3-0.4
						l0.1-4.1l-1.5,4.1c-0.2,0.6-0.2,1.8-0.7,2.1c0.1,1.4-0.6,2.6-0.9,4.1c0.7-0.4-0.1,0.4,0.5,0.5c-0.1,0.4-0.1,0.5-0.2,0.5l-0.7,1
						c-0.2,0.2,0-0.4-0.2-0.4c-0.3,0.7-0.3,0.2-0.7,0.7c0.2,0,0.2,0.4,0,0.8l0.5-0.5c0,1.2-0.8,0.7-0.9,1.9l-0.1-0.4
						c-0.1,0.6-0.7,2-0.5,2.7c-0.1,0.1-0.3,0.1-0.3-0.1c-0.6,1.2-0.8,3-1.5,3.8l-0.1-0.2c-0.1,0.2,0,0.5-0.2,0.7
						c0,0-0.1-0.2-0.1-0.1c0,0.1-0.1,0.7-0.3,1l0-0.3c-0.8,1.1-0.6,2-1.1,3c-0.4-0.2-1,0.6-1.4,1l0,0c-0.9,1.3-1.1,2.4-1.8,3.8
						c-0.9,0.5-1.9,2.4-3,3.3c0.2-0.1,0.2,0.3,0.1,0.5c-0.3,0.2-0.4,0.9-0.7,0.6l0.1-0.1c-0.5-0.1-0.8,0.5-1.2,0.8l0.3,0.4
						c-0.8,0.2-1.4,0.8-2,1.3c-0.3,0.3-0.6,0.5-0.9,0.6c-0.1,0-0.1,0.1-0.2,0.1c0,0-0.1,0-0.1,0c-0.1,0-0.1-0.1-0.1-0.1
						c-0.1,0.2-0.2,0.2-0.4,0.4l0,0l0.1-0.3c0-0.1,0-0.2-0.1-0.3l0,0c0-0.1-0.1-0.2-0.1-0.3c-0.1-0.2-0.2-0.4-0.3-0.7l0.3,0.1
						c-0.2-0.6-1-0.5-1.2-1.1l0.4-0.3c-0.3-1.1-0.2-2.3-0.8-3.3c0.1,0,0.2,0,0.2,0.2c-0.1-0.5-0.1-2.1-0.7-1.8
						c0.4-0.1-0.2-1.2-0.5-1.8l0.3,0c-0.4-0.5-0.5-0.5-0.8-1.2c0-0.2,0.2-0.2,0.2,0.1c0-0.6-0.3-0.4-0.3-1.1l0.2,0.2
						c-0.1-0.6-0.2-0.5-0.4-0.8c-0.2-0.4-0.1-1.1,0.1-1.3c-0.2-0.1-0.4-0.3-0.4-0.7c0.1-0.1,0.2,0.1,0.2,0.1c0-1-0.6-1.4-0.5-2.2
						c0.1,0,0.1-0.1,0.1-0.1c0.1,0.8,0.3,1.4,0.2,1.4c0.3,0,0.2-0.7,0.6-0.3c-0.3-0.5-0.9-1.3-0.9-1.9c0,0,0-0.1,0.1-0.1l0,0.1
						c0-0.1-0.1-0.3-0.1-0.4c0-0.2,0-0.3,0-0.5c0.2-0.1,0-0.8-0.1-1.1c-0.3,0.1-0.3-0.3-0.5,0.1c0-0.1,0,0.1,0.1,0.3
						c0,0,0,0.1,0.1,0.1l0,0c0,0.2,0.1,0.5,0.2,0.8c-0.2-0.2-0.4-0.5-0.3-0.9c-0.2-0.1-0.4-0.3-0.5-0.4c0.3-0.5,0.3-1.4,0.6-1.6
						c-0.3-0.9-0.5-2.3-1.2-2.8c-0.1-0.3,0.1-0.3,0.1-0.5c0.1,0.2,0.1,0.3,0.2,0.4c-0.2-0.5-0.4-1.6-0.8-1.7c0-0.7,0.4,0.3,0.2-0.6
						l0.1,0.1c0.2-2-1.5-2.9-1.2-5.1c0,0.2,0,0.2-0.1,0.3c-0.1-2.5-1.2-4.9-1.2-7.3c0-0.7-0.3-0.7-0.5-1.1l0.3-0.2l-0.5-0.6
						c-0.4-0.9,0.4-1.9-0.3-3l-0.2,0.2c0-0.5-0.4-1.4-0.1-1.4c0,0-0.2-0.1-0.2-0.3l0.2,0l-0.5-1.1c-0.1-0.9,0.6,0,0.4-1.2
						c-0.1-0.5-0.7-1.2-0.8-1c0,0.2,0,0.5-0.2,0.5l-0.2-0.4c-0.5,0-1-0.2-1.1,0.9l0.4,0.7l-0.2,0.3l-0.1-0.6
						c-0.1,0.4,0.1,0.6,0.3,0.8c-0.1,0.1-0.2,0.2-0.2,0.4l0.6,0.6c-0.2,0.1-0.4-0.3-0.4,0.2c0.3,0.3,0.3-0.4,0.6,0.1
						c-0.1,0.4-0.3,0.3-0.1,0.7c-0.1,0.1-0.2,0-0.3-0.1c0.2,0.3,0.2,1,0.5,1.1c-0.2,0.4,0.3,1.2-0.1,1.3c0.1,0.1,0.5,0.6,0.5,0.9
						c-0.6-0.5,0.2,1.3-0.4,1.2c0.6,0.4,0.5,1.6,0.9,2.3c0,0-0.1-0.1-0.1-0.2c0,0.5-0.1,0.6-0.1,0.9c0.4,0,0.6,0.7,0.9,1
						c-0.3,0.6-0.5-0.2-0.8,0c0.3-0.1,0.5,0.9,0.7,0.7c-0.1,0.5,0,0.4-0.3,0.7c0.5,0,0.2,0.4,0.5,0.7c-0.1,0.7-0.4,0.2-0.1,0.9
						C128.2,31.7,127.9,31.1,127.9,31.1z M131.8,47L131.8,47c0-0.1-0.1-0.3-0.1-0.3C131.7,46.7,131.7,46.8,131.8,47z M132,48.3
						c0-0.2-0.1-0.4-0.1-0.6c0.1-0.1,0.2,0,0.2,0.1C132.1,47.8,132.1,48.1,132,48.3z M133.4,45.1c0.1,0.2,0,0.3,0,0.3
						c0-0.1-0.1-0.2-0.1-0.4c0,0,0,0,0,0C133.3,45,133.4,45.1,133.4,45.1z"/>
					<path class="st0" d="M133,44.8C133,44.7,132.9,44.7,133,44.8C132.9,44.7,132.9,44.8,133,44.8l0,0.1C133,44.9,133,44.8,133,44.8
						z"/>
					<path class="st0" d="M179.1,37.8L179.1,37.8C179.1,37.8,179.2,37.8,179.1,37.8C179.2,37.8,179.2,37.8,179.1,37.8z"/>
					<polygon class="st0" points="138.6,65.9 138.6,65.8 138.4,65.9 					"/>
					<path class="st0" d="M182.5,31C182.6,31,182.6,31,182.5,31C182.6,31,182.6,31,182.5,31z"/>
					<path class="st0" d="M183.4,27.9l0.2-0.4C183.5,27.6,183.5,27.7,183.4,27.9z"/>
					<path class="st0" d="M184,25.4c0,0-0.1-0.1-0.1-0.1l0,0L184,25.4z"/>
					<path class="st0" d="M169.5,63.3c0,0-0.1,0.1-0.1,0.1C169.2,63.6,169.4,63.5,169.5,63.3z"/>
					<path class="st0" d="M174.2,51.6c0,0.1,0,0.3,0,0.4C174.2,51.8,174.3,51.7,174.2,51.6z"/>
					<polygon class="st0" points="161,52.7 161,52.7 161,52.7 					"/>
					<path class="st0" d="M173.9,52.5c0.1-0.2,0.2-0.3,0.2-0.5C174,52.2,173.9,52.3,173.9,52.5z"/>
					<path class="st0" d="M184.7,14.4l0-0.1c0,0,0,0,0,0L184.7,14.4z"/>
					<path class="st0" d="M184.6,14.3l0-0.1C184.6,14.2,184.6,14.3,184.6,14.3z"/>
					<path class="st0" d="M184.5,13.9l0.1,0.3C184.6,14.1,184.6,13.9,184.5,13.9z"/>
					<path class="st0" d="M184.6,17.8l0.1,0C184.7,17.8,184.6,17.8,184.6,17.8z"/>
					<path class="st0" d="M184.6,18.8c0-0.2,0.2-0.6,0.2-0.9l-0.1,0C184.8,18,184.4,18.6,184.6,18.8z"/>
					<path class="st0" d="M183.1,22.9l0.2-0.8c-0.1,0.1-0.3,0.3-0.3-0.1C182.6,23,183.2,21.8,183.1,22.9z"/>
					<path class="st0" d="M182.6,25.4c0-0.4-0.2,0-0.2-0.1C182.4,25.7,182.5,25.8,182.6,25.4z"/>
					<path class="st0" d="M176.7,43.2l-0.2-0.1C176.3,43.4,176.5,43.1,176.7,43.2z"/>
					<polygon class="st0" points="176.4,47 176.7,46.8 176.6,46.5 					"/>
					<polygon class="st0" points="173.9,48.2 173.9,48.1 173.8,48.7 					"/>
					<path class="st0" d="M162.2,48.5l-0.3,0.2C162,48.9,162.4,48.8,162.2,48.5z"/>
					<path class="st0" d="M158.6,35.3c0.1-0.2,0.1-0.6-0.1-0.8C158.6,34.9,158.5,35.2,158.6,35.3z"/>
					<path class="st0" d="M140.5,61.7l0.1-0.2c-0.1,0.1-0.2,0.3-0.3,0.4L140.5,61.7z"/>
				</g>
			</g>
		</g>
	</g>
</g>
<g>
	<g>
		<g>
			<g>
				<g>
					<path class="st0" d="M14.6,60c-0.1-0.1-0.3-0.1-0.3,0.1l0.3,0.2L14.6,60z"/>
					<path class="st0" d="M13.8,61c0.2,0.2,0.4,0.4,0.7,0.3c-0.3-0.2-0.2-0.2-0.5-0.4c0-0.2,0.1-0.3,0.3-0.2
						c-0.1-0.1,0.1-0.2-0.1-0.3c-0.3,0.2-0.3,0.4-0.1,0.7C14,61,13.9,61,13.8,61z"/>
					<path class="st0" d="M22.3,72.2L22.3,72.2C22.2,72.2,22.3,72.2,22.3,72.2z"/>
					<path class="st0" d="M31.5,69.5c-0.1,0.1-0.1,0.1,0,0.1C31.5,69.6,31.5,69.5,31.5,69.5z"/>
					<path class="st0" d="M32.9,68.4C32.9,68.4,32.9,68.4,32.9,68.4C32.9,68.4,32.9,68.4,32.9,68.4z"/>
					<path class="st0" d="M22.3,72.2l0.2,0.1C22.6,72.2,22.4,72.3,22.3,72.2z"/>
					<path class="st0" d="M14.7,62.9c0,0-0.1-0.1-0.1-0.1C14.6,62.8,14.7,62.9,14.7,62.9L14.7,62.9z"/>
					<path class="st0" d="M18.1,71L18.1,71c-0.1,0-0.2,0-0.2,0L18.1,71z"/>
					<path class="st0" d="M15.6,68.7c0,0.1,0.3-0.1,0.4-0.2c-0.1,0-0.2,0-0.3,0C15.7,68.6,15.6,68.7,15.6,68.7z"/>
					<path class="st0" d="M13.7,63.8L13.7,63.8C13.7,63.7,13.7,63.8,13.7,63.8z"/>
					<path class="st0" d="M20.3,72.1c0,0,0,0.1,0,0.1C20.3,72.2,20.3,72.1,20.3,72.1z"/>
					<path class="st0" d="M36.9,23.5C36.9,23.6,36.9,23.6,36.9,23.5C36.9,23.6,36.9,23.6,36.9,23.5z"/>
					<path class="st0" d="M36.2,27.6L36.2,27.6c-0.1-0.1-0.1-0.1-0.2-0.1L36.2,27.6z"/>
					<path class="st0" d="M33.9,64.8C33.9,64.8,33.9,64.8,33.9,64.8C34,64.9,33.9,64.9,33.9,64.8z"/>
					<path class="st0" d="M20.5,41.3c-0.1,0.4-0.5-0.3-0.6,0.2C20,41.4,20.5,41.7,20.5,41.3z"/>
					<path class="st0" d="M14.7,63c0,0,0,0.1,0,0.1C14.7,63.1,14.7,63,14.7,63z"/>
					<path class="st0" d="M19.9,41.5L19.9,41.5L19.9,41.5C19.9,41.5,19.9,41.5,19.9,41.5z"/>
					<path class="st0" d="M31.3,58.1c0,0-0.1,0.1-0.1,0.1C31.2,58.2,31.2,58.2,31.3,58.1z"/>
					<path class="st0" d="M32.9,63.1l0-0.1C32.9,63,32.9,63.1,32.9,63.1z"/>
					<path class="st0" d="M29.6,56c0-0.1,0-0.1-0.1-0.2c0,0,0,0,0,0C29.5,55.9,29.5,55.9,29.6,56z"/>
					<path class="st0" d="M28,53.8C28,53.8,28,53.8,28,53.8l0,0.1L28,53.8z"/>
					<path class="st0" d="M30.7,17.2c0,0.1,0,0.2,0,0.3C30.7,17.3,31.1,17.4,30.7,17.2z"/>
					<path class="st0" d="M14.6,62.9c0.1,0,0.1,0,0.1,0.1l0-0.1C14.6,62.9,14.6,62.9,14.6,62.9z"/>
					<path class="st0" d="M27.6,57.1l-0.2-0.4C27.5,56.9,27.5,57,27.6,57.1z"/>
					<path class="st0" d="M15.5,23.7l0-0.1C15.4,23.7,15.5,23.7,15.5,23.7z"/>
					<path class="st0" d="M26.7,55.8c0-0.1,0-0.2,0-0.3c0,0-0.1,0-0.1,0L26.7,55.8z"/>
					<path class="st0" d="M30.6,17.5L30.6,17.5L30.6,17.5z"/>
					<path class="st0" d="M33.5,18.7c-0.4-0.3-0.4,0.1-0.6,0.3c-0.5-0.2,0-0.4-0.1-0.6c-0.3-0.1-0.7,0-0.9-0.1c0-0.1,0-0.1,0.1-0.1
						c-0.4,0.1-0.9-0.5-1.4-0.4c0,0,0-0.1,0-0.1c0,0.2-0.1,0.4-0.2,0.5c-0.2-0.1-0.4,0-0.4-0.2c0.1,0.1,0.2,0,0.2-0.1l-0.2,0
						c0-0.4,0.3,0,0.4-0.2c-0.4-0.1-0.9-0.1-1.1-0.3c0.1-0.3,0.7,0.2,0.5-0.2l0.3,0.3c-0.1-0.6,0.2,0.2,0.2-0.5
						c-0.5-0.4-0.7-0.2-1.2-0.5c-0.2,0.1-0.1,0.3-0.3,0.4c-0.9-0.1-0.2-1.1-1-0.9c-0.2,0.1-0.5,0.5-0.8,0.1l0.3-0.3
						c-0.5-0.3-0.5,0.4-1-0.1c0.2-0.1,0.5,0.1,0.4,0c-0.3-0.4-0.3,0.1-0.6,0l0.1-0.3c-0.6-0.2-1.4-0.1-2.1-0.2
						c0.1-0.1,0.2-0.2,0-0.3c-1,0-2-0.2-3.1-0.2c-0.1,0.1-0.2,0.2-0.3,0.4c-0.1,0-0.2-0.1-0.1-0.2c-0.4,0,0,0.2-0.1,0.3
						c-0.2,0.1-0.3-0.1-0.2-0.2c-0.6,0.4-1.5,1.2-2.2,1.5l0.1-0.2c-0.5,0.3,0,0.9-0.6,1.1l0-0.1c-0.9,0.9-0.9,2.2-1.5,2.9
						c0.4,0.2-0.4,1,0.2,1.1c-0.4,0.5-0.5,0.3-0.8,1.1c-0.1,0.2,0.3,0.4,0.4,0.7l-0.3,0l0.3,0.4l-0.4,0.2l0,0.3
						c0-0.1,0.2-0.2,0.3-0.2c0.1,0.4-0.3,1-0.5,1l0.2,1c-0.1,0-0.2-0.2-0.2-0.3c0.3,0.5-0.3,0.1-0.1,0.6c0.1-0.1,0.2,0,0.2,0.1
						c-0.2,0.2-0.2,0.8-0.1,1.1L15,26.7c-0.1,0.7,0.1,1.5,0.1,2.3c0.1-0.3,0.5-0.2,0.5,0l-0.3,0.1c0.2,0.1,0.1-0.2,0.4,0
						c0,0.3-0.4,0.2-0.5,0.1l0.1,0.4c-0.1,0-0.2-0.1-0.3-0.1c0.2,0.1-0.3,0.6,0.1,0.8l-0.1,0c0.1,0.8,0.2,1.1,0.3,1.8
						c0.3,0,0.3,0.2,0.5,0.4c0,0.5-0.2,1,0,1.6c0.2,0.4,0.3,0.1,0.5,0.2c-0.2,0.1-0.1,0.6-0.4,0.4c0.2,0.7,0.2,0.9,0.6,1.6
						c0.1-0.1,0.1-0.2,0.2-0.2c0.1,0.1,0,0.4-0.1,0.4l0,0c0.3,0.4,0.3,1,0.3,1.6c0,0.6,0,1.1,0.4,1.4l0,0l0.5,0.7
						c0.1,0.4-0.3-0.1-0.3,0.2c0.7,0.7,0.4,1.3,1,1.9c-0.5,0.8,0.8,1.8,0.8,2.6l0.1-0.1c0.2,0.1,0,0.3,0,0.4c0.1-0.1,0-0.3,0.2-0.2
						c0.9,1.3,1.5,3.1,2.3,4.5c0.3,0.5,1-0.2,1,0.6l-0.4,0c1,0.8,1.4,2,2.4,2.8c-0.1,0-0.2,0-0.3,0c0,0.3,0.5,0.7,0.7,0.6
						c0.1,0.2-0.1,0.1-0.1,0.3c0,0.3,0.6,0.3,0.5,0.6c0,0-0.1,0-0.1,0c0.2,0.1,0.4,0.6,0.5,0.3c0.1,0.4,0.6,0.6,0.6,1
						c0.4,0,0.3,0.7,0.7,0.5c-0.4,0.2,0.1,0.8,0.4,0.9c-0.2,0,0,0.3-0.2,0.3c0.2,0.3,0.4,0.4,0.6,0.3c-0.2,0.8,1,0.8,0.5,1.4
						c0.7,0.7,1.2,1.3,1.6,2c-0.4,0.2-0.4-0.8-0.8-0.6c0.5,0.6,1,0.9,1.2,1.6c0,0.2-0.2,0-0.3-0.1c0.4,0.6,0.5,1.4,0.9,2
						c0,0-0.1,0-0.2-0.1c0,0.1,0,0.3,0.2,0.2l-0.1-0.1c0.2-0.3,0.7,0.4,0.9,0.4c-0.6-0.1,0,0.7-0.8,0.5c0.1,0.1,0.2,0.2,0.3,0.1
						c0,0.1-0.1,0.2-0.3,0.1c0.2,0.4,0.4,0.2,0.4,0.6c-0.1,0-0.1-0.1-0.3-0.1c0.2,0.2,0.4,0.4,0.3,0.7c-0.1,0-0.1,0-0.1-0.1
						c0,0.5,0.4,1-0.1,1.5c-0.3-0.4-0.2,0.1-0.6-0.1c0,0.1-0.1,0.2-0.1,0.3l0.2,0C31,68,31,68.4,30.7,68.5l0.1-0.3
						c-0.1,0.2-0.2,0.3-0.4,0.5l0.3-0.1c-0.1,0.4,0.4,0.3,0,0.5c0-0.1-0.2,0.2-0.5,0.2l0,0c-0.1,0.2-0.1,0.4-0.4,0.5
						c-0.1-0.1-0.2-0.4-0.3-0.4c0,0.3-0.6,0.5-0.6,0.9c0-0.1-0.1-0.3-0.1-0.3l0,0.3c-0.2,0-0.2,0-0.3-0.2c-0.4,0.2,0.3,0.4-0.2,0.4
						c0,0,0-0.1,0.1-0.1c-0.5,0.1-0.9,0.6-1.4,0.6c-0.2-0.3,0.4-0.2,0.1-0.5c-0.6,0.3-1.3,0.8-2,0.8l0.1,0c0,0.5-0.5-0.2-0.9,0.1
						c0.1,0,0.1-0.3,0.1-0.2c-0.5-0.1-0.9,0.2-1.7,0.2l0.1-0.1c-0.3-0.1-0.7-0.2-1-0.3c-0.1,0.1-0.3,0.1-0.2,0.3
						c-0.4-0.5-0.8-0.5-1.2-0.6c-0.4,0-0.9-0.1-1.1-0.6c0.1,0,0.3,0,0.2,0l-0.7-0.2c-0.1,0.2,0,0.2,0,0.4c-0.2,0.1-0.4,0.1-0.5-0.1
						c0.4,0.1,0.2-0.3,0.2-0.5c0,0.1-0.1,0.1-0.1,0.2c-0.1-0.6-0.3,0.4-0.6-0.2l0.1-0.1c-0.2-0.1-0.4-0.1-0.6-0.2
						c0.1-0.3,0.2,0,0.4-0.1c-0.2-0.2-0.8,0-0.8-0.4c0.1,0,0.3,0.2,0.4,0.2c0-0.4-0.1-0.4-0.2-0.6l0,0C17.1,68.3,17,68.1,17,68
						l0,0.1c-0.8,0.2-0.6-0.5-1.2-0.6c0.6,0.1,0.3-0.1,0.5-0.2c0-0.1,0-0.4,0.1-0.4c-0.3-0.1,0-0.4-0.5-0.5c0.1-0.1-0.1-0.2,0.1-0.3
						c-0.2-0.2-0.1,0.1-0.2,0.2c-0.5-0.3-0.1-1.1-0.8-1.5c-0.4-0.5-0.7-0.5-1-1c0.1-0.2,0.4,0.1,0.4,0.1c0.1-0.3,0-0.5-0.2-0.8
						c0.1,0,0.2,0,0.2-0.1c-0.1-0.2-0.4-0.1-0.3-0.4c0.1,0,0.3,0.1,0.4,0.2c-0.1-0.2-0.3-0.5-0.4-0.7c0.2-0.1,0.3,0.1,0.4,0.2
						c-0.1-0.3-0.2-0.7-0.5-0.8c0,0.1-0.1,0.1-0.1,0.2c0-0.1,0.2-0.1,0.3,0c0.2,0.2-0.1,0.4-0.2,0.4l-0.1-0.2
						c-0.6,0.2,0.1,0.8,0.2,1.1l-0.4-0.1c0.1,0.1,0.3,0.2,0.4,0.3c-0.1,0.1-0.3,0.2-0.4,0c-0.1,0.3,0.2,0.2,0,0.5c0,0-0.1,0-0.1,0
						c0.1,0.1,0.1,0.2,0.2,0.2c-0.1,0-0.3,0.1-0.3-0.1c-0.1,0.6,0.5,0.7,0.3,1l0,0c0.4,0.6,0.3,0,0.8,0.3c-0.2,0.2-0.4,0.4-0.6,0.6
						l0.3-0.1c0,0.1,0.1,0.2-0.1,0.2c0.3,0.2,0.1-0.1,0.3,0c-0.1,0.4,0.6,0.8,0.2,1.1c0.3,0,0-0.4,0.3-0.1c-0.4,0.4,0.3,0.3,0.3,0.7
						c-0.3,0.1-0.3-0.3-0.3,0.1c0.5-0.1,0.3,0.6,0.5,0.7c0.3-0.2,0.5,0.4,0.9,0.6c-0.1,0.1,0.5,0.8,0.8,1.1l0,0
						c0.3-0.2,0.6,0.1,0.9,0.2c-0.1,0.2-0.2,0.2-0.4,0.2l0.3,0.2c0.1-0.1,0.2-0.1,0.4,0l-0.2,0.2c0.4,0.2,0.9,0.1,1.3,0.5
						c0.1-0.2-0.1-0.8,0.5-0.8c0,0.1-0.1,0.4-0.3,0.4c0,0,0.2,0,0.3,0c-0.1,0-0.2,0.1-0.3,0.1c0.2,0.2,0.2-0.1,0.4,0
						c-0.1,0.2,0.1,0.2,0,0.3c-0.1,0-0.1-0.1-0.2-0.1c0.2,0.1,0.4,0.3,0.4,0.5c0-0.1,0.1-0.2,0.2-0.2c0.4,0.1,0.1,0.3,0.3,0.4
						c0.1-0.1,0.4,0.1,0.4-0.2c0.1,0,0.1,0.2,0.1,0.3c0.2-0.1,1,0.2,0.8-0.2l0,0c0,0,0,0,0,0l0,0l0,0c0.7-0.2,1.4,0.3,2.1,0.2l0,0.1
						c0.4-0.1,0.9-0.1,1.2-0.4c0.1,0,0.3,0.1,0.3,0.3c0.3-0.1,0.3-0.2,0.8-0.2c-0.3,0.2,0.1,0.1-0.3,0.2c0.4,0,0.6,0.1,0.9-0.3
						c-0.1,0.3,0.4,0.2,0.6,0.1L27.3,72c0.2-0.1,0.4-0.1,0.6-0.2l0,0.3c0.5,0,0.8-0.3,1.1-0.6c0.3-0.3,0.5-0.5,1-0.4
						c0.1-0.3-0.5,0.1-0.4-0.2c0.3-0.2,1,0,1.1-0.1c0.6-0.2,0.1-0.7,0.6-1c-0.1,0-0.4-0.2-0.2-0.6c0.3-0.2,0.7,0,0.6,0.3
						c-0.1,0.1-0.1,0.1-0.1,0c-0.1,0.1-0.2,0.3,0,0.3l0-0.1c0.2,0,0.6-0.4,0.7-0.2c0.1-0.3-0.1-0.2-0.3-0.1c0.5-0.3,0.6-0.6,1-1
						c-0.1,0-0.3,0-0.2,0c0.6-0.6,0-0.4,0.2-0.9c0.3-0.2,0.4,0.3,0.4-0.3c0.2-0.3,0.3,0,0.4,0.2c-0.1-0.6,0.3-1,0.4-1.4l0.1,0.3
						c0-0.2,0-0.3,0-0.5l-0.2,0.2c0-0.2,0-0.3,0.1-0.3c-0.2-0.2-0.4,0.1-0.6-0.2c0.1-0.2-0.2-0.6,0.1-0.7c0,0.7,0.3-0.1,0.4,0.4
						c0-0.1-0.1-0.2,0-0.4c0,0,0.1,0,0.1,0.1c0.2-0.7-0.4-0.2-0.5-0.8c0.2,0,0.3-0.2,0.2-0.3c0.1,0.2-0.3,0.2-0.4,0
						c0-0.4-0.2-0.4-0.2-0.6l0,0.2c-0.2,0-0.2-0.2-0.3-0.4c0.1-0.1,0.2,0.2,0.2,0.1c-0.4-0.2,0.1-0.7-0.2-1c0.1-0.2,0.3-0.1,0.3-0.3
						c-0.4-0.4,0.1-0.6-0.3-0.9c-0.2,0.2-0.1,0.2-0.4,0c0.2,0.2,0.3,0.4,0.5,0.7c-0.2-0.1-0.3-0.2-0.5-0.3c0.1,0.2,0.3,0.4,0.3,0.6
						c-0.3-0.2-0.2-0.2-0.3,0c0.2-0.4-0.4-0.5-0.4-0.9l0.5-0.2c0-0.6-0.7-0.8-0.9-1.5l0,0.3c-0.3,0-0.2-0.4-0.4-0.5
						c0.2-0.1,0.2-0.2,0.2-0.4c-0.1,0.1-0.2-0.5-0.6-0.3l0.1-0.4c-0.2-0.6-0.8-0.3-1.1-0.8c0.3,0,0.3-0.3,0.6,0
						c-0.1-0.2-0.2-0.3-0.3-0.3c0-0.2-0.5-0.3-0.4-0.5c-0.1,0-0.3,0.1-0.4-0.1c0,0,0.1-0.1,0.1-0.1c-0.1,0.1-0.3-0.2-0.4,0.1
						c0.2-0.8-0.9-1.3-0.8-2c-0.3-0.3-0.6-0.6-0.8-0.9c0.1,0,0.1-0.1,0.1,0c-0.1-0.5-0.6,0.1-0.8-0.5c0.1-0.4,0.3,0.1,0.3-0.1
						c0.5-0.5-0.5-0.5-0.4-1l0.1,0.1c0-0.4-0.6-0.4-0.9-0.8c0,0,0.1,0,0.1-0.1c-0.5-0.1-0.9-0.5-1.3-0.8c0.3,0,0.2,0.1,0.4-0.1
						c-0.1-0.1-0.3,0.3-0.6,0c0-0.2,0-0.5,0.2-0.7l0.2,0.3c0.2-0.4-0.3-0.4-0.4-0.6l0.1-0.1c-0.4-0.5-0.7-0.2-1-0.8l-0.1,0.1
						c-0.5-0.1,0-0.4-0.4-0.5l0.3-0.3c-0.2-0.1-0.8-0.5-1-0.8c0.4,0,0.7,0.4,1.1,0.5c-0.1-0.2-0.4-0.6-0.7-0.6
						c0.1,0.1,0.2,0.1,0.2,0.2c-0.4-0.1-0.7-0.3-1-0.7c0.7-0.3-0.4-1.1,0-1.7c-0.6-0.6-0.6-1.4-1-2.2c-0.4,0.5-0.1-0.2-0.7,0.1
						c-0.1-0.2-0.1-0.3-0.1-0.3c0-0.2,0.1-0.5,0.1-0.7c0.1-0.2,0.2,0.1,0.3,0.1c-0.1-0.4,0.2-0.3,0.2-0.6c-0.2,0.1-0.4,0-0.4-0.3
						L20,40.3c-0.5-0.5,0.3-0.7-0.2-1.2l0.2,0.1c-0.2-0.3-0.4-1.2-1-1.3c0.1-0.1,0.2-0.2,0.3-0.1c-0.2-0.8-1-1.6-0.8-2.3l0.2,0
						c-0.1-0.1-0.3-0.2-0.2-0.4c0.1,0,0.2,0,0.2,0c-0.1-0.1-0.3-0.3-0.3-0.5l0.2,0.1c0.1-0.8-0.7-1.1-0.8-1.7c0.4-0.1,0.5-0.7,0.5-1
						l0.1,0c0-0.9-0.6-1.5-0.8-2.3c0.4-0.6,0.1-1.8,0.4-2.6c-0.1,0.1-0.3,0-0.4-0.2c0.1-0.2-0.3-0.6,0.1-0.5l0,0.1
						c0.4-0.1,0.3-0.5,0.3-0.9l-0.5-0.1c0.8-0.8-0.1-2.2,0.6-2.6c-0.1-0.2-0.1-0.5-0.2-0.7l0.3,0.1c0.2-0.5,0.2-0.8,0.3-1.5l0.2,0.2
						c0.1-0.4-0.7-0.6-0.7-1l0.4,0c0.2-0.6,0.7-1,0.6-1.6c0,0,0.1,0.1,0.1,0.2c0.1-0.2,0.7-0.5,0.3-0.8c0.3,0.3,0.4-0.3,0.6-0.6
						l0.1,0.3c0-0.4,0-0.5,0.3-0.8c0.1,0,0.2,0.2,0,0.2c0.3,0,0.1-0.3,0.5-0.3l-0.1,0.2c0.3-0.1,0.3-0.1,0.4-0.4
						c0.2-0.2,0.6,0,0.7,0.2c0-0.2,0.2-0.4,0.4-0.3c0,0.1,0,0.2-0.1,0.2c0.5,0.2,0.8-0.3,1.2,0c0,0.1,0,0.1,0,0.2
						c-0.4-0.1-0.8-0.1-0.7-0.1c0,0.3,0.3,0.3,0,0.7c0.2-0.2,0.8-0.6,1.1-0.4c0,0,0,0.1,0,0.1l0,0c0.1,0,0.1,0,0.2,0
						c0.1,0.1,0.2,0.1,0.3,0.1c0,0.2,0.4,0.2,0.5,0.3c0.1-0.3,0.3-0.2,0.1-0.4c0,0,0,0-0.2,0c0,0-0.1,0-0.1,0l0,0
						c-0.1,0-0.3-0.1-0.4-0.1c0.2-0.1,0.3-0.2,0.5,0c0.1-0.1,0.3-0.3,0.4-0.4c0.1,0.5,0.5,0.8,0.5,1.1c0.6,0,1.3,0.4,1.8,0.1
						c0.2,0,0.1,0.2,0.1,0.3c-0.1,0-0.2,0-0.3,0c0.4,0,0.9,0.4,1.1,0.1c0.3,0.3-0.4,0.2,0.2,0.4l-0.1,0.1c0.7,1,2.1,0,2.7,1.4
						c0-0.1-0.1-0.1,0-0.2c0.5,0.5,1.1,0.9,1.6,1.3c0.6,0.4,1.1,1,1.2,1.7c0.1,0.4,0.3,0.3,0.6,0.4l-0.2,0.2c0.2,0,0.3,0.1,0.5,0.2
						c0.5,0.4-0.2,1.2,0.4,1.6l0.2-0.1c0,0.3,0.3,0.8,0.1,0.8c0,0,0.2,0,0.1,0.2l-0.2,0c0.1,0.2,0.2,0.4,0.4,0.6
						c-0.1,0.5-0.6,0-0.6,0.6c0.1,0.2,0.4,0.7,0.5,0.6c0-0.1,0.1-0.3,0.3-0.3l0.1,0.3c0.5,0.1,0.9,0.4,1.3-0.3l-0.3-0.5l0.2-0.2
						c0,0.1,0,0.3,0,0.4c0.2-0.2,0-0.4-0.1-0.6c0.1,0,0.2-0.1,0.2-0.2c-0.2-0.2-0.3-0.3-0.5-0.4c0.2-0.1,0.4,0.2,0.4-0.2
						c-0.2-0.2-0.4,0.3-0.6-0.1c0.2-0.3,0.4-0.2,0.1-0.5c0.1-0.1,0.2,0,0.3,0.1c-0.2-0.2-0.2-0.6-0.5-0.7c0.2-0.3-0.3-0.7,0.1-0.9
						c-0.1,0-0.5-0.3-0.6-0.5c0.7,0.1-0.4-0.8,0.2-0.9c-0.6,0-0.8-0.8-1.3-1.1c0,0,0.1,0,0.2,0.1c-0.2-0.3-0.1-0.4-0.2-0.6
						c-0.3,0.2-0.7-0.1-1-0.1c0-0.5,0.5-0.2,0.7-0.5c-0.2,0.2-0.7-0.2-0.8,0c0-0.4-0.1-0.2,0-0.6c-0.4,0.3-0.3-0.1-0.6,0
						c-0.1-0.4,0.2-0.4-0.2-0.6C33.1,18.5,33.5,18.7,33.5,18.7z M24.1,15L24.1,15c0.1,0,0.2,0,0.2,0C24.2,15,24.2,15,24.1,15z
						 M23.2,14.9c0.1,0,0.2,0,0.4,0c0,0.1,0,0.2-0.1,0.2C23.5,15.1,23.3,15,23.2,14.9z M24.5,17.1c-0.1,0-0.1-0.1-0.1-0.1
						C24.4,17,24.5,17,24.5,17.1l0.1-0.1C24.6,17,24.5,17.1,24.5,17.1z"/>
					<path class="st0" d="M24.8,16.8C24.8,16.8,24.8,16.8,24.8,16.8C24.8,16.8,24.8,16.7,24.8,16.8L24.8,16.8L24.8,16.8z"/>
					<path class="st0" d="M22.2,72.2L22.2,72.2C22.2,72.2,22.2,72.1,22.2,72.2C22.2,72.1,22.2,72.1,22.2,72.2z"/>
					<polygon class="st0" points="15.5,22.8 15.5,22.8 15.5,22.7 					"/>
					<path class="st0" d="M18.5,69.7C18.5,69.6,18.5,69.6,18.5,69.7C18.5,69.6,18.5,69.6,18.5,69.7z"/>
					<path class="st0" d="M17.2,68.4c0-0.1-0.1-0.2-0.1-0.3C17.1,68.3,17.1,68.4,17.2,68.4z"/>
					<path class="st0" d="M16.4,67.3c-0.1,0-0.1,0-0.1,0l0,0L16.4,67.3z"/>
					<path class="st0" d="M31.1,63.7C31.1,63.7,31.1,63.7,31.1,63.7C31,63.6,31.1,63.7,31.1,63.7z"/>
					<path class="st0" d="M30.2,69.3c0-0.1,0.1-0.2,0.1-0.2C30.1,69.1,30.1,69.2,30.2,69.3z"/>
					<polygon class="st0" points="27.7,57.2 27.7,57.2 27.6,57.1 					"/>
					<path class="st0" d="M30.5,68.9c-0.1,0-0.2,0.1-0.2,0.2C30.3,69,30.4,68.9,30.5,68.9z"/>
					<path class="st0" d="M14.7,61.7L14.7,61.7C14.6,61.7,14.6,61.7,14.7,61.7L14.7,61.7z"/>
					<path class="st0" d="M14.6,61.6L14.6,61.6C14.6,61.6,14.6,61.6,14.6,61.6z"/>
					<path class="st0" d="M14.5,61.4c0,0.1,0,0.1,0.1,0.2C14.6,61.5,14.6,61.5,14.5,61.4z"/>
					<path class="st0" d="M14.7,63.5l0.1,0C14.8,63.5,14.8,63.5,14.7,63.5z"/>
					<path class="st0" d="M14.9,64c0-0.1,0.1-0.4,0-0.5l-0.1,0C15,63.6,14.7,64,14.9,64z"/>
					<path class="st0" d="M14.6,66.8c-0.1-0.2-0.1-0.3-0.2-0.5c-0.1,0.1-0.1,0.3-0.3,0.1C14.2,67.1,14.3,66.2,14.6,66.8z"/>
					<path class="st0" d="M15.4,68.2c-0.2-0.2-0.1,0.1-0.2,0.1C15.4,68.4,15.4,68.5,15.4,68.2z"/>
					<path class="st0" d="M25.9,72.3l0,0.3C26.1,72.5,25.9,72.5,25.9,72.3z"/>
					<polygon class="st0" points="27.5,70.5 27.3,70.4 27.3,70.7 					"/>
					<polygon class="st0" points="29.5,71.6 29.4,71.7 29.7,71.4 					"/>
					<path class="st0" d="M28.5,54l-0.2,0.2C28.4,54.3,28.7,54.1,28.5,54z"/>
					<path class="st0" d="M23.5,47.6c0.1-0.2,0-0.4-0.2-0.4C23.4,47.4,23.4,47.6,23.5,47.6z"/>
					<polygon class="st0" points="17.8,25.2 17.9,25.3 17.8,25 					"/>
				</g>
			</g>
		</g>
	</g>
</g>
<g>
	<path d="M10.5,84.6c-0.6-0.2-1.2-0.4-1.6-0.4c-0.5,0-0.8,0.2-1.1,0.5c-0.3,0.4-0.6,1.4-0.8,3c-0.1,0.7-0.1,1.4-0.2,2.2
		c0.5,0,0.9,0,1.2,0c0.2,0,0.4,0.1,0.6,0.2c0.2,0.2,0.2,0.4,0.2,0.6c0,0.2-0.1,0.4-0.2,0.6c-0.2,0.2-0.4,0.2-0.6,0.2
		c-0.3,0-0.7,0-1.2,0c0,0.5,0,1,0,1.5c0,1.9,0.2,3.7,0.3,5.5c0.2,1.8,0.4,3.1,0.5,3.9c0.1,0.2,0,0.4-0.1,0.6
		c-0.1,0.2-0.3,0.3-0.5,0.4c-0.2,0.1-0.4,0-0.6-0.1c-0.2-0.1-0.3-0.3-0.4-0.5c-0.2-0.9-0.4-2.2-0.6-4.1c-0.2-1.9-0.3-3.7-0.4-5.6
		c0-0.5,0-1.1,0-1.6c-1.1,0-2-0.1-2.8-0.3c-0.2,0-0.4-0.2-0.5-0.4c-0.1-0.2-0.1-0.4-0.1-0.6C1.7,90,1.8,89.8,2,89.7
		c0.2-0.1,0.4-0.1,0.6-0.1c0.7,0.2,1.5,0.3,2.5,0.3c0-0.9,0.1-1.7,0.2-2.4c0.2-1.9,0.6-3.2,1.2-3.9c0.3-0.4,0.7-0.7,1.1-0.8
		c0.4-0.2,0.8-0.2,1.3-0.2c0.4,0,0.8,0.1,1.1,0.1c0.3,0.1,0.6,0.2,1,0.3c0.2,0.1,0.4,0.2,0.5,0.4c0.1,0.2,0.1,0.4,0,0.6
		c-0.1,0.2-0.2,0.4-0.4,0.5C10.9,84.6,10.7,84.6,10.5,84.6z"/>
	<path d="M18.8,93.5c0.8-1.7,1.8-2.7,3-3c1.3-0.3,2.6,0.2,4,1.5c0.2,0.2,0.3,0.4,0.3,0.6s-0.1,0.4-0.2,0.6c-0.2,0.2-0.4,0.3-0.6,0.3
		s-0.4-0.1-0.6-0.2c-1-0.9-1.8-1.3-2.5-1.1c-0.7,0.2-1.3,0.9-1.9,2.1c-0.1,0.2-0.3,0.4-0.5,0.4c-0.2,0.1-0.4,0.1-0.6,0
		c-0.3-0.1-0.4-0.3-0.5-0.6c-0.1,4.1,0.2,8,1,11.8c0.1,0.2,0,0.4-0.1,0.6c-0.1,0.2-0.3,0.3-0.5,0.4s-0.4,0-0.6-0.1
		c-0.2-0.1-0.3-0.3-0.4-0.5c-1-5-1.3-10.3-0.8-15.9c0-0.2,0.1-0.4,0.3-0.5c0.2-0.1,0.4-0.2,0.6-0.2c0.2,0,0.4,0.1,0.6,0.3
		c0.1,0.2,0.2,0.4,0.2,0.6c-0.1,1.3-0.2,2.3-0.2,3.2C18.8,93.6,18.8,93.6,18.8,93.5z"/>
	<path d="M38.8,90.2c0.2-0.1,0.4-0.2,0.7-0.1c0.2,0,0.4,0.1,0.7,0.2c0.3,0.1,0.5,0.1,0.6,0.1c0.7,0.1,1.2,0.3,1.6,0.6
		c0.2,0.1,0.5,0.3,0.7,0.5c0.2,0.2,0.4,0.4,0.5,0.6c0.1,0.2,0.3,0.4,0.4,0.7c0.1,0.3,0.2,0.5,0.3,0.6c0.1,0.1,0.1,0.3,0.2,0.7
		c0.1,0.3,0.2,0.5,0.2,0.5c0,0.1,0.1,0.3,0.3,0.7c0.2,0.4,0.3,0.8,0.4,1c0.1,0.3,0.2,0.6,0.3,1c0.1,0.4,0.1,0.8,0.1,1.1
		c0,1-0.4,1.9-1.1,2.6c-0.7,0.7-1.5,1.3-2.5,1.7c-0.9,0.4-1.8,0.6-2.8,0.7c-1,0.1-1.9,0-2.6-0.2c-1.8-0.5-3-1.3-3.5-2.5
		c-0.2-0.6-0.4-1.3-0.4-2.3c0-0.2,0-0.6,0-1c0-0.4,0-0.8,0-0.9c0-0.1,0-0.5,0-0.9c0-0.5,0-0.9,0-1.3c0-0.4,0-0.7,0.1-1.1
		c0.2-1,0.6-1.7,1.2-2.3c0.6-0.5,1.4-0.8,2.2-0.9C37.1,90,37.9,90,38.8,90.2z M40.1,92.3c-1.4-0.5-2.6-0.7-3.5-0.6
		c-1.1,0.1-1.7,0.7-1.9,1.7c0,0.3-0.1,0.6-0.1,0.9c0,0.3,0,0.7,0,1.1c0,0.4,0,0.8,0,1c0,0.2,0,0.5,0,0.9c0,0.4,0,0.8,0,1.1
		c0,0.7,0.1,1.2,0.2,1.5c0.1,0.3,0.5,0.6,0.9,0.9c0.5,0.3,1,0.5,1.5,0.7c0.5,0.2,1.2,0.2,2,0.1c0.8-0.1,1.6-0.3,2.3-0.6
		c1.7-0.7,2.5-1.6,2.6-2.7c0-0.2,0-0.5-0.1-0.8c-0.1-0.3-0.1-0.5-0.2-0.7l-0.4-0.9c-0.1-0.4-0.3-0.7-0.3-0.9l-0.2-0.5L42.8,94
		l-0.1-0.4c-0.1-0.2-0.1-0.3-0.2-0.4l-0.2-0.3c-0.1-0.1-0.2-0.2-0.3-0.3c-0.1-0.1-0.2-0.2-0.3-0.2c-0.2-0.1-0.4-0.2-0.6-0.3
		C40.7,92.4,40.4,92.5,40.1,92.3z"/>
	<path d="M52.2,103.7c0-0.4,0-0.8,0-1.1c0-0.4-0.1-0.8-0.1-1.3l-0.2-1.1c0-0.3-0.1-0.7-0.3-1.3l-0.2-1.2c-0.5-2.7-0.6-4.8-0.3-6.5
		c0-0.2,0.2-0.4,0.4-0.5c0.2-0.1,0.4-0.2,0.6-0.1c0.2,0,0.4,0.2,0.5,0.4s0.2,0.4,0.1,0.6c-0.3,1.5-0.2,3.5,0.3,5.9
		c0,0.2,0.1,0.6,0.2,1.2c0.1,0.6,0.2,1,0.3,1.3c0.1,0.3,0.1,0.7,0.2,1.2c0.1,0.5,0.1,0.9,0.2,1.4c0,0.4,0,0.9,0,1.3
		c0,0.2-0.1,0.4-0.2,0.6c-0.2,0.2-0.4,0.2-0.6,0.2c-0.2,0-0.4-0.1-0.6-0.2C52.2,104.1,52.2,103.9,52.2,103.7z M53.2,93.8
		c0.1-0.8,0.3-1.4,0.8-2c0.5-0.5,1.1-0.9,1.8-1.2c0.6-0.2,1.3-0.3,2.1-0.1s1.4,0.5,1.9,1.1c0.4,0.5,0.8,1,1.1,1.7
		c0.1-0.9,0.5-1.6,1.1-2.2c0.7-0.6,1.5-0.9,2.6-1c0.9,0,1.8,0.1,2.7,0.4c1,0.3,1.8,0.8,2.4,1.3c1.2,1,1.9,2.9,2.2,5.5
		c0.2,2.1,0.1,4-0.3,5.8c0,0.2-0.2,0.4-0.4,0.5c-0.2,0.1-0.4,0.2-0.6,0.1c-0.2-0.1-0.4-0.2-0.5-0.4c-0.1-0.2-0.2-0.4-0.1-0.6
		c0.3-1.6,0.4-3.3,0.2-5.2c-0.2-2.2-0.8-3.7-1.7-4.4c-0.5-0.4-1.1-0.8-1.9-1.1c-0.8-0.3-1.5-0.4-2.2-0.4c-0.7,0-1.2,0.2-1.5,0.5
		c-0.4,0.4-0.6,0.9-0.6,1.7c0,0.2-0.1,0.4-0.2,0.6c-0.2,0.2-0.4,0.2-0.6,0.2h-0.1c0.2,0.5,0.4,1.2,0.5,1.9c0.1,0.6,0.3,1.5,0.5,2.7
		c0.2,1.4,0.4,2.2,0.4,2.5c0.1,0.2,0,0.4-0.1,0.6c-0.1,0.2-0.3,0.3-0.5,0.4c-0.2,0.1-0.4,0-0.6-0.1c-0.2-0.1-0.3-0.3-0.4-0.5
		c-0.1-0.6-0.3-1.4-0.5-2.6c-0.2-1.2-0.3-2.1-0.4-2.6c-0.4-2-1.1-3.4-1.9-4.4c-0.6-0.6-1.3-0.8-2.3-0.4c-0.4,0.1-0.8,0.3-1.1,0.6
		c-0.3,0.3-0.4,0.6-0.4,1c0,0.2-0.1,0.4-0.3,0.6c-0.2,0.1-0.4,0.2-0.6,0.2c-0.2,0-0.4-0.1-0.6-0.3C53.2,94.3,53.1,94.1,53.2,93.8z"
		/>
	<path d="M88.4,92c-0.3,0-0.5,0-0.7,0c-0.3,0-0.6,0-0.8-0.1c-0.1,0-0.3-0.1-0.4-0.1c-0.3-0.1-0.4-0.3-0.5-0.5c-0.1-0.4,0-0.7,0.3-1
		c0.1-0.1,0.3-0.2,0.4-0.3c0.2-0.1,0.3-0.1,0.3-0.1c1-0.7,1.8-1.2,2.5-1.4c0.2-0.1,0.4,0,0.6,0.1c0.2,0.1,0.3,0.3,0.4,0.5
		c0.1,0.2,0.1,0.4,0,0.6c-0.1,0.2-0.3,0.3-0.5,0.4c-0.3,0.1-0.6,0.2-0.9,0.4h0.6l2.1-0.2c0.8-0.1,1.3-0.1,1.3-0.1
		c0.2,0,0.4,0.1,0.6,0.2c0.2,0.1,0.3,0.3,0.3,0.6c0,0.2-0.1,0.4-0.2,0.6c-0.1,0.2-0.3,0.3-0.6,0.3c-0.1,0-0.5,0-1.3,0.1
		s-1.4,0.1-1.9,0.1c-0.2,3-0.1,5.3,0.1,7.1c0.2,1.5,0.5,2.4,1,2.9c0.1,0.1,0.3,0.2,0.5,0.2c0.3,0,0.8-0.3,1.2-0.7
		c0.2-0.1,0.4-0.2,0.6-0.2c0.2,0,0.4,0.1,0.6,0.3c0.1,0.2,0.2,0.4,0.2,0.6c0,0.2-0.1,0.4-0.3,0.6c-0.7,0.6-1.4,1-2.1,1.1
		c-0.7,0.1-1.4-0.1-1.9-0.6c-0.7-0.7-1.2-2-1.4-3.8C88.3,97.3,88.2,94.9,88.4,92z"/>
	<path d="M102,82.5c-0.6,2.6-0.7,5.7-0.4,9.4c0.9-1.1,2.1-1.6,3.7-1.6c0.8,0,1.6,0.3,2.3,0.7c0.8,0.4,1.4,0.9,1.9,1.6
		c0.4,0.5,0.7,1.3,0.9,2.4c0.2,0.9,0.3,1.9,0.3,3.1c0.1,1.9,0,3.7-0.2,5.5c0,0.2-0.1,0.4-0.3,0.6c-0.2,0.1-0.4,0.2-0.6,0.2
		c-0.2,0-0.4-0.1-0.6-0.3c-0.1-0.2-0.2-0.4-0.2-0.6c0.2-1.6,0.3-3.4,0.2-5.2c0-1.1-0.1-2-0.3-2.8c-0.1-0.8-0.3-1.4-0.6-1.7
		c-0.8-1-1.9-1.6-3.1-1.6c-1.2-0.1-2.1,0.4-2.6,1.5c-0.1,0.3-0.4,0.4-0.7,0.4l0.5,4.1c0.2,1.8,0.4,3.2,0.5,4.1c0,0.2,0,0.4-0.2,0.6
		c-0.1,0.2-0.3,0.3-0.6,0.3c-0.2,0-0.4,0-0.6-0.2c-0.2-0.1-0.3-0.3-0.3-0.5c-0.1-0.9-0.2-2.2-0.5-3.8c-0.2-1.7-0.4-3.1-0.5-4.2
		c-0.1-1.1-0.2-2.4-0.3-3.9c-0.1-1.5-0.1-2.9,0-4.3c0.1-1.4,0.3-2.7,0.5-3.9c0-0.2,0.2-0.4,0.4-0.5c0.2-0.1,0.4-0.2,0.6-0.1
		c0.2,0.1,0.4,0.2,0.5,0.4C102.1,82.1,102.1,82.3,102,82.5z"/>
	<path d="M127.2,102.4c-1.2,0.2-2.6,0.3-4.2,0.4c-0.9,0-1.7,0-2.4-0.1c-0.9-0.1-1.5-0.3-1.9-0.6c-1.2-0.9-2-2.3-2.6-4.2
		c-0.5-1.9-0.6-3.5-0.2-4.9c0.3-0.8,0.7-1.5,1.3-2.1c0.6-0.6,1.4-1.1,2.1-1.5c1.3-0.7,2.8-0.9,4.4-0.4c1.6,0.4,2.7,1.3,3.4,2.7
		c0.2,0.4,0.4,0.8,0.5,1c0.2,0.6,0.2,1.2,0,1.6c-0.3,0.6-0.9,1-2,1.3c-0.7,0.2-1.7,0.4-2.8,0.5c-1.5,0.2-3.1,0.4-4.9,0.4
		c-0.1,0-0.3,0-0.4-0.1c0.1,0.3,0.1,0.6,0.2,0.9c0.4,1.6,1.1,2.7,1.9,3.3c0.2,0.1,0.5,0.2,1.1,0.3c0.6,0.1,1.3,0.1,2.1,0.1
		c1.5,0,2.8-0.1,3.9-0.4c0.2,0,0.4,0,0.6,0.2s0.3,0.3,0.3,0.5c0,0.2,0,0.4-0.1,0.6C127.6,102.3,127.4,102.4,127.2,102.4z
		 M117.5,95.2c0.1-0.1,0.3-0.2,0.5-0.2c1.8-0.1,3.4-0.2,4.8-0.4c1.1-0.1,1.9-0.3,2.6-0.5c0.3-0.1,0.5-0.1,0.6-0.2
		c0.2-0.1,0.3-0.1,0.3-0.2l0.1,0c0-0.1,0-0.2-0.1-0.4c-0.1-0.2-0.2-0.4-0.4-0.8c-0.5-0.9-1.3-1.6-2.4-1.9c-1.1-0.3-2.2-0.2-3.2,0.3
		c-0.6,0.3-1.2,0.7-1.6,1.1c-0.5,0.4-0.8,0.9-0.9,1.4C117.5,94,117.4,94.5,117.5,95.2z"/>
	<path d="M146.2,83.3c-0.3,0.7-0.5,1.4-0.7,2.1c-0.2,0.7-0.3,1.5-0.4,2.4c-0.1,0.9-0.2,1.6-0.2,2.1c-0.1,0.5-0.1,1.3-0.1,2.4
		c0,1.1,0,1.8,0,2.1c0,0.3,0,1.1,0.1,2.5c0.1,1.3,0.1,2.1,0.1,2.3c0,0.4,0,0.9,0,1.3c0,0.4,0,0.8,0,1.2s0,0.7,0.1,1.1
		c0.1,0.4,0.2,0.7,0.4,1c0.1,0.2,0.1,0.4,0.1,0.6c-0.1,0.2-0.2,0.4-0.4,0.5c-0.2,0.1-0.4,0.1-0.6,0.1c-0.2-0.1-0.4-0.2-0.5-0.4
		c-0.2-0.4-0.4-0.9-0.5-1.3c-0.1-0.5-0.2-0.9-0.2-1.4c0-0.4,0-0.9,0-1.3v-1.2c0-0.2,0-1-0.1-2.3c-0.1-1.3-0.1-2.1-0.1-2.5v-2.2
		c0-1.1,0-1.9,0.1-2.5l0.3-2.2c0.1-0.9,0.2-1.7,0.4-2.5c0.2-0.8,0.4-1.5,0.7-2.3c0.1-0.2,0.2-0.4,0.4-0.5c0.2-0.1,0.4-0.1,0.6,0
		c0.2,0.1,0.4,0.2,0.5,0.4C146.2,82.8,146.2,83,146.2,83.3z"/>
	<path d="M158.9,90.2c0.2-0.1,0.4-0.2,0.7-0.1c0.2,0,0.4,0.1,0.7,0.2c0.3,0.1,0.5,0.1,0.6,0.1c0.7,0.1,1.2,0.3,1.6,0.6
		c0.2,0.1,0.5,0.3,0.7,0.5c0.2,0.2,0.4,0.4,0.5,0.6c0.1,0.2,0.3,0.4,0.4,0.7s0.2,0.5,0.3,0.6c0.1,0.1,0.1,0.3,0.2,0.7
		c0.1,0.3,0.2,0.5,0.2,0.5c0,0.1,0.1,0.3,0.3,0.7c0.2,0.4,0.3,0.8,0.4,1c0.1,0.3,0.2,0.6,0.3,1c0.1,0.4,0.1,0.8,0.1,1.1
		c0,1-0.4,1.9-1.1,2.6c-0.7,0.7-1.5,1.3-2.5,1.7c-0.9,0.4-1.8,0.6-2.8,0.7c-1,0.1-1.9,0-2.6-0.2c-1.8-0.5-3-1.3-3.5-2.5
		c-0.2-0.6-0.4-1.3-0.4-2.3c0-0.2,0-0.6,0-1c0-0.4,0-0.8,0-0.9c0-0.1,0-0.5,0-0.9c0-0.5,0-0.9,0-1.3c0-0.4,0-0.7,0.1-1.1
		c0.2-1,0.6-1.7,1.2-2.3c0.6-0.5,1.4-0.8,2.2-0.9C157.2,90,158,90,158.9,90.2z M160.2,92.3c-1.4-0.5-2.6-0.7-3.5-0.6
		c-1.1,0.1-1.7,0.7-1.9,1.7c0,0.3-0.1,0.6-0.1,0.9c0,0.3,0,0.7,0,1.1c0,0.4,0,0.8,0,1c0,0.2,0,0.5,0,0.9c0,0.4,0,0.8,0,1.1
		c0,0.7,0.1,1.2,0.2,1.5c0.1,0.3,0.5,0.6,0.9,0.9c0.5,0.3,1,0.5,1.5,0.7c0.5,0.2,1.2,0.2,2,0.1c0.8-0.1,1.6-0.3,2.3-0.6
		c1.7-0.7,2.5-1.6,2.6-2.7c0-0.2,0-0.5-0.1-0.8c-0.1-0.3-0.1-0.5-0.2-0.7l-0.4-0.9c-0.1-0.4-0.3-0.7-0.3-0.9l-0.2-0.5l-0.2-0.5
		l-0.1-0.4c-0.1-0.2-0.1-0.3-0.2-0.4l-0.2-0.3c-0.1-0.1-0.2-0.2-0.3-0.3c-0.1-0.1-0.2-0.2-0.3-0.2c-0.2-0.1-0.4-0.2-0.6-0.3
		C160.8,92.4,160.5,92.5,160.2,92.3z"/>
	<path d="M173.2,90.7c0,0.3,0,0.8,0,1.5c0,0.7,0,1.2,0,1.6c0,0.4,0,0.9,0,1.4c0,0.6,0.1,1.1,0.1,1.5c0.1,0.5,0.1,0.9,0.3,1.3
		c0.5,1.9,1.3,3.1,2.2,3.6c1,0.4,2.2,0,3.5-1.3c0.3-0.3,0.6-0.3,1-0.1c0-0.4,0-0.8-0.1-1.1c-0.1-1.3-0.1-2.5,0-3.4
		c0-0.6,0.1-1.4,0.3-2.4c0.2-1.2,0.3-1.9,0.3-2.3c0-0.2,0.1-0.4,0.3-0.5c0.2-0.1,0.4-0.2,0.6-0.2c0.2,0,0.4,0.1,0.6,0.3
		c0.1,0.2,0.2,0.4,0.2,0.6c0,0.1-0.1,0.9-0.3,2.4c-0.1,0.9-0.2,1.7-0.2,2.2c0,0.9,0,2,0,3.3c0,0.2,0.1,0.7,0.1,1.5l0.1,1.8
		c0,0.2-0.1,0.4-0.2,0.6c-0.1,0.2-0.3,0.3-0.6,0.3c-0.2,0-0.4-0.1-0.6-0.2c-0.2-0.1-0.3-0.3-0.3-0.6c0-0.3,0-0.5,0-0.9
		c-1.9,1.8-3.7,2.3-5.3,1.6c-1.5-0.7-2.5-2.2-3.2-4.6c-0.1-0.6-0.3-1.3-0.4-2c-0.1-0.8-0.1-1.4-0.1-1.8c0-0.4,0-1.1,0-2.2
		c0-1.1,0-1.6,0-1.7c0-0.2,0.1-0.4,0.2-0.6c0.2-0.2,0.4-0.2,0.6-0.2c0.2,0,0.4,0.1,0.6,0.2C173.1,90.2,173.2,90.4,173.2,90.7z"/>
</g>
</svg>
