<?xml version="1.0" encoding="utf-8"?>
<!-- Generator: Adobe Illustrator 22.1.0, SVG Export Plug-In . SVG Version: 6.00 Build 0)  -->
<svg version="1.1" id="Layer_1" xmlns="http://www.w3.org/2000/svg" xmlns:xlink="http://www.w3.org/1999/xlink" x="0px" y="0px"
	 viewBox="0 0 576.1 671.9" style="enable-background:new 0 0 576.1 671.9;" xml:space="preserve">
<style type="text/css">
	.st0{fill:#231F20;}
	.st1{fill:#FFFFFF;}
	.st2{font-family:'5yearsoldfont';}
	.st3{font-size:50px;}
</style>
<g>
	<path class="st0" d="M345,11.1c0.4-0.8-0.1-1.2-0.9-1.5c-1.3-0.5-1.9,0.1-2.7,0.9C342.8,10.7,343.9,10.9,345,11.1
		c-0.2,0.5-0.5,1-0.8,1.6c1,1.2,2.2,1.4,3.8,1C347.7,11.7,347.6,11.6,345,11.1z M513.5,312.2c0.7,0.3,1.4,0.5,2.3,0.8
		c-0.1-0.6-0.2-1.2-0.3-1.9c-0.7,0.1-1.3,0.2-1.9,0.3c-1.6-1.7,0.8-2.7,1.4-4.3c-1.4,0.3-2.5,0.3-2.5,1.5c0,1.2-1,0.6-1.6,0.7
		c0.4-2.7-1.7-3.8-3.8-5.1c-1-0.6-1.9-1.3-2.7-1.9c1.5-3.5,5.4-1.9,7.8-3.6c-0.7-0.8-1.4-1.6-2.2-2.5c1.4-1.1,2.9-2.1,4.4-3.3
		c1.2,0.3,1.5,2.2,3.7,1.8c0.1-0.9,0.3-1.9,0.2-2.9c-0.3-2.7-0.4-2.6,0.8-4.6c0-0.1,0-0.2,0-0.3c-0.6-0.1-1.2-0.3-1.9-0.5
		c0.2-1,0.2-1.9,0.5-2.8c0.2-0.9,0.8-1.7,0.9-2.6c0.1-0.9,0.1-1.9-1.5-2.1c-0.3,0.8-0.7,1.5-0.9,2.2c-3.3,0.3-6.4,0.2-8.9-2.6
		c0,1.7-0.1,2.9-0.1,3.8c-1.9,0.3-3.3,0.5-4.7,0.7c0.2,1,0.6,1.8,0.4,2.5c-0.2,0.7-0.9,1.4-1.5,2.1c2.1,0.4,1.6,2.1,2.1,3.2
		c0.2,0.4-0.3,1.3-0.7,1.7c-1.4,1.3-3,2.4-4.6,3.6c0,0-0.1-0.2-0.3-0.3c-1.6-0.6-2.7-1.3-1.4-3c0.4-0.6,0.1-1.6,0.1-2.5
		c-1.5,0-2.7,0.1-4.3,0.1c0.8-1.7,1.4-2.9,2.1-4.2c-0.5-0.4-1.1-0.9-1.4-1.2c0.5-1,0.9-1.9,1.4-3c-1.5,0-2.6-0.1-3.7-0.1
		c4.2-1.9,5.6-4.9,5.3-9.3c-2.5,2-5.9-0.2-7.7,2.4c-0.4-0.2-0.6-0.2-0.8-0.3c-0.5-0.4-0.8-1.1-1.8-0.5c-1,0.6,0,0.9,0.1,1.3
		c0.2,1.3-0.6,1.8-2,1.6c-1.7-0.3-2.2-1.3-2.3-2.5c1.4-2.3,4.4-1.9,6.5-3.1c-0.3-0.9-0.6-1.7-0.9-2.5c-1.3,0.3-2.3,0.5-3.3,0.7
		l0.1,0.1c-0.3-1.5,0.7-2.3,2.2-2.5c1.9-0.3,2.5-1.4,2.8-2.8c0.1-0.6,0.2-1.3,0.2-1.9c0.1-1.6,0.1-3.1,0.1-4.8
		c0.4-0.1,1-0.2,1.2-0.2c0.2-1.8,0.3-3.3,0.4-4.7c-1.7-1.3-3.3-2.5-4.9-3.7c-3.4,1.6-3.4,1.6-2.3,4.1c-1.1,1-2.3,2-3.5,3
		c-1.3-1.6-0.2-3.8-2.7-4.7c-0.5,1.8-1,3.4-1.4,5.1c-0.1,0.3-0.2,0.7-0.5,1c-0.6,0.7-1.3,1.3-2,2.1c-0.6-0.5-1.2-1.2-1.7-1.6
		c-1.7,0-3.3-0.1-4.5-0.1c0.6-2.2,1.6-4.4,1.6-6.5c-0.1-2.8,2.6-4.4,3-6.8c0-0.1,0.3-0.2,0.5-0.3c1.1-0.4,2.2-0.9,3.6-1.4
		c0.2,0.9,0.3,1.7,0.4,2.5c1.2,0.5,2.5,1,4.4,1.8c-1.5,0.2-2.3,0.3-3.1,0.4c-0.6,1.1-1.2,2.2-1.8,3.3c2.6,1.2,3.2-0.8,4.4-1.8
		c0.6,0.4,1.1,0.7,1.6,1.1c-0.4-1.4,0.5-2.3,1.5-2.9c-0.3-2-1.9-1.9-3.5-1.8c0-2.1,0.1-4.1,0.1-6.4c1.2,0.4,2.5,0.6,3.6,1.1
		c1.7,0.8,2-1.6,3.6-0.9c0.2,0.1,0.4,0.1,0.6,0c0.5-0.2,1-0.4,1.3-0.7c1.4-1.5,2.7-3,4.2-4.4c1.6-1.6,1.4-3-1.1-4.5
		c-0.3,0.8-0.9,1.7-0.7,2.4c0.3,0.9,0.2,1.5-0.4,2c-0.9-0.7-1.7-1.4-2.6-2.1c1.3-3.3,2.6-6.6,4-10.1c0.8,0,1.6,0,3,0.1
		c-0.7-1.2-1.2-2.1-1.7-3c-1.1,0.3-1.7,2.3-2.7,0.2c0.6-0.5,1.4-0.9,1.9-1.5c1.4-1.6,3.5-2.9,3-5.3c-0.5-2-1.1-4-1.6-6.2
		c-1.5,0.4-2.6,0.7-4.4,1.2c2.1-2.7,0.9-4.3-1.2-5.7c-0.7-0.5-1.3-1.2-1.9-1.8c-1.5-1.4-3.2-2.6-4.5-4.2c-0.3-0.3-1.1-0.4-1.7-0.4
		c-0.8,0-1.6,0.2-3,0.4c1.1-0.7,1.8-1.2,2.5-1.6c-0.5-0.9-1.5-1.7-1.5-2.5c0.2-2.3-1.2-4.1-3-5.2c-1.7-1-1.3-2.6-2.4-3.7
		c-1.1-1.2-0.2-2.7,0.9-3.9c0.2-0.2,0.1-0.7,0.1-1.2c-0.6,0.2-1,0.3-1.5,0.5c-2.2-2.9-1.4-4.9,2.3-5.2c1.8-0.2,2.1-1.2,2.9-2.2
		c-0.8-0.6-1.5-1.2-2-1.6c0-1.3-0.1-2.4,0.1-3.5c0.1-0.5,1-0.8,1.6-1.1c0,0.4-0.2,1.1,0,1.3c2.2,2.3,2.4,4.8,1.7,7.5
		c-0.1,0.5,0.2,1,0.2,1.5c-0.1,0.6-0.3,1.1-0.4,1.7c4,3.2,5,3.5,7.8,1.9c-0.8-1.2-1.6-2.5-2.5-3.7c-1.2-1.6,0.9-2.7,0.7-4.2
		c-0.9-0.4-1.8-0.7-2.5-1.2c-0.7-0.6-0.8-1.5-1.5-2.1c-1.1-0.9-2.3-1.7-3.5-2.5c-0.4-2.5-3.3-2.1-5-3.3c0.4-0.9,0.9-1.7,1.3-2.5
		c0.9,0.2,1.6,0.3,2.3,0.5c-0.3-0.9-0.6-1.6-0.9-2.3c-0.9-2.3-1.7-4.9-3.8-6.5c-2-1.5-2.1-3.3-3.2-5.2c2.3,0.2,3.4,1.6,3.5,2.7
		c0.2,2.2,2,3.2,3.2,4.7c0.3,0.4,1.1,0.5,1.7,0.8c0.2-0.4,0.3-0.9,0.5-1.3c0.1-0.3,0.2-0.5,0.4-0.7c1.9-2,1.9-2.5,0.2-3.7
		c0.1-1.6,0.1-2.9,0.3-4.1c0.2-1.3,0.8-2.5,1.1-3.8c0.2-0.9,0.2-1.8,0-2.6c-0.2-1.3-0.5-2.7-1-4c-0.6-1.5-1.3-3.1-2.1-4.5
		c-0.1-0.2-0.8-0.2-1.3-0.3c-0.2,0.1-0.4,0.2-0.6,0.3c1.6,1.4,1.7,2.9,1.1,5.1c-1.2-2.2-2.2-4-3.2-5.8c0.8-0.5,1.5-1,2.5-1.6
		c-1.3-0.6-2.3-1-3.3-1.6c-0.7-0.4-1.4-0.9-1.8-1.5c-0.8-1.3-1.3-2.7-2-4.1c-0.2-0.5-0.5-1.3-0.8-1.4c-2.5-0.5-3.3-2.4-4.5-3.9
		c-3.2-0.2-5.2-1.8-6.5-5.3c1.4,0.7,2.9,1.9,3.4,1.6c1.3-0.6,2.2,2.3,3.2,0c-1.2-0.6-2.4-1.3-3.6-2c0.3-0.8,0.5-1.3,0.7-1.8
		c-0.4-0.2-0.5-0.3-0.7-0.4c-1.4-0.9-3.4-1.2-2.9-3.4c0.1-0.8-2.7-2.5-4.1-2.7c2.8,3.3,0.1,6-0.9,9.5c-1.5-1.1-3-1.7-3.3-2.6
		c-0.6-2-2.2-3-3.6-4.4c-2.2,1.5-4.3,2.9-6.6,4.5c-0.6-0.7-1.4-1.2-1.5-1.8c-0.4-1.6-1.5-3-1.1-4.8c0.2-1-0.3-1.6-1.9-0.9
		c0.5,0.4,1,0.8,1.5,1.3c-0.6,0.6-1.1,1-1.6,1.5c-1-0.5-1.9-1-2.7-1.5c-1.8-1-3.9-1.8-5.2-3.1c-1.3-1.5-2.8-2.1-5-2.1
		c0.1-2.4-3.8-2.9-3.1-6.2c2.4,2.4,6.4,1.9,7.4,5.3c1.4-0.2,2.6-0.4,3.9-0.6c0.3,0.3,0.5,0.7,0.9,1.3c1-0.5,2-0.9,3-1.4l0.2-0.1
		c2.3,0.5,3.5,3.2,6.5,1.9c-0.7,3.1-0.4,3.8,2,5.6c1.2-1,2.5-2,3.6-2.8c-0.4-3.3-2.5-5.5-4.8-7.5c-1-0.9-0.8-1.3,0.1-1.9
		c0.4-0.2,0.9-0.4,1.6-0.6c-0.8-1-1.2-2.3-2.1-2.7c-1.9-0.9-2.7-2.3-3.5-3.8c-0.6-1.1-1.5-2.3-2.6-3.1c-1.1-0.8-2.4-1.3-3.6-2.2
		c-2.3-1.8-3.3-3.7-3.6-6.2c0-0.5-0.3-0.9-0.6-1.3c-2.6-3.6-7.1-5.7-9.5-9.4c-0.1-0.2-0.5-0.5-0.8-0.5c-2.2,0.1-3.4-1.4-4.9-2.3
		c-1-0.6-1.6-1.2-3.1-0.8c-1.3,0.4-2.2-0.8-2.5-1.7c-0.2-0.6-0.4-1.9,1.4-1.9c0.5,0,0.9-1,1.4-1.6c-2.5-1.8-4.8-3.2-5.7-5.6
		c-1.9-0.4-3.8-0.8-4.9-1.1c-1.7-2-3.1-3.6-4.8-5.6c1.2,0.4,1.7,0.6,2.3,0.8c0.6,0.2,1.3,0.3,2.6,0.6c-0.9-1.1-1.4-2.2-2.2-2.6
		c-1.6-0.6-2.6-1.6-3.1-3c-0.5-1.1-1.3-1.5-2.4-1.5c-1.8,0.1-3.7,0.4-5.5,0.5c-1.3-0.9-2.6-1.8-3.9-2.8c-0.4,0.2-0.6,0.3-0.9,0.5
		c-2.3,2-2.3,2.2,0.2,4.1c1.1,0.8,1.1,1.7,0.6,2.5c-3.5-0.1-5-2.6-8-4.1c1.3-0.4,2.1-0.6,2.9-0.9c-1.5-1.7-3.7-1.7-5.5,0.1
		c-0.7,0.6-1.4,1.2-2,1.8c1.5,0.8,2.8,2.4,5.2,2.3c0.2,0,0.4,0.2,0.5,0.3c1.2,1.6,2.8,1.4,4.4,0.6c2.5,2.5,4,3.2,7.6,3.7
		c1.6,0.2,2.3,1.1,3.2,2.2c-0.5,0.6-1,1-1.5,1.6c-1.7-1.1-3-2-4.8-3.2c-2.6,0.4-5-1-6.3-2.7c-1.7-0.3-2.9-0.3-3.8-0.6
		c-1.9-0.7-3.8-1.7-5.7-2.5c-1.3-0.6-2.7-1-3.3-2.4c-0.2-0.5-1.4-0.7-2.1-1c-1.5-0.5-3.1-0.8-4.6-1.4c-0.4-0.1-0.9-0.9-0.8-1.1
		c0.6-1.3,0-1.9-1.2-2.4c-0.3-0.1-0.3-0.8-0.4-1.2c-0.2-0.7-0.3-1.4-0.4-2.1c0.6,0.1,1.1,0.2,1.6,0.4c1.5,0.6,2.9,1.5,4.4,0.1
		c0.2-0.2,1.1,0,1.4,0.3c0.9,0.8,1.7,1.7,2.5,2.5c-0.8,0.9-1.2,1.4-2,2.3c1.1-0.2,1.8-0.4,2.3-0.3c1.4,0.3,2.5,0.1,3.9-0.5
		c1.5-0.7,3.9-1.6,5.6,0c2,1.8,3.7,0.8,5.5,0.1c-0.5-1.4-0.9-2.6-1.3-3.8c-1.4-0.6-2.8-1.4-4.4-1.8c-3.3-0.8-6.9,0-10-1.5
		c-0.3-0.1-0.8,0.1-1.2,0.3c-1.4,0.8-2.8,0.9-4.5,0.3c-1.6-0.6-2.7-1.4-3.7-2.4c-0.6-0.6-1.2-1.3-1.7-1.9c-0.7-0.9-1.3-1.9-2.4-3.4
		c-2.8-0.1-6.3-0.3-9.9-0.4c0.4-0.7,0.6-1.1,0.9-1.6c-1.9-1-3.8-2-5.3-2.7c-0.4-1-0.4-1.9-1-2.3c-1-0.8-1.8,0.2-2.3,0.7
		c-1.6,1.6-3.5,0.8-5.7,0.5c1.5-1.3,1.2-2.4,0.1-3.4c-1.7,0.1-3.3,0.1-4.8,0.1c-0.2,0-0.4-0.3-0.8-0.6c1.2-0.1,2-0.2,3-0.3
		c-0.7-2.6-3.6-5.2-6.4-5.5c0.4,0.5,0.7,0.8,1,1.1c0.4,0.4,0.7,0.8,1.1,1.2c-1.1,0.6-2.5-0.1-3.1,1.4c-0.3,0.9-1.6,0.8-2.5-0.3
		C313,2.6,312,1.9,311,1.5c-0.6-0.2-1.8,0.1-2.2,0.5c-0.4,0.4-0.3,1.4,0,2c0.4,0.9,1.1,1.7,2,2.9c-1.9-0.2-3.1-0.3-4.4-0.4
		c-1.6,2.7-0.6,3.6-6.8,1.9c-0.5,0.7,0.1,2.2-1.6,2.3c-0.1,0-0.2,0.9-0.3,1.4c0,0.4,1.7,0,0.6,0.9c-0.4,0.3-1,0.7-1.4,0.7
		c-3.4-0.5-6.7,0.1-10,0.4c-0.7,0.1-1.4,0.6-2.1,0.8c0.3,0.6,0.7,1.1,1.1,1.9c-2.6-0.5-4.9,0.2-6.3,2c-1,1.4-2.5,1.8-3.9,2.1
		c-0.3,1.2-0.6,2.1-0.9,3.3c-2.3-0.2-4.5-0.8-6.4-0.4c-2,0.3-3.8,1.6-5.7,2.4c-0.5,0.2-1,0.2-1.5,0.4c-2.5,0.9-4.9,2.1-5.9,4.3
		c-0.9,1.9-2.4,2.9-4.3,3.8c-0.7,0.3-1.4,0.7-1.9,1.2c-1.4,1.4-2.9,2.7-5.4,3.2c-0.5-1-0.8-2.6-2.8-1.4c-0.2,0.7-0.3,1.5-0.5,2.2
		c-0.1,0-0.3,0-0.4,0.1c-0.3-0.7-0.6-1.4-0.9-2.1c-2.3,0.8-2.3,0.8-1.4,3.1c-2.5,0.2-3.9,1.6-4.5,3.5c-1,0.3-1.9,0.4-2.8,0.7
		c-1.6,0.5-3.2,1.1-4.8,1.7c-1.1,0.4-2.3,0.8-3.3,1.5c-1.2,0.8-2.2,1.5-3.9,1.6c-0.9,0-1.8,0.8-2.6,1.4c-1.8,1.3-3.3,3-5.3,4.1
		c-1.2,0.7-2,1.4-2.8,2.4c-1.3,1.7-2.2,3.9-4.8,4.4c-2.1,0.4-3.6,1.5-5,2.8c-2.7,2.4-3.9,5.7-5.4,8.7c-1.8,3.6-3.8,7.2-5.7,10.8
		c-2,3.7-3.8,7.5-5.2,11.4c-1,2.8-1.9,5.7-3,8.4c-1.8,4.8-3.6,9.6-4.2,14.6c-0.1,0.4-0.2,1-0.4,1.3c-1.4,1.6-1.3,3.5-1.4,5.3
		c0,0.7,0.2,1.6-0.2,2.2c-1.8,3-2.7,6.2-3.5,9.4c-1.4,5.9-3.5,11.6-4,17.6c-0.1,1.5-0.8,3-1.1,4.6c-0.6,3.4-1.1,6.8-1.6,10.2
		c-0.1,0.5,0,0.9-0.1,1.4c-1.9,6.4-1.7,12.7,0.1,19.1c1.2,4.1,2.1,8.3,3.4,12.4c1.3,3.9,2.9,7.7,4.5,11.5c1.2,2.8,2.6,5.4,3.9,8.1
		c1.7,3.5,3.3,7,5,10.5c2.8,5.8,5.1,11.8,6.4,18.1c0.6,2.7,0.9,5.5,1.1,8.3c0.2,3.1,0.5,6.3,0.1,9.4c-0.5,4.2-1.6,8.4-2.5,12.6
		c-1.3,6-4,11.7-7,17.2c-0.8,1.5-2.2,2.7-2.9,4.3c-2.4,5.3-6.6,9.7-9.9,14.5c-1.9,2.8-4.1,5.5-6.2,8.4c1.8,0.9,2.9,2,1.9,3.7
		c1.4,2.1-1.2,2.5-2.2,4.3c-0.5-1.1-0.9-1.7-1.1-2.4c-0.2-0.8-0.2-1.6-0.3-2.3c-2.3,2.6-3.8,5.2-2,8.4c-0.6,0.5-1,1.1-1.6,1.4
		c-0.5,0.2-1.2-0.2-2-0.3c-0.1,1.2-0.1,2.4-0.3,3.4c-0.2,0.9-0.3,2.1-1,2.5c-2,1.2-2.4,3-3.1,4.7c-1,2.1-1.6,4.4-2.5,6.6
		c-2.8,6.7-5,13.5-9,19.8c-1.4,2.2-2.6,4.4-3.9,6.6c-1.8,2.9-3.5,5.9-5.5,8.7c-3.1,4.2-6.1,8.4-7.9,13.1c-0.4,1.1-1.5,1.7-1.8,2.7
		c-0.4,1.2-0.2,2.5-0.6,3.7c-1.3,3.7-1.5,7.5-0.9,11.3c0.1,0.4,0.1,0.9-0.1,1.1c-1.3,0.8-0.5,1.5-0.1,2.3c0.8,1.6,1.3,3.2,2,5.1
		c0.6,0.4,1.6,0.9,2.4,1.4c-0.4,1.1-0.7,1.9-1,2.6c1.3,1,2.4,1.8,3.6,2.8c0.4-0.2,1-0.6,1.8-1.1c5.1,4.4,10.8,7.7,18.2,7.7
		c0-2.8-4.2-2.3-4.9-4.8c1.4-2.2,3-4.4,4.4-6.6c0.5,0.1,3.3-0.6,3.6-0.6c1.1,0,2.5-0.4,3.2,0.1c1.2,0.7,1.9,0.4,3,0.2
		c2.6-0.3,5.2,0.1,7.2-1.8c0.1-0.1,0.6,0.1,0.9,0.1c0.3,0,0.7-0.1,0.7-0.3c0.7-1.8,2.3-1.8,3.9-1.6c3.8,0.3,7.2-0.5,10.4-2.5
		c-0.8-0.8-1.5-1.6-2-2c0.3-1.8,1-3.3,0.8-4.6c-0.4-2-1.4-3.8-2.2-5.9c-0.9-0.3-2.1-0.7-3.3-1.2c0.2-1.4,0.3-2.4,0.5-3.4
		c-0.4-0.2-0.5-0.4-0.7-0.4c-0.7-0.1-1.4-0.1-2.1-0.1c-2.9,0.2-2.9,0.2-3.1-2.2c0-0.4-0.1-0.7-0.1-1.2c1.1-0.3,2-0.7,3.1-1
		c0.1-0.2,0.1-0.4,0.2-0.7c0.6-1.3,1.1-2.6-1.1-3.4c-0.8-0.3-0.8-1-0.2-1.6c0.2-0.3,0-0.8-0.1-1.1c1.8-0.5,3.5-1,5.1-1.5
		c0.5-1.2,0.8-2.3,1.4-3.4c1-1.8,3-3.4,3.1-5.1c0.1-2,1.2-2.5,3-2.7c-0.3-0.8-0.6-1.4-0.9-2c-0.2-0.6-0.8-1.2-0.6-1.6
		c0.3-0.6,1.1-0.9,1.7-1.4c2.6-2.1,2.6-3.2,0.1-5.5c-0.1-0.1,0-0.3,0-0.6c0.7-0.2,1.4-0.3,2.2-0.5c-0.3-0.5-0.6-1-1-1.6
		c1.2-2.2,2.4-4.4,3.7-6.9c-1.5-0.6-1.7-2-1.5-3.5c0.1-0.7,0.1-1.5-0.2-2.2c-0.5-1.3-1.2-2.5-1.8-3.7c1.5-1,2.8-1.8,4-2.6
		c-1-4.6-1.6-5.7,0.6-9.7c0-0.1,0.2-0.1,0.2-0.2c0.3-1.7,0.9-3.4-0.5-4.9c-0.1-0.1,0-0.3,0.1-0.5c0.4-0.1,0.8-0.2,1.2-0.3
		c-0.2-0.4-0.4-0.8-0.6-1.3c1.3-1.4,3.6-2.3,2.9-4.7c-0.1-0.3,0.6-0.7,0.9-1c0.6-0.5,1.3-1,1.9-1.5c0.5-0.4,1-1.2,1.6-1.2
		c0.7,0,1.4,0.6,2.2,1c1.4-1.8,4.3-1,6.1-2.7c1.5-1.5,3.6-2.6,5.8-4c0-1,0.1-2.4,0.1-4c2.4-1.6,2.4-1.8-0.3-4.7
		c2.8-3.9,6.6-7.1,9.7-11.1c0-0.1-0.1-0.6-0.2-0.9c0.7-0.1,1.3-0.2,1.8-0.3c-0.1-0.4-0.1-1.1-0.4-1.2c-2-0.7,0.1-2.3-1-3.2
		c2.1-1.6,1.2-4.4,3.3-6c0.3-0.2,0.2-0.7,0.3-0.9c-0.1-0.3-0.2-0.5-0.3-0.6c-1.4-1-1.9-1.7-0.2-3.2c1.2-1,2-2.6,3.4-3.7
		c0.8-0.6,1.2-1.9,1.3-2.9c0.2-1.6-0.1-3.3,0.2-5c0.3-1.5,1.1-3,1.7-4.6c0.4,0.1,0.9,0.1,1.5,0.2c0.5-1.5,1.3-3,0.3-4.7
		c-0.4-0.7,0-1.9,0.1-2.8c0.1-0.9,0.8-1.9,0.4-2.6c-0.8-1.8-0.3-3.6-0.4-5.4c0-0.5,0.8-1,1.3-1.6c-0.5-1.4-2-2.9,0-4.8
		c-1.5-1.1-2.8-2-4.2-3c0.4-0.5,0.9-1.2,1.1-1.5c-2.3-3.4-5.2-6.2-6.6-9.8c-1.4-3.5-2.3-7.2-2.5-11c0.6,0,0.9,0,1.2,0
		c0.4,0,0.8-0.1,1.1-0.1c0.4-3.1,0.4-6,2-8.8c1.4,2.2,0.3,5.3,3.6,6.7c0.6-0.4,1.2-0.9,1.5-1.1c1.5,0.2,2.7,0.4,3.8,0.6
		c0.5-1.2,0.9-2.2,1.3-3.1c1.9,0,3.4-0.7,3.2-1.8c-0.3-1.3,0.4-1.5,1.4-2c0.5-0.2,0.7-0.9,0.7-0.9c2-0.1,3.5-0.1,5-0.3
		c3.1-0.5,6.1-1.1,9.2-1.6c0.4-0.1,1,0.3,1.4,0.5c2.3,0.6,3.4,0.2,4.6-2.1c1.1,1,2.3,0.8,3.4,0.2c1.4-0.8,2.7-0.9,3.9,0.4
		c0.4,0.4,1.1,0.6,1.8,0.9c0.6-0.9,0.8-2.3,2.4-1.7c2.7,1.1,5.1,0.4,7.3-1c0.6,0.3,1.1,0.5,1.6,0.7c0.6,0.2,1.2,0.4,1.8,0.7
		c3.5,1.5,3.5,1.5,4.8-1.6c0.1-0.1,0.3-0.2,0.9-0.5c0.7,0.6,1.4,1.3,2.3,2.1c2-0.3,3.4,0,3.4,1.4c0,1.3,1,1.5,1.7,2
		c2,1.4,4.3,2.4,6.1,4c1.4,1.2,2.1,0.7,3,0.1c0.3-1.9-3-2.5-1.4-4.8c1.4,1.3,3,2.5,4.1,3.9c1.9,2.3,4.4,2.8,8.1,2.9
		c-1.4-1.7-2.4-3-3.6-4.5c0.6-0.2,1.1-0.4,1.3-0.3c1,0.6,1.9,1.4,3,1.9c1.6,0.9,2.9,2.5,5.2,2.1l-0.1-0.1c0.5,0.7,2.5,0.6,1.6,2.5
		c-1.3,0-2.7,0.1-4.1-0.1c-1.6-0.3-2.3,0.3-3.2,1.4c2.7,1.4,5.4,0.4,7.4-0.3c2.3-0.8,4.1,0.1,6,0.2c0.3,0,0.5,0.8,0.9,1.4
		c-3.6-0.8-3.7-0.8-5.2,1c1,0.2,1.9,0.4,2.7,0.5c0.8,0,1.7-0.3,2.5-0.1c1.5,0.2,2.6,0.1,3.6-1c1.4-1.5,3.7-0.8,6.2-1.3
		c-3-0.9-4.4-3.1-7.3-3c0.3-1.3,0.6-2.4,0.9-3.6c4.5,2.1,8.8,4,12.8,5.9c1.4-0.7,2.4-1.6,3.3-1.5c1.6,0.2,3.4,0.7,4.5,1.7
		c3.3,2.9,7.6,3.8,11.7,5.3c0.9-0.6,1.8-1.1,2.6-1.5c0-1-0.1-1.9-0.1-3.1c2.7,1.2,5.1,2.2,7.6,3.3c1.5-2,3.6-1.2,5.5-0.9
		c0.9,2.1,3.5,2.3,5.3,3.3c2.9,1.5,5.7,3.4,9.5,3.1c2.6-0.2,5.3-0.1,7.8-0.1c1.7,2.3,3.4,4.2,6.7,4.2c0.4,0,0.7,0.4,1.1,0.5
		c1.5,0.5,2.9,1.3,4.6,1.6c2.2,0.3,4.8,0.8,6.4,2c1.4,1,2.8,1.2,4.3,1.7c1.4,0.5,2.8,0.9,4.3,1.4c-0.2-1.7-0.3-3-0.5-4.4
		c-0.6-0.1-1.2-0.3-1.9-0.4c0.4-0.7,0.8-1.2,1.1-1.6c1.7,0.8,3.4,1.5,4.7,2.4c1.3,0.9,2.4,2.1,3.7,3.3c1.2-1.3,2.4-2.7,3.6-4
		c0.2,0.1,0.3,0.2,0.5,0.3c-0.2,1.1-0.4,2.1-0.7,3.4c0.9,0.6,2,1.3,3.5,2.3c0.2-1.3,0.6-2,0.5-2.6c-0.4-1.4,0.2-2.5,0.9-3.7
		c0,0-0.1,0.1-0.1,0.1c0.4,0.1,0.8,0.2,0.9,0.3c0.3-0.9,0.5-1.8,0.9-2.5c0.4-0.8,1.1-1.5,1.7-2.3c0.7,0.1,1.7,0.3,2.8,0.6
		c-0.5,0.1-0.6,0.2-0.8,0.3c-0.1,0-0.2,0-0.3,0.1c0,0.1,0,0.2,0,0.4c0.7,0.2,1.4,0.4,2.2,0.6c0.2-0.8,0.4-1.5,0.5-2.2
		c0.6,0.4,0.6,1,0.8,1.1c1.5,0.5,2.1,1.5,2.8,2.7c0.8,1.4,1.6,1.3,3.4,0l0,0c0.2,1.9,1.1,3.9,0.5,5.6c-0.6,1.8-0.5,3.1,0.4,4.3
		c-1,0.9-1.9,1.6-2.6,2.4c-0.4,0.5-0.7,1.3-0.8,1.9c-0.2,1.7-1.9,3.1-0.5,5c0.5,0.7,0.1,1-1.2,1.1c-1.3,0.1-2.2,0.7-2.3,1.8
		c-0.1,0.9,0.6,1.5,1.8,1.7c0.3,0,0.7,0.2,1.6,0.5c-1.2,0.3-1.8,0.5-2.4,0.6c-0.1,2.1,0.1,4.1-1.8,5.7c1,0.1,2,0.3,2.9,0.4
		c1.3,0.1,2,0.5,1,1.7c-0.1,0.1,0.2,0.3,0.3,0.5c0.7,1.6,2.1,2.3,3.5,2.6c1-0.7,2-1.1,2.6-1.8c0.7-0.8,1-1.8,1.4-2.7l0,0
		c0.2-0.3,0.4-0.6,0.7-1c0.8,0.4,1.6,0.9,2.4,1.3c1.6-2.9,3.5-3.9,6.7-3.3c-0.4,0.6-0.7,1.1-1,1.6c-0.8-0.3-1.4-0.5-2.4-0.9
		c-0.1,1.5-0.4,2.6-0.2,3.8c0.2,1.8,0.7,3.6,1.1,5.4c-0.2-0.1-0.5-0.3-0.7-0.4c-1,1.1-2.1,2.2-3.4,3.7c-0.3-1-0.5-1.8-0.8-2.4
		c-0.4-0.7-1-1.3-1.5-2.1c-1.4,0.6-2.4,1.1-3.3,1.5c0.1,0.9,0.1,1.7,0.2,2.5c-1-0.5-1.7-0.8-2.8-1.4c0,0.9,0.1,1.4,0.1,1.8
		c-0.1,2.5-0.1,2.4-3.1,3c-0.4,0.1-1,0.3-1,0.5c-0.3,1.9-2.3,1.6-4.3,2.5c1.2-2.7,2.2-4.9,3.1-7.1c-0.2-0.1-0.3-0.3-0.5-0.4
		c-0.8,0.5-1.5,1.2-2.3,1.4c-0.9,0.3-1.9,0.2-2.9,0.2c0.4,1.3,0,2.3-1.6,2.8c-0.6,0.2-1.1,0.3-1.8,0.5c-0.1-0.6-0.1-0.9-0.1-1.3
		c-2.8-0.1-3-0.2-4.8-1.9c-0.8-0.8-0.8-1.2,0.5-1.5c1.3-0.2,1.6-1,2.4-2.1c-3.1,1.5-5.7,1.7-7.8,0.6c0.5-0.6,1.1-1.3,1.8-2.1
		c-0.9-0.6-1.8-1.2-2.7-1.8c-0.5,1.3-0.9,2.2-1.3,3.2c0.6,0.1,1.1,0.2,1.5,0.2c0.1,3.8-2.4,5.5-6.4,4.3c-0.6,1.1-1.2,2.2-1.7,3.2
		c-0.9-0.3-1.7-0.8-2.3-0.7c-1.1,0.2-2.1,0.5-3.3-0.1c-1-0.5-2,0.1-1.6,1.2c0.3,1-0.1,1.6-1,1.7c-0.7,0.1-1.7-0.1-2.3-0.4
		c-0.6-0.4-0.9-1.2-1.3-1.8c-1-0.1-1.9-0.2-3.2-0.3c0.5-0.8,0.9-1.4,1.5-2.3c-1.6-0.4-3-0.8-4.6-1.3c0.5-0.7,0.8-1.2,1.2-1.7
		c-1.5-0.3-2.7-0.5-4.3-0.8c0.7-1.1,1.3-1.8,1.6-2.4c0.8,0,1.4,0,2.2,0c0-1.6-0.2-3.1,1.6-4.1c0.6,0.3,1.2,0.7,1.8,1.1
		c1.2,0.8,2.3,0.5,2.9-0.5c1-1.7,2.3-2.5,4.6-2.6c2-0.1,2.4-1.1,0.9-2.5c-1.1-1-1.3-1.8-0.4-2.7c0.3-0.3,1.1-0.2,1.9-0.4
		c-1.1-0.8-1.9-1.5-2.8-1.9c-0.9-0.4-1.9-0.6-3.3-1.1c1.6-0.1,2.7-0.2,3.8-0.3c1,0.6,0.7,3.1,3.1,1.9c-0.8-2.1-0.8-2.1-3.2-1.8
		c0-0.3,0.1-0.9,0-0.9c-2-0.5-4-1.2-6.1-1.5c-1.7-0.2-3.5-0.2-4.7,1.3c-0.2,0.3-1,0.4-1.4,0.3c-1.4-0.4-2.8-1-4.3-1.5
		c0.1-0.4,0.1-1.2,0.4-1.2c2.3-0.7,1.4-2.6,2.1-3.9c0.2-0.4-0.3-1.3-0.8-1.6c-1-0.7-1.5-2-3.3-1.8c-0.5,0.1-1.5-0.7-1.7-1.3
		c-0.3-0.9-0.1-2-1.6-2c-1,0-1.9,0-2.9,0.2c-0.3,0-0.6,0.9-0.5,1c1.2,0.9,1.5,2.5,3.2,2.9c0.2,0,0.4,0.4,0.5,0.5
		c-0.5,0.7-1,1.3-1.6,2.1c-1.9-1.4-4.4,1.1-6.2-1c0,0-0.5,0.3-0.7,0.4c-1.5,0.6-2.4,0.2-2.6-1.2c-0.1-0.7-0.1-1.5-0.2-2
		c-2-1.5-2.6,1.4-4.4,0.8c0.1-0.7,0.2-1.3,0.3-1.9c-4.9-0.7-9.7-1.3-14.6-2c-2.1-0.3-3.5-1.6-5.3-2.3c-2.4-0.9-5-1.5-7.5-2.1
		c-1.3-0.3-2.3-0.8-2.1-2.5c3.2,0.6,6.3,1.2,9.4,1.8c1.6,0.3,3.1,0.7,4.7,0.9c0.9,0.1,2.4-0.1,2.6-0.6c0.8-1.5,2.1-0.8,3.2-0.8
		c0.7,0,1.3,0.3,2.3,0.5c-1.1-2-2.6-2.9-4.7-2.9c-2.2,0-4.2-1.1-6.5-0.3c-0.4,0.1-1.4-0.4-1.7-0.9c-1.1-1.5-2.6-1.8-4.5-2
		c-4.2-0.4-8.3-1.2-12.1-2.9c-0.4-0.2-0.7-0.8-1-1.2c0.6-0.3,1.2-0.8,1.8-0.8c0.9,0.1,1.8,0.6,2.7,0.8c1.3,0.3,2.6,0.8,3.9,0.9
		c1,0.1,1.8-0.5,1.4-1.5c-1.3-0.5-2.4-1.1-3.6-1.4c-2.3-0.5-4.6-1.5-7.1-0.4c-0.4,0.2-1,0.2-1.5,0.1c-1.9-0.2-3.9-0.5-5.8-0.8
		c-1.4-0.2-2.5-0.4-3.6,0.8c-0.6,0.6-1.4,1.6-3.1,0.9c-0.8-0.4-2.4,0-3.7,1.3c2,0,3.5,0.1,4.8,0.1c0.7,0.6,1.3,1.7,2.1,1.8
		c2.7,0.3,4.6,1.7,6.5,3.3c-1.7-0.6-3.5-0.1-5.2-1.3c-1-0.7-2.7-0.9-4.4-0.9c-2.6,0-5.6-0.6-7.7-1.9c-1.6-1-2.8-1.3-4.4-0.9
		c0,0.4,0,0.9,0,1.4c-2.2-0.3-4.3-0.3-6.5,0.3c-1.4,0.3-3.1,1.4-5-0.1c2.8,1.8-0.2,3.5,0.6,5.2c-5,1.6-9.9,4-15.3,1.5
		c-0.9,2.2-3.8,0.9-4.6,2.3c-0.1,3.2,2.3,5.1,4.3,7.6c1.3-2.4,3.8-1.4,5.7-2.2c0.5,0.9,0.9,1.9,1.4,2.8c2.6-0.5,0.6-3.4,3.1-3.9
		c1.8,1.4,0.4,4.7,3.9,5.5c0.6-1.9-0.3-4.2,1.9-5.9c2,2.8,3.9,5.4,5.8,8.2c1.1,0.1,2.5,0.1,3.3,1.4c0.7,1.2,2,0.9,3.1,0.5
		c0.9-0.3,1.6-0.8,2.5-1.3c1,0.4,2.5,0.7,3,1.4c1.1,1.5,2.4,2.7,3.8,4c1.5,1.4,3,2.4,5,3.4c0.4-0.9,0.7-1.6,1.1-2.5
		c1.5,0.9,3.6,1,3.8,3.1c0,0.3,0.6,0.8,1,0.9c1.6,0.7,3.2,1.4,4.8,2.1c0.5,0.2,1.4,0.5,1.5,0.8c0.7,2.1,2.9,2.4,4.7,2.8
		c1,0.2,1.7,0.5,2.3,1.2c0.3,0.4,0.6,0.8,1,1c2,0.8,4.1,1.4,6,2.3c1.8,0.8,3.9,1.6,5.2,2.9c2,1.9,4,3.5,7,4.1
		c0.5,0.1,1.2,0.3,1.3,0.7c0.4,1.1,1.5,1.2,2.5,1.4c3.6,0.9,5.8,3.4,7.3,5.9c1.5,2.5,2.9,4.9,5.5,6.6c0.7,0.4,1.1,1.1,1.6,1.6
		c-0.5,1.2-1,2.2-1.4,3.2c1.7,1.8,3.2,3.7,5.1,5.1c2.2,1.6,2.7,3.4,1.8,5.6c-1.4,0.1-2.4,0.3-1.2,1.9c0.2-0.2,0.4-0.4,0.6-0.5
		c0.4-0.2,0.8-0.3,1.1-0.4c0,0.5,0.1,1.2-0.2,1.4c-0.5,0.4-1.7,0.7-2,0.5c-2.4-1.9-5.4,0.1-8-1c-0.3-0.1-1.2,0.1-1.4,0.4
		c-1.1,1.4-2.5,2.9-2.8,4.5c-0.3,1.5-1.3,1.9-2.4,2.2c-1.6,0.4-2.7,0.9-3.6,2.2c-0.7,1-1.5,2-3.1,2.4c-0.8,0.2-1.3,1.3-2,2
		c-1.1,1.1-2.3,2.3-3.8,3.7c-0.1,0.6-0.3,1.7-0.5,2.9c-3.4-0.2-6.4,1.1-8.3,2.9c-2,1.9-3.7,2-6.2,1.6c-2.2-0.3-4.4-0.1-6.4,1.1
		c-0.8,0.5-2.1,0.6-3.6,0.9c0.5-2.4-1.4-2.6-2.8-3.3c0.1-0.5,0.1-0.9,0.2-1.2c-2.4-1.2-4,1.7-6.5,0.4c0.7-0.5,1.2-1.2,1.9-1.3
		c2.9-0.6,3.9-3.2,6.4-4.3c0.6-0.2,1-1,1.2-1.6c0.4-1.4,1.7-2.5,1.3-4.1c-0.1-0.3,0.3-0.8,0.6-1.2c0.9-0.9,1.8-1.8,3-2.9
		c-1.6-1.1-3-2.1-4.6-3.2c0.4-0.7,0.8-1.5,1.2-2.4c1,0.1,1.9,0.4,2.6,0.3c1.3-0.2,3.2-0.3,3.8-1.1c1.7-2.2,4.3-3.4,6.7-5.3
		c-1.3-1.5-2.6-3.1-3.7-4.5c0.9-1.2,1.6-0.9,2.4-0.4c0.6,0.4,1.4,0.6,2.1,0.9c-1-1.6-0.1-4-3.1-4.5c1-1,1.6-1.8,2.4-2.5
		c2.9-2.6,2.2-6.2-1.6-7.8c-1.1-0.4-2.3-0.8-3.1-1.5c-1.2-1-1.9-2.5-3.1-3.4c-1.3-0.9-3-1.2-4.4-1.9c-4.2-2-7.8-5-12.3-6.8
		c-4.3-1.7-8.9-2.4-13.3-3.6c-0.3-0.1-0.8,0.1-0.9,0.1c0.9,4.4,1.7,8.7,2.7,12.9c1.4,5.7-0.7,10.8-3.4,15.8c-2,3.7-5.2,6.8-8.7,9.5
		c-2.5,2-5.7,3.1-9.3,2.6c-3.5-0.5-6-2.2-8-4.6c-1.5-1.8-2.5-4.1-5.2-4.3c-3.2,0.6-5.2,1.8-5.4,4.5c-4.6,0-4.9-0.7-3.5-4.3
		c1-2.6,2.4-5.3,1.1-8.2c-0.2-0.4-0.1-1.2,0.2-1.6c1.5-2.1,0.4-3.6-1.1-4.9c-1.5,0.4-2.7,0.8-4.1,1c-1.3,0.2-2.6,0.1-3.9,0.1
		c-1.2,0-2.9,0.8-3.1-1.2c0.8-0.2,1.7-0.2,2.3-0.6c1.3-0.7-0.5-1.1-0.4-1.7c0.5-0.5,1-0.9,1.4-1.3c-3.6-2.5-6.1-3-10.3-1.9
		c1.2,1.2,2.4,2.3,3.8,3.6c-1.1,0.3-1.8,0.5-2.5,0.6c1.2,3-0.6,5.3-1.7,7.8c0.4,0.5,0.8,1,1.3,1.8c-1,0.7-1.9,1.4-2.8,2
		c-0.8-1-1.2-1.7-1.9-2.3c-0.7-0.5-1.6-0.7-1.8-0.8c-0.4-1.3-0.6-2.2-1-3.5c0.2-0.3,0.6-0.9,1.1-1.7c-3.4-0.6-7.5,0.7-8.5,3
		c-0.7,1.6-2.3,3.2-0.9,5.2c0.3,0.4-0.3,1.3-0.5,1.9c-4.1,0.3-5.5,3.5-8.4,5.1c1.1,0.6,1.8,1,2.6,1.4c-1.4,1.1-1.3,3.2-3.9,3.4
		c-0.8,0.1-1.6,1.4-2,2.2c-0.8,1.8-0.7,3.8-0.4,5.7c0.1,0.9-0.2,1.8-0.3,2.9c0.8,0.5,2.3,1,1.5,2.6c-1,0.6-2.7-0.1-3.2,1.3
		c1,0.8,1.7,0,2.6-0.2c0.4-0.1,1.2,0.1,1.3,0.3c0.2,0.3,0,0.9-0.2,1.2c-0.3,0.3-0.9,0.5-1.3,0.7c-1.2,0.5-2.4,0.9-3.5,1.3
		c1.4,0.7,2.7,1.2,4,1.8c0.6-0.2,1.4-0.5,1.9-0.7c0.1-0.5,0.1-0.9,0.3-1.7c1.8,2.6-1.4,2.3-1.7,3.7c0,0.1-0.1,0.5,0.1,0.8
		c1.2,2.1,0.5,4.2-0.1,6.3c-0.1,0.3,0,0.7-0.1,1c-0.5,2-2.3,3.2-4.8,2.9c-1.4-0.1-2,0.4-2.3,1.4c-0.1,0.6,0.1,1.3-0.1,1.9
		c-0.5,1.6-1.1,3.2-1.6,4.7c-0.7-0.4-1.4-0.8-1.9-1.2c-1.7,1.2-1.2,2.5-0.4,3.4c1.1,1.3,2.6,2.7,4.2,3.2c1.8,0.6,2.8,1.7,4.4,2.7
		c-3.6,1.1-0.8,4.2-2.6,5.8c-0.8-0.6-1.6-1-2.8-1.9c0.2,1.6,0.4,2.4,0.5,3.4c1.3-0.3,2.5-0.6,3.8-0.9c-0.4,1.1-0.7,1.9-1.1,3
		c-1.7-0.8-2.5-0.4-2.6,1.3c1,0.8,2.1,1.6,3.4,2.6c-0.9,1.9-1.8,3.9-2.8,6.1c0.3,0.3,0.8,1.1,1.5,1.3c1.4,0.5,2.2,1.2,2.9,2.5
		c0.6,1.1,1.5,2.4,3.6,2.4c1.5-0.1,2.2,1,1.6,2.1c-0.5,1.1,0.1,1.7,0.6,2.6c1.8,3.2,4.7,5.6,7.7,8c0.8,0.6,1.6,1.6,1.7,2.5
		c0.2,2.1,1.1,3.8,2.7,5.5c1.4,1.5,2.5,3.2,3.6,4.9c0.8,1.4,1.2,3,2,4.3c1.3,2,2.7,3.9,3.4,6.3c1,3.6,1.9,7.1,2.2,10.8
		c0,0.3,0,0.9-0.2,1c-1.5,0.6-1.2,1.6-0.9,2.6c0.5,1.9-0.4,3.6-1.3,4.9c-1,1.4-1.5,3-2.6,4.3c-1.2,1.5-1.8,3.5-4.4,4
		c-1.4,0.3-2.6,1.1-3.8,1.9c-1.5,1-4.5,2.1-6.1,2c-0.8,0-1.7,0-2.5,0c-2.2,0.1-4.8,0.9-6.5,0.2c-2.8-1.2-4,0.1-5.7,1.3
		c-1,0.7-2.4,1.8-3.2,1.5c-2.4-0.6-4.1,1.2-6.2,0.8c0,0.7,0.1,1.3,0.1,1.8c-1,0.1-1.8,0.2-2.6,0.2c-2.2-0.1-4.8,0.2-6.4-0.7
		c-1.5-0.8-2.7-1.4-4.3-1.3c-0.4-0.7-0.6-1.2-1-1.9c-0.8,0.7-1.5,1.7-1.8,1.6c-2.1-0.7-2.3,0.8-2.9,1.8c-0.5,0.7-1,1.4-1.6,2.2
		c-2.9-0.8-5-2.5-7-4.2c-1.3-1.1-2.6-2-4.6-2.1c0,1.1,0,2,0.1,3c0.7,5,0,10-1.2,14.9c-0.8,3.1-2.1,6.2-1.3,9.3
		c1.1,4.5,2.4,9,4.1,13.4c0.9,2.2,2.2,4.6,4.6,6c4,2.4,8.6,3.4,13.3,3.4c0.6,1.1,1.3,2.1,1.8,3.1c1.5,0.2,2.8,0.4,4,0.5
		c0.6,0,1.3,0.1,1.7-0.1c1.2-0.8,1.9-0.2,2.8,0.5c0.7,0.6,1.5,1.1,2,1.4c1-0.8,1.5-1.7,2.2-1.7c0.9-0.1,1.9,0.4,2.9,0.6
		c0.7-1,1.5-2,3.3-1.6c0.9,0.2,1.8,0.1,2.6,0.3c0.7,0.1,1.6,0.4,1.9,0.8c0.9,1.6,2,2.2,4.1,1.9c1-0.2,2.1,0,3.1,0.2
		c0.8,0.2,2,0.1,1.7,1.4c-0.1,0.3,0.7,1,1.2,1.1c1.8,0.5,3.6,0.9,5.4,1.3c0.7-0.6,1.4-1.1,2-1.6c2.5,2.3,3.1,2.3,6.4,0.6
		c0.3,0.8,0.7,1.5,1,2.2c3.4,1.2,7.1,1.4,10.6,2.5c2.8,0.9,5.9,0.9,8.9,1.2c1,0.1,2.2-0.5,3-0.1c2,0.7,3.9,0.9,6,1.1
		c3.4,0.2,6.8,0.5,9.9,1.9c3,1.4,5.9,3,8.7,4.6c1,0.5,1.3,1.8,0.4,2.1c-1.7,0.6-3.2,2.2-5.2,1.5c-1.9-0.6-3.5-0.2-5.1,0.6
		c-1.3,0.6-2.6,0.7-3.9-0.1c-0.8-0.5-1.6-1-2.5-0.1c-0.2,0.2-0.9,0.2-1.4,0.2c-1-0.1-2-0.2-3-0.4c-0.1,0-0.2-0.2-0.4-0.4
		c0.5-0.3,0.9-0.5,2-1.1c-1.1-0.1-1.8-0.4-2.2-0.2c-1.8,0.6-2,2.1-2,4c-2-1.6-4.7-0.9-6.3-2.8c-0.4-0.4-1.6-0.5-2.4-0.5
		c-1.4,0.2-2.9,0.6-4.3,0.9c1.7,2.2,1.9,3.3,0.7,5.4c-1.9-4.9-5.4-7.8-11.7-7.2c-0.3,0-0.6,0-1-0.1c-4.8-1.1-9.7,0.2-14.5-0.2
		c-0.1,0-0.2,0.2-0.4,0.5c0.5,0.8,0.9,1.6,1.4,2.3c-2.2,1.1-2.2,1.1-4.1,0.3c-2.1-1-4.5-0.8-6.5-0.6c-2.7,0.3-2.7,0.7-3-1.6
		c-0.1-0.5-0.2-1.1-0.3-1.5c-2.2-0.6-4.2-0.5-6.2,0.2c-0.3,0.1-0.8,0.3-0.9,0.2c-1.8-1.7-3.4,0.4-5.4,0.2c-0.2-0.4-0.7-1-0.7-1.6
		c-0.2-1.8-0.9-2.7-2.7-2.9c-0.7-0.1-1.4-0.2-2.4-0.4c0.7-1,1.1-1.7,1.7-2.5c-0.5-0.9-0.8-1.9-1.5-2.8c-0.6-0.8-1.4-1.4-2.3-2.3
		c-1.4,0.5-2.8,1.1-4.2,1.6c-0.5-0.4-1-0.8-1.7-1.4c-0.5,0.7-1,1.3-1.4,1.9c-0.3,0.4-0.4,0.9-0.8,1c-3.2,1.4-4.6,4.1-5.9,6.7
		c-0.7,1.4-1,2.9-1.5,4.4c-1.1,3.4-0.8,6.8,1.2,9.9c1.8,2.8,3.7,5.6,5.8,8.2c1.7,2.2,3.9,4.1,5.9,6.1c0.5,0.5,1.3,1.1,2,1.3
		c2.7,0.7,4.7,2.4,6.8,4c-0.2,0.5-0.3,0.9-0.5,1.3c-2,5.9-4.2,11.8-5.2,18c-2,12.8,2.2,23.9,11.4,33.7c5.4,5.8,12.4,10.1,19.5,14.3
		c0.3,0.2,0.5,0.3,0.8,0.4c3.2,0.6,6.4,1.3,9.7,1.9c2.5,0.4,5,0.6,7.4,1.5c2.1,0.8,4.2,1.8,6.6,0.9c0.2-0.1,0.4,0.1,0.6,0.1
		c3.6-0.2,7.2-0.4,10.8-0.7c1.3-0.1,2.6-0.4,3.9-0.6c0.1-0.3,0.2-0.6,0.4-1.4c2.1,2.4,4.2,3.9,7.4,3.5c2.7-0.3,5.7,0.7,7.8-1.7
		c0.5,0.5,0.9,1.1,1.4,1.7c1.9-0.7,3.2-2.1,5.3-2c0.3,0,2.1-0.7,1.5-2c-0.1-0.2,0.4-0.8,0.8-0.9c1.3-0.3,2.4-0.7,4.1-0.5
		c2.4,0.4,5.2-0.1,7.7-0.8c2.8-0.7,5.4-2.1,8.6-3.3c0,0,0.7,0.2,1.3,0.4c0.3-0.4,0.4-0.7,0.6-0.9c1-1.2,1.8-2.7,4-1.3
		c0.3,0.2,1.2,0,1.4-0.3c0.8-1,1.9-0.6,2.9-0.6c2,0,4.3,0.7,5.5-1.6c0.1-0.2,0.8-0.1,1.2-0.2c1.7-0.9,3.9-0.8,5.4-1.5
		c2.5-1.1,4.8-1.3,7.4-1.2c1.2,0.1,3-0.7,3.5-1.6c0.8-1.5,1.7-1.7,3.1-1c2,1,3.5-0.1,5.2-0.8c1.9-0.9,3.8-2.3,5.8-2.4
		c2.2-0.1,3.5-1,4.8-2.1c1.9-1.6,3.9-3.1,6.1-4.4c0.3-0.2,0.6-0.5,0.7-0.9c0.8-2.2,1.2-2.4,3.7-2.6c1.5-0.1,3-0.6,4.5-0.9
		c0.2,0,0.4,0.1,0.6,0.1c0,0.3,0.1,0.7,0.2,1.4c3.3-1.1,6.5-1.9,9.2-4.2c-0.7-0.3-1.2-0.6-1.7-0.8c0.5-0.6,1.5-1.3,1.3-1.7
		c-0.8-2,1.1-2.6,2.2-3.5c0.3-0.3,0.6-0.5,1-0.7c-0.3-0.6-0.5-1.2-0.7-1.7c0.9-0.7,1.7-1.3,2.3-1.8c-0.1-0.8-0.2-1.5-0.3-2.3
		c2.2-0.2,4.2-0.3,6-0.5c0-1.4,0.1-2.7,0.1-3.7c-1.3-0.2-3,0.3-3.7-1.8c1.5,0,2.8,0.1,4.1,0.1c-0.3-0.8-1.1-1.9-0.8-2.4
		c0.9-1.4,2.1-2.8,3.5-3.9c1.6-1.3,1.7-1.1,0.4-3.1l0.1,0c2.2-1.7,2.2-1.7,1.2-3.3c1.9-2.4,3.7-4.7,5.6-7c-0.5-0.9-0.9-1.7-1.2-2.2
		c0.5-1.1,0.9-2,1.4-3.1c-2-0.2-3.6-0.5-5.2-0.3c-1.8,0.2-3.2,0.1-3.8-1.2c-0.5-1.1-0.8-2.2-1.1-3.3c0.5-0.3,0.7-0.4,0.9-0.4
		c2.7-0.3,3.1-2.1,3.3-4c0-0.1-0.2-0.3-0.5-0.5c-0.7,0.5-1.3,0.9-2.4,1.7c0-1.2-0.1-2-0.1-2.9c-2.1,0.1-2.7-1.4-3.8-2.6
		c0.1,1,0.2,1.9,0.3,3.1c-0.4,0.4-0.9,1.1-1.5,1.8c-0.3,0.3-0.8,0.5-1.3,0.8c0.7,0.3,1.3,0.5,2,0.7c-0.7,0.8-3.2,0.8-1.8,2.3
		c0.8,0.9,1.2,1.5,0.8,2.6c-0.2,0.7,0.5,1.7,0.8,2.6c0.5-0.3,0.9-0.5,1.2-0.7c2.2-0.9,2.4,1.7,4.1,1.8c0.3,0,0.8,0.5,1,0.9
		c0.1,0.3,0,0.9-0.2,0.9c-1.9,0.8-2.4,2.7-4.2,3.6c-0.5-0.8-0.8-1.5-1.3-2.2c-0.4-0.6-0.9-1.3-1.5-1.7c-1.4-0.9-3.4-1.4-2.3-3.6
		c0-0.1-0.4-0.3-0.6-0.5c-0.8-0.7-1.6-1.4-2.3-2.2c0.7-1.2,1.3-2.5,0.9-3.4c-0.6-1.4-0.1-2,1.1-2.7c1.4-0.8,2.6-4,1.8-5.2
		c-1.2-1.8-1.8-3.7-1-5.8c-0.7-0.1-1.3-0.3-1.7-0.2c-2.4,0.8-3.8-0.7-5.1-1.9c-0.8-0.7-0.8-1.6,0-2.5c0.9-1,1.6-2.2,2.2-3
		c2.3-0.8,2.6,1.4,4.3,2.4c0.5-0.9,1.2-1.6,1.1-2.3c-0.1-1.7-0.6-3.4-1-5.3c-0.5,0.5-0.9,0.9-1.2,1.3c-2.4-0.7-0.8-2.7-1.9-3.7
		c0.8-0.7,1.4-1.3,1.7-1.6c-1-1.7-1.9-3.2-2.8-4.9c-4.8,0.4-3.7,4.5-5.2,7c-1.6-1.3-0.4-2.8-1-4.1c-0.4,0-0.8-0.1-1.3-0.1
		c0.2-0.4,0.2-0.6,0.3-0.7c0.8-0.4,2-0.7,2.2-1.2c0.3-0.8-0.3-1.7-0.3-2.6c-0.1-2.2-0.7-4.5,1.7-6.1c0.3-0.2,0.7-0.6,0.7-0.9
		c0-2.3,0.2-4.6-0.1-6.8c-0.3-1.8-0.1-2.6,1.7-3.4c0.8-0.4,1.7-0.7,2.4-1.2c1-0.7,1.2-1.4-0.1-2.1l0.1,0.1c1.1-1.3,2.2-2.7,3.3-4
		c-1.6-1.5-2.8-0.3-3.8,0.5c-2.2,1.7-4.5,2.4-7.3,1.3c0-0.6-0.1-1.3-0.2-1.9c-0.9,0.7-1.7,1.3-3,2.3c-0.1-1.2-0.5-1.9-0.2-2.4
		c0.7-1.7,2.4-1.1,3.7-1c0.5,0.7,0.9,1.3,1.5,2.1c0-1.7,0.1-3,0.1-4.5c1.3-0.1,2.5-0.3,3.7-0.3c1.3,0,2.2-0.8,2.1-1.7
		c-0.4-2.1,1.2-3.2,2.5-4.2c-1.1-2.1-2.8-1.4-4.6-1.3c-0.2,0.6-0.2,1.2-0.5,1.7c-0.3,0.5-0.9,1.2-1.4,1.2c-0.5,0.1-1.3-0.5-1.7-0.9
		c-0.6-0.8-1-1.7-1.5-2.6c-2,2.3-2.4,2.4-4.5,0.9c-0.3-2.4,1.5-3.5,3.2-4.7l-0.1,0c0.9-2.2,0.5-4.9,4-6.3c0.9,0.6,2,1.4,3.4,2.3
		c0.6-0.8,1.4-1.7,2.1-2.6c0.9,0,1.9,0,3.2-0.1c-2.2,2-2.2,2-0.4,4c0.8,0.9,0.8,1.6-0.3,2.3c-1.3,0.9-2.4,1.9-3.7,2.9
		c1.1,0.6,1.9,1.1,2.8,1.6c1.1-1.1,2.1-2,4-2.2c1.3-0.1,2.6-1.2,3.5-2.1c0.5-0.4,0.1-1.5,0.2-2.3c0.3-1.9,0.7-3.8,1.1-6.2
		c-0.2-0.3-0.6-1.1-1.1-2c2.5,0.1,2.6-1.7,3.1-3c0.2-0.4-0.9-1.1-1.4-1.7c-2.3,1.3-4.9,1.4-7.5,0.4c1.1-2.8,1.1-2.8,4.7-3.1
		c1.1-0.9,2.1-1.8,3.2-2.7c0.7,0.8,1.1,1.2,1.5,1.6c0.6-0.9,1.1-1.7,1.5-2.5c-0.5-0.9-1.1-1.7-1.6-2.6c-2.2,0.1-2.5,1.9-3.7,2.9
		c-2.3-1.6-2.2,1.8-4.3,1.3c1-2.6,1.9-5.1,2.9-7.8c0.8,0.4,1.5,0.8,2.5,1.3c-0.3-1.4-0.9-2.4-0.6-3.2c0.7-1.8,1.8-3.5,2.8-5.2
		c1.1-1.8,2.3-3.4,3.7-5.6c1.6,0.1,3.7-0.5,3.9-2.6c0.2-1.6,2.6-2.8,0.7-4.7c2.6-0.5,4.6,0.8,3.5,2c-0.8,1-0.1,1.9-0.8,2.6
		c1.2,0.3,2.3,0.9,3.5-0.1c0.5-0.4,1.6-0.3,2.4-0.4c-0.5,1.1-3.2,0.6-2.3,2.9c0.9-0.1,1.8-0.1,3.3-0.2c-0.4-1.1-0.7-1.8-1.1-2.6
		c0.2-0.4,0.5-1.2,0.6-1.2c1.5,0.5,2.6-0.3,3.8-1c-0.1-0.7-0.3-1.4-0.5-2c1.9-1.2,3.9-0.7,5.8-0.2c0.6-0.7,1-1.3,1.6-1.8
		c1.5-1.2,2.5-2.4,2.2-4.3c-0.2-1.1-0.2-2.3-0.1-3.5c0-0.6,0-1.3,0.3-1.8c0.9-1.3,1.9-2.5,2.9-3.8c-0.4-0.7-0.7-1.3-1.1-2
		c2.8-1.4,2.1-3.5,1.9-5.6c-1-0.1-1.9-0.3-3.2-0.4c2.2-1.2,4-2.2,5.8-3.2c-0.1-0.2-0.1-0.3-0.2-0.5c1.3,0,2.7,0.1,4.1,0.1
		c0.2-1.4,0.3-2.5,0.5-3.5c1.4-0.5,2.5-0.9,3.7-1.3c-0.6-2.3,2.3-2.8,2.6-4.7c0.9,0.3,1.6,0.5,2.4,0.7c1.2-1.4,1.2-3.5,3.3-4.5
		c0.3-0.1,0.3-1.2,0-1.5c-0.8-0.9-0.3-1.7-0.2-2.6c0.6-3.9,0.7-4,5.3-3.4c2.4,0.3,4.5-0.9,4.4-2.8c-0.1-1.6-0.7-3.2-1.2-4.8
		c-0.1-0.2-0.6-0.4-0.9-0.6c0.4-0.3,0.9-0.5,1-0.8c0.8-1.9,1.4-3.8,2.2-5.6c0.9-1.9,2.2-3.4,4.7-4c0.6-0.2,1-0.9,1.8-1.7
		c2.7-0.4,0.7,3.1,2.9,3.5c0.8-0.9,1.5-2.6,2.4-2.6c1.3,0,2.3-0.2,3.2-1.1c0.4,0.6,0.7,1.1,1,1.6c0.2,0,0.4,0,0.6-0.1
		c0.2-1.1,0.3-2.2,0.5-3.3c1.5,0.4,2.6-0.7,2.6-1.7c0-1.7-0.7-3.3-1.1-5c-1,0.1-1.8,0.2-2.7,0.2l0,0c0.9-1.2,1.6-2.6,3.7-2.7
		c0.4,0,1-0.8,1.1-1.3c0.3-1,0.8-0.8,1.5-0.5c-0.1,0.9-0.7,2.1-0.3,2.7c0.8,1.2,0.2,1.9-0.5,2.7c-0.5,0.6-0.8,1.3-1.3,2
		c2.5,0.8,3.9,0.3,6.3-2.3c-0.6-1.1-1.1-2.2-1.6-3.1c1.7-2.6,5.1-3.5,6.2-6.3c2.1-0.3,4.3-0.6,7-0.9c-0.9,1.1-1.4,1.7-1.9,2.4
		c1.5,1.4,2.7,0.4,4.2-0.1c-1.2-2.7,0.1-4.7,1.6-6.8c0.9,0,1.7,0.5,2.3-0.7c0.9-1.9-0.9-2.4-1.8-3.5c-1.5,0.7-2.9,1.3-4.4,1.9
		c0.1-0.5,0.7-0.7,0.7-0.9c0.1-1.2-1.4-2.6-2.9-2.9c-1.2-0.2-1.4-0.8-0.6-2c1.2-2,1.1-2.9-0.9-4.2c-0.3-0.2-0.8-0.3-0.8-0.3
		c0.8-3.9,2-5.1,5.2-5.5c-0.4,0.9-0.7,1.8-1.2,2.9C511.2,312.3,512.4,312.3,513.5,312.2z M250.9,280.8c0-0.2,0-0.3,0.1-0.5
		c1,0.2,1.3-0.2,1.4-1.1c0-0.3,0.3-0.8,0.7-1c1.6-0.6,5.1,0.2,6.2,1.4c1.6-0.1,3.1-0.2,4.5-0.3c1.2-0.1,1.8-0.5,1.3-1.6
		c-0.1-0.3-0.3-0.7-0.4-1c0.3-0.2,0.4-0.3,0.6-0.4c3.6-2.2,3.7-4.5,0.3-7.1c-0.9-0.7-1.9-1.4-2.1-2.3c-0.5-1.6-0.5-3.3-0.8-5.1
		c2.3,0,3.6,3.3,6.5,2c0.9-1.6,1-3.1-0.2-4.7c-1.1-1.4-2.2-2.9-3.3-4.3c-1-1.2-2.2-2.4-2.4-4.1c4.9,2,7.7,6.2,13.4,7.8
		c-0.3-0.9-0.3-1.7-0.7-2c-2.3-1.5-3.4-3.7-5-5.6c-1.1-1.3-1.9-2.6-2.8-4c2.7-1.3,2.7,1.9,5.2,2.1c-1.1-2.1-1.9-3.8-2.9-5.5
		c-0.5-0.9-1.2-1.3-2.6-1c-1.3,0.3-2.7,0.3-4.2-0.2c-2.3-0.8-5-0.3-7.1,0.3c-2.6,0.7-5.6,0.8-7.4,3.4c0,0.5-0.1,1.3-0.2,2.1
		c0.6,0.2,1.2,0.4,2,0.7c-0.8,1-1.8,1.8-2.2,2.8c-0.4,1-1,1.9-0.6,3.3c0.9,2.8,3.6,4.4,5.1,6.8c0.1,0.1,0.9-0.1,1.1-0.1
		c0.4,1,0.6,2,1.1,2.9c0.8,1.5,1,2.8-0.6,4.1c-1.1,0.9-0.9,2.2-0.2,3.3c0.3,0.5,0.7,1,1.1,1.6c-3.3,0.9-6.9,0.3-9.2,2.3
		c0,1.1-0.1,2,0,2.9c0,0.3,0.5,0.6,0.8,0.9c-0.3,1.3-0.5,2.7-0.9,4c-0.3,1-0.7,2.1,0.6,2.6c1.2,0.5,2.1,0,2.8-1.1
		c1-1.6,2.2-2.9,4.5-3.6C253,281.4,252,281.1,250.9,280.8z M530.7,287.9c0.9,0.3,1.9,0.6,2.8,0.9c0.4-0.7,1-1.3,0.9-1.7
		c-0.3-2.2-1.9-4.2-1.8-6.6c0.1-1.2-1.3-2.4-2-3.6c-0.5,0.7-0.4,1.3-0.3,1.9c0.3,2.1,1.5,4.2,0.4,6.4c-1-1.2-2.7-2.3-2.7-3.5
		c-0.1-1.8-1.1-4.1,1.4-5.5c0.3-0.2,0.2-1,0.3-1.4c-0.9-0.6-1.7-1.1-2.5-1.5c-0.1,0-0.2,0-0.5,0.1c0,0.3-0.1,0.6-0.2,1
		c-0.1,0.3-0.2,0.7-0.2,1c-3.2,0-3.2,0-4,2.8c0,0.1-0.1,0.1-0.2,0.2c-1.3,2-1.8,3.8,1.3,4.9c0.4,0.2,0.6,0.8,0.8,1.1
		c1-0.1,1.6-0.2,2.3-0.3c0.9,2,0.5,4.3,3.1,5.5C530.1,289.1,530.4,288.5,530.7,287.9z M299.9,283c-1.6,1.5-3,2.9-1.8,4.8
		c1.3,0.4,2.3,0.9,3.4,0.9c1.9,0,3.8,1.2,5.8,0.1c1.1-0.6,2.2-2,2-3.2c-0.2-1.1-1.2-1.4-2.3-1.6C304.6,283.8,302.2,283.4,299.9,283z
		 M409.2,48.1c0.2-0.1,0.5-0.2,0.7-0.3c-0.1-0.6,0.1-1.3-0.2-1.7c-2.1-2.8-4.5-5.3-7.5-7.4c-1.2-0.8-2.4-1.7-4-2.9
		c-0.7-0.1-2-0.3-3.6-0.6c1.1,0.8,2.5,1.2,2.8,2c0.8,2.4,2.9,3.4,4.7,4.3c0.5,1.1,0.6,2.2,1.2,2.7C405.1,45.6,407.2,46.8,409.2,48.1
		z M310.1,282.7c0.1-0.1,0.7-0.2,0.9-0.6c0.5-0.8,1.3-1.8,1.2-2.6c-0.1-1.1-1.3-1.5-2.5-1.7c-1.5-0.2-3.1-0.6-4.7-0.9
		c-1.1,1.2-2.2,2.4-3.4,3.8C304.6,281.4,307,281.9,310.1,282.7z M275.1,239.8c3,1.1,3.2,4.8,7,5.1c0.5-2.7,1-5.2-1.1-7.4
		C277.4,237.3,276.5,237.7,275.1,239.8z M273.7,243.5c0.3,1.5-0.5,3.2,2,3.6c0.2,0,0.2,0.8,0.4,1.2c0.7,1.6,1.6,3.1,3.3,3.9
		c0.5,0.3,1.3,0.1,1.9,0.1c0-0.5,0.1-1,0-1.5c-0.1-0.4-0.6-0.9-0.5-1c1.3-1.8,0-2.5-1.7-3.2c-1.7-0.8-3.5-1.4-4.6-3
		C274.5,243.6,274.2,243.6,273.7,243.5z M530.4,266.1c-0.5,0.4-0.9,0.5-0.9,0.7c-0.6,2.6-0.6,5.1,1,7.5c0.7,0.9,1.5,1.3,2.7,0.6
		c0.5-0.3,1.1-0.5,1.9-0.9c-0.3-0.9-0.6-1.7-0.9-2.5c-0.8,0.4-1.3,0.7-1.7,0.9C530.6,270.5,533.2,267.8,530.4,266.1z M415.3,268.2
		c-1.6,0.3-3,0.6-4.6,0.8c-0.3,2.2,2.8,1.5,3.3,3.1c-0.1,0.9-1.2,2.2,0.7,2.7c2-0.4,2.2-1.6,2.3-2.9c2.1-0.4-0.1-2.5,1.7-3.1
		c-1.1,0.2-2.2,0.3-3.3,0.5C415.3,268.8,415.3,268.4,415.3,268.2z M529.5,296.1c1.5-3.2,3.3-5.1,7.3-3.2c-0.1-1.3-0.2-2.2-0.3-2.8
		c-1.4,0-2.4-0.1-3.4-0.1c-1.9,0.1-3.4,1-4.5,2.4C527.6,293.6,528.6,294.4,529.5,296.1z M414.7,240.6c-0.2,1.7-0.3,2.7-0.4,3.8
		c0.5,0.1,0.8,0.1,1.1,0.1c1.2,0.2,2.3,0.4,3.5,0.7c0.2-1,0.4-2,0.6-3c0-0.1-0.2-0.3-0.1-0.3C417.8,241.5,416.4,241.1,414.7,240.6z
		 M420.9,271.9c-1,0.4-2,0.7-2.9,1.1c0,3,0.9,4,4.1,4.3c-0.6-0.9-1.2-1.6-1.8-2.5C420.8,274.1,422.4,273.4,420.9,271.9z
		 M443.7,242.2c-1.3,0.2-2.4,0.3-3.6,0.5c0.1,1.4,0.2,2.5,0.3,3.7C442.9,245.7,443.3,244.2,443.7,242.2z M522.2,284.4
		c-0.8,2-1.3,3.5-2,5.3c0.3,0.3,0.8,0.9,1.4,1.5C521.3,289,524.2,287.2,522.2,284.4z M361.1,20.2c-1.2-0.6-2.2-1.2-3.3-1.5
		c-0.3-0.1-1.1,0.2-1.3,0.5c-0.2,0.3,0,0.9,0.3,1.2C357.9,21.5,358.6,21.5,361.1,20.2z M526.5,302c-1.2,1.1-0.9,2.4-0.2,3.5
		c0.2,0.3,1.2,0.1,2.2,0.2C527.8,304.3,529.4,302.4,526.5,302z M402,469.3c-0.5,0.4-0.8,0.6-1.1,0.8c-0.6,0.6-1.1,1.3-1.6,1.9
		c1.9,1.6,1.9,1.6,2.6-0.5c0.1-0.4,0.7-0.7,0.8-1.1C402.8,470.1,402.3,469.7,402,469.3z M420.4,261.8c-1,1.3-1.6,2.2-2.3,3.1
		c0.6,0.4,1.1,0.8,1.8,1.3c0.3-0.7,0.3-1.5,0.6-1.7C422.8,263.7,421.1,263,420.4,261.8z M433,98.2c-2-0.2-2.6-2.4-5.5-1.6
		c1.7,1,3,1.7,4.2,2.4C432,99,432.4,98.6,433,98.2z M381.2,20.5c1.2,1.3,2.7,1.7,4.8,1.2C384.7,19.9,383,20.1,381.2,20.5z
		 M508.8,279.2c2.8,0.4,2.5-1.3,3-2.6c-0.6-0.2-1.1-0.4-1.7-0.6C509.7,277.1,509.3,278,508.8,279.2z M532,297.9
		c-1.1,2.7-1,2.9,1.7,3.5C533.1,300.2,532.7,299.3,532,297.9z M237,514.6c-1.9-1.4-3.5-1.9-5.6-1.4
		C232.8,514.7,234.5,514.7,237,514.6z M213.4,363.7c1.2,0.2,2.4,0.6,2.8,0.3c1.3-1-0.5-1.7-0.4-3.1
		C214.9,361.9,214.3,362.6,213.4,363.7z M488.1,251.5c2.1-0.8,2.1-2.1,3-3.1C489.6,248.3,489.6,248.3,488.1,251.5z M377.6,19.3
		c-0.7-3-1.2-3.3-3.3-2.1C375.3,17.9,376.3,18.5,377.6,19.3z M514.4,322.7c2.3,0.2,2.8-0.6,1.7-2.8
		C515.6,320.8,515,321.8,514.4,322.7z M497.5,268.4c-1.8,1-1.8,1,0,2.5C499.3,270,498.1,269.2,497.5,268.4z M58.9,201.1
		c-0.1-0.2-0.3-0.4-0.4-0.6c-2.3-0.2-2.6,0.1-1.6,2.3C57.7,202.1,58.3,201.6,58.9,201.1z M520.1,302.6c-1.3,0.3-1.6-1.8-3.6-1
		C517.7,302.6,518.5,303.7,520.1,302.6z M515.9,299.2c0.7-0.7,1.2-1.2,1.9-2c-1.1-0.3-1.8-0.4-3-0.7
		C515.3,297.5,515.6,298.2,515.9,299.2z M411.6,276.3c-0.6-1.2-1-1.9-1.5-2.8c-1.5,0.8-1.2,1.7-0.7,2.3
		C409.7,276.2,410.5,276.1,411.6,276.3z M508.3,273.4c-1.5-0.8-1.5-0.8-3,0.7C506.6,274.6,507.5,274.2,508.3,273.4z M427.3,250.5
		c1.1-0.8,1-1.6,0.2-2c-0.3-0.2-1.1,0.3-1.9,0.5C426.3,249.7,426.8,250.1,427.3,250.5z M358.5,14.3c-0.8-0.2-1.6-0.3-2.5-0.5
		C357.4,15.7,357.4,15.7,358.5,14.3z M304.6,291.5c-1.3-1.2-2.1-1.2-3.4-0.2C302.4,291.4,303.2,291.4,304.6,291.5z M408.9,450
		c0.2-0.1,0.4-0.2,0.6-0.3c-0.4-0.7-0.8-1.4-1.4-2.4C406.7,449,408.1,449.4,408.9,450z M397.8,547.7c2.3-0.2,2.3-0.2,2.2-2
		C399.3,546.4,398.8,546.9,397.8,547.7z M493,257.6c0.3,0,0.6,0.1,0.8,0.1c0.2-0.7,0.3-1.3,0.6-2.4
		C492.9,256.1,492.4,256.7,493,257.6z M481.3,156.9c-1.5-0.2-1.5-0.2-2.3,1.2C480,157.5,480.7,157.2,481.3,156.9z M233.5,295
		c-0.2,0.8-0.3,1.3-0.5,2C234.9,296.7,235.2,296.3,233.5,295z M452,241.3c-0.3-0.4-0.5-0.8-0.6-0.7c-0.4,0.1-0.8,0.3-1.2,0.5
		c0.1,0.2,0.3,0.6,0.4,0.6C451,241.6,451.4,241.5,452,241.3z M454.7,272.6c-0.5-0.8-0.7-1.2-1-1.8c-0.5,0.6-0.8,1-1.3,1.7
		C453.2,272.5,453.7,272.5,454.7,272.6z M413.1,461.7c-0.2-0.2-0.4-0.4-0.6-0.6c-0.4,0.4-0.8,0.8-1.2,1.2c0.1,0.1,0.3,0.2,0.4,0.4
		C412.2,462.4,412.7,462,413.1,461.7z M416,475.9c0.1-0.3,0.1-0.6,0.2-0.9c-0.7-0.1-1.3-0.2-2-0.3c-0.1,0.2-0.1,0.4-0.2,0.6
		C414.7,475.5,415.3,475.7,416,475.9z M378.4,17.5c0.4,0.6,0.8,1.1,1.5,2.1c0-1.2,0-1.7,0.1-2.4C379.3,17.3,379,17.4,378.4,17.5z
		 M361.3,16.5c0,0.1,0.1,0.3,0.1,0.4c0.4,0,0.8,0.1,1.1,0c0.4-0.1,0.6-0.5,0.9-0.7c-0.1-0.1-0.2-0.3-0.3-0.4
		C362.5,16,361.9,16.3,361.3,16.5z M394.4,490.9c-0.2-0.1-0.5-0.2-0.7-0.4c-0.2,0.4-0.4,0.9-0.6,1.3c0.1,0.1,0.3,0.1,0.4,0.2
		C393.8,491.7,394.1,491.3,394.4,490.9z M527.3,298.8c0.2,0.1,0.5,0.2,0.7,0.3c0.2-0.4,0.4-0.7,0.6-1.1c-0.3-0.1-0.7-0.3-0.7-0.3
		C527.6,298.1,527.4,298.4,527.3,298.8z M525.1,269.4c-1.1,1.2-1.1,1.2,0.2,1.7C525.3,270.5,525.2,270,525.1,269.4z M499.5,274.6
		c0.8-0.2,2.3,0.1,1.1-1.3C500.2,273.8,499.9,274.2,499.5,274.6z"/>
	<path class="st1" d="M228.5,671.8c0-0.4,0-0.9,0-1.6c1.4,0.1,2.7,0.3,4.1,0.4c0,0.5,0,0.9,0,1.2
		C231.3,671.9,229.9,671.8,228.5,671.8z"/>
	<path class="st0" d="M339.9,226.7c-0.2-0.2-0.6-0.5-0.7-0.7c-0.1-0.7,0-1.5,0-2.4c1.9-1.7,4.8-1.2,7.5-1.9
		c-0.3-0.5-0.6-0.9-0.9-1.3c-0.5-0.9-0.7-1.9,0.2-2.7c1.3-1.1,1.1-2.1,0.5-3.4c-0.4-0.7-0.6-1.5-0.9-2.4c-0.2,0-0.9,0.2-0.9,0.1
		c-1.2-1.9-3.5-3.2-4.2-5.5c-0.4-1.1,0.2-1.9,0.5-2.7c0.3-0.8,1.1-1.5,1.8-2.3c-0.7-0.2-1.2-0.4-1.7-0.6c0.1-0.7,0.1-1.3,0.1-1.7
		c1.5-2.1,4-2.2,6.1-2.8c1.8-0.5,3.9-0.8,5.8-0.2c1.2,0.4,2.4,0.4,3.5,0.2c1.1-0.2,1.7,0.1,2.1,0.8c0.8,1.4,1.5,2.8,2.3,4.5
		c-2-0.2-2-2.7-4.2-1.7c0.8,1.1,1.4,2.2,2.3,3.2c1.3,1.6,2.2,3.4,4,4.6c0.3,0.2,0.3,0.8,0.6,1.6c-4.6-1.3-6.9-4.8-10.9-6.3
		c0.2,1.4,1.2,2.3,2,3.4c0.9,1.2,1.8,2.3,2.7,3.5c1,1.2,0.9,2.5,0.2,3.8c-2.4,1.1-3.4-1.6-5.3-1.6c0.2,1.5,0.2,2.9,0.6,4.1
		c0.2,0.7,1.1,1.4,1.8,1.9c2.7,2.1,2.7,4-0.3,5.8c-0.1,0.1-0.3,0.2-0.5,0.3c0.1,0.3,0.2,0.5,0.4,0.8c0.4,0.9-0.1,1.3-1.1,1.3
		c-1.2,0.1-2.4,0.1-3.7,0.2c-0.9-0.9-3.8-1.6-5-1.1c-0.3,0.1-0.5,0.5-0.5,0.8c-0.1,0.7-0.3,1-1.1,0.9c-0.4-0.3-2.4-1-2.7-0.9
		C340.1,226.4,340,226.7,339.9,226.7L339.9,226.7z"/>
	<path class="st0" d="M571.2,233.4c-0.2,0.5-0.5,0.9-0.8,1.5c-2.1-1-1.8-2.9-2.5-4.5c-0.6,0.1-1.1,0.1-1.9,0.2
		c-0.1-0.2-0.3-0.7-0.6-0.9c-2.5-0.9-2.1-2.4-1.1-4c0-0.1,0.1-0.1,0.2-0.2c0.7-2.3,0.7-2.3,3.3-2.3c0.1-0.3,0.1-0.5,0.2-0.8
		c0.1-0.3,0.1-0.6,0.1-0.8c0.2-0.1,0.3-0.1,0.4-0.1c0.6,0.4,1.2,0.8,2,1.2c-0.1,0.3,0.1,1-0.2,1.2c-2,1.2-1.2,3-1.2,4.5
		c0.1,1,1.4,1.9,2.2,2.9C571.3,232,571.2,232.7,571.2,233.4z"/>
	<path class="st1" d="M527.9,133.1c1,0.7,2,1.3,2.8,2.1c0.5,0.5,0.7,1.2,1.2,1.7c0.5,0.4,1.3,0.7,2,1c0.1,1.2-1.6,2.2-0.6,3.4
		c0.7,1,1.4,2,2.1,3c-2.3,1.3-3.1,1.1-6.4-1.5c0.1-0.4,0.3-0.9,0.4-1.4c0-0.4-0.2-0.8-0.1-1.2c0.6-2.2,0.4-4.3-1.3-6.1
		C527.7,133.9,527.9,133.4,527.9,133.1C527.9,133,527.9,133.1,527.9,133.1z"/>
	<path d="M532.9,218.9c0.1,0.3,0.3,0.7,0.6,1.4c-0.9-0.7-1.4-1-1.9-1.4c-1.2,1.2-2.2,2.4-3.2,3.4c-2.2,1-3.6-0.4-5.4-1.2
		c1-0.9,1.8-1.8,2.2-3.2c0.4-1.6,1.2-2.4,3.3-1.8c0.5,0.1,1,0,1.6,0.1c0.3,0.7,0.6,1.4,0.9,2C531.7,218.5,532.3,218.7,532.9,218.9
		C533,219,532.9,218.9,532.9,218.9z"/>
	<path class="st0" d="M382.9,229.4c1.9,0.3,3.8,0.6,5.8,0.9c0.9,0.1,1.7,0.4,1.9,1.3c0.1,1-0.7,2.1-1.6,2.6
		c-1.6,0.8-3.1-0.1-4.7-0.1c-0.9,0-1.7-0.5-2.8-0.8C380.4,231.8,381.5,230.7,382.9,229.4z"/>
	<path class="st1" d="M472.1,37.7c-1.6-1-3.3-2-4.9-3.2c-0.5-0.4-0.6-1.3-1-2.2c-1.4-0.7-3.1-1.6-3.8-3.5c-0.2-0.6-1.4-1-2.3-1.6
		c1.3,0.2,2.4,0.4,3,0.5c1.3,0.9,2.3,1.7,3.3,2.3c2.5,1.7,4.4,3.8,6.1,6c0.3,0.3,0.1,0.9,0.2,1.4C472.5,37.5,472.3,37.6,472.1,37.7z
		"/>
	<path class="st0" d="M391.2,229.1c-2.5-0.6-4.5-1.1-6.9-1.7c1-1.1,1.9-2.1,2.8-3.1c1.3,0.3,2.6,0.5,3.8,0.7c1,0.1,2,0.6,2.1,1.4
		c0,0.7-0.6,1.5-1,2.2C391.8,228.9,391.3,229.1,391.2,229.1z"/>
	<path class="st0" d="M362.7,194.2c1.1-1.8,1.9-2,4.8-1.9c1.7,1.9,1.3,3.9,0.9,6.1C365.3,198.1,365.2,195,362.7,194.2z"/>
	<path class="st0" d="M361.6,197.2c0.4,0.1,0.7,0.1,0.7,0.1c0.9,1.3,2.4,1.8,3.7,2.4c1.4,0.6,2.4,1.2,1.3,2.7
		c-0.1,0.1,0.4,0.5,0.4,0.8c0.1,0.4,0,0.8,0,1.2c-0.5,0-1.2,0.1-1.6-0.1c-1.4-0.7-2.1-1.9-2.7-3.2c-0.1-0.3-0.2-1-0.3-1
		C361.2,199.8,361.8,198.4,361.6,197.2z"/>
	<path class="st0" d="M571,215.6c2.3,1.4,0.1,3.6,1.8,5.1c0.3-0.2,0.7-0.4,1.4-0.7c0.2,0.7,0.5,1.4,0.7,2.1
		c-0.6,0.3-1.1,0.5-1.5,0.7c-0.9,0.5-1.6,0.3-2.2-0.5c-1.4-1.9-1.3-4-0.8-6.1C570.3,216,570.6,215.9,571,215.6z"/>
	<path class="st0" d="M343,227.6c0.9,0.2,1.7,0.4,2.6,0.7c-1.8,0.6-2.8,1.7-3.6,3c-0.5,0.9-1.3,1.3-2.3,0.9
		c-1.1-0.5-0.7-1.3-0.5-2.1c0.3-1.1,0.5-2.2,0.7-3.2c0,0-0.1,0.1-0.1,0.1c0.5,0.3,1,0.6,1.7,1.1C341.8,227.8,342.4,227.7,343,227.6z
		"/>
	<path class="st0" d="M477.1,217.3c0,0.2,0,0.5,0,0.9c0.9-0.1,1.8-0.3,2.7-0.4c-1.4,0.5,0.4,2.3-1.4,2.6c-0.1,1.1-0.3,2.1-1.9,2.4
		c-1.6-0.4-0.6-1.5-0.5-2.2c-0.4-1.3-3-0.7-2.7-2.5C474.6,217.8,475.8,217.5,477.1,217.3z"/>
	<path class="st0" d="M571.2,233.4c0-0.7,0.1-1.4,0.1-2.1c0.8-1.8-0.1-3.5-0.3-5.2c-0.1-0.5-0.1-1,0.3-1.6c0.6,1,1.6,2,1.6,2.9
		c-0.1,2,1.2,3.5,1.4,5.4c0,0.4-0.4,0.8-0.8,1.4C572.7,233.9,572,233.6,571.2,233.4z"/>
	<path class="st0" d="M570.2,240c-0.7-1.4-1.5-2-0.7-3c0.9-1.1,2.1-1.8,3.7-1.9c0.8-0.1,1.6,0,2.8,0c0,0.5,0.1,1.2,0.2,2.3
		C572.9,235.9,571.4,237.4,570.2,240z"/>
	<path class="st0" d="M476.6,194.8c1.4,0.4,2.5,0.7,3.8,1.1c0-0.1,0.1,0.1,0.1,0.2c-0.2,0.8-0.3,1.6-0.5,2.5
		c-0.9-0.2-1.9-0.4-2.8-0.5c-0.2,0-0.5-0.1-0.9-0.1C476.3,197,476.4,196.2,476.6,194.8z"/>
	<path class="st0" d="M481.6,220.3c1.3,1.2,0,1.8-0.5,2.3c0.5,0.7,1,1.3,1.5,2.1c-2.6-0.3-3.3-1.1-3.3-3.5
		C480,220.9,480.8,220.6,481.6,220.3z"/>
	<path class="st0" d="M500.2,196.1c-0.3,1.6-0.6,2.9-2.7,3.4c-0.1-1-0.2-1.9-0.3-3C498.3,196.4,499.2,196.2,500.2,196.1z"/>
	<path class="st0" d="M557.2,253.2c-0.9,0-1.9,0.1-3,0.1c0.4-0.9,0.7-1.6,1-2.4c0,0-0.1,0-0.1,0c0.5-0.1,1.3,0.4,1.3-0.6
		c0-1,0.9-1,2-1.2c-0.5,1.3-2.5,2.1-1.2,3.5C557.3,252.8,557.2,253,557.2,253.2z"/>
	<path class="st0" d="M564.2,230.5c1.7,2.3-0.7,3.8-0.5,5.6c-0.4-0.5-0.9-1-1.1-1.2C563.1,233.4,563.6,232.2,564.2,230.5z"/>
	<path class="st1" d="M432.9,15c-2,1.1-2.6,1.1-3.5,0.1c-0.2-0.3-0.4-0.7-0.2-1c0.1-0.2,0.8-0.5,1-0.4C431.1,14,431.9,14.5,432.9,15
		z"/>
	<path class="st0" d="M567.8,244.9c2.4,0.3,1,1.8,1.6,3.1c-0.8-0.1-1.6,0-1.8-0.2C567,246.8,566.8,245.8,567.8,244.9z"/>
	<path class="st1" d="M419.7,7.6c2.2,0.4,2.2,0.5,2.5,2.2c-1.3,0.3-2.3,0.2-3.1-0.8C419.3,8.4,419.5,8,419.7,7.6L419.7,7.6z"/>
	<path class="st1" d="M466.2,381.3c0.3,0.4,0.6,0.7,0.6,0.9c-0.1,0.3-0.5,0.6-0.6,0.9c-0.6,1.7-0.5,1.7-2.1,0.4
		c0.4-0.5,0.8-1.1,1.3-1.6C465.5,381.8,465.8,381.6,466.2,381.3z"/>
	<path class="st0" d="M481.2,212.1c0.6,1,2,1.6,0.1,2.3c-0.3,0.1-0.3,0.7-0.5,1.4c-0.5-0.4-1-0.7-1.4-1.1
		C479.9,213.9,480.4,213.1,481.2,212.1z"/>
	<path class="st1" d="M485.5,343.4c0.3,0.6,0.5,1.3,0.9,2.1c-1.2,0.1-2,0.1-2.7,0.2C482.9,343.9,485.1,344.2,485.5,343.4
		C485.6,343.3,485.5,343.4,485.5,343.4z"/>
	<path class="st1" d="M491.5,78.6c-0.5,0.3-0.9,0.7-1,0.6c-1.1-0.5-2.1-1.1-3.5-1.9C489.4,76.6,489.9,78.4,491.5,78.6z"/>
	<path class="st1" d="M449.2,15.2c1.5-0.4,2.8-0.5,3.9,1C451.5,16.7,450.2,16.3,449.2,15.2z"/>
	<path class="st0" d="M553.4,226.3c0.4-1,0.7-1.7,1-2.6c0.5,0.2,0.9,0.3,1.4,0.5C555.4,225.2,555.6,226.6,553.4,226.3z"/>
	<path class="st0" d="M572.3,241.5c0.6,1.1,0.9,1.9,1.4,2.8C571.4,243.9,571.4,243.8,572.3,241.5z"/>
	<path class="st1" d="M331.6,418.3c-2,0.1-3.4,0.1-4.6-1.2C328.8,416.7,330,417.1,331.6,418.3z"/>
	<path class="st0" d="M312.3,295.2c0.8-0.9,1.2-1.4,1.9-2.3c-0.1,1.1,1.4,1.7,0.3,2.5C314.3,295.7,313.4,295.3,312.3,295.2z"/>
	<path class="st0" d="M477.5,207.5c2-0.3,2-0.3,2.6,1.5C478.1,210,478.4,208,477.5,207.5C477.5,207.5,477.5,207.5,477.5,207.5z"/>
	<path d="M343,227.6c-0.6,0.1-1.2,0.2-1.4,0.2c-0.7-0.4-1.2-0.7-1.7-1.1c0.2-0.2,0.3-0.4,0.5-0.5c0.3-0.1,2.3,0.6,2.7,0.9
		C343,227.4,343,227.5,343,227.6z"/>
	<path class="st1" d="M536.4,203.7c1.2-2.6,1.2-2.6,2.5-2.5C538.2,202,538.1,203.1,536.4,203.7z"/>
	<path class="st1" d="M446.3,14.3c-1.1-0.7-1.8-1.2-2.7-1.7C445.3,11.6,445.7,11.8,446.3,14.3z"/>
	<path d="M490.6,75.2c-1.3-0.1-1.4-1-1.7-2.1c1.7,0.1,1.6,1.2,1.9,2C490.8,75.1,490.6,75.2,490.6,75.2z"/>
	<path class="st0" d="M557.9,261.8c0.5-0.8,1-1.6,1.4-2.3C560.1,261.3,559.8,262,557.9,261.8z"/>
	<path class="st0" d="M544.2,217.5c0.5,0.7,1.4,1.3,0,2C542.7,218.3,542.7,218.3,544.2,217.5z"/>
	<path class="st1" d="M186.3,162.5c-0.5,0.4-1,0.9-1.6,1.4c-0.8-1.8-0.5-2,1.3-1.9C186.1,162.2,186.2,162.4,186.3,162.5z"/>
	<path class="st0" d="M562.6,245.4c-1.4,0.9-2,0-2.9-0.8C561.3,243.9,561.5,245.6,562.6,245.4z"/>
	<path class="st0" d="M559.2,242.6c-0.3-0.8-0.5-1.3-0.8-2.2c0.9,0.2,1.5,0.3,2.4,0.6C560.1,241.6,559.8,242,559.2,242.6z"/>
	<path class="st0" d="M474.1,223.9c-0.9-0.2-1.6-0.1-1.8-0.3c-0.5-0.6-0.6-1.2,0.5-1.9C473.2,222.4,473.5,222.9,474.1,223.9z"/>
	<path class="st1" d="M419.8,7.5c-0.9-0.1-1.9-0.2-3-0.4c0.6-0.7,1.1-1.2,2.2-0.8C419.6,6.6,420,6.9,419.8,7.5
		C419.7,7.6,419.8,7.5,419.8,7.5z"/>
	<path class="st0" d="M552.9,221.6c-0.7,0.6-1.4,0.9-2.4,0.6C551.7,220.9,551.7,220.9,552.9,221.6z"/>
	<path class="st0" d="M486.8,202.9c-0.4-0.4-0.8-0.7-1.4-1.2c0.7-0.2,1.3-0.6,1.6-0.4C487.7,201.6,487.8,202.2,486.8,202.9z"/>
	<path class="st1" d="M430.7,10.2c-0.8,1.1-0.8,1.1-2-0.4C429.4,9.9,430,10.1,430.7,10.2z"/>
	<path class="st0" d="M386.7,236.3c-1.1-0.1-1.8-0.1-2.8-0.2C385,235.3,385.7,235.3,386.7,236.3z"/>
	<path class="st0" d="M557.2,253.2c0-0.2,0.1-0.4,0.1-0.6c0.5-0.1,1-0.2,1.6-0.2c0.1,0.6,0.2,1,0.3,1.5
		C558.4,253.6,557.8,253.4,557.2,253.2z"/>
	<path class="st1" d="M458.6,249.4c0.1,0.3,0.3,0.5,0.4,0.8c-0.3,0.1-0.6,0.2-0.9,0.3c-0.2,0.1-0.3,0.3-0.5,0.4
		C456.6,249.7,457.5,249.5,458.6,249.4z"/>
	<path class="st1" d="M471.8,365.6c-0.6-0.5-1.8-0.8-0.6-2.2c0.5,0.8,0.8,1.4,1.1,2C472.2,365.4,472,365.5,471.8,365.6z"/>
	<path class="st1" d="M462.8,445.3c0.8-0.7,1.2-1.1,1.8-1.6C464.6,445.1,464.6,445.1,462.8,445.3z"/>
	<path class="st0" d="M540.5,208.6c-0.5-0.7-0.1-1.2,1.2-1.9c-0.2,0.9-0.4,1.4-0.5,2C540.9,208.7,540.7,208.7,540.5,208.6z"/>
	<path class="st1" d="M530.9,126.5c-0.5,0.3-1,0.5-1.9,1C529.7,126.3,529.7,126.3,530.9,126.5z"/>
	<path class="st0" d="M507,195.4c-0.5,0.1-0.8,0.3-1.2,0.3c-0.1,0-0.2-0.3-0.3-0.5c0.3-0.2,0.6-0.3,1-0.4
		C506.5,194.7,506.7,195,507,195.4z"/>
	<path class="st1" d="M509.2,220.9c-0.9-0.1-1.2-0.1-1.9-0.1c0.4-0.5,0.7-0.8,1.1-1.4C508.7,219.9,508.9,220.2,509.2,220.9z"/>
	<path d="M300.3,514.5c0.2,0,0.3,0,0.5,0.1c0.1,0,0.2,0.1,0.4,0.2c-0.4,0.4-0.8,0.8-1.4,1.5c0-0.7,0-0.9,0-1.2
		C299.9,514.8,300.1,514.6,300.3,514.5z"/>
	<path class="st1" d="M475.3,375.2c-0.4,0.3-0.7,0.5-1.1,0.8c-0.1-0.1-0.2-0.2-0.4-0.3c0.3-0.3,0.6-0.7,1-1
		C475,374.8,475.1,375,475.3,375.2z"/>
	<path class="st1" d="M477.6,386.7c-0.5-0.1-1-0.3-1.6-0.4c0-0.2,0.1-0.3,0.1-0.5c0.5,0.1,1.1,0.1,1.6,0.2
		C477.7,386.2,477.7,386.5,477.6,386.7z"/>
	<path class="st1" d="M446.9,12.8c0.5-0.1,0.8-0.1,1.2-0.2c0,0.5,0,1,0,1.9C447.6,13.7,447.3,13.3,446.9,12.8z"/>
	<path class="st1" d="M433,12c0.5-0.2,1-0.4,1.5-0.6c0.1,0.1,0.2,0.2,0.2,0.3c-0.2,0.2-0.4,0.5-0.7,0.6c-0.3,0.1-0.6,0-0.9,0
		C433.1,12.2,433,12.1,433,12z"/>
	<path class="st1" d="M460,399c-0.2,0.3-0.5,0.6-0.7,1c-0.1-0.1-0.2-0.1-0.4-0.2c0.2-0.4,0.3-0.7,0.5-1.1
		C459.6,398.8,459.8,398.9,460,399z"/>
	<path class="st0" d="M568.4,242.3c0.1-0.3,0.3-0.6,0.4-0.9c0,0,0.4,0.1,0.6,0.2c-0.2,0.3-0.3,0.6-0.5,0.9
		C568.8,242.4,568.6,242.4,568.4,242.3z"/>
	<path class="st0" d="M566.7,218.3c0.1,0.5,0.1,0.9,0.2,1.3C565.8,219.3,565.8,219.3,566.7,218.3z"/>
	<path class="st0" d="M545.8,222.6c0.3-0.3,0.6-0.6,0.9-1.1C547.6,222.6,546.4,222.4,545.8,222.6z"/>
	<path d="M391.7,256c-1.3,2-4,2.1-4.8,4.2c-0.6,1.7-1.8,3.3-2.8,5c-1.7-0.1-1.1-1.4-1.8-2.3c2-1,2.5-2.8,3.2-4.6c-0.8,0-1.6,0-2.1,0
		c-1.6,1.7-3.2,3.4-5,5.3c-0.1-1.1-0.1-1.8-0.2-2.6c-1.4,0.2-2,1-2.6,1.8c-0.2,0.3-0.3,0.8-0.6,0.9c-0.7,0.3-1.7,0.8-2.3,0.6
		c-1.2-0.4-0.3-1.3-0.2-2c0.1-0.5,0.4-0.9,0.8-1.6c-1.7,0.3-2.8,1.6-4.5,1c0.2-1.4,0.5-2.8-1.1-3.9c-0.3-0.2-0.1-1-0.1-1.7
		c1.5-0.8,3-1.7,4.9-0.4c-0.6,0.6-1.2,1.1-1.7,1.7c0.5,0.9,1.2,0.7,1.8,0.5c3.3-1.2,6.7-1,10.1-1.1c2.2-0.1,4.7,0.6,6.8-0.7
		C389.9,255.8,390.6,256,391.7,256z"/>
	<path d="M451,408.7c-1.4,0-2,0-2.8-0.1c-0.8-1-0.2-2.1,0.1-3.3c-1-0.9-1.9-2-1.9-3.4c-0.1-1.6-2.1-2.2-2.7-3.7c-0.1-0.2-2-0.1-2,0
		c-0.3,1.9-2,1.7-3.7,2c-0.3-0.3-0.6-0.8-1-1.3c0.9-0.5,1.1-1.9,2.6-1.2c0.7-0.9,1.5-1.7,2.1-2.6c0.2-0.2,0.1-0.6,0.1-1.1
		c1.7,1,3.3,1.7,4.3,3.6c1.1-0.3,2.5-0.7,4-1.2c0.7,1.1,3.2,1.5,2.3,3.6c-0.4,1.1-1.7,1.9-3.2,1.9c0.3,0.6,0.5,1.4,0.9,1.5
		c2.1,0.5,3.7,1.3,4.2,3.3c0,0.2,0.5,0.3,1.3,0.6c-0.7,0.7-1.2,1.2-1.7,1.7c-0.3-0.2-0.5-0.4-0.8-0.5c0.1-0.4,0.1-0.7,0.2-1.2
		c-1-1.3-2.5-1.4-4.2-0.7C449.8,407.2,450.3,407.8,451,408.7z"/>
	<path d="M471.6,459.9c0.2,0.5,0.6,1-0.2,1.3c-0.5,0.3-1,0.6-1.5,0.9c-0.4-0.1-0.8-0.3-1.2-0.4c-0.7,0.6-1.4,1.3-2.2,2
		c-0.2,0.7,1.3,1.6,0,2.3c-0.3,0.2-1-0.1-1.6-0.2c0.4-1.4,0.8-2.5,1.2-3.8c-1.6,0-3.1-0.1-5.2-0.1c1.1-1.4,1.8-2.5,2.8-3.3
		c0.8-0.7,1.4-1.2,1.4-2.4c0-1.3,0.7-1.4,2.3-0.4c-0.8,0.9-1.6,1.8-2.1,2.5c0.7,1,1.2,1.7,1.9,2.7
		C468.4,461,469.7,459.2,471.6,459.9C471.6,459.9,471.6,459.9,471.6,459.9z"/>
	<path d="M510.3,189.6c0.9-0.6,0.9-1.2-0.2-1.8c3,0,5.6,1.5,8.8,1.1c-0.7,1.2-1.1,2-1.6,2.8c-0.9-0.4-1.6-0.7-2.7-1.2
		c0.6,1,1,1.7,1.5,2.5c-1.2,0.1-2.1,0.4-2.7,1.7C512.4,192.6,512.6,190.4,510.3,189.6C510.2,189.5,510.3,189.6,510.3,189.6z"/>
	<path d="M514.1,204.8c1.3,0.3,2.5,0.6,3.7,0.9c-0.1,0.5-0.2,1.1-0.4,1.7c-0.1,0.2-0.3,0.4-0.2,0.3c0.6,1.1,1.2,2.1,1.8,3.2
		c-2.2,0.9-1.9-1.1-3-1.5c-1.9,0-0.5,2.6-2.6,2.6c-0.4-0.7-0.6-1.5,0.2-2c1-0.6,0.7-1,0.1-1.7C512.3,206.8,512.5,205.9,514.1,204.8z
		"/>
	<path d="M524.1,188.4c-2.8-0.5-3.5-2.2-4.1-4.1c1.6-1.6,2.5,0.9,4,0.3c0.1,1,0.2,1.9,0.3,2.8c0.2-0.2,0.5-0.4,0.7-0.6
		c0.9,1.4,1.8,2.8,2.7,4.2c-0.2,0.2-0.7,0.6-1.1,1.1c-0.3,0.5-0.5,1-0.7,1.5c-0.2,0-0.4,0-0.6-0.1c-0.1-0.9-0.1-1.8-0.4-2.7
		C524.5,190,523.2,189.5,524.1,188.4z"/>
	<path d="M517.4,174.5c0.6-0.5-0.6-1.5,0.8-1.9c0.6-0.2,1.4,0.2,2.2,0.3c-0.3,0.8-0.5,1.3-0.8,1.7c-0.8,0.9-1.3,1.7-0.2,2.8
		c0.2,0.2,0.2,0.9-0.1,1.2c-0.2,0.3-0.8,0.3-1.3,0.3c-1.8,0.1-2-1.5-3.3-2.3C515.7,175.7,516.5,175.1,517.4,174.5z"/>
	<path d="M453.9,378.8c-0.3,0-0.5,0-0.8,0.1c-1,0.4-2,0.3-2.6-0.3c-0.6-0.7-1-1.6,0-2.5c0.1-0.1,0-0.3,0-0.4
		c-0.8-1.3-4.1-0.8-3.3-3.4c1.2-0.3,2.4-0.5,3.7-0.8c0.1,1.2,0.3,2.3,0.2,3.3c-0.1,1.1,0.5,1.7,1.3,2.3
		C452.9,377.6,453.4,378.2,453.9,378.8C453.9,378.8,453.9,378.8,453.9,378.8z"/>
	<path d="M395.9,174.6c-0.6-0.5-1.2-1-1.9-1.6c0.2-0.2,0.6-0.7,0.8-0.6c1.8,0.6,4.2,0.2,5.3,2.1c1.1,0,2.3,0,3.4,0.1
		c0,0.2,0,0.4,0,0.6c-1,0.1-1.9,0.3-2.9,0.2C399,175.1,397.4,174.8,395.9,174.6C395.8,174.6,395.9,174.6,395.9,174.6z"/>
	<path d="M406.9,202.8c0.7,0.2,1.4,0.3,2.1,0.5c0.6,0.2,1.2,0.7,1.6,0.5c1.8-0.5,2.4,0.6,3.5,1.6c-0.7,0.5-1.3,1-2.1,1.5
		c-0.7-1.2-1.4-1.9-3-1.8c-0.8,0-1.6-1.2-2.4-1.8C406.7,203.2,406.8,203,406.9,202.8z"/>
	<path d="M330.7,457.7c0.4-1.1,0.6-1.8,0.8-2.5c1.1,0.2,2.3,0.4,3.1-0.7c0.3-0.5,1.3-0.6,2-0.7c-0.2,0.5-1.3,0.5-0.7,1.5
		c0.2,0.4-0.4,1.3-0.9,1.7c-0.5,0.4-1.3,0.5-2,0.7C332.4,457.7,331.7,457.6,330.7,457.7z"/>
	<path d="M497.9,234.2c1.1-1.3,3.2,0.1,3.5-1.7c1.9,2.7,1.8,2.9-2.2,3.9C498.7,235.7,498.2,234.9,497.9,234.2z"/>
	<path d="M403.7,270.8c0,1.2-1,1.7-2.6,2.1c-1.3,0.3-2-0.2-2.4-1.1c-0.1-0.3,0.2-1,0.4-1.1c1.1-0.3,2.3-0.5,3.5-0.6
		C403,270.1,403.5,270.7,403.7,270.8z"/>
	<path d="M449.7,419.3c2.6-0.2,3.5,1.5,5.6,2.7c-2,0.2-3.3,1-4.8,0.1C449,421.3,450.3,420.3,449.7,419.3z"/>
	<path d="M345.7,430.5c-3.5,0.1-3.5,0.1-4.1-1.3c2.1,0.1,4.2-0.6,6.1,0.8c0.7,0.5,1.3,0.9,0.7,1.6c-0.7,0.8-1.5,0.4-2.1-0.4
		C346.2,430.9,345.9,430.7,345.7,430.5z"/>
	<path d="M515.9,182.2c1.5,1.6,2.3,2.6,1.1,4.1c-0.3,0.4-0.3,1.1-0.6,1.9c-0.8-0.6-1.4-1.1-1.9-1.5
		C515,185.2,515.4,183.9,515.9,182.2z"/>
	<path d="M454.5,206.6c-0.5,0.8-0.8,1.1-1.1,1.6c-2.4-0.5-5.1-0.6-7.5-1.5C448.7,206,451.4,207.1,454.5,206.6z"/>
	<path d="M420.3,12c1.8,2.2,3,3.6,4.4,5.3c-1.8,0.2-2.7-0.3-3.3-1.2c-0.7-0.9-1.1-2-1.5-3C419.7,12.9,420.1,12.5,420.3,12z"/>
	<path d="M460.8,365.5c-0.8,1.2-1.4,2.1-2.2,3.2c-1-0.8-2.3-1.3-1.6-2.6C457.8,364.6,459.3,365.3,460.8,365.5z"/>
	<path d="M536.6,277.3c0.3,1.2,1.1,2.5-1,3.2c-0.4,0.1-0.4,1.2-0.6,2c-0.5,0-1.1,0-2.2,0.1C534.2,280.6,535.5,279,536.6,277.3
		C536.7,277.3,536.6,277.3,536.6,277.3z"/>
	<path d="M461,179.4c1,0.2,2,0.3,2.9,0.5c1.5,0.3,1.8,0.9,1.3,2.6C463,182.4,462.5,180.2,461,179.4z"/>
	<path d="M538.7,385.1c1.5-1.2,2.5-2,3.6-2.8c1.1,1.2,1.1,1.2-0.2,3.1C541.2,385.4,540.3,385.3,538.7,385.1z"/>
	<path d="M469.5,212.2c-1.2,0.2-2.2,0.3-3.7,0.5c0.5-1.2,0.8-1.9,1.1-2.7C469,210,469,210,469.5,212.2z"/>
	<path d="M536.3,231c0.4,1.4,0.6,2.3,0.9,3.2c-0.9,0.3-1.7,0.5-2.6,0.8C533.7,233.3,535.5,232.5,536.3,231z"/>
	<path d="M514,215.2c-0.5,0.2-1.1,0.4-1.7,0.6c-1.1-0.7-2.2-1.5-3.5-2.4c0.9-0.3,1.7-0.5,2.4-0.8C512,213.6,512,215.2,514,215.2
		C514,215.2,514,215.2,514,215.2z"/>
	<path d="M489.9,190.1c-0.8-0.7-1.5-1.1-1.8-1.7c-0.3-0.6,0.7-1.5,1.3-1.2c0.7,0.3,1.2,0.9,1.6,1.5
		C491.1,188.9,490.4,189.5,489.9,190.1z"/>
	<path d="M337,271.9c-0.4,0.8-0.4,1.5-0.8,1.6c-0.6,0.3-1.4,0.4-2.2,0.4c-0.2,0-0.7-0.5-0.6-0.6c0.2-0.5,0.4-1.1,0.8-1.3
		C334.9,271.9,335.7,272,337,271.9z"/>
	<path d="M507.6,179.4c0.5,1,1,1.9,1.6,3.1c-1.1,0.2-1.5,1.3-2.9,0.5c0.4-0.6,0.8-1.1,1.2-1.7C507.1,180.8,505.9,180.2,507.6,179.4z
		"/>
	<path d="M507.2,307.9c0.7,0.1,1.4,0.3,2.3,0.4c-0.3,1.1-0.3,2.4-1.8,2.2c-1.8-0.2-0.5-1.5-1-2.3C506.9,308.1,507,308,507.2,307.9z"
		/>
	<path d="M498,182.4c0.6,0.6,1.2,1,1.8,1.6c-0.6,0.7-1.1,1.2-1.8,2C496.9,184.7,496.7,183.7,498,182.4z"/>
	<path d="M345.1,450.5c0.5-1.6,1.4-1.7,2.4-1.5c0.3,0.1,0.7,0.5,0.7,0.7c0,0.3-0.4,0.7-0.7,0.7C346.8,450.6,346,450.5,345.1,450.5z"
		/>
	<path d="M440.3,413.4c0.5-1,0.8-1.6,1.3-2.6c0.8,0.6,1.3,1,2.2,1.6C442.5,412.8,441.7,413,440.3,413.4z"/>
	<path d="M447.8,409.7c0.5,0.3,1.6,0.6,1.6,0.8c0,0.6-0.5,1.2-0.9,1.8c-1.8-0.3-0.8-1.4-1.2-2.1C447.4,410,447.6,409.9,447.8,409.7z
		"/>
	<path d="M325,456.8c0.8-0.3,1.5-0.6,2.2-0.9c0.5,0.4,0.9,0.8,1.5,1.3c-0.2,0.2-0.3,0.4-0.5,0.5c-0.8,0.4-1-0.2-1.3-0.7
		c-0.3,0.3-0.3,1-1.1,0.5C325.6,457.3,325.4,457,325,456.8z"/>
	<path d="M548.7,241c0.4-0.4,0.8-0.8,1.4-1.3c0.5,0.7,0.9,1.3,1.4,2C550,242.3,549.3,241.9,548.7,241z"/>
	<path d="M538.3,224.9c0,0.3-0.1,0.7-0.1,1.1c-1-0.1-1.8-0.2-2.8-0.4c0-0.3,0-0.8,0-1C536.4,224.8,537.3,224.9,538.3,224.9z"/>
	<path d="M462.6,214.6c0.5,0.6,1,1.1,1.5,1.7c-0.1,0.1-0.2,0.3-0.4,0.4c-0.8-0.3-1.6-0.6-2.8-0.9C461.5,215.3,462,215,462.6,214.6z"
		/>
	<path d="M502.6,119.7c-0.3,1.3-0.9,1.7-1.9,1.2c-0.4-0.2-0.4-0.8-0.7-1.2C500.9,119.6,501.7,119.7,502.6,119.7z"/>
	<path d="M466,233.2c-1.5,0.6-2.6,1-3.7,1.4C463.2,233.8,463.6,232.1,466,233.2z"/>
	<path d="M457.7,433.3c-0.3,0.6-0.3,1.1-0.6,1.2c-0.9,0.3-1.7,0.3-2.3-0.8C455.7,433.6,456.5,433.5,457.7,433.3z"/>
	<path d="M482.4,181.9c-1.2-0.7-1.4-1.3-0.3-2.2C483,180.6,483,180.6,482.4,181.9z"/>
	<path d="M461.3,211.1c-0.9-0.7-1.4-1.1-2-1.6C460.7,208.6,460.9,208.7,461.3,211.1z"/>
	<path d="M533.6,186c-0.5-1.1-0.6-2.1,1-2.5C534.2,184.4,533.9,185.2,533.6,186z"/>
	<path d="M460.8,394.7c-0.7,0.4-1.4,1.4-2.4,0.1c0.4-0.4,0.8-0.8,1.1-1.2C460.1,394,460.5,394.4,460.8,394.7
		C460.9,394.7,460.8,394.7,460.8,394.7z"/>
	<path d="M484.7,61.7c-0.3-0.8-0.6-1.6-0.9-2.4c0.2-0.1,0.4-0.1,0.6-0.2c0.5,0.8,1.2,1.4,1.2,2.4C485.3,61.6,485,61.7,484.7,61.7z"
		/>
	<path d="M438.3,199.7c1.2-0.5,1.8-0.4,1.9,0.4c0,0.3-0.4,0.6-0.5,0.8C439.2,200.6,438.8,200.2,438.3,199.7z"/>
	<path d="M550.1,233.8c-0.4-0.4-0.8-0.6-0.8-0.9c0-0.3,0.3-0.5,0.5-0.8c0.3,0.2,0.8,0.4,0.9,0.7C550.8,233,550.4,233.4,550.1,233.8z
		"/>
	<path d="M337.9,453.7c1.7,0.1,1.8,0.8,1.6,1.5c0,0.2-0.6,0.4-0.8,0.3c-1-0.4,0.3-0.4,0.2-0.7C338.7,454.5,338.4,454.3,337.9,453.7z
		"/>
	<path d="M530,211.4c-0.8-0.4-1.8,0.4-3-0.4C529.1,210.7,529.1,210.7,530,211.4z"/>
	<path d="M389.4,14.4c1,0.3,1,0.3,1.5,1.3C389.7,15.3,389.7,15.3,389.4,14.4z"/>
	<path d="M528.2,120.4c-0.5,0.2-1,0.4-1.5,0.5c-0.1-0.2-0.3-0.6-0.2-0.6c0.5-0.2,1-0.4,1.5-0.5C528,120,528.1,120.2,528.2,120.4z"/>
	<path d="M454.9,394.3c-0.7,0-1.2,0-1.8,0C453.7,393.4,453.7,393.4,454.9,394.3z"/>
	<path d="M530,191.8c0.6-0.4,1.1-0.6,1.7-1c0,0.5,0.1,1,0.1,1.6C531.1,192.2,530.6,192,530,191.8z"/>
	<path d="M498.2,190.3c-0.6-0.2-1.2-0.3-1.8-0.5c0.2-0.3,0.3-0.7,0.6-1.2C497.5,189.4,497.8,189.8,498.2,190.3
		C498.1,190.3,498.2,190.3,498.2,190.3z"/>
	<path d="M454.7,214.3c0.4-0.2,0.7-0.5,1-0.5c0.2,0,0.4,0.3,0.6,0.5c-0.3,0.2-0.5,0.5-0.8,0.6C455.4,215,455.1,214.6,454.7,214.3z"
		/>
	<path d="M276.9,314.8c0.2,0.3,0.4,0.5,0.4,0.6c0,0.2-0.3,0.3-0.4,0.4c-0.1-0.2-0.4-0.3-0.4-0.5
		C276.5,315.3,276.7,315.1,276.9,314.8z"/>
	<path d="M478.2,338.4c-1.5-0.2-1.4-0.7-0.8-1.7C477.6,337.3,477.9,337.7,478.2,338.4z"/>
	<path d="M468,208.5c0.5,0,0.9-0.1,1.4-0.1c0,0.1,0.1,0.3,0.1,0.4c-0.5,0.1-0.9,0.2-1.4,0.3C468,208.9,468,208.7,468,208.5z"/>
	<path d="M550.1,238.8c0-0.3-0.2-0.6-0.1-0.9c0.1-0.2,0.5-0.2,1.1-0.5c-0.2,0.7-0.3,1.1-0.5,1.4
		C550.4,238.8,550.2,238.8,550.1,238.8z"/>
	<path d="M519.4,293.9c0-0.7-0.1-1.4-0.1-2.1c0.1,0,0.2,0,0.3,0c0,0.7,0,1.4,0,2.1C519.5,293.9,519.5,293.9,519.4,293.9z"/>
	<path d="M527.9,279.9c0.3-0.4,0.5-0.8,0.8-1.1c0.2,0.1,0.3,0.1,0.5,0.2c-0.2,0.4-0.5,0.8-0.7,1.2
		C528.3,280.1,528.1,280,527.9,279.9z"/>
	<path d="M427.1,188.7c0.4-0.2,0.8-0.5,1.1-0.7c0.1,0.1,0.1,0.2,0.2,0.3c-0.4,0.2-0.8,0.4-1.2,0.6
		C427.2,188.9,427.2,188.8,427.1,188.7z"/>
	<path d="M493.2,330c0.4-0.3,0.8-0.6,1.2-0.9c0.1,0.1,0.3,0.2,0.4,0.3c-0.3,0.4-0.7,0.7-1,1.1C493.6,330.4,493.4,330.2,493.2,330z"
		/>
	<path d="M513.5,171.7c0.2-0.2,0.4-0.3,0.6-0.4c0.2,0.2,0.3,0.4,0.5,0.6c-0.2,0.1-0.4,0.3-0.5,0.3
		C513.8,172.2,513.7,172,513.5,171.7z"/>
	<path d="M514.3,224.5c0,0.6-0.1,0.9-0.1,1.5c-0.4-0.3-0.8-0.6-1.1-0.8C513.4,225,513.8,224.8,514.3,224.5z"/>
	<path d="M321.4,456.6c0.6-0.1,1.2-0.1,1.8-0.2c0,0.1,0,0.2,0,0.4c-0.6,0-1.2,0-1.8,0C321.4,456.7,321.4,456.6,321.4,456.6z"/>
	<path d="M319.1,429.2c-0.3,0.2-0.5,0.4-0.7,0.3c-0.2-0.1-0.3-0.3-0.5-0.5c0.2-0.1,0.3-0.3,0.5-0.3
		C318.6,428.8,318.8,429,319.1,429.2z"/>
	<path d="M448.6,200c0.5-1.1,1-1.1,1.7-0.1C449.7,199.9,449.3,199.9,448.6,200z"/>
</g>
<text transform="matrix(1 0 0 1 0 278.5608)"><tspan x="0" y="0" class="st2 st3">Who I</tspan><tspan x="29.3" y="50" class="st2 st3">Am</tspan></text>
</svg>
